<svg id="Layer_1" enable-background="new 0 0 511.991 511.991" height="512" viewBox="0 0 511.991 511.991" width="512" xmlns="http://www.w3.org/2000/svg"><g><path d="m137.611 157.555-84.784-20.968c-4.096-30.685 5.626-62.862 29.207-86.443s55.758-33.303 86.443-29.207l22.03 89.078z" fill="#fffae5"/><path d="m67.873 35.984c23.204-23.205 54.064-35.984 86.897-35.984 2.861 0 5.736.102 8.603.302l9.817 39.695-20.609.086c-21.314.548-41.263 9.101-56.386 24.223-15.236 15.236-23.733 35.263-24.242 56.381l-.077 20.611-39.693-9.816c-2.537-35.608 10.24-70.049 35.69-95.498z" fill="#90ea8f"/><path d="m93.169 205.577c-3.019 15.384-4.613 31.389-4.613 47.822 0 80.187 37.933 150.183 94.292 187.585h187.985c56.359-37.401 94.292-107.398 94.292-187.585 0-16.433-1.594-32.438-4.613-47.822z" fill="#fffae5"/><path d="m460.511 205.577h-183.671v235.407h93.993c56.359-37.401 94.292-107.398 94.292-187.585 0-16.433-1.594-32.438-4.614-47.822z" fill="#fff486"/><path d="m310.032 272.839h82.81v82.811h-82.81z" fill="#fff486"/><path d="m310.032 272.839h82.81v82.811h-82.81z" fill="#ffd300"/><path d="m175.507 299.172h82.81v82.811h-82.81z" fill="#fff486"/><path d="m422.1 91.447-4.488-5.219h-281.543l-4.488 5.219c-37.418 43.505-58.024 101.021-58.024 161.952 0 41.078 9.567 81.428 27.667 116.687 16.367 31.886 39.3 58.957 66.624 78.744v63.161h217.985v-63.161c27.325-19.787 50.258-46.858 66.625-78.744 18.1-35.259 27.667-75.608 27.667-116.687 0-60.93-20.607-118.446-58.025-161.952zm-55.897 334.536h-178.726c-51.872-36.413-83.921-102.086-83.921-172.584 0-11.104.77-22.072 2.279-32.821h342.01c1.509 10.75 2.279 21.718 2.279 32.821.001 70.498-32.048 136.171-83.921 172.584z" fill="#e6faff"/><path d="m422.1 91.447-4.488-5.219h-140.772v134.35h171.005c1.509 10.75 2.279 21.718 2.279 32.821 0 70.498-32.049 136.171-83.922 172.584h-89.362v86.008h108.992v-63.161c27.325-19.787 50.258-46.858 66.625-78.744 18.1-35.259 27.667-75.608 27.667-116.687.001-60.93-20.606-118.446-58.024-161.952z" fill="#d3f0ff"/><path d="m149.131 179.174h82.81v82.81h-82.81z" fill="#d3f0ff"/><path d="m406.967 7.058-29.163-7.039-53.236 220.559h30.861z" fill="#60b4ff"/><path d="m406.967 7.058-29.163-7.039-53.236 220.559h30.861z" fill="#6e76e5"/><path d="m149.131 220.578h82.81v41.405h-82.81z" fill="#fff486"/><path d="m356.996 86.229-32.428 134.349h30.861l32.428-134.349z" fill="#6e76e5"/><path d="m356.996 86.229-32.428 134.349h30.861l32.428-134.349z" fill="#0051bf"/></g></svg>