<svg id="Layer_1" enable-background="new 0 0 511.998 511.998" height="512" viewBox="0 0 511.998 511.998" width="512" xmlns="http://www.w3.org/2000/svg"><g><path d="m128.319 149.939 16.449 347.059h163.23l16.449-347.059z" fill="#ff3838"/><path d="m324.447 149.939h-98.064v347.059h81.615z" fill="#e50058"/><path d="m387.959 89.975v-15.001c0-33.115-26.845-59.96-59.96-59.96s-59.96 26.845-59.96 59.96v15.001z" fill="#fffae5"/><path d="m387.959 74.974c0-33.115-26.845-59.96-59.96-59.96v74.961h59.96z" fill="#fff486"/><path d="m402.959 89.975h-30v-15.001c0-24.791-20.169-44.959-44.96-44.959s-44.959 20.169-44.959 44.959v15.001h-30v-15.001c0-41.333 33.626-74.959 74.959-74.959s74.96 33.626 74.96 74.959z" fill="#fff486"/><path d="m328 .015v30c24.791 0 44.96 20.169 44.96 44.959v15.001h30v-15.001c-.001-41.333-33.627-74.959-74.96-74.959z" fill="#ffd300"/><path d="m109.039 59.974 21.423 452.024h191.843l21.422-452.024zm50.034 422.024-15.026-317.058h164.672l-15.027 317.058z" fill="#e6faff"/><path d="m343.727 59.974h-117.344v104.966h82.336l-15.027 317.058h-67.309v30h95.922z" fill="#d3f0ff"/><g><path d="m176.061 0h30v164.939h-30z" fill="#90ea8f"/></g><g><path d="m176.061 59.974h30v104.965h-30z" fill="#00ba9f"/></g></g></svg>