<svg id="Layer_1" enable-background="new 0 0 511.991 511.991" height="512" viewBox="0 0 511.991 511.991" width="512" xmlns="http://www.w3.org/2000/svg"><g><path d="m403.203 219.332h-271.361c-21.054 47.559-25.578 100.139-13.939 149.651h299.238c11.641-49.512 7.116-102.091-13.938-149.651z" fill="#fffae5"/><path d="m403.203 219.332h-135.681v149.651h149.619c11.641-49.512 7.116-102.091-13.938-149.651z" fill="#fff486"/><path d="m114.886 353.982c4.707 28.078 14.513 55.445 29.354 80.675l11.371 19.331h223.823l11.371-19.331c14.841-25.23 24.647-52.598 29.354-80.675z" fill="#fff486"/><path d="m267.522 353.982v100.006h111.912l11.371-19.331c14.841-25.23 24.647-52.598 29.354-80.675z" fill="#ffd300"/><path d="m146.787 438.988 34.12 58.003h173.231l34.12-58.003z" fill="#90ea8f"/><path d="m354.138 496.991 34.12-58.003h-120.736v58.003z" fill="#00ba9f"/><path d="m208.278 164.001c0-33.061-26.801-59.862-59.862-59.862s-59.862 26.801-59.862 59.862c0 27.002 17.881 49.82 42.446 57.28z" fill="#fff486"/><path d="m148.416 104.139v104.232l59.862-44.37c0-33.061-26.801-59.862-59.862-59.862z" fill="#ffd300"/><path d="m126.641 235.634c-15.044-4.569-28.56-14.03-38.058-26.64-9.832-13.055-15.029-28.613-15.029-44.993 0-41.279 33.583-74.862 74.862-74.862 41.278 0 74.861 33.583 74.861 74.862h-30c0-24.737-20.125-44.862-44.861-44.862-24.737 0-44.862 20.125-44.862 44.862 0 19.899 12.781 37.15 31.804 42.927z" fill="#ffd300"/><path d="m148.416 89.139v30c24.736 0 44.861 20.125 44.861 44.862h30c.001-41.279-33.582-74.862-74.861-74.862z" fill="#ffa400"/><path d="m414.339 207.621-27.696-58.62h-238.24l-27.697 58.62c-35.54 75.219-31.576 162.936 10.605 234.642l41.017 69.728h190.39l41.017-69.728c42.179-71.706 46.143-159.423 10.604-234.642zm-36.463 219.431-32.317 54.939h-156.073l-32.317-54.939c-34.572-58.773-39.988-129.761-15.333-192.719h251.374c24.655 62.958 19.238 133.946-15.334 192.719z" fill="#e6faff"/><path d="m414.339 207.621-27.696-58.62h-119.121v85.332h125.688c24.655 62.958 19.239 133.946-15.333 192.719l-32.317 54.939h-78.037v30h95.195l41.017-69.728c42.179-71.706 46.143-159.423 10.604-234.642z" fill="#d3f0ff"/><g><path d="m282.523 234.333h-30v-95.333c0-24.814 20.188-45.002 45.002-45.002 8.272 0 15.002-6.73 15.002-15.002s-6.729-15.002-15.002-15.002c-24.814 0-45.002-20.188-45.002-45.002v-18.992h30v18.992c0 8.272 6.729 15.002 15.002 15.002 24.814 0 45.002 20.188 45.002 45.002s-20.188 45.002-45.002 45.002c-8.272 0-15.002 6.73-15.002 15.002z" fill="#90ea8f"/></g><path d="m282.523 139c0-8.272 6.729-15.002 15.002-15.002 24.814 0 45.002-20.188 45.002-45.002s-20.188-45.002-45.002-45.002c-8.272 0-15.002-6.73-15.002-15.002v-18.992h-15v52.505c7.968 7.14 18.487 11.489 30.002 11.489 8.272 0 15.002 6.73 15.002 15.002s-6.729 15.002-15.002 15.002c-11.516 0-22.035 4.349-30.002 11.489v128.847h15z" fill="#00ba9f"/><path d="m252.523 149.001h30v85.333h-30z" fill="#00ba9f"/><path d="m267.522 149.001h15v85.333h-15z" fill="#008475"/></g></svg>