<svg id="Layer_1" enable-background="new 0 0 511.987 511.987" height="512" viewBox="0 0 511.987 511.987" width="512" xmlns="http://www.w3.org/2000/svg"><g><path d="m385.871 211.073c-8.167-30.25-14.115-61.021-17.815-92.067h-224.125c-3.699 31.046-9.648 61.817-17.815 92.067l-2.516 9.319c-15.892 58.867 4.623 121.555 52.243 159.636 22.752 18.194 51.017 28.106 80.149 28.106 29.132 0 57.398-9.912 80.149-28.106 47.62-38.081 68.136-100.769 52.243-159.636z" fill="#6e76e5"/><path d="m388.386 220.392-2.516-9.319c-8.167-30.25-14.115-61.021-17.815-92.067h-112.062v289.128c29.132 0 57.398-9.912 80.149-28.106 47.621-38.081 68.137-100.769 52.244-159.636z" fill="#0051bf"/><path d="m345.511 391.743c52.295-41.82 74.81-110.613 57.357-175.262l-2.517-9.318c-14.492-53.679-21.84-109.09-21.84-164.692v-42.471h-245.036v42.471c0 55.603-7.348 111.013-21.84 164.691l-2.517 9.32c-17.452 64.647 5.062 133.441 57.357 175.261 21.395 17.109 47.416 27.721 74.528 30.597v59.647h-74.631v30h179.262v-30h-74.631v-59.649c27.106-2.88 53.119-13.491 74.508-30.595zm-89.518 1.392c-25.628 0-50.766-8.815-70.781-24.821-42.971-34.363-61.471-90.892-47.131-144.011l2.517-9.32c7.192-26.642 12.705-53.691 16.515-80.976h197.762c3.81 27.285 9.322 54.334 16.515 80.977l2.517 9.318c14.34 53.12-4.16 109.648-47.131 144.012-20.017 16.006-45.155 24.821-70.783 24.821z" fill="#e6faff"/><path d="m345.511 391.743c52.295-41.82 74.81-110.613 57.357-175.262l-2.517-9.318c-14.492-53.679-21.84-109.09-21.84-164.692v-42.471h-122.518v134.007h98.881c3.81 27.285 9.322 54.334 16.515 80.977l2.517 9.318c14.34 53.12-4.16 109.648-47.131 144.012-20.016 16.006-45.153 24.821-70.781 24.821v118.852h89.642v-30h-74.631v-59.649c27.104-2.88 53.117-13.491 74.506-30.595z" fill="#d3f0ff"/><g><path d="m270.993 104.354-30-.018.001-1.697c.007-26.083 21.237-47.307 47.325-47.307v30c-9.551 0-17.322 7.77-17.325 17.319z" fill="#90ea8f"/></g><path d="m270.994 102.652c.003-9.55 7.774-17.319 17.325-17.319v-30c-12.487 0-23.86 4.863-32.326 12.792v36.22l15 .009z" fill="#00ba9f"/><circle cx="255.993" cy="134.007" fill="#ff3838" r="44.662"/><path d="m255.993 89.345v89.324c24.627 0 44.662-20.035 44.662-44.662s-20.035-44.662-44.662-44.662z" fill="#e50058"/><g><path d="m180.986 220.095h30v30.001h-30z" fill="#60b4ff"/></g><g><path d="m200.988 285.099h30v30.002h-30z" fill="#60b4ff"/></g><g><path d="m307.986 240.998h30v30.002h-30z" fill="#60b4ff"/></g><path d="m255.993 178.669c24.627 0 44.662-20.035 44.662-44.662h-89.324c0 24.627 20.035 44.662 44.662 44.662z" fill="#e50058"/><g><path d="m307.986 240.998h30v30.002h-30z" fill="#6e76e5"/></g><path d="m255.993 134.007v44.662c24.627 0 44.662-20.035 44.662-44.662z" fill="#b40042"/></g></svg>