<svg id="Layer_1" enable-background="new 0 0 511.991 511.991" height="512" viewBox="0 0 511.991 511.991" width="512" xmlns="http://www.w3.org/2000/svg"><g><path d="m339.229 218.545h-231.468l44.02 92.006h143.429z" fill="#ff7d47"/><path d="m339.229 218.545h-115.734v92.006h71.715z" fill="#ff3838"/><path d="m144.604 295.55 28.783 60.159c9.231 19.294 28.72 31.574 50.109 31.574 21.389 0 40.878-12.28 50.109-31.574l28.783-60.159z" fill="#e50058"/><path d="m223.495 387.284c21.389 0 40.878-12.28 50.109-31.574l28.783-60.159h-78.892z" fill="#b40042"/><path d="m355.368 184.813c6.409-13.395 10.715-27.652 12.807-42.272h-289.36c2.092 14.62 6.398 28.877 12.807 42.272l23.316 48.734h217.114z" fill="#ffa400"/><path d="m223.495 142.541v91.006h108.557l23.316-48.734c6.409-13.395 10.715-27.652 12.807-42.272z" fill="#ff7d47"/><g><path d="m369.647 0h30v30.979h-30z" fill="#90ea8f"/></g><path d="m384.646 0h15.001v30.979h-15.001z" fill="#00ba9f"/><path d="m361.617 155.227c7.155 3.546 15.119 5.42 23.031 5.42 21.349 0 40.278-12.804 48.226-32.618l12.543-31.271c2.808-7 4.231-14.372 4.231-21.913 0-32.458-26.406-58.864-58.864-58.864h-12.272c-32.458 0-58.864 26.406-58.864 58.864 0 7.522 3.542 20.95 4.763 24.731z" fill="#ff3838"/><path d="m390.783 15.979h-6.137v144.667h.001c21.349 0 40.278-12.804 48.226-32.618l12.543-31.271c2.808-7 4.231-14.372 4.231-21.913 0-32.458-26.406-58.865-58.864-58.865z" fill="#e50058"/><path d="m62.344 79.967v41.922c0 23.869 5.445 47.866 15.747 69.397l81.765 170.897c9.455 19.762 27.679 33.851 48.64 38.466v81.342h-61.188v30h152.377v-30h-61.188v-81.342c20.96-4.615 39.185-18.704 48.64-38.466l81.764-170.897c10.302-21.53 15.747-45.527 15.747-69.397v-41.922zm197.729 269.269c-6.699 14.001-21.057 23.048-36.578 23.048s-29.879-9.047-36.578-23.048l-81.765-170.897c-3.196-6.68-5.816-13.651-7.836-20.797h252.358c-2.02 7.146-4.641 14.118-7.836 20.797z" fill="#e6faff"/><path d="m223.495 79.967v77.575h126.179c-2.02 7.146-4.641 14.118-7.836 20.797l-81.764 170.897c-6.699 14.001-21.057 23.048-36.578 23.048v139.707h76.189v-30h-61.188v-81.342c20.96-4.615 39.185-18.704 48.64-38.466l81.764-170.897c10.302-21.53 15.747-45.527 15.747-69.397v-41.922z" fill="#d3f0ff"/></g></svg>