<svg id="Layer_1" enable-background="new 0 0 512.283 512.283" height="512" viewBox="0 0 512.283 512.283" width="512" xmlns="http://www.w3.org/2000/svg"><g><path d="m370.4 60.857c-31.89 0-57.833 25.944-57.833 57.833v40.817h36.656c31.89 0 57.834-25.944 57.834-57.833v-40.817z" fill="#90ea8f"/><path d="m370.4 60.857c-31.89 0-57.833 25.944-57.833 57.833v40.817h36.656c31.89 0 57.834-25.944 57.834-57.833v-40.817z" fill="#00ba9f"/><path d="m135.24 191.152 91.932 110.386v8.639c0 18.764 15.211 33.975 33.976 33.975 18.764 0 33.975-15.211 33.975-33.975v-8.639l91.932-110.386z" fill="#90ea8f"/><path d="m261.148 191.152v153c18.764 0 33.975-15.211 33.975-33.975v-8.639l91.932-110.386z" fill="#00ba9f"/><path d="m310.123 310.176v-3.21l122.45-147.029v-30.429h-342.851v30.429l122.45 147.029v3.21c0 21.775 14.285 40.276 33.975 46.626v125.48h-64.28v30h158.56v-30h-64.28v-125.48c19.691-6.349 33.976-24.85 33.976-46.626zm-48.976 18.976c-10.463 0-18.975-8.512-18.975-18.976v-14.067l-74.918-89.957h187.787l-74.918 89.957v14.067c0 10.464-8.513 18.976-18.976 18.976z" fill="#e6faff"/><path d="m310.123 310.176v-3.21l122.45-147.029v-30.429h-171.425v76.645h93.894l-74.918 89.957v14.067c0 10.463-8.513 18.975-18.975 18.976v183.131h79.28v-30h-64.28v-125.48c19.689-6.351 33.974-24.852 33.974-46.628z" fill="#d3f0ff"/><path d="m177.006 74.894-28.191 10.26 44.04 120.999h31.925z" fill="#fff486"/><path d="m164.959 129.508 27.896 76.645h31.925l-27.896-76.645z" fill="#ffd300"/><path d="m133.784 0-54.074 107.898 25.696-1.3c43.769-2.216 83.684-16.744 118.637-43.181l20.52-15.521z" fill="#ffa400"/></g></svg>