<svg id="Layer_1" enable-background="new 0 0 511.998 511.998" height="512" viewBox="0 0 511.998 511.998" width="512" xmlns="http://www.w3.org/2000/svg"><g><path d="m396.019 109.651v-15.001c0-33.115-26.845-59.96-59.96-59.96s-59.959 26.845-59.959 59.96v15.001z" fill="#fff486"/><path d="m396.019 94.65c0-33.115-26.845-59.96-59.959-59.96v74.961h59.959z" fill="#90ea8f"/><path d="m411.019 109.651h-30v-15.001c0-24.791-20.169-44.96-44.96-44.96s-44.96 20.169-44.96 44.96v15.001h-30v-15.001c0-41.333 33.627-74.96 74.96-74.96s74.96 33.627 74.96 74.96z" fill="#90ea8f"/><path d="m102.163 154.654-31.002 45.003v246.501c0 28.078 22.762 50.84 50.84 50.84h186.338c28.078 0 50.84-22.762 50.84-50.84v-246.501l-31.002-45.003z" fill="#ff6378"/><path d="m328.177 154.654h-113.007v342.344h93.169c28.078 0 50.84-22.762 50.84-50.84v-246.501z" fill="#ff415b"/><g><path d="m392.5 412.99h-33.32v-30h33.32c18.382 0 33.337-14.954 33.337-33.336v-66.659c0-18.382-14.955-33.336-33.337-33.336h-33.32v-30h33.32c34.924 0 63.337 28.412 63.337 63.336v66.659c0 34.924-28.413 63.336-63.337 63.336z" fill="#d3f0ff"/></g><g><path d="m392.5 412.99h-33.32v-30h33.32c18.382 0 33.337-14.954 33.337-33.336v-66.659c0-18.382-14.955-33.336-33.337-33.336h-33.32v-30h33.32c34.924 0 63.337 28.412 63.337 63.336v66.659c0 34.924-28.413 63.336-63.337 63.336z" fill="#75d7fe"/></g><path d="m94.282 79.65h241.777v75.003h-241.777z" fill="#d3f0ff"/><path d="m215.17 79.65h120.889v75.003h-120.889z" fill="#75d7fe"/><path d="m114.838 236.11h82.81v82.811h-82.81z" fill="#ff415b"/><path d="m232.693 350.925h82.81v82.81h-82.81z" fill="#ff415b"/><g><path d="m245.5 236.109h30v30.002h-30z" fill="#ff415b"/></g><g><path d="m285.503 286.112h30v30.002h-30z" fill="#ff415b"/></g><g><path d="m141.243 377.329h30v30.001h-30z" fill="#ff415b"/></g><g><path d="m142.972 0h30v154.654h-30z" fill="#60b4ff"/></g><g><path d="m142.972 79.65h30v75.004h-30z" fill="#6e76e5"/></g><path d="m308.34 511.998h-186.339c-36.304 0-65.84-29.535-65.84-65.84v-251.168l38.121-55.336h241.777l38.12 55.336v251.168c0 36.305-29.536 65.84-65.839 65.84zm-222.179-307.674v241.834c0 19.762 16.078 35.84 35.84 35.84h186.339c19.762 0 35.84-16.078 35.84-35.84v-241.834l-23.884-34.67h-210.251z" fill="#e6faff"/><path d="m336.059 139.654h-120.889v30h105.125l23.884 34.67v241.834c0 19.762-16.078 35.84-35.84 35.84h-93.169v30h93.169c36.304 0 65.84-29.535 65.84-65.84v-251.168z" fill="#d3f0ff"/><path d="m232.693 350.925h82.81v82.81h-82.81z" fill="#e50058"/><g><path d="m245.5 236.109h30v30.002h-30z" fill="#e50058"/></g><g><path d="m285.503 286.112h30v30.002h-30z" fill="#e50058"/></g><path d="m336.059 19.69v30c24.791 0 44.96 20.169 44.96 44.96v15.001h30v-15.001c0-41.333-33.627-74.96-74.96-74.96z" fill="#00ba9f"/></g></svg>