<svg id="Layer_1" enable-background="new 0 0 511.979 511.979" height="512" viewBox="0 0 511.979 511.979" width="512" xmlns="http://www.w3.org/2000/svg"><g><path d="m388.657 110.33h-265.337l-16.627 67.322c-16.104 65.204 18.199 132.324 80.478 157.469l16.917 6.83c31.372 12.666 51.912 43.111 51.912 76.943v-.003c0-33.831 20.538-64.274 51.908-76.942l16.905-6.826c62.275-25.147 96.575-92.266 80.472-157.467z" fill="#60b4ff"/><path d="m405.285 177.657-16.628-67.327h-132.658v308.309c0 .085.001.17.001.256v-.003c0-33.831 20.538-64.274 51.908-76.942l16.905-6.826c62.275-25.147 96.576-92.266 80.472-157.467z" fill="#6e76e5"/><path d="m419.848 174.06-42.99-174.06h-241.739l-42.988 174.055c-8.654 35.041-4.375 72.04 12.051 104.18s43.904 57.282 77.373 70.795l16.918 6.831c25.834 10.43 42.527 35.172 42.527 63.033v63.084h-68.265v30h166.53v-30h-68.265v-63.087c0-27.859 16.692-52.601 42.524-63.033l16.905-6.826c33.468-13.514 60.944-38.657 77.369-70.796s20.704-69.136 12.05-104.176zm-38.764 90.524c-13.138 25.708-35.116 45.82-61.887 56.63l-16.905 6.826c-19.619 7.922-35.582 21.574-46.293 38.589-10.711-17.016-26.675-30.667-46.295-38.588l-16.917-6.831c-26.772-10.809-48.753-30.921-61.892-56.63-13.14-25.709-16.563-55.304-9.64-83.333l13.811-55.917h241.844l13.812 55.923c6.923 28.029 3.501 57.623-9.638 83.331z" fill="#e6faff"/><path d="m419.848 174.06-42.99-174.06h-120.859v125.331h120.912l13.812 55.923c6.923 28.029 3.5 57.623-9.639 83.331-13.138 25.708-35.116 45.82-61.887 56.63l-16.905 6.826c-19.619 7.922-35.582 21.574-46.293 38.589v145.348h83.267v-30h-68.266v-63.087c0-27.859 16.692-52.601 42.524-63.033l16.905-6.826c33.468-13.514 60.944-38.657 77.369-70.796s20.704-69.136 12.05-104.176z" fill="#d3f0ff"/><path d="m255.988 80.669c-24.626 0-44.661 20.035-44.661 44.662s20.035 44.662 44.661 44.662c24.627 0 44.662-20.035 44.662-44.662s-20.035-44.662-44.662-44.662z" fill="#60b4ff"/><circle cx="192.984" cy="224.085" fill="#6e76e5" r="44.662"/><g><path d="m318.762 200.423h30v30.002h-30z" fill="#6e76e5"/></g><g><path d="m318.762 200.423h30v30.002h-30z" fill="#0051bf"/></g><g><path d="m288.76 250.427h30v30.002h-30z" fill="#6e76e5"/></g><path d="m211.327 125.331c0 24.627 20.035 44.662 44.661 44.662 24.627 0 44.662-20.035 44.662-44.662z" fill="#6e76e5"/><g><path d="m288.76 250.427h30v30.002h-30z" fill="#0051bf"/></g><path d="m300.65 125.331c0-24.623-20.029-44.656-44.651-44.662v89.324c24.622-.006 44.651-20.039 44.651-44.662z" fill="#6e76e5"/><path d="m300.65 125.331h-44.651v44.662c24.622-.006 44.651-20.039 44.651-44.662z" fill="#0051bf"/></g></svg>