<svg id="Layer_1" enable-background="new 0 0 511.999 511.999" height="512" viewBox="0 0 511.999 511.999" width="512" xmlns="http://www.w3.org/2000/svg"><g><path d="m172.352 136.554v24.891c0 75.393 14.313 150.1 42.18 220.154l22.036 55.396h113.825l22.036-55.396c27.866-70.054 42.18-144.761 42.18-220.154v-24.891z" fill="#fff486"/><path d="m293.48 136.554v300.441h56.913l22.036-55.396c27.866-70.054 42.18-144.761 42.18-220.154v-24.891z" fill="#ffd300"/><path d="m97.391 89.968v-15.001c0-33.115 26.845-59.96 59.96-59.96s59.96 26.845 59.96 59.96v15.001z" fill="#fff486"/><path d="m217.311 74.967c0-33.115-26.845-59.96-59.96-59.96v74.961h59.96z" fill="#90ea8f"/><path d="m232.311 89.969h-30v-15.001c0-24.791-20.169-44.96-44.959-44.96s-44.959 20.169-44.959 44.96v15.001h-30v-15.001c0-41.333 33.626-74.96 74.959-74.96s74.959 33.627 74.959 74.96z" fill="#90ea8f"/><path d="m157.351.008v30c24.791 0 44.959 20.169 44.959 44.96v15.001h30v-15.001c.001-41.333-33.626-74.96-74.959-74.96z" fill="#00ba9f"/><g><path d="m278.48 211.666h30v30.002h-30z" fill="#fffae5"/></g><g><path d="m318.482 271.67h30v30.002h-30z" fill="#fffae5"/></g><g><path d="m238.477 301.672h30v30.002h-30z" fill="#fffae5"/></g><path d="m157.352 59.968v101.478c0 77.629 14.549 153.564 43.242 225.698l18.632 46.838c-11.45 14.588-17.66 32.467-17.66 51.301v26.717h183.828v-26.717c0-18.834-6.209-36.713-17.659-51.301l18.632-46.838c28.693-72.133 43.241-148.068 43.241-225.698v-101.478zm242.255 101.477c0 73.815-13.834 146.021-41.117 214.61l-18.274 45.939h-93.473l-18.274-45.939c-27.284-68.59-41.118-140.796-41.118-214.61v-9.89h212.255v9.89z" fill="#e6faff"/><path d="m293.48 59.968v91.587h106.128v9.89c0 73.815-13.834 146.021-41.117 214.61l-18.274 45.939h-46.737v90.004h91.914v-26.717c0-18.834-6.209-36.713-17.659-51.301l18.632-46.838c28.693-72.133 43.241-148.068 43.241-225.698v-101.476z" fill="#d3f0ff"/><g><path d="m330.146 0h30v151.555h-30z" fill="#ff7d47"/></g><g><path d="m318.482 271.67h30v30.002h-30z" fill="#fff486"/></g><g><path d="m330.146 0h30v151.555h-30z" fill="#ff3838"/></g><path d="m293.48 211.666h15v30.002h-15z" fill="#fff486"/></g></svg>