<svg id="Layer_1" enable-background="new 0 0 511.984 511.984" height="512" viewBox="0 0 511.984 511.984" width="512" xmlns="http://www.w3.org/2000/svg"><g><path d="m105.311 296.857c5.798 43.837 36.397 82.676 81.852 96.459 31.859 9.66 65.867 9.66 97.726 0 45.455-13.783 76.055-52.622 81.852-96.459z" fill="#ff6378"/><path d="m236.026 296.857v103.704c16.467 0 32.934-2.415 48.863-7.245 45.455-13.783 76.055-52.622 81.852-96.459z" fill="#ff415b"/><path d="m360.404 241.048c-11.15-30.021-16.859-61.79-16.859-93.815v-4.829h-215.037v4.829c0 32.025-5.709 63.793-16.859 93.815-8.789 23.664-9.405 48.271-3.341 70.81h255.436c6.064-22.539 5.449-47.146-3.34-70.81z" fill="#ff3838"/><path d="m360.404 241.048c-11.15-30.021-16.859-61.79-16.859-93.815v-4.829h-107.519v169.454h127.718c6.064-22.539 5.449-47.146-3.34-70.81z" fill="#e50058"/><path d="m343.545 118.006 63.501-15.704c3.068-22.983-4.214-47.083-21.875-64.744s-41.762-24.943-64.744-21.875l-16.5 66.718z" fill="#ff7d47"/><path d="m343.545 118.006 63.501-15.704c3.068-22.983-4.214-47.083-21.875-64.744s-41.762-24.943-64.744-21.875l-16.5 66.718z" fill="#ff3838"/><path d="m374.465 235.826c-10.564-28.444-15.92-58.251-15.92-88.592v-79.834h-245.038v79.833c0 30.341-5.356 60.148-15.92 88.592-12.778 34.406-10.835 71.461 5.471 104.342s44.629 56.854 79.752 67.503c12.472 3.782 25.277 6.217 38.227 7.278v67.036h-74.63v30h179.261v-30h-74.631v-67.038c12.942-1.062 25.74-3.496 38.206-7.276 35.123-10.65 63.446-34.623 79.752-67.503s18.248-69.937 5.47-104.341zm-32.347 91.012c-12.591 25.389-34.461 43.9-61.581 52.124-14.443 4.379-29.418 6.6-44.511 6.6s-30.068-2.221-44.511-6.6c-27.12-8.224-48.99-26.734-61.581-52.123s-14.091-54.002-4.225-80.568c10.627-28.613 16.539-58.459 17.617-88.865h185.397c1.078 30.406 6.99 60.252 17.617 88.865 9.869 26.565 8.369 55.178-4.222 80.567z" fill="#e6faff"/><path d="m374.465 235.826c-10.564-28.444-15.92-58.251-15.92-88.592v-79.834h-122.519v90.005h92.699c1.078 30.406 6.99 60.252 17.617 88.865 9.867 26.566 8.367 55.179-4.224 80.567s-34.461 43.9-61.581 52.124c-14.443 4.379-29.418 6.6-44.511 6.6v126.423h89.642v-30h-74.631v-67.038c12.942-1.062 25.74-3.496 38.206-7.276 35.123-10.65 63.446-34.623 79.752-67.503s18.248-69.937 5.47-104.341z" fill="#d3f0ff"/><path d="m395.777 26.951c-17.379-17.38-40.493-26.951-65.084-26.951-2.143 0-4.296.076-6.443.226l-7.353 29.731 15.436.065c15.964.411 30.905 6.816 42.232 18.143 11.412 11.412 17.775 26.411 18.157 42.229l.058 15.438 29.729-7.352c1.9-26.672-7.67-52.468-26.732-71.529z" fill="#90ea8f"/><path d="m395.777 26.951c-17.379-17.38-40.493-26.951-65.084-26.951-2.143 0-4.296.076-6.443.226l-7.353 29.731 15.436.065c15.964.411 30.905 6.816 42.232 18.143 11.412 11.412 17.775 26.411 18.157 42.229l.058 15.438 29.729-7.352c1.9-26.672-7.67-52.468-26.732-71.529z" fill="#00ba9f"/></g></svg>