<svg id="Layer_1" enable-background="new 0 0 511.984 511.984" height="512" viewBox="0 0 511.984 511.984" width="512" xmlns="http://www.w3.org/2000/svg"><g><path d="m188.011 94.183c0-43.732-35.451-79.183-79.183-79.183s-79.182 35.451-79.182 79.183 35.451 79.183 79.183 79.183c21.121 0 40.295-8.286 54.492-21.764z" fill="#fff486"/><path d="m188.011 94.183c0-43.732-35.451-79.183-79.182-79.183v158.366c21.121 0 40.295-8.286 54.492-21.764z" fill="#ffd300"/><path d="m108.829 188.366c-51.933 0-94.183-42.25-94.183-94.183s42.25-94.183 94.183-94.183 94.183 42.25 94.183 94.183h-30c0-35.391-28.792-64.183-64.183-64.183s-64.183 28.792-64.183 64.183 28.792 64.183 64.183 64.183c16.496 0 32.181-6.266 44.165-17.642l20.655 21.757c-17.584 16.692-40.604 25.885-64.82 25.885z" fill="#ffd300"/><g fill="#ffa400"><path d="m108.829 158.366v30c24.217 0 47.237-9.193 64.82-25.885l-20.655-21.757c-11.985 11.376-27.669 17.642-44.165 17.642z"/><path d="m173.011 94.183h30c0-51.933-42.25-94.183-94.182-94.183v30c35.39 0 64.182 28.792 64.182 64.183z"/><path d="m264.15 272.671v9.899c0 21.503 17.431 38.934 38.934 38.934 21.503 0 38.934-17.431 38.934-38.934v-9.899l103.526-124.307h-284.92z"/></g><path d="m303.084 148.364v173.14c21.503 0 38.934-17.431 38.934-38.934v-9.899l103.526-124.307z" fill="#ff7d47"/><path d="m357.018 282.57v-4.471l140.321-168.487v-30.429h-388.509v30.429l140.32 168.487v4.471c0 24.534 16.473 45.28 38.934 51.796v147.618h-75.851v30h181.702v-30h-75.851v-147.618c22.461-6.516 38.934-27.262 38.934-51.796zm-53.934 23.934c-13.197 0-23.934-10.737-23.934-23.934v-15.328l-86.512-103.877h220.892l-86.512 103.877v15.328c0 13.198-10.737 23.934-23.934 23.934z" fill="#e6faff"/><path d="m357.018 282.57v-4.471l140.321-168.487v-30.429h-194.255v84.182h110.446l-86.512 103.877v15.328c0 13.197-10.737 23.934-23.934 23.934v205.48h90.851v-30h-75.851v-147.618c22.461-6.516 38.934-27.262 38.934-51.796z" fill="#d3f0ff"/></g></svg>