<svg id="Layer_1" enable-background="new 0 0 511.99 511.99" height="512" viewBox="0 0 511.99 511.99" width="512" xmlns="http://www.w3.org/2000/svg"><g><path d="m203.438 185.436c.516-3.259.791-6.597.791-10.001 0-35.061-28.423-63.484-63.484-63.484s-63.484 28.423-63.484 63.484 28.423 63.484 63.484 63.484c5.17 0 10.19-.633 15.001-1.799z" fill="#fff486"/><path d="m140.745 111.952v126.968c5.17 0 10.189-.633 15.001-1.799l47.692-51.684c.516-3.259.791-6.597.791-10 0-35.062-28.423-63.485-63.484-63.485z" fill="#90ea8f"/><path d="m140.745 253.92c-43.276 0-78.484-35.208-78.484-78.484s35.208-78.483 78.484-78.483 78.483 35.207 78.483 78.483c0 4.104-.328 8.257-.975 12.345l-29.632-4.688c.402-2.543.606-5.119.606-7.657 0-26.733-21.75-48.483-48.483-48.483s-48.484 21.75-48.484 48.483c0 26.734 21.75 48.484 48.484 48.484 3.837 0 7.695-.464 11.467-1.378l7.066 29.156c-6.081 1.475-12.317 2.222-18.532 2.222z" fill="#90ea8f"/><path d="m140.745 96.952v30c26.734 0 48.483 21.75 48.483 48.483 0 2.538-.204 5.114-.606 7.657l29.632 4.688c.646-4.088.975-8.241.975-12.345 0-43.276-35.208-78.483-78.484-78.483z" fill="#00ba9f"/><path d="m155.746 232.259v174.229c0 19.053 15.446 34.499 34.499 34.499h193.258c19.053 0 34.499-15.446 34.499-34.499v-174.229z" fill="#90ea8f"/><path d="m286.874 232.259v208.728h96.629c19.053 0 34.499-15.446 34.499-34.499v-174.229z" fill="#00ba9f"/><g><path d="m271.874 289.665h30v30.002h-30z" fill="#00ba9f"/></g><g><path d="m206.874 326.213h30v30.001h-30z" fill="#00ba9f"/></g><g><path d="m336.208 366.215h30v30.002h-30z" fill="#00ba9f"/></g><path d="m140.746 170.437v341.553h292.257v-341.553zm242.757 255.55h-193.258c-10.752 0-19.5-8.748-19.5-19.5v-159.227h232.257v159.227c0 10.752-8.747 19.5-19.499 19.5z" fill="#e6faff"/><path d="m433.002 170.437h-146.128v76.823h116.128v159.227c0 10.752-8.747 19.5-19.499 19.5h-96.629v86.003h146.128z" fill="#d3f0ff"/><g><path d="m301.874 247.26h-30v-144.854c0-24.814 20.188-45.002 45.002-45.002h21.446v-12.402c0-24.814 20.188-45.002 45.002-45.002h66.405v30h-66.405c-8.272 0-15.002 6.729-15.002 15.002v12.402h15.002c24.814 0 45.002 20.188 45.002 45.002s-20.188 45.002-45.002 45.002-45.002-20.188-45.002-45.002v-15.002h-21.446c-8.272 0-15.002 6.729-15.002 15.002zm66.448-159.856v15.002c0 8.272 6.73 15.002 15.002 15.002s15.002-6.729 15.002-15.002-6.73-15.002-15.002-15.002z" fill="#ff415b"/></g><path d="m383.324 30h66.405v-30h-66.405c-24.814 0-45.002 20.188-45.002 45.002v12.402h-21.446c-11.516 0-22.034 4.348-30.002 11.489v178.367h15v-144.854c0-8.272 6.73-15.002 15.002-15.002h21.446v15.002c0 24.814 20.188 45.002 45.002 45.002s45.002-20.188 45.002-45.002-20.188-45.002-45.002-45.002h-15.002v-12.402c0-8.273 6.73-15.002 15.002-15.002zm0 57.404c8.272 0 15.002 6.729 15.002 15.002s-6.73 15.002-15.002 15.002-15.002-6.729-15.002-15.002v-15.002z" fill="#e50058"/><path d="m271.874 170.437h30v76.823h-30z" fill="#e50058"/><path d="m286.874 170.437h15v76.823h-15z" fill="#b40042"/><g><path d="m336.208 366.215h30v30.002h-30z" fill="#008475"/></g><path d="m286.874 289.665h15v30.002h-15z" fill="#008475"/></g></svg>