<svg id="Layer_1" enable-background="new 0 0 511.984 511.984" height="512" viewBox="0 0 511.984 511.984" width="512" xmlns="http://www.w3.org/2000/svg"><g><path d="m78.951 129.963c.147.25.294.499.443.748 45.23 75.641 77.5 158.309 95.475 244.589l12.85 61.681-5 15.001h71.586l-5-15.001 12.85-61.681c17.975-86.28 50.244-168.948 95.475-244.589.149-.249.296-.498.443-.748z" fill="#6e76e5"/><path d="m218.512 129.963v322.019h35.793l-5-15.001 12.85-61.681c17.975-86.28 50.244-168.948 95.475-244.589.149-.249.296-.498.443-.748z" fill="#0051bf"/><path d="m447.987 89.96v-15c0-33.115-26.845-59.96-59.96-59.96s-59.96 26.845-59.96 59.96v15z" fill="#fffae5"/><path d="m447.987 74.96c0-33.115-26.845-59.96-59.959-59.96v74.96h59.959z" fill="#fff486"/><path d="m462.987 89.96h-30v-15.001c0-24.791-20.169-44.959-44.959-44.959-24.791 0-44.96 20.169-44.96 44.959v15.001h-30v-15.001c0-41.333 33.627-74.959 74.96-74.959s74.959 33.626 74.959 74.959z" fill="#fff486"/><path d="m388.028 0v30c24.791 0 44.959 20.169 44.959 44.959v15.001h30v-15.001c0-41.333-33.626-74.959-74.959-74.959z" fill="#ffd300"/><path d="m48.997 59.959v15c0 22.337 6.06 44.277 17.523 63.45 44.476 74.378 75.989 155.109 93.664 239.95l12.024 57.718-25.303 75.907h143.21l-25.302-75.907 12.024-57.718c17.675-84.84 49.188-165.571 93.664-239.95 11.464-19.172 17.523-41.113 17.523-63.45v-15zm198.473 312.281-13.488 64.741h-30.941l-13.488-64.741c-16.634-79.84-45.066-156.176-84.62-227.276h227.157c-39.554 71.1-67.986 147.436-84.62 227.276z" fill="#e6faff"/><g><path d="m166.51 186.046h30v30.002h-30z" fill="#60b4ff"/></g><g><path d="m203.512 237.378h30v30.002h-30z" fill="#60b4ff"/></g><path d="m218.512 59.959v85.005h113.578c-39.554 71.1-67.986 147.436-84.62 227.276l-13.488 64.741h-15.47v75.003h71.605l-25.302-75.907 12.024-57.718c17.675-84.84 49.188-165.571 93.664-239.95 11.464-19.172 17.523-41.113 17.523-63.45v-15z" fill="#d3f0ff"/><path d="m218.512 237.378h15v30.002h-15z" fill="#6e76e5"/></g></svg>