<svg id="Layer_1" enable-background="new 0 0 511.996 511.996" height="512" viewBox="0 0 511.996 511.996" width="512" xmlns="http://www.w3.org/2000/svg"><g><path d="m385.757 0c-62.493 0-113.336 50.843-113.336 113.336 0 4.061.224 8.189.664 12.272l.496 4.602 77.791 91.239 4.461 1.219c9.724 2.657 19.792 4.004 29.924 4.004 62.493 0 113.336-50.843 113.336-113.336s-50.843-113.336-113.336-113.336z" fill="#fff486"/><path d="m385.757 0v226.672c62.493 0 113.336-50.843 113.336-113.336s-50.843-113.336-113.336-113.336z" fill="#ffd300"/><path d="m370.756 147.889c4.598 1.999 9.668 3.113 15.001 3.113 20.803 0 37.667-16.864 37.667-37.666 0-20.803-16.864-37.667-37.667-37.667-20.802 0-37.667 16.864-37.667 37.667 0 3.705.544 7.282 1.541 10.664z" fill="#fff"/><path d="m29.965 176.676c11.897 71.271 73.858 125.595 148.506 125.595h41.716c74.649 0 136.609-54.324 148.506-125.595z" fill="#fffae5"/><path d="m199.329 176.676v125.595h20.858c74.649 0 136.609-54.324 148.506-125.595z" fill="#fff486"/><path d="m12.903 109v42.703c0 91.295 74.273 165.568 165.568 165.568h5.857v86.565c0 43.097-35.062 78.159-78.159 78.159v30h186.318v-30c-43.097 0-78.159-35.062-78.159-78.159v-86.565h5.858c91.295 0 165.568-74.273 165.568-165.568v-42.703zm207.285 178.271h-41.716c-60.845 0-112.456-40.291-129.554-95.594h300.825c-17.1 55.303-68.71 95.594-129.555 95.594z" fill="#e6faff"/><path d="m199.329 109v82.677h150.412c-17.099 55.303-68.709 95.594-129.554 95.594h-20.858v224.725h93.159v-30c-43.097 0-78.159-35.062-78.159-78.159v-86.565h5.858c91.295 0 165.568-74.273 165.568-165.568v-42.704z" fill="#d3f0ff"/></g></svg>