<svg id="Layer_1" enable-background="new 0 0 512.282 512.282" height="512" viewBox="0 0 512.282 512.282" width="512" xmlns="http://www.w3.org/2000/svg"><g><path d="m123.035 185.344 75.458 179.952c8.2 19.555 27.333 32.279 48.538 32.279 21.204 0 40.338-12.724 48.538-32.279l75.458-179.952z" fill="#fff486"/><path d="m247.042 185.344v212.231c21.2-.004 40.328-12.728 48.526-32.279l75.458-179.952z" fill="#ffd300"/><path d="m262.031 410.906c21.016-4.751 38.786-19.338 47.37-39.81l101.336-241.665h-327.413l101.336 241.665c8.584 20.472 26.354 35.058 47.371 39.81v71.376h-49.375v30h128.749v-30h-49.374zm-49.705-51.41-66.735-159.151h202.879l-66.735 159.151c-5.879 14.021-19.501 23.08-34.704 23.08s-28.826-9.06-34.705-23.08z" fill="#e6faff"/><path d="m262.031 410.906c21.016-4.751 38.786-19.338 47.37-39.81l101.336-241.665h-163.695v70.913h101.428l-66.735 159.151c-5.878 14.017-19.494 23.075-34.693 23.08v129.707h64.363v-30h-49.374z" fill="#d3f0ff"/><g><path d="m201.029 248.441h30v30.002h-30z" fill="#fffae5"/></g><g><path d="m232.042 301.984h30v30.002h-30z" fill="#fffae5"/></g><path d="m359.853 85.154-28.192-10.261-45.659 125.452h31.925z" fill="#60b4ff"/><path d="m359.853 85.154-28.192-10.261-45.659 125.452h31.925z" fill="#6e76e5"/><path d="m374.883 0-110.777 47.896 20.52 15.521c34.952 26.437 74.867 40.965 118.637 43.18l25.695 1.3z" fill="#6e76e5"/><path d="m374.883 0-110.777 47.896 20.52 15.521c34.952 26.437 74.867 40.965 118.637 43.18l25.695 1.3z" fill="#0051bf"/><path d="m311.811 129.432-25.809 70.913h31.925l25.81-70.913z" fill="#6e76e5"/><path d="m311.811 129.432-25.809 70.913h31.925l25.81-70.913z" fill="#0051bf"/><path d="m247.042 301.984h15v30.002h-15z" fill="#fff486"/></g></svg>