<svg id="Layer_1" enable-background="new 0 0 511.994 511.994" height="512" viewBox="0 0 511.994 511.994" width="512" xmlns="http://www.w3.org/2000/svg"><g><path d="m121.685 170.267v9.135c0 34.408 20.201 65.609 51.595 79.691l37.585 16.859v4.019c0 32.908 26.677 59.585 59.585 59.585 32.908 0 59.585-26.677 59.585-59.585v-4.019l37.585-16.859c31.394-14.082 51.595-45.284 51.595-79.691v-9.135z" fill="#75d7fe"/><path d="m270.451 170.267v169.29c32.908 0 59.585-26.677 59.585-59.585v-4.019l37.585-16.859c31.394-14.082 51.595-45.284 51.595-79.691v-9.135h-148.765z" fill="#60b4ff"/><path d="m97.421 40.483h-39.644v43.997c0 31.89 25.944 57.833 57.833 57.833h39.644v-43.997c0-31.889-25.944-57.833-57.833-57.833z" fill="#90ea8f"/><path d="m175.829 55.1c-27.887 0-50.575 22.688-50.575 50.574 0 11.229 3.613 21.871 10.448 30.774l4.503 5.865h71.247l4.503-5.865c6.835-8.903 10.448-19.545 10.448-30.774.001-27.887-22.687-50.574-50.574-50.574z" fill="#ff415b"/><path d="m106.686 112.313v67.088c0 40.251 23.73 76.904 60.456 93.378l28.947 12.984c2.576 33.393 27.239 60.693 59.363 67.277v50.794c0 43.097-35.062 78.159-78.159 78.159v30h186.317v-30c-43.097 0-78.159-35.062-78.159-78.159v-50.794c32.124-6.584 56.787-33.884 59.363-67.277l28.947-12.984c36.726-16.474 60.456-53.127 60.456-93.378v-67.088zm254.796 133.093-46.446 20.835v13.73c0 24.584-20.001 44.585-44.585 44.585s-44.585-20.001-44.585-44.585v-13.73l-46.446-20.835c-24.164-10.839-40.368-34.035-42.495-60.139h267.053c-2.128 26.104-18.333 49.301-42.496 60.139z" fill="#e6faff"/><path d="m270.451 112.313v72.954h133.527c-2.127 26.103-18.332 49.3-42.496 60.139l-46.446 20.835v13.73c0 24.584-20.001 44.585-44.585 44.585v187.438h93.159v-30c-43.097 0-78.159-35.062-78.159-78.159v-50.794c32.124-6.584 56.787-33.884 59.363-67.277l28.947-12.984c36.726-16.474 60.456-53.127 60.456-93.378v-67.088h-163.766z" fill="#d3f0ff"/><path d="m409.555 0c-24.626 0-44.662 20.035-44.662 44.662 0 11.507 4.375 22.012 11.549 29.938l-59.459 110.667h34.056l51.818-96.446c2.185.33 4.422.502 6.698.502 24.627 0 44.662-20.035 44.662-44.661 0-24.627-20.035-44.662-44.662-44.662zm0 59.323c-8.084 0-14.662-6.577-14.662-14.661 0-8.085 6.577-14.662 14.662-14.662s14.662 6.577 14.662 14.662c0 8.084-6.577 14.661-14.662 14.661z" fill="#60b4ff"/><path d="m409.555 0c-24.626 0-44.662 20.035-44.662 44.662 0 11.507 4.375 22.012 11.549 29.938l-59.459 110.667h34.056l51.818-96.446c2.185.33 4.422.502 6.698.502 24.627 0 44.662-20.035 44.662-44.661 0-24.627-20.035-44.662-44.662-44.662zm0 59.323c-8.084 0-14.662-6.577-14.662-14.661 0-8.085 6.577-14.662 14.662-14.662s14.662 6.577 14.662 14.662c0 8.084-6.577 14.661-14.662 14.661z" fill="#6e76e5"/><path d="m316.984 185.268h34.056l39.196-72.955h-34.056z" fill="#6e76e5"/><path d="m316.984 185.268h34.056l39.196-72.955h-34.056z" fill="#0051bf"/></g></svg>