<svg id="Layer_1" enable-background="new 0 0 511.999 511.999" height="512" viewBox="0 0 511.999 511.999" width="512" xmlns="http://www.w3.org/2000/svg"><g><g><path d="m240.999 0h30v53.629h-30z" fill="#90ea8f"/></g><path d="m255.999 0h15v53.629h-15z" fill="#00ba9f"/><circle cx="255.999" cy="82.67" fill="#ff415b" r="44.041"/><path d="m255.999 38.629v88.082c24.284 0 44.041-19.757 44.041-44.041s-19.757-44.041-44.041-44.041z" fill="#e50058"/><path d="m84.573 214.346v28.924c0 31.297 25.371 56.668 56.668 56.668h28.087c0 32.02 25.958 57.978 57.978 57.978h57.385c32.02 0 57.978-25.958 57.978-57.978h28.087c31.297 0 56.668-25.371 56.668-56.668v-28.924z" fill="#ffd300"/><path d="m255.999 214.346v143.571h28.693c32.02 0 57.978-25.958 57.978-57.978h28.087c31.297 0 56.668-25.371 56.668-56.668v-28.924h-171.426z" fill="#ffa400"/><path d="m69.573 156.67v86.601c0 39.518 32.15 71.668 71.667 71.668l14.638.001c5.829 27.787 27.515 49.814 55.119 56.14v68.92c0 23.158-18.841 41.999-41.999 41.999v30h174.002v-30c-23.158 0-41.999-18.841-41.999-41.999v-68.92c27.604-6.326 49.289-28.353 55.118-56.141h14.638c39.519 0 71.669-32.15 71.669-71.668v-86.601zm342.853 86.601c0 22.976-18.692 41.668-41.669 41.668l-43.088.002v14.999c0 23.322-18.671 42.363-41.851 42.963h-59.638c-23.18-.6-41.852-19.642-41.852-42.964v-15h-43.087c-22.976 0-41.668-18.692-41.668-41.668v-13.923h312.853z" fill="#e6faff"/><path d="m255.999 156.67v72.677h156.427v13.923c0 22.976-18.692 41.668-41.669 41.668l-43.088.002v14.999c0 23.322-18.671 42.363-41.851 42.963h-29.819v169.097h87.001v-30c-23.158 0-41.999-18.841-41.999-41.999v-68.92c27.604-6.326 49.289-28.353 55.118-56.141h14.638c39.519 0 71.669-32.15 71.669-71.668v-86.601z" fill="#d3f0ff"/><path d="m315.959 96.71v15.001c0 33.115-26.845 59.96-59.96 59.96s-59.96-26.845-59.96-59.96v-15.001z" fill="#fff486"/><path d="m255.999 96.71v74.961c33.115 0 59.96-26.845 59.96-59.96v-15.001z" fill="#ffd300"/><g><path d="m240.999 171.67h30v57.677h-30z" fill="#00ba9f"/></g><path d="m255.999 171.67h15v57.677h-15z" fill="#008475"/><path d="m255.999 186.67c-41.333 0-74.96-33.627-74.96-74.959v-15.001h30v15.001c0 24.79 20.169 44.959 44.96 44.959s44.96-20.169 44.96-44.959v-15.001h30v15.001c0 41.332-33.627 74.959-74.96 74.959z" fill="#ffd300"/><path d="m300.959 96.71v15.001c0 24.79-20.169 44.959-44.96 44.959v30c41.333 0 74.96-33.627 74.96-74.959v-15.001z" fill="#ffa400"/><path d="m196.055 156.67c13.689 18.205 35.465 30 59.944 30s46.256-11.795 59.944-30z" fill="#ffa400"/><path d="m255.999 156.67v30c24.479 0 46.256-11.795 59.944-30z" fill="#ff7d47"/></g></svg>