<svg id="Layer_1" enable-background="new 0 0 512 512" height="512" viewBox="0 0 512 512" width="512" xmlns="http://www.w3.org/2000/svg"><g><path d="m366.579 236.345c-11.52-20.064-16.753-42.595-15.759-64.88h-189.64c.995 22.285-4.239 44.815-15.759 64.88l-18.01 31.368c-27.326 47.594-5.543 108.339 45.8 127.722 53.354 20.143 112.222 20.143 165.577 0 51.343-19.383 73.126-80.128 45.8-127.722z" fill="#60b4ff"/><path d="m384.589 267.714-18.01-31.368c-11.52-20.064-16.753-42.595-15.759-64.88h-94.81v239.077c28.052-.001 56.104-5.037 82.778-15.107 51.344-19.384 73.127-80.129 45.801-127.722z" fill="#6e76e5"/><g><path d="m241.011 243.343h30v30.002h-30z" fill="#6e76e5"/></g><g><path d="m181.007 313.347h30v30.002h-30z" fill="#6e76e5"/></g><g><path d="m299.758 273.345h30v30.002h-30z" fill="#6e76e5"/></g><g><path d="m299.758 273.345h30v30.002h-30z" fill="#0051bf"/></g><path d="m397.598 260.245-18.01-31.368c-18.019-31.383-18.508-69.382-1.745-100.995h20.278v-30h-284.242v30h20.278c16.763 31.613 16.274 69.612-1.745 100.995l-18.01 31.368c-15.217 26.504-18.027 58.204-7.711 86.972 10.315 28.768 32.631 51.458 61.223 62.252 23.644 8.927 48.286 14.136 73.097 15.631v56.9h-61.673v30h153.346v-30h-61.673v-56.901c24.803-1.497 49.438-6.706 73.076-15.63 28.592-10.794 50.906-33.484 61.222-62.252s7.505-60.468-7.711-86.972zm-20.529 76.846c-7.343 20.477-23.227 36.628-43.579 44.312-49.972 18.865-105.012 18.865-154.981 0-20.352-7.684-36.235-23.835-43.578-44.312-7.344-20.478-5.343-43.042 5.489-61.908l18.01-31.368c10.292-17.926 16.14-37.53 17.574-57.348h159.993c1.434 19.818 7.282 39.422 17.574 57.348l18.01 31.368c10.831 18.866 12.832 41.43 5.488 61.908z" fill="#e6faff"/><path d="m397.598 260.245-18.01-31.368c-18.019-31.383-18.508-69.382-1.745-100.995h20.278v-30h-142.11v88.585h79.986c1.434 19.818 7.282 39.422 17.574 57.348l18.01 31.368c10.832 18.866 12.833 41.431 5.489 61.908-7.343 20.477-23.227 36.628-43.579 44.312-24.982 9.431-51.231 14.147-77.479 14.149v116.448h76.673v-30h-61.673v-56.901c24.803-1.497 49.438-6.706 73.076-15.63 28.592-10.794 50.906-33.484 61.222-62.252 10.315-28.768 7.504-60.468-7.712-86.972z" fill="#d3f0ff"/><g><path d="m324.805 17.516h57.771v30h-57.771z" fill="#fffae5" transform="matrix(.5 -.866 .866 .5 148.685 322.562)"/></g><g><path d="m324.805 17.516h57.771v30h-57.771z" fill="#fff486" transform="matrix(.5 -.866 .866 .5 148.685 322.562)"/></g><path d="m322.576 116.407-25.98-15-49.109 85.06h34.64z" fill="#ffd300"/><path d="m322.576 116.407-25.98-15-40.585 70.296v14.764h26.116z" fill="#ffa400"/><path d="m346.747 44.541c-6.785-3.918-14.497-5.988-22.303-5.988-15.92 0-30.752 8.559-38.706 22.336-5.965 10.331-7.549 22.367-4.462 33.89 3.088 11.524 10.479 21.155 20.81 27.119 6.786 3.918 14.498 5.989 22.304 5.989 15.92 0 30.751-8.56 38.706-22.337 12.313-21.327 4.979-48.696-16.349-61.009z" fill="#ff415b"/><path d="m346.747 44.541c-6.785-3.918-14.497-5.988-22.303-5.988-15.92 0-30.752 8.559-38.706 22.336-5.965 10.331-7.549 22.367-4.462 33.89 3.088 11.524 10.479 21.155 20.81 27.119 6.786 3.918 14.498 5.989 22.304 5.989 15.92 0 30.751-8.56 38.706-22.337 12.313-21.327 4.979-48.696-16.349-61.009z" fill="#e50058"/><path d="m282.228 97.882c3.509 10.146 10.469 18.595 19.858 24.016 6.786 3.918 14.498 5.989 22.304 5.989 15.92 0 30.751-8.56 38.706-22.337 1.435-2.485 2.603-5.052 3.513-7.668z" fill="#e50058"/><path d="m282.228 97.882c3.509 10.146 10.469 18.595 19.858 24.016 6.786 3.918 14.498 5.989 22.304 5.989 15.92 0 30.751-8.56 38.706-22.337 1.435-2.485 2.603-5.052 3.513-7.668z" fill="#b40042"/><path d="m256.011 243.343h15v30.002h-15z" fill="#0051bf"/></g></svg>