<svg id="Layer_1" enable-background="new 0 0 512.002 512.002" height="512" viewBox="0 0 512.002 512.002" width="512" xmlns="http://www.w3.org/2000/svg"><g><path d="m144.874 201.438v43.003l24.213 131.431v30.628c0 19.053 15.446 34.499 34.499 34.499h104.831c19.053 0 34.499-15.446 34.499-34.499v-30.628l24.213-131.431v-43.003z" fill="#90ea8f"/><path d="m256.011 201.438v239.561h52.406c19.053 0 34.499-15.446 34.499-34.499v-30.628l24.213-131.431v-43.003z" fill="#00ba9f"/><path d="m129.874 137.31v108.501l24.213 131.431v134.761h203.828v-134.761l24.213-131.431v-108.501zm198.041 237.191v31.999c0 10.752-8.747 19.5-19.499 19.5h-104.83c-10.752 0-19.499-8.748-19.499-19.5v-31.998l-24.213-131.431v-26.631h192.254v26.631z" fill="#e6faff"/><path d="m256.011 137.31v79.129h96.117v26.631l-24.213 131.431v31.999c0 10.752-8.747 19.5-19.499 19.5h-52.405v86.003h101.904v-134.761l24.213-131.431v-108.501z" fill="#d3f0ff"/><g><path d="m271.001 216.439h-30v-106.032h-12.402c-24.814 0-45.002-20.188-45.002-45.002v-65.405h30v65.405c0 8.272 6.729 15.002 15.002 15.002h12.402v-15.002c0-24.814 20.188-45.002 45.002-45.002s45.002 20.188 45.002 45.002-20.188 45.002-45.002 45.002h-15.002zm0-136.032h15.002c8.272 0 15.002-6.73 15.002-15.002s-6.729-15.002-15.002-15.002-15.002 6.73-15.002 15.002z" fill="#ff7d47"/></g><path d="m286.003 20.403c-11.511 0-22.026 4.345-29.992 11.48v184.557h14.99v-106.033h15.002c24.814 0 45.002-20.188 45.002-45.002s-20.187-45.002-45.002-45.002zm0 60.004h-15.002v-15.002c0-8.272 6.729-15.002 15.002-15.002s15.002 6.73 15.002 15.002-6.729 15.002-15.002 15.002z" fill="#ff3838"/><path d="m241.001 137.31h30v79.129h-30z" fill="#ff3838"/><path d="m256.011 137.31h14.99v79.129h-14.99z" fill="#e50058"/></g></svg>