<svg id="Layer_1" enable-background="new 0 0 511.993 511.993" height="512" viewBox="0 0 511.993 511.993" width="512" xmlns="http://www.w3.org/2000/svg"><g><path d="m390.702 161.516h-269.411l-14.731 225.505c-3.889 59.54 43.355 109.972 103.023 109.972h92.828c59.667 0 106.912-50.432 103.023-109.972z" fill="#ffa400"/><path d="m405.433 387.021-14.731-225.506h-134.705v335.478h46.414c59.667 0 106.911-50.431 103.022-109.972z" fill="#ff7d47"/><path d="m420.401 386.044-20.734-317.398h-287.341l-20.734 317.397c-2.154 32.98 9.103 64.426 31.698 88.546 22.596 24.12 53.242 37.403 86.292 37.403h92.827c33.051 0 63.697-13.284 86.292-37.403 22.597-24.119 33.854-55.566 31.7-88.545zm-53.592 68.036c-16.863 18-39.733 27.914-64.398 27.914h-92.827c-24.665 0-47.536-9.913-64.398-27.914-16.863-18-25.264-41.468-23.656-66.081l13.815-211.482h241.305l13.814 211.483c1.608 24.612-6.793 48.08-23.655 66.08z" fill="#e6faff"/><path d="m420.401 386.044-20.734-317.398h-143.67v107.871h120.653l13.814 211.483c1.608 24.612-6.793 48.08-23.656 66.08s-39.733 27.914-64.398 27.914h-46.414v30h46.414c33.051 0 63.697-13.284 86.292-37.403 22.596-24.121 33.853-55.568 31.699-88.547z" fill="#d3f0ff"/><g><path d="m164.82 1.029h30v150.661h-30z" fill="#6e76e5" transform="matrix(.954 -.3 .3 .954 -14.628 57.49)"/></g><path d="m161.668 68.646 26.453 84.073 28.617-9.004-23.62-75.069z" fill="#0051bf"/><ellipse cx="211.334" cy="176.517" fill="#e50058" rx="44.662" ry="44.662" transform="matrix(.987 -.16 .16 .987 -25.546 36.131)"/><path d="m161.644 343.413h71.81v71.81h-71.81z" fill="#ff7d47" transform="matrix(-1 0 0 -1 395.098 758.636)"/><path d="m166.672 176.517c0 24.627 20.035 44.662 44.662 44.662s44.662-20.035 44.662-44.662z" fill="#b40042"/><g transform="matrix(-1 0 0 -1 630.807 549.01)"><path d="m279.499 238.6h71.81v71.81h-71.81z" fill="#ff7d47"/><path d="m279.499 238.6h71.81v71.81h-71.81z" fill="#ff3838"/></g></g></svg>