<svg id="Layer_1" enable-background="new 0 0 512.002 512.002" height="512" viewBox="0 0 512.002 512.002" width="512" xmlns="http://www.w3.org/2000/svg"><g><g><path d="m323.29 108.965h82.206v30.001h-82.206z" fill="#00ba9f" transform="matrix(.342 -.94 .94 .342 123.275 423.984)"/></g><g><path d="m323.29 108.965h82.206v30.001h-82.206z" fill="#008475" transform="matrix(.342 -.94 .94 .342 123.275 423.984)"/></g><path d="m105.272 208.002-65.703-16.249c-3.174-23.78 4.36-48.715 22.634-66.989s43.21-25.808 66.989-22.634l17.072 69.032z" fill="#fff486"/><path d="m51.228 113.79c17.982-17.983 41.898-27.886 67.342-27.886 2.217 0 4.445.079 6.667.234l7.608 30.762-15.971.067c-16.517.425-31.977 7.053-43.696 18.772-11.807 11.807-18.392 27.327-18.786 43.693l-.06 15.973-30.76-7.607c-1.968-27.596 7.934-54.286 27.656-74.008z" fill="#ffd300"/><g><path d="m219.397 162.589h-30v-112.85c0-10.874-8.847-19.721-19.721-19.721h-36.312v-30h36.312c27.416 0 49.721 22.305 49.721 49.721z" fill="#6e76e5"/></g><path d="m485.005 248.582-.32-1.75-9.108-20.549h-419.962l-9.108 20.549-.32 1.75c-2.438 13.315-3.674 26.887-3.674 40.338 0 59.587 23.205 115.608 65.34 157.743s98.155 65.339 157.743 65.339 115.608-23.205 157.743-65.339 65.339-98.156 65.339-157.743c0-13.456-1.236-27.027-3.673-40.338z" fill="#913f02"/><path d="m485.005 248.582-.32-1.75-9.108-20.549h-209.98v285.72c59.588 0 115.608-23.205 157.743-65.339s65.339-98.156 65.339-157.743c-.001-13.457-1.237-27.028-3.674-40.339z" fill="#673416"/><path d="m409.513 0-117.283 50.708 20.521 15.521c37.804 28.594 80.975 44.307 128.314 46.703l25.695 1.3z" fill="#90ea8f"/><path d="m409.513 0-117.283 50.708 20.521 15.521c37.804 28.594 80.975 44.307 128.314 46.703l25.695 1.3z" fill="#00ba9f"/><g><path d="m190.592 394.343h30v30.002h-30z" fill="#ac5e2e"/></g><g><path d="m190.592 329.677h30v30.001h-30z" fill="#ac5e2e"/></g><g><path d="m140.589 364.341h30v30.002h-30z" fill="#ac5e2e"/></g><path d="m440.693 147.589h-350.195l-43.991 99.243h438.177z" fill="#fff5f5"/><path d="m440.693 147.589h-175.097v99.243h219.088z" fill="#ece6f2"/></g></svg>