<svg id="Layer_1" enable-background="new 0 0 512.043 512.043" height="512" viewBox="0 0 512.043 512.043" width="512" xmlns="http://www.w3.org/2000/svg"><g><path d="m84.62 78.489c-1.181 8.163-1.793 16.511-1.793 25.002 0 95.653 77.542 173.195 173.195 173.195s173.195-77.542 173.195-173.195c0-8.491-.612-16.838-1.793-25.002z" fill="#913f02"/><path d="m427.423 78.489h-171.402v198.197c95.653 0 173.195-77.542 173.195-173.195.001-8.492-.611-16.839-1.793-25.002z" fill="#673416"/><path d="m444.217 103.49c0-33.904-9.131-67.158-26.407-96.166l-4.363-7.324h-314.851l-4.362 7.325c-17.276 29.007-26.408 62.261-26.408 96.165 0 98.723 76.41 179.934 173.195 187.602v107.739c0 45.883-37.328 83.211-83.211 83.211v30h196.422v-30c-45.883 0-83.211-37.328-83.211-83.211v-107.738c96.786-7.668 173.196-88.88 173.196-187.603zm-188.196 158.196c-87.229 0-158.195-70.966-158.195-158.195 0-3.343.106-6.678.315-10.001h315.76c.21 3.323.315 6.658.315 10.001.001 87.228-70.966 158.195-158.195 158.195z" fill="#e6faff"/><path d="m444.217 103.49c0-33.904-9.131-67.158-26.407-96.166l-4.363-7.324h-157.426v93.49h157.88c.21 3.323.315 6.658.315 10.001 0 87.229-70.966 158.195-158.195 158.195v250.357h98.211v-30c-45.883 0-83.211-37.328-83.211-83.211v-107.739c96.786-7.668 173.196-88.88 173.196-187.603z" fill="#d3f0ff"/><g><path d="m241.021 187.998h30v30.002h-30z" fill="#ac5e2e"/></g><g><path d="m161.182 131.328h30v30.002h-30z" fill="#ac5e2e"/></g><g><path d="m317.183 149.33h30v30.001h-30z" fill="#ac5e2e"/></g><g><path d="m317.183 149.33h30v30.001h-30z" fill="#913f02"/></g><path d="m256.021 187.998h15v30.002h-15z" fill="#913f02"/></g></svg>