<svg id="Layer_1" enable-background="new 0 0 511.996 511.996" height="512" viewBox="0 0 511.996 511.996" width="512" xmlns="http://www.w3.org/2000/svg"><g><g><path d="m392.265 0h30v30.979h-30z" fill="#90ea8f"/></g><path d="m407.264 0h15.001v30.979h-15.001z" fill="#00ba9f"/><path d="m382.251 154.208c7.663 4.212 16.313 6.438 25.014 6.438 21.35 0 40.28-12.803 48.227-32.618l12.543-31.273c2.808-7 4.23-14.372 4.23-21.912 0-32.458-26.406-58.864-58.863-58.864h-12.272c-32.458 0-58.864 26.406-58.864 58.864 0 6.121.962 12.203 2.858 18.077z" fill="#ff3838"/><path d="m413.402 15.979h-6.138v144.667h.001c21.35 0 40.28-12.803 48.227-32.618l12.543-31.273c2.808-7 4.23-14.372 4.23-21.912 0-32.457-26.406-58.864-58.863-58.864z" fill="#e50058"/><path d="m56.592 137.266c3.915 18.034 13.866 34.402 28.48 46.223l27.25 22.043c10.877 8.798 19.314 20.241 24.505 33.232l6.539 16.367c12.408 31.057 42.48 51.425 75.924 51.425h8.415c33.444 0 63.516-20.368 75.925-51.425l6.539-16.367c5.191-12.991 13.628-24.434 24.505-33.232l27.25-22.043c14.614-11.821 24.565-28.188 28.48-46.223z" fill="#e50058"/><path d="m223.497 137.266v169.29h4.208c33.444 0 63.516-20.368 75.925-51.425l6.539-16.367c5.191-12.991 13.628-24.434 24.505-33.232l27.25-22.043c14.614-11.821 24.565-28.188 28.48-46.223z" fill="#b40042"/><path d="m39.731 73.313v46.609c0 29.35 13.088 56.77 35.907 75.229l27.25 22.042c8.861 7.168 15.78 16.551 20.009 27.135l6.54 16.368c13.421 33.591 43.764 56.382 79.061 60.268v82.872c0 43.097-35.062 78.159-78.159 78.159v30h186.318v-30c-43.097 0-78.159-35.062-78.159-78.159v-82.872c35.297-3.886 65.64-26.677 79.062-60.268l6.54-16.368c4.229-10.584 11.147-19.967 20.009-27.135l27.25-22.042c22.819-18.459 35.906-45.879 35.906-75.229v-46.609zm312.759 98.514-27.25 22.042c-12.844 10.389-22.872 23.989-29.001 39.328l-6.54 16.368c-10.191 25.508-34.525 41.99-61.994 41.99h-8.415c-27.469 0-51.803-16.482-61.994-41.991l-6.54-16.367c-6.129-15.34-16.157-28.939-29.001-39.329l-27.25-22.042c-6.796-5.498-12.341-12.148-16.449-19.56h290.884c-4.108 7.413-9.653 14.063-16.45 19.561z" fill="#e6faff"/><path d="m223.497 73.313v78.954h145.442c-4.108 7.412-9.653 14.062-16.449 19.56l-27.25 22.042c-12.844 10.389-22.872 23.989-29.001 39.328l-6.54 16.368c-10.191 25.508-34.525 41.99-61.994 41.99h-4.208v220.44h93.159v-30c-43.097 0-78.159-35.062-78.159-78.159v-82.872c35.297-3.886 65.64-26.677 79.062-60.268l6.54-16.368c4.229-10.584 11.147-19.967 20.009-27.135l27.25-22.042c22.819-18.459 35.906-45.879 35.906-75.229v-46.609z" fill="#d3f0ff"/></g></svg>