<svg id="Layer_1" enable-background="new 0 0 512.032 512.032" height="512" viewBox="0 0 512.032 512.032" width="512" xmlns="http://www.w3.org/2000/svg"><g><path d="m328.386 167.341c3.243-8.539 5.034-17.793 5.034-27.469 0-60.382-52.834-72.745-77.404-115.947 0 0-.015.014-.044.042-12.131 11.52-18.907 27.566-18.772 44.294.003.389-.003.78-.017 1.172-.502 13.386-11.644 24.12-25.039 24.151-4.731.011-9.156-1.289-12.938-3.553-11.728 17.423-20.592 31.876-20.592 49.841 0 9.676 1.791 18.93 5.034 27.469z" fill="#ffa400"/><path d="m333.42 139.872c0-60.382-52.834-72.745-77.404-115.947v143.416h72.37c3.243-8.539 5.034-17.793 5.034-27.469z" fill="#ff7d47"/><path d="m342.408 172.667-28.045-10.652c2.691-7.087 4.056-14.536 4.056-22.143 0-31.361-16.615-46.428-37.651-65.502-8.435-7.648-17.05-15.46-24.835-24.647-2.481 5.754-3.786 12.031-3.734 18.417.005.607-.004 1.229-.027 1.854-.811 21.592-18.378 38.542-39.995 38.591-2.292-.036-4.538-.183-6.764-.558-10.849 17.535-11.801 24.474-11.801 31.846 0 7.606 1.365 15.056 4.056 22.143l-28.045 10.652c-3.989-10.502-6.011-21.536-6.011-32.795 0-22.074 10.033-38.733 23.149-58.218l7.944-11.802 12.206 7.309c1.577.944 3.317 1.423 5.173 1.423h.024c5.36-.012 9.883-4.369 10.084-9.713.006-.158.008-.318.007-.479-.168-20.843 8.376-40.996 23.442-55.303l.139-.131 13.886-12.959 9.389 16.51c7.918 13.923 19.55 24.47 31.865 35.637 22.265 20.188 47.5 43.07 47.5 87.726-.001 11.258-2.023 22.292-6.012 32.794z" fill="#fff486"/><path d="m300.92 52.146c-12.315-11.167-23.947-21.714-31.865-35.637l-9.389-16.509-3.65 3.406v46.414c7.763 9.145 16.347 16.929 24.752 24.55 21.036 19.074 37.651 34.141 37.651 65.502 0 7.606-1.365 15.056-4.056 22.143l28.045 10.652c3.989-10.502 6.011-21.536 6.011-32.795 0-44.655-25.234-67.537-47.499-87.726z" fill="#ffd300"/><path d="m144.889 223.47v84.005l11.212 81.427v17.627c0 19.053 15.446 34.499 34.499 34.499h130.832c19.053 0 34.499-15.446 34.499-34.499v-17.627l11.212-81.427v-84.005z" fill="#00ba9f"/><path d="m256.016 223.47v217.559h65.416c19.053 0 34.499-15.446 34.499-34.499v-17.627l11.212-81.427v-84.006z" fill="#008475"/><path d="m144.889 167.341h222.254v71.13h-222.254z" fill="#90ea8f"/><path d="m256.016 167.341h111.127v71.13h-111.127z" fill="#00ba9f"/><path d="m129.889 152.341v156.161l11.211 81.428v122.103h229.831v-122.103l11.211-81.428v-156.161zm191.543 273.688h-130.832c-10.752 0-19.5-8.748-19.5-19.5v-18.654l-11.211-81.428v-124.106h192.254v124.106l-11.211 81.428v18.654c0 10.752-8.748 19.5-19.5 19.5z" fill="#e6faff"/><path d="m256.016 152.341v30h96.127v124.106l-11.211 81.428v18.654c0 10.752-8.748 19.5-19.5 19.5h-65.416v86.003h114.916v-122.102l11.211-81.428v-156.161z" fill="#d3f0ff"/></g></svg>