<svg id="Layer_1" enable-background="new 0 0 512.01 512.01" height="512" viewBox="0 0 512.01 512.01" width="512" xmlns="http://www.w3.org/2000/svg"><g><path d="m406.688 103.522h-301.368l-7.827 25.256c-22.974 74.132 19.292 152.7 93.812 174.384l23.685 6.892c24.309 7.074 41.027 29.35 41.027 54.668v-.002c0-25.317 16.717-47.593 41.026-54.667l23.667-6.888c74.517-21.686 116.781-100.253 93.807-174.383z" fill="#ff6378"/><path d="m414.517 128.782-7.828-25.26h-150.672v261.081c0 .04.001.079.001.119v-.002c0-25.317 16.717-47.593 41.026-54.667l23.667-6.888c74.516-21.686 116.78-100.253 93.806-174.383z" fill="#ff415b"/><path d="m428.845 124.342-38.534-124.342h-268.613l-38.533 124.337c-12.312 39.728-8.24 81.779 11.464 118.407s52.55 63.2 92.484 74.82l23.685 6.893c17.793 5.178 30.22 21.735 30.22 40.265v117.288h-76.408v30h182.813v-30h-76.406v-117.288s0 0 0-.001c0-18.529 12.426-35.087 30.217-40.265l23.667-6.888c39.934-11.622 72.777-38.193 92.48-74.821s23.775-78.678 11.464-118.405zm-37.883 104.193c-15.86 29.483-42.298 50.873-74.443 60.228l-23.667 6.888c-14.969 4.356-27.724 13.408-36.835 25.252-9.111-11.844-21.866-20.895-36.836-25.251l-23.686-6.893c-32.146-9.354-58.585-30.743-74.446-60.228s-19.139-63.334-9.228-95.313l4.554-14.695h279.258l4.555 14.7c9.912 31.978 6.634 65.827-9.226 95.312z" fill="#e6faff"/><path d="m428.845 124.342-38.534-124.342h-134.294v118.523h139.616l4.555 14.7c9.911 31.979 6.634 65.828-9.227 95.312-15.86 29.483-42.298 50.873-74.443 60.228l-23.667 6.888c-14.969 4.356-27.724 13.408-36.835 25.252v191.107h91.407v-30h-76.406v-117.288s0 0 0-.001c0-18.529 12.426-35.087 30.217-40.265l23.667-6.888c39.934-11.622 72.777-38.193 92.48-74.821s23.775-78.678 11.464-118.405z" fill="#d3f0ff"/><circle cx="317.787" cy="118.523" fill="#ff415b" r="41.646"/><g fill="#e50058"><path d="m206.876 150.009-10.606 10.606c-12.269 12.269-19.026 28.581-19.026 45.932s6.758 33.663 19.026 45.932c12.269 12.269 28.58 19.025 45.932 19.025 17.351 0 33.662-6.757 45.931-19.025l10.606-10.606z"/><path d="m276.141 118.523c0 22.964 18.683 41.646 41.646 41.646s41.646-18.682 41.646-41.646z"/><circle cx="317.787" cy="118.523" r="41.646"/></g><path d="m276.141 118.523c0 22.964 18.683 41.646 41.646 41.646s41.646-18.682 41.646-41.646z" fill="#b40042"/><path d="m298.738 241.872-42.722-42.722v70.89c12.078-2.603 23.171-8.617 32.115-17.562z" fill="#b40042"/></g></svg>