<svg id="Layer_1" enable-background="new 0 0 511.982 511.982" height="512" viewBox="0 0 511.982 511.982" width="512" xmlns="http://www.w3.org/2000/svg"><g><path d="m192.208 84.108c0-38.167-30.941-69.108-69.108-69.108s-69.108 30.941-69.108 69.108 30.94 69.108 69.108 69.108c5.154 0 10.169-.582 15.001-1.652z" fill="#fff486"/><path d="m123.1 15v138.215c5.154 0 10.169-.582 15.001-1.652l54.107-67.456c0-38.167-30.941-69.107-69.108-69.107z" fill="#90ea8f"/><path d="m123.1 168.215c-46.377 0-84.107-37.73-84.107-84.108-.001-46.377 37.73-84.107 84.107-84.107s84.107 37.73 84.107 84.107h-30c0-29.835-24.272-54.107-54.107-54.107s-54.108 24.272-54.108 54.107 24.272 54.108 54.107 54.108c3.915 0 7.871-.437 11.759-1.297l6.484 29.291c-6.013 1.331-12.151 2.006-18.242 2.006z" fill="#90ea8f"/><path d="m123.1 0v30c29.835 0 54.107 24.272 54.107 54.107h30c0-46.377-37.73-84.107-84.107-84.107z" fill="#00ba9f"/><path d="m138.101 168.216v6.912c0 50 3.419 99.941 10.233 149.475l15.459 112.376h268.506l15.459-112.376c6.814-49.533 10.233-99.475 10.233-149.475v-6.912z" fill="#d3f0ff"/><path d="m298.045 168.216v268.763h134.253l15.459-112.376c6.814-49.533 10.233-99.475 10.233-149.475v-6.912z" fill="#75d7fe"/><g fill="#e6faff"><path d="m123.101 69.107v106.021c0 50.507 3.49 101.485 10.373 151.519l15.319 111.36v73.975h298.505v-73.975l15.319-111.36c6.883-50.033 10.373-101.012 10.373-151.519v-106.021zm296.119 352.872h-242.349l-13.677-99.42c-6.331-46.014-9.711-92.849-10.062-139.342h289.827c-.352 46.493-3.731 93.328-10.062 139.342z"/><path d="m192.858 225.088h86.727v86.726h-86.727z"/><path d="m316.506 278.288h86.727v86.726h-86.727z"/></g><path d="m316.506 278.288h86.727v86.726h-86.727z" fill="#d3f0ff"/><path d="m298.045 69.107v114.11h144.914c-.352 46.493-3.731 93.328-10.062 139.342l-13.677 99.42h-121.175v90.004h149.252v-73.975l15.319-111.36c6.883-50.033 10.373-101.012 10.373-151.519v-106.022z" fill="#d3f0ff"/></g></svg>