<svg id="Layer_1" enable-background="new 0 0 512.008 512.008" height="512" viewBox="0 0 512.008 512.008" width="512" xmlns="http://www.w3.org/2000/svg"><g><path d="m65.905 296.499h107.832v171.074h-107.832z" fill="#6e76e5" transform="matrix(.707 -.707 .707 .707 -235.045 196.622)"/><path d="m96.147 369.509h107.832v85.537h-107.832z" fill="#0051bf" transform="matrix(.707 -.707 .707 .707 -247.572 226.864)"/><path d="m142.181 459.431-99.755-99.755 65.642-65.642-21.213-21.213-86.855 86.855 142.181 142.18 86.855-86.855-21.213-21.213z" fill="#60b4ff"/><path d="m142.181 501.856 86.855-86.855-21.213-21.213-65.642 65.643-49.878-49.878-21.213 21.213z" fill="#6e76e5"/><path d="m347.566 200.457 68.823-68.823-46.166-46.166-68.823 68.823-1.576-1.576c-19.785-19.785-51.864-19.785-71.649 0l-44.444 44.444 21.282 21.282c6.804 6.804 15.099 11.931 24.228 14.974 18.509 6.17 33.032 20.693 39.202 39.202 3.043 9.129 8.17 17.424 14.974 24.228l21.282 21.282 44.444-44.444c19.785-19.785 19.785-51.864 0-71.649z" fill="#6e76e5"/><path d="m268.443 272.616c3.043 9.129 8.17 17.424 14.974 24.228l21.282 21.282 44.444-44.444c19.785-19.785 19.785-51.864 0-71.649l-1.576-1.576 68.823-68.823-23.083-23.083-139.838 139.836c6.716 6.716 11.889 14.974 14.974 24.229z" fill="#0051bf"/><path d="m426.995 142.24-21.213-21.213-79.434 79.433 12.188 12.18c13.905 13.905 13.905 36.53 0 50.436l-44.444 44.444 21.213 21.213 44.444-44.444c22.513-22.513 25.23-57.438 8.148-82.949z" fill="#60b4ff"/><path d="m426.995 142.24-21.213-21.213-79.434 79.433 12.188 12.18c13.905 13.905 13.905 36.53 0 50.436l-44.444 44.444 21.213 21.213 44.444-44.444c22.513-22.513 25.23-57.438 8.148-82.949z" fill="#6e76e5"/><path d="m238.781 163.321c6.736-6.736 15.692-10.446 25.218-10.446s18.481 3.71 25.221 10.45l12.184 12.176 79.426-79.427-21.213-21.213-59.088 59.089c-10.718-7.204-23.326-11.075-36.529-11.075-17.539 0-34.029 6.831-46.431 19.233l-44.444 44.444 21.213 21.213z" fill="#60b4ff"/><g><path d="m443.588 79.481-21.213-21.212 42.627-42.627h47.006v30h-34.58z" fill="#fff5f5"/></g><path d="m486.215 15.642-53.234 53.233 10.607 10.606 33.84-33.839h34.58v-30z" fill="#ece6f2"/><path d="m370.089 20.665h86.11v136.095h-86.11z" fill="#ece6f2" transform="matrix(.707 -.707 .707 .707 58.276 318.117)"/><path d="m394.147 78.747h86.11v68.048h-86.11z" fill="#e2dce8" transform="matrix(.707 -.707 .707 .707 48.312 342.179)"/><path d="m294.022 286.237c-5.13-5.131-9.055-11.481-11.35-18.365-7.622-22.865-25.823-41.066-48.688-48.688-6.883-2.294-13.233-6.219-18.365-11.35l-31.889-31.889-107.481 107.483 142.181 142.18 107.481-107.481z" fill="#75d7fe"/><path d="m282.673 267.872c-3.811-11.433-10.267-21.699-18.628-30.06l-116.706 116.705 71.091 71.09 107.481-107.481-31.889-31.889c-5.129-5.131-9.054-11.481-11.349-18.365z" fill="#60b4ff"/><g><path d="m187.14 265.98h30v67.472h-30z" fill="#d3f0ff" transform="matrix(.707 -.707 .707 .707 -152.726 230.72)"/></g><path d="m199.068 294.776h30v33.736h-30z" fill="#75d7fe" transform="matrix(.707 -.707 .707 .707 -157.667 242.647)"/></g></svg>