<svg id="Layer_1" enable-background="new 0 0 511.995 511.995" height="512" viewBox="0 0 511.995 511.995" width="512" xmlns="http://www.w3.org/2000/svg"><g><path d="m119.583 139.163-5.83 52.069c0 78.56 63.685 142.245 142.245 142.245s142.245-63.685 142.245-142.245l-5.83-52.069z" fill="#ffd300"/><path d="m392.412 139.163h-136.414v194.314c78.56 0 142.245-63.685 142.245-142.245z" fill="#ffa400"/><path d="m391.924 0h-271.853l-21.319 190.395v.837c0 81.646 62.549 148.959 142.245 156.535v134.228h-59.35v30h148.7v-30h-59.35v-134.228c79.696-7.577 142.245-74.889 142.245-156.535v-.837zm-135.926 318.477c-69.894 0-126.806-56.638-127.243-126.431l4.242-37.882h246.002l4.242 37.882c-.437 69.793-57.35 126.431-127.243 126.431z" fill="#e6faff"/><path d="m391.924 0h-135.926v154.164h123.001l4.242 37.882c-.437 69.792-57.349 126.431-127.243 126.431v193.518h74.35v-30h-59.35v-134.228c79.696-7.577 142.245-74.889 142.245-156.535v-.837z" fill="#d3f0ff"/><g><path d="m270.998 124.516-30-.009v-1.697c.009-26.087 21.239-47.311 47.325-47.311v30c-9.55 0-17.322 7.77-17.325 17.32z" fill="#90ea8f"/></g><path d="m270.998 122.819c.003-9.55 7.775-17.32 17.325-17.32v-30c-12.486 0-23.859 4.863-32.326 12.793v36.219l15 .004z" fill="#00ba9f"/><circle cx="255.998" cy="154.173" fill="#ff3838" r="44.662"/><path d="m255.998 109.511v89.324c24.627 0 44.662-20.035 44.662-44.662s-20.035-44.662-44.662-44.662z" fill="#e50058"/><path d="m211.336 154.164v.008c0 24.627 20.035 44.662 44.662 44.662s44.662-20.035 44.662-44.662c0-.003 0-.006 0-.008z" fill="#e50058"/><path d="m300.66 154.164h-44.662v44.671c24.627 0 44.662-20.035 44.662-44.662 0-.003 0-.006 0-.009z" fill="#b40042"/></g></svg>