<svg id="Layer_1" enable-background="new 0 0 511.998 511.998" height="512" viewBox="0 0 511.998 511.998" width="512" xmlns="http://www.w3.org/2000/svg"><g><path d="m116.9 149.939v247.608c0 29.47 23.89 53.359 53.359 53.359h96.515c29.47 0 53.359-23.89 53.359-53.359v-247.608z" fill="#ac5e2e"/><path d="m218.517 149.939v300.967h48.257c29.47 0 53.359-23.89 53.359-53.359v-247.608z" fill="#913f02"/><path d="m320.134 133.046c4.794 1.235 9.821 1.892 15.001 1.892 33.117 0 59.964-26.847 59.964-59.964s-26.847-59.964-59.964-59.964-59.964 26.847-59.964 59.964z" fill="#fffae5"/><path d="m395.098 74.974c0-33.117-26.846-59.963-59.963-59.964v119.927c33.117.001 59.963-26.846 59.963-59.963z" fill="#fff486"/><path d="m335.135 149.938c-6.341 0-12.647-.796-18.742-2.366l7.482-29.052c3.653.941 7.441 1.418 11.26 1.418 24.793 0 44.963-20.171 44.963-44.964s-20.17-44.964-44.963-44.964-44.964 20.171-44.964 44.964h-30c0-41.335 33.629-74.964 74.964-74.964s74.963 33.628 74.963 74.964-33.628 74.964-74.963 74.964z" fill="#fff486"/><path d="m335.135.01v30c24.793 0 44.963 20.171 44.963 44.964s-20.17 44.964-44.963 44.964v30c41.335 0 74.963-33.628 74.963-74.964s-33.628-74.964-74.963-74.964z" fill="#ffd300"/><path d="m101.9 59.974v452.024h233.234v-452.024zm164.875 375.932h-96.515c-21.151 0-38.359-17.208-38.359-38.359v-232.607h173.234v232.607c-.001 21.151-17.209 38.359-38.36 38.359z" fill="#e6faff"/><path d="m335.134 59.974h-116.617v104.966h86.617v232.607c0 21.151-17.208 38.359-38.359 38.359h-48.258v76.092h116.617z" fill="#d3f0ff"/><g><path d="m168.195 0h30v164.939h-30z" fill="#ffa400"/></g><g><path d="m168.195 59.974h30v104.965h-30z" fill="#ff7d47"/></g><path d="m161.904 205.103h82.81v82.81h-82.81z" fill="#913f02"/><path d="m218.517 205.103h26.197v82.81h-26.197z" fill="#673416"/><path d="m192.32 317.917h82.81v82.81h-82.81z" fill="#913f02"/><path d="m218.517 317.917h56.613v82.81h-56.613z" fill="#673416"/></g></svg>