<svg id="Layer_1" enable-background="new 0 0 512.056 512.056" height="512" viewBox="0 0 512.056 512.056" width="512" xmlns="http://www.w3.org/2000/svg"><g><path d="m472.875 102.01v-15.001c0-39.758-32.23-71.989-71.989-71.989s-71.988 32.23-71.988 71.989v15.001z" fill="#fff486"/><path d="m472.875 87.009c0-39.758-32.23-71.988-71.989-71.988v86.989h71.989z" fill="#90ea8f"/><path d="m487.875 102.01h-30v-15.001c0-31.423-25.565-56.988-56.989-56.988-31.423 0-56.988 25.565-56.988 56.988v15.001h-30v-15.001c0-47.965 39.023-86.988 86.988-86.988 47.966 0 86.989 39.023 86.989 86.988z" fill="#90ea8f"/><path d="m400.886.021v30c31.424 0 56.989 25.565 56.989 56.988v15.001h30v-15.001c0-47.966-39.023-86.988-86.989-86.988z" fill="#00ba9f"/><path d="m39.182 125.011v11.848c0 36.121 29.282 65.402 65.402 65.402h19.242l12.063 58.155c7.536 36.33 39.541 62.378 76.644 62.378 37.103 0 69.109-26.048 76.644-62.378l12.063-58.155h19.242c36.121 0 65.402-29.282 65.402-65.402v-11.848z" fill="#fffae5"/><path d="m212.533 125.011v197.783c37.103 0 69.109-26.048 76.644-62.378l12.063-58.155h19.242c36.121 0 65.402-29.282 65.402-65.402v-11.848z" fill="#fff486"/><path d="m24.181 72.009v64.85c0 44.334 36.068 80.402 80.403 80.402h7.034l9.583 46.201c4.343 20.938 15.869 39.902 32.454 53.4 12.673 10.315 27.873 17.088 43.878 19.709v68.792c0 42.289-34.404 76.693-76.693 76.693v30h183.387v-30c-42.289 0-76.693-34.404-76.693-76.693v-68.792c16.006-2.621 31.205-9.394 43.878-19.709 16.584-13.498 28.11-32.462 32.453-53.4l9.583-46.201h7.034c44.334 0 80.402-36.068 80.402-80.402v-64.85h-376.703zm296.302 115.252h-31.45l-14.543 70.109c-6.061 29.218-32.117 50.424-61.957 50.424s-55.896-21.207-61.957-50.424l-14.542-70.108h-31.45c-26.733 0-48.672-20.92-50.305-47.249h316.508c-1.633 26.328-23.571 47.248-50.304 47.248z" fill="#e6faff"/><path d="m212.533 72.009v68.003h158.254c-1.633 26.329-23.571 47.249-50.304 47.249h-31.45l-14.543 70.109c-6.061 29.218-32.117 50.424-61.957 50.424v204.262h91.694v-30c-42.289 0-76.693-34.404-76.693-76.693v-68.792c16.006-2.621 31.205-9.394 43.878-19.709 16.584-13.498 28.11-32.462 32.453-53.4l9.583-46.201h7.034c44.334 0 80.402-36.068 80.402-80.402v-64.85z" fill="#d3f0ff"/><path d="m109.698 0-26.903 13.275 62.538 126.737h33.454z" fill="#00ba9f"/><path d="m111.776 72.009 33.557 68.003h33.454l-33.557-68.003z" fill="#008475"/></g></svg>