<svg id="Layer_1" enable-background="new 0 0 511.99 511.99" height="512" viewBox="0 0 511.99 511.99" width="512" xmlns="http://www.w3.org/2000/svg"><g><path d="m390.991 166.52h-269.991l134.995 157.113z" fill="#d3f0ff"/><path d="m255.995 166.52v157.113l134.996-157.113z" fill="#75d7fe"/><path d="m459.249 110.095v-30.558h-406.508v30.558l188.254 219.097v152.798h-75.851v30h181.701v-30h-75.851v-152.798zm-203.254 190.522-102.33-119.096h204.66z" fill="#e6faff"/><path d="m459.249 110.095v-30.558h-203.254v101.984h102.33l-102.33 119.096v211.373h90.851v-30h-75.851v-152.798z" fill="#d3f0ff"/><g><path d="m274.212 38.004h105.087v30h-105.087z" fill="#60b4ff" transform="matrix(.5 -.866 .866 .5 117.474 309.479)"/></g><g><path d="m274.212 38.004h105.087v30h-105.087z" fill="#6e76e5" transform="matrix(.5 -.866 .866 .5 117.474 309.479)"/></g><path d="m294.116 79.537-6.623 11.471 25.981 15 15.283-26.471z" fill="#6e76e5"/><path d="m294.116 79.537-6.623 11.471 25.981 15 15.283-26.471z" fill="#0051bf"/><path d="m328.793 112.636c-3.088-11.523-10.479-21.154-20.81-27.119-6.785-3.918-14.498-5.989-22.303-5.989-15.921 0-30.752 8.559-38.706 22.335-5.965 10.332-7.55 22.368-4.462 33.891s10.479 21.154 20.81 27.119c6.785 3.918 14.498 5.989 22.303 5.989 15.921 0 30.752-8.559 38.706-22.336 5.965-10.331 7.55-22.367 4.462-33.89z" fill="#00ba9f"/><path d="m328.793 112.636c-3.088-11.523-10.479-21.154-20.81-27.119-6.785-3.918-14.498-5.989-22.303-5.989-11.071 0-21.615 4.138-29.686 11.292v66.786c2.235 1.976 4.685 3.742 7.327 5.267 6.785 3.918 14.498 5.989 22.303 5.989 15.921 0 30.752-8.559 38.706-22.336 5.966-10.331 7.551-22.367 4.463-33.89z" fill="#008475"/><path d="m278.322 136.893c-6.786-3.917-14.498-5.988-22.304-5.988-15.92 0-30.751 8.559-38.706 22.336-12.313 21.328-4.979 48.696 16.348 61.009 6.785 3.918 14.498 5.989 22.303 5.989 15.921 0 30.752-8.559 38.706-22.336 12.313-21.327 4.98-48.696-16.347-61.01z" fill="#90ea8f"/><path d="m278.322 136.893c-6.786-3.917-14.498-5.988-22.304-5.988-.008 0-.016 0-.023 0v89.334c15.909-.012 30.725-8.568 38.674-22.336 12.313-21.327 4.98-48.696-16.347-61.01z" fill="#00ba9f"/><path d="m211.745 181.521c1.795 13.241 9.474 25.547 21.915 32.729 6.785 3.918 14.498 5.989 22.303 5.989 15.921 0 30.752-8.559 38.706-22.336 3.004-5.203 4.838-10.766 5.586-16.382z" fill="#00ba9f"/><path d="m294.669 197.903c3.004-5.203 4.838-10.766 5.586-16.382h-44.26v38.718c15.909-.012 30.725-8.568 38.674-22.336z" fill="#008475"/></g></svg>