<svg id="Layer_1" enable-background="new 0 0 511.998 511.998" height="512" viewBox="0 0 511.998 511.998" width="512" xmlns="http://www.w3.org/2000/svg"><g><path d="m403.206.001c-16.964 0-32.245 7.342-42.833 19.014-10.589-11.672-25.87-19.014-42.833-19.014h-36.657v40.817c0 31.889 25.943 57.833 57.833 57.833h43.314c31.89 0 57.833-25.944 57.833-57.833v-40.817z" fill="#90ea8f"/><path d="m403.206.001c-16.964 0-32.245 7.342-42.833 19.014v79.636h21.657c31.89 0 57.833-25.944 57.833-57.833v-40.817z" fill="#00ba9f"/><path d="m87.135 161.521v223.025c0 29.469 23.89 53.359 53.359 53.359h196.521c29.47 0 53.359-23.89 53.359-53.359v-223.025z" fill="#90ea8f"/><g fill="#00ba9f"><path d="m238.755 161.521v276.385h98.26c29.47 0 53.359-23.89 53.359-53.359v-223.026z"/><path d="m130.068 225.104h86.726v86.726h-86.726z"/><path d="m260.716 288.304h86.726v86.726h-86.726z"/></g><g><path d="m137.441 339.538h30v30.001h-30z" fill="#00ba9f"/></g><g><path d="m190.108 362.202h30v30.002h-30z" fill="#00ba9f"/></g><g><path d="m300.494 218.529h30v30.002h-30z" fill="#00ba9f"/></g><path d="m72.135 68.651v443.347h333.24v-443.347zm264.88 354.254h-196.521c-21.151 0-38.359-17.208-38.359-38.359v-208.025h273.24v208.024c0 21.152-17.208 38.36-38.36 38.36z" fill="#e6faff"/><path d="m405.375 68.651h-166.62v107.87h136.62v208.024c0 21.151-17.208 38.359-38.359 38.359h-98.26v89.093h166.62v-443.346z" fill="#d3f0ff"/><g><path d="m158.431 0h30v176.521h-30z" fill="#60b4ff"/></g><g><path d="m158.431 68.651h30v107.87h-30z" fill="#6e76e5"/></g><path d="m260.716 288.304h86.726v86.726h-86.726z" fill="#008475"/><g><path d="m300.494 218.529h30v30.002h-30z" fill="#008475"/></g></g></svg>