<svg id="Layer_1" enable-background="new 0 0 511.996 511.996" height="512" viewBox="0 0 511.996 511.996" width="512" xmlns="http://www.w3.org/2000/svg"><g><g><path d="m330.202 147.739h-30v-98.018c0-27.416 22.304-49.721 49.72-49.721h36.312v30h-36.312c-10.874 0-19.721 8.847-19.721 19.721v98.018z" fill="#6e76e5"/></g><g><path d="m330.202 147.739h-30v-98.018c0-27.416 22.304-49.721 49.72-49.721h36.312v30h-36.312c-10.874 0-19.721 8.847-19.721 19.721v98.018z" fill="#0051bf"/></g><path d="m124.479 60.909h-39.644v43.997c0 31.889 25.944 57.833 57.833 57.833h39.644v-43.997c0-31.889-25.943-57.833-57.833-57.833z" fill="#90ea8f"/><path d="m202.888 75.525c-27.887 0-50.575 22.688-50.575 50.575 0 11.229 3.613 21.871 10.448 30.774l4.503 5.865h71.246l4.503-5.865c6.835-8.903 10.449-19.544 10.449-30.775 0-27.887-22.687-50.574-50.574-50.574z" fill="#ff415b"/><path d="m396.001 132.739h-261.348l-31.16 74.783v28.001h323.668v-28.001z" fill="#fffae5"/><path d="m427.161 207.522-31.16-74.783h-130.674v102.784h161.834z" fill="#fff486"/><path d="m103.493 207.522v183.713c0 66.588 54.173 120.761 120.761 120.761h82.146c66.588 0 120.761-54.173 120.761-120.761v-183.713z" fill="#fff486"/><g fill="#ffd300"><path d="m265.327 207.522v304.474h41.073c66.588 0 120.761-54.173 120.761-120.761v-183.713z"/><path d="m163.124 303.562 34.067-18.868 34.068 18.868 34.068-18.868 34.068 18.868 34.067-18.868 34.067 18.868 34.068-18.868 25.564 14.158v-34.294l-25.564-14.158-34.068 18.868-34.067-18.868-34.067 18.868-34.068-18.868-34.068 18.868-34.068-18.868-34.067 18.868-34.067-18.868-25.564 14.158v34.294l25.564-14.158z"/><path d="m163.124 383.67 34.067-18.867 34.068 18.867 34.068-18.867 34.068 18.867 34.067-18.867 34.067 18.867 34.068-18.867 25.564 14.158v-34.294l-25.564-14.158-34.068 18.867-34.067-18.867-34.067 18.867-34.068-18.867-34.068 18.867-34.068-18.867-34.067 18.867-34.067-18.867-25.564 14.158v34.293l25.564-14.157z"/><path d="m367.529 429.485-34.067-18.868-34.067 18.868-34.068-18.868-34.067 18.868-34.068-18.868-34.067 18.868-34.067-18.868-21.452 11.881c2.648 9.873 6.518 19.249 11.44 27.958l10.012-5.545 34.067 18.868 34.067-18.868 34.068 18.868 34.067-18.868 34.068 18.868 34.067-18.868 34.067 18.868 34.068-18.868 10.012 5.545c4.922-8.709 8.791-18.086 11.44-27.958l-21.452-11.881z"/></g><path d="m333.462 284.694 34.067 18.868 34.068-18.868 25.564 14.158v-34.294l-25.564-14.158-34.068 18.868-34.067-18.868-34.067 18.868-34.068-18.868v34.294l34.068 18.868z" fill="#ffa400"/><path d="m299.395 383.67 34.067-18.867 34.067 18.867 34.068-18.867 25.564 14.158v-34.294l-25.564-14.158-34.068 18.867-34.067-18.867-34.067 18.867-34.068-18.867v34.294z" fill="#ffa400"/><path d="m299.395 463.779 34.067-18.868 34.067 18.868 34.068-18.868 10.012 5.545c4.922-8.709 8.791-18.086 11.44-27.958l-21.452-11.881-34.068 18.868-34.067-18.868-34.067 18.868-34.068-18.868v34.294z" fill="#ffa400"/></g></svg>