<svg id="Layer_1" enable-background="new 0 0 512.097 512.097" height="512" viewBox="0 0 512.097 512.097" width="512" xmlns="http://www.w3.org/2000/svg"><g><path d="m485.82 236.957-13.312-33.69-7.175-2.89c-14.92-6.01-31.588-6.01-46.508 0-14.92 6.01-31.588 6.01-46.508 0-14.92-6.01-31.588-6.01-46.508 0s-31.588 6.01-46.508 0c-14.92-6.01-31.588-6.01-46.508 0-14.92 6.01-31.588 6.01-46.508 0s-31.588-6.01-46.508 0c-14.92 6.01-31.588 6.01-46.508 0-14.92-6.01-31.588-6.01-46.508 0l-7.175 2.89-13.312 33.69c-32.35 81.875 7.577 174.496 89.314 207.191l29.984 11.994h220.947l29.984-11.994c81.741-32.695 121.667-125.316 89.317-207.191z" fill="#ffa400"/><path d="m485.82 236.957-13.312-33.69-7.175-2.89c-14.92-6.01-31.588-6.01-46.508 0-14.92 6.01-31.588 6.01-46.508 0-14.92-6.01-31.588-6.01-46.508 0s-31.588 6.01-46.508 0c-7.46-3.005-15.357-4.507-23.254-4.507v260.273h110.473l29.984-11.994c81.74-32.696 121.666-125.317 89.316-207.192z" fill="#ff7d47"/><path d="m499.77 231.445-40.072-101.423h-407.298l-40.074 101.423c-17.114 43.313-16.386 90.721 2.05 133.487 18.436 42.768 52.402 75.847 95.644 93.143l32.667 13.067h226.724l32.667-13.067c43.24-17.296 77.207-50.375 95.643-93.143 18.435-42.766 19.164-90.174 2.049-133.487zm-29.598 121.612c-15.273 35.431-43.413 62.834-79.236 77.164l-27.302 10.921h-215.17l-27.302-10.921c-35.823-14.33-63.963-41.733-79.236-77.164s-15.876-74.705-1.698-110.589l11.385-28.815c13.621-4.217 28.336-3.642 41.658 1.724 14.92 6.01 31.588 6.01 46.508 0 14.92-6.01 31.588-6.01 46.508 0 14.92 6.01 31.588 6.01 46.508 0 14.92-6.01 31.588-6.01 46.508 0 14.92 6.01 31.588 6.01 46.508 0 14.92-6.01 31.588-6.01 46.508 0 14.92 6.01 31.588 6.01 46.508 0 13.322-5.366 28.038-5.941 41.658-1.724l11.385 28.815c14.178 35.884 13.574 75.159-1.698 110.589z" fill="#e6faff"/><path d="m499.77 231.445-40.072-101.423h-203.649v80.848c7.897 0 15.794 1.502 23.254 4.507 14.92 6.01 31.588 6.01 46.508 0 14.92-6.01 31.588-6.01 46.508 0 14.92 6.01 31.588 6.01 46.508 0 13.322-5.366 28.038-5.941 41.658-1.724l11.385 28.815c14.178 35.884 13.574 75.158-1.698 110.589-15.273 35.431-43.413 62.834-79.236 77.164l-27.302 10.921h-107.585v30h113.362l32.667-13.067c43.24-17.296 77.207-50.375 95.643-93.143 18.435-42.766 19.164-90.174 2.049-133.487z" fill="#d3f0ff"/><g><path d="m67.382 279.418h30v30.002h-30z" fill="#ff7d47"/></g><g><path d="m107.384 329.421h30v30.002h-30z" fill="#ff7d47"/></g><g><path d="m336.715 379.784h30v30.002h-30z" fill="#ff7d47"/></g><g><path d="m404.715 331.535h30v30.002h-30z" fill="#ff7d47"/></g><g><path d="m384.714 261.53h30v30.002h-30z" fill="#ff7d47"/></g><path d="m471.523 70.955h16.848v-30h-16.848c-25.662 0-49.253 15.029-60.101 38.289l-68.516 146.933c9.915-.986 20.01.415 29.411 4.202.487.196.975.386 1.465.569l64.828-139.025c5.941-12.738 18.86-20.968 32.913-20.968z" fill="#60b4ff"/><path d="m471.523 70.955h16.848v-30h-16.848c-25.662 0-49.253 15.029-60.101 38.289l-68.516 146.933c9.915-.986 20.01.415 29.411 4.202.487.196.975.386 1.465.569l64.828-139.025c5.941-12.738 18.86-20.968 32.913-20.968z" fill="#6e76e5"/><path d="m372.318 215.377c-7.153-2.881-14.707-4.381-22.278-4.499l-49.588 106.342-113.092-52.736-9.422 20.205c-18.027 38.658-1.242 84.774 37.417 102.802l.113.052c10.32 4.805 21.289 7.24 32.603 7.24 29.958 0 57.493-17.538 70.149-44.679l61.66-132.231c-2.558-.666-5.084-1.498-7.562-2.496z" fill="#ff7d47"/><g><path d="m336.715 379.784h30v30.002h-30z" fill="#ff3838"/></g><g><path d="m404.715 331.535h30v30.002h-30z" fill="#ff3838"/></g><g><path d="m384.714 261.53h30v30.002h-30z" fill="#ff3838"/></g><path d="m372.318 215.377c-7.153-2.881-14.707-4.381-22.278-4.5l-49.588 106.343-44.404-20.706v97.852c26.791-2.801 50.648-19.551 62.171-44.262l61.66-132.231c-2.557-.666-5.083-1.498-7.561-2.496z" fill="#ff3838"/></g></svg>