<svg id="Layer_1" enable-background="new 0 0 512.014 512.014" height="512" viewBox="0 0 512.014 512.014" width="512" xmlns="http://www.w3.org/2000/svg"><g><path d="m107.324 128.991v139.507c0 58.081 47.084 105.165 105.165 105.165 58.081 0 105.165-47.084 105.165-105.165v-139.507z" fill="#ffd300"/><path d="m212.489 128.991v244.671c58.081 0 105.165-47.084 105.165-105.165v-139.506z" fill="#ffa400"/><path d="m404.69 101.99v-15.001c0-39.759-32.231-71.989-71.989-71.989s-71.988 32.23-71.988 71.989v15.001z" fill="#fff486"/><path d="m404.69 86.989c0-39.759-32.231-71.989-71.989-71.989v86.989h71.988v-15z" fill="#ffd300"/><path d="m419.69 101.989h-30v-15.001c0-31.424-25.565-56.988-56.989-56.988s-56.988 25.564-56.988 56.988v15.001h-30v-15.001c0-47.966 39.023-86.988 86.988-86.988s86.988 39.022 86.988 86.988v15.001z" fill="#ffd300"/><path d="m332.701 0v30c31.424 0 56.988 25.564 56.988 56.988v15.001h30v-15.001c.001-47.966-39.022-86.988-86.988-86.988z" fill="#ffa400"/><path d="m92.324 71.988v196.51c0 61.18 45.959 111.827 105.165 119.232v11.073c0 45.883-37.328 83.211-83.211 83.211v30h196.421v-30c-45.883 0-83.21-37.328-83.21-83.211v-11.073c59.206-7.405 105.165-58.052 105.165-119.232v-196.51zm120.165 286.674c-49.717 0-90.165-40.447-90.165-90.164v-124.506h180.33v124.506c0 49.717-40.448 90.164-90.165 90.164z" fill="#e6faff"/><path d="m332.654 268.498v-196.51h-120.165v72.004h90.165v124.506c0 49.717-40.447 90.164-90.165 90.164v153.352h98.211v-30c-45.883 0-83.21-37.328-83.21-83.211v-11.073c59.205-7.405 105.164-58.052 105.164-119.232z" fill="#d3f0ff"/><path d="m233.004 183.996c-22.964 0-41.646 18.682-41.646 41.646s18.682 41.646 41.646 41.646 41.646-18.683 41.646-41.646-18.682-41.646-41.646-41.646z" fill="#ffa400"/><g><path d="m197.489 297.324h30v30.002h-30z" fill="#ffa400"/></g><g><path d="m150.486 267.322h30v30.002h-30z" fill="#ffa400"/></g><g><path d="m178.893 143.992h-30v-99.108c0-8.207-6.677-14.884-14.884-14.884h-26.252v-30h26.252c24.749 0 44.884 20.135 44.884 44.884z" fill="#90ea8f"/></g><path d="m148.893 71.988h30v72.004h-30z" fill="#00ba9f"/><g fill="#ff7d47"><path d="m274.65 225.642c0-22.964-18.682-41.646-41.646-41.646-7.454 0-14.456 1.969-20.515 5.413v72.466c6.059 3.444 13.061 5.413 20.515 5.413 22.964 0 41.646-18.683 41.646-41.646z"/><path d="m212.489 297.324h15v30.002h-15z"/></g></g></svg>