<svg id="Layer_1" enable-background="new 0 0 511.985 511.985" height="512" viewBox="0 0 511.985 511.985" width="512" xmlns="http://www.w3.org/2000/svg"><g><path d="m125.419 225.096c1.74 28.2 5.078 56.292 10.005 84.138l12.293 69.483v29.428c0 16.915 13.712 30.627 30.628 30.627h80.335c16.915 0 30.628-13.712 30.628-30.627v-29.428l12.293-69.483c4.927-27.846 8.265-55.937 10.005-84.138z" fill="#ff7d47"/><path d="m218.513 225.096v213.677h40.167c16.915 0 30.628-13.712 30.628-30.627v-29.428l12.293-69.483c4.927-27.846 8.265-55.937 10.005-84.138h-93.093z" fill="#ff3838"/><path d="m313.023 179.106v-54.372h-189.022v54.372c0 20.365.833 40.713 2.495 60.991h184.033c1.661-20.278 2.494-40.625 2.494-60.991z" fill="#ffd300"/><path d="m218.513 124.734v115.363h92.016c1.661-20.278 2.495-40.625 2.495-60.991v-54.372z" fill="#ffa400"/><path d="m387.984 89.961v-15.001c0-33.115-26.845-59.96-59.96-59.96s-59.96 26.845-59.96 59.96v15.001z" fill="#fff486"/><path d="m387.984 74.96c0-33.115-26.845-59.96-59.959-59.96v74.961h59.96v-15.001z" fill="#ffd300"/><path d="m402.984 89.961h-30v-15.001c0-24.791-20.169-44.959-44.96-44.959-24.79 0-44.959 20.169-44.959 44.959v15.001h-30v-15.001c0-41.333 33.626-74.959 74.959-74.959s74.96 33.626 74.96 74.959z" fill="#ffd300"/><path d="m328.024.001v30c24.791 0 44.96 20.169 44.96 44.959v15.001h30v-15.001c0-41.333-33.627-74.959-74.96-74.959z" fill="#ffa400"/><path d="m109.001 59.96v119.146c0 44.379 3.92 89.04 11.652 132.741l12.063 68.186v131.952h171.59v-131.951l12.064-68.187c7.732-43.701 11.652-88.362 11.652-132.741v-119.146zm177.83 246.661-12.524 70.779v30.746c0 8.617-7.01 15.627-15.627 15.627h-80.336c-8.617 0-15.627-7.01-15.627-15.627v-30.746l-12.522-70.779c-7.428-41.98-11.193-84.882-11.193-127.514v-39.371h159.022v39.371c0 42.631-3.766 85.533-11.193 127.514z" fill="#e6faff"/><path d="m218.513 59.96v79.775h79.511v39.371c0 42.631-3.766 85.534-11.193 127.514l-12.524 70.78v30.746c0 8.617-7.01 15.627-15.627 15.627h-40.167v88.212h85.794v-131.951l12.064-68.187c7.732-43.701 11.652-88.362 11.652-132.741v-119.146z" fill="#d3f0ff"/><g><path d="m166.005 0h30v139.735h-30z" fill="#6e76e5"/></g><g><path d="m166.005 59.96h30v79.774h-30z" fill="#0051bf"/></g></g></svg>