<svg id="Layer_1" enable-background="new 0 0 511.989 511.989" height="512" viewBox="0 0 511.989 511.989" width="512" xmlns="http://www.w3.org/2000/svg"><g><path d="m78.653 174.243-40.723 201.476 65.523 121.27h251.78l65.523-121.27-40.723-201.476z" fill="#ff7d47"/><path d="m420.756 375.719-40.723-201.476h-150.69v322.746h125.89z" fill="#ff3838"/><g><path d="m403.083 299.869h-.69v-30h.69c31.295 0 56.755-25.46 56.755-56.755v-79.167h-90.981v-30h120.981v109.167c0 47.837-38.918 86.755-86.755 86.755z" fill="#d3f0ff"/></g><g><path d="m403.083 299.869h-.69v-30h.69c31.295 0 56.755-25.46 56.755-56.755v-79.167h-90.981v-30h120.981v109.167c0 47.837-38.918 86.755-86.755 86.755z" fill="#75d7fe"/></g><path d="m377.103 84.036v-10.001h-295.521v10.001l-59.43 294.035 72.356 133.918h269.67l72.356-133.918zm-30.815 397.953h-233.89l-58.689-108.622 37.215-184.123h276.837l37.215 184.123z" fill="#e6faff"/><path d="m436.534 378.071-59.431-294.035v-10h-147.76v115.208h138.418l37.216 184.123-58.689 108.622h-116.945v30h134.835z" fill="#d3f0ff"/><path d="m377.103 84.036 14.007-84.036h-349.024v30h30.49l9.006 54.036z" fill="#d3f0ff"/><path d="m391.11 0h-161.767v84.036h147.76z" fill="#75d7fe"/><path d="m271.36 326.343-10.606-10.606-100.443 100.442 10.606 10.606c13.415 13.415 31.25 20.803 50.222 20.803s36.807-7.388 50.221-20.802c13.415-13.415 20.803-31.25 20.803-50.222s-7.388-36.807-20.803-50.221z" fill="#ff3838"/><path d="m116.72 233.686h86.726v86.726h-86.726z" fill="#ff3838"/><path d="m246.052 145.88h86.726v86.726h-86.726z" fill="#d3f0ff"/><path d="m246.052 145.88h86.726v86.726h-86.726z" fill="#75d7fe"/><g><path d="m96.719 354.767h30v30.002h-30z" fill="#ff3838"/></g><g><path d="m320.779 384.769h30v30.002h-30z" fill="#ff3838"/></g><path d="m246.052 189.244h86.726v43.363h-86.726z" fill="#ff3838"/><g><path d="m320.779 384.769h30v30.002h-30z" fill="#e50058"/></g><g fill="#e50058"><path d="m246.052 189.244h86.726v43.363h-86.726z"/><path d="m292.162 376.564c0-18.971-7.388-36.807-20.803-50.222l-10.606-10.606-31.41 31.41v99.975c15.867-1.813 30.556-8.875 42.017-20.336 13.415-13.413 20.802-31.249 20.802-50.221z"/></g></g></svg>