<svg id="Layer_1" enable-background="new 0 0 512.052 512.052" height="512" viewBox="0 0 512.052 512.052" width="512" xmlns="http://www.w3.org/2000/svg"><g><path d="m392.918 18.18h95.497v106.412h-95.497z" fill="#fff5f5" transform="matrix(.707 -.707 .707 .707 78.592 332.508)"/><path d="m411.729 63.594h95.496v53.206h-95.496z" fill="#ece6f2" transform="matrix(.707 -.707 .707 .707 70.796 351.314)"/><path d="m0 369.811 142.242 142.241 293.349-228.679-206.911-206.913z" fill="#fff5f5"/><path d="m142.242 512.052 293.349-228.679-103.455-103.456-261.015 261.014z" fill="#ece6f2"/><path d="m358.634 14.454-129.954 62.006 206.911 206.913 62.007-129.955z" fill="#ece6f2"/><path d="m332.136 179.917 103.455 103.456 62.007-129.955-69.482-69.482z" fill="#e2dce8"/><g><path d="m315.956 13.727h30v334.74h-30z" fill="#e2dce8" transform="matrix(.707 -.707 .707 .707 -31.12 287.063)"/></g><path d="m375.13 156.586h30v167.37h-30z" fill="#d3cdda" transform="matrix(.707 -.707 .707 .707 -55.631 346.237)"/><g><path d="m340.844 504.689-1.061-29.981c25.244-.893 48.984-11.223 66.849-29.086 17.863-17.863 28.192-41.603 29.087-66.845l29.98 1.062c-1.163 32.853-14.606 63.749-37.854 86.997-23.249 23.247-54.146 36.691-87.001 37.853z" fill="#fff486"/></g><g><path d="m337.677 446.278-1.061-29.981c10.707-.378 20.776-4.76 28.354-12.337s11.959-17.646 12.338-28.353l29.98 1.062c-.648 18.317-8.144 35.543-21.105 48.504-12.962 12.962-30.188 20.457-48.506 21.105z" fill="#fff486"/></g><g><path d="m37.345 172.269-29.981-1.061c1.162-32.854 14.606-63.752 37.855-87.001 23.248-23.248 54.144-36.692 86.997-37.855l1.062 29.981c-25.243.894-48.982 11.224-66.846 29.086-17.865 17.865-28.195 41.605-29.087 66.85z" fill="#fff486"/></g><g><path d="m95.756 175.436-29.981-1.062c.648-18.317 8.144-35.544 21.105-48.506 12.962-12.961 30.188-20.457 48.504-21.105l1.062 29.981c-10.707.379-20.776 4.76-28.353 12.337-7.577 7.578-11.958 17.648-12.337 28.355z" fill="#fff486"/></g><g><path d="m340.844 504.689-1.061-29.981c25.244-.893 48.984-11.223 66.849-29.086 17.863-17.863 28.192-41.603 29.087-66.845l29.98 1.062c-1.163 32.853-14.606 63.749-37.854 86.997-23.249 23.247-54.146 36.691-87.001 37.853z" fill="#ffd300"/></g><g><path d="m337.677 446.278-1.061-29.981c10.707-.378 20.776-4.76 28.354-12.337s11.959-17.646 12.338-28.353l29.98 1.062c-.648 18.317-8.144 35.543-21.105 48.504-12.962 12.962-30.188 20.457-48.506 21.105z" fill="#ffd300"/></g></g></svg>