<svg id="Layer_1" enable-background="new 0 0 511.988 511.988" height="512" viewBox="0 0 511.988 511.988" width="512" xmlns="http://www.w3.org/2000/svg"><g><path d="m113.589 163.918c-.634 6.514-.961 13.149-.961 19.881 0 88.628 56.559 160.476 126.329 160.476 69.769 0 126.329-71.848 126.329-160.476 0-6.732-.327-13.367-.961-19.881z" fill="#ffa400"/><path d="m365.285 183.798c0-6.732-.327-13.367-.961-19.881h-125.367v180.357c69.769 0 126.328-71.847 126.328-160.476z" fill="#ff7d47"/><path d="m399.361 89.961v-15.001c0-33.115-26.845-59.96-59.96-59.96s-59.96 26.845-59.96 59.96v15.001z" fill="#fff486"/><path d="m399.361 74.96c0-33.115-26.845-59.96-59.96-59.96v74.961h59.96z" fill="#ffd300"/><path d="m414.36 89.961h-30v-15.001c0-24.791-20.169-44.96-44.959-44.96s-44.959 20.169-44.959 44.96v15.001h-30v-15.001c0-41.333 33.626-74.96 74.959-74.96s74.959 33.627 74.959 74.96z" fill="#ffd300"/><path d="m339.401 0v30c24.791 0 44.959 20.169 44.959 44.96v15.001h30v-15.001c0-41.333-33.626-74.96-74.959-74.96z" fill="#ffa400"/><path d="m343.909 66.136-4.493-6.18h-200.92l-4.493 6.18c-23.458 32.264-36.376 74.051-36.376 117.663 0 46.215 14.282 89.809 40.214 122.752 23.25 29.534 53.4 47.541 86.114 51.762v123.676h-48.333v30h126.665v-30h-48.333v-123.676c32.714-4.221 62.864-22.228 86.114-51.762 25.933-32.943 40.215-76.537 40.215-122.752.003-43.611-12.916-85.399-36.374-117.663zm-104.952 263.138c-61.387 0-111.329-65.26-111.329-145.476 0-1.63.021-3.257.062-4.88h222.533c.041 1.623.062 3.25.062 4.88.001 80.217-49.941 145.476-111.328 145.476z" fill="#e6faff"/><path d="m343.909 66.136-4.493-6.18h-100.46v118.963h111.267c.041 1.623.062 3.25.062 4.88 0 80.216-49.942 145.475-111.329 145.476v182.714h63.332v-30h-48.333v-123.676c32.714-4.221 62.864-22.228 86.114-51.762 25.933-32.943 40.215-76.537 40.215-122.752.002-43.611-12.917-85.399-36.375-117.663z" fill="#d3f0ff"/><path d="m209.478 137.514h82.81v82.811h-82.81z" fill="#d3f0ff"/><path d="m238.957 137.514h53.331v82.811h-53.331z" fill="#75d7fe"/><g><path d="m183.954 242.325h30v30.002h-30z" fill="#ff7d47"/></g><g><path d="m253.958 262.326h30v30.002h-30z" fill="#ff7d47"/></g><path d="m209.478 178.919h82.81v41.405h-82.81z" fill="#ff7d47"/><g><path d="m183.954 242.325h30v30.002h-30z" fill="#ff3838"/></g><g><path d="m253.958 262.326h30v30.002h-30z" fill="#ff3838"/></g><path d="m238.957 178.919h53.331v41.405h-53.331z" fill="#ff3838"/></g></svg>