<svg width="24" height="24" viewBox="0 0 24 24" fill="none" xmlns="http://www.w3.org/2000/svg">
<path d="M22 12.2094C22 11.6171 21.9441 11.0243 21.8334 10.4488C21.7835 10.1883 21.554 10 21.2877 10H12.5556C12.2485 10 12 10.247 12 10.5523V13.8664C12 14.1717 12.2485 14.4187 12.5556 14.4187H17.0358C16.7567 14.9806 16.372 15.468 15.9202 15.8782L19.0602 19C20.8669 17.2887 22 14.8805 22 12.2094Z" fill="black"/>
<path d="M12.7798 7.18953C13.8632 7.18953 14.8936 7.51582 15.7597 8.1336C15.9786 8.28959 16.2876 8.27067 16.4817 8.085L18.8382 5.8501C18.9477 5.74627 19.0064 5.60358 18.9994 5.45681C18.9924 5.31003 18.9213 5.17297 18.8026 5.07835C17.1164 3.73799 14.9772 3 12.7798 3C9.54588 3 6.68891 4.55899 5 6.926L8.24125 10C9.01453 8.34807 10.7544 7.18953 12.7798 7.18953Z" fill="black"/>
<path d="M12.549 22C14.5945 22 16.478 21.3297 18 20.2129L14.9148 17.1975C14.2096 17.5856 13.4036 17.8105 12.549 17.8105C10.5837 17.8105 8.89544 16.6519 8.1451 15L5 18.074C6.63881 20.441 9.41103 22 12.549 22Z" fill="black"/>
<path d="M8 13.3401C7.95298 13.0649 7.91063 12.7876 7.91063 12.5C7.91063 12.2124 7.95298 11.9352 8 11.6599L4.14827 8C3.41953 9.35239 3 10.8792 3 12.5C3 14.1209 3.41953 15.6476 4.14831 17L8 13.3401Z" fill="black"/>
</svg>
