<svg id="Capa_1" enable-background="new 0 0 512 512" height="512" viewBox="0 0 512 512" width="512" xmlns="http://www.w3.org/2000/svg"><g><g><g><path d="m83.183 478.589h254.006l41.824-244.013c.546-3.185-1.907-6.095-5.139-6.095h-326.751c-3.227 0-5.679 2.901-5.141 6.082z" fill="#c4e2ff"/><g><path d="m69.636 228.481 42.201 249.951h196.698l42.842-249.951z" fill="#b3dafe"/></g><g><path d="m301.791 334.077c3.383-4.747 5.379-10.55 5.379-16.823 0-12.292-7.643-22.792-18.433-27.026 1.336-5.809 2.065-11.849 2.065-18.063 0-44.346-35.95-80.296-80.296-80.296s-80.296 35.95-80.296 80.296c0 6.214.729 12.254 2.065 18.063-10.79 4.234-18.433 14.734-18.433 27.026 0 6.273 1.996 12.076 5.379 16.823z" fill="#fff"/><path d="m210.507 192.87c3.162 0 6.288.193 9.374.552v-53.187c0-15.989 13.008-28.997 28.997-28.997h6c.227-.357.478-.702.756-1.033l11.719-13.967h-18.475c-24.26 0-43.997 19.737-43.997 43.997v52.844c1.863-.128 3.737-.209 5.626-.209z" fill="#6d3326"/><path d="m138.844 334.077c-1.503-3.504-2.345-7.358-2.345-11.413 0-10.96 6.076-20.494 15.041-25.434 1.956-1.078 2.994-3.265 2.599-5.463-.829-4.607-1.272-9.346-1.272-14.192 0-7.679 1.101-15.097 3.114-22.13-2.129-.998-4.496-1.571-7.002-1.571h-16.65c-1.37 5.878-2.118 11.996-2.118 18.291 0 6.214.729 12.254 2.065 18.063-10.669 4.187-18.261 14.5-18.43 26.613-.09 6.424 2.02 12.381 5.601 17.236z" fill="#fff3de"/><g><path d="m288.684 253.874c-8.281-35.528-40.127-62.004-78.177-62.004s-69.896 26.476-78.177 62.004h16.65c9.135 0 16.54 7.405 16.54 16.54v17.201c0 9.135 7.405 16.54 16.54 16.54 9.135 0 16.54-7.405 16.54-16.54v-17.201c0-9.135 7.405-16.54 16.54-16.54z" fill="#883f2e"/></g><g><g><path d="m228.29 209.653c17.617 0 33.898 5.684 47.132 15.306-14.593-20.047-38.22-33.089-64.916-33.089-38.051 0-69.896 26.476-78.177 62.004h16.65c2.448 0 4.764.546 6.854 1.5 12.917-27.036 40.495-45.721 72.457-45.721z" fill="#6d3326"/></g></g></g><path d="m97.892 395.835 13.945 82.597h196.698l14.157-82.597z" fill="#883f2e"/><path d="m97.892 395.835 13.945 82.597h33.811l-13.946-82.597z" fill="#6d3326"/><g><path d="m322.692 395.835 10.757-62.758h-246.153l10.596 62.758z" fill="#fed2a4"/></g><g><path d="m131.702 395.835-10.596-62.758h-33.81l10.596 62.758z" fill="#ffbd86"/></g></g></g><g><path d="m393.046 512h-365.095c-2.845 0-5.151-2.306-5.151-5.151v-24.11c0-2.845 2.306-5.151 5.151-5.151h365.095c2.845 0 5.151 2.306 5.151 5.151v24.11c0 2.845-2.306 5.151-5.151 5.151z" fill="#017b4e"/></g><g><path d="m68.096 506.849v-24.11c0-2.845 2.306-5.151 5.151-5.151h-45.296c-2.845 0-5.151 2.306-5.151 5.151v24.11c0 2.845 2.306 5.151 5.151 5.151h45.296c-2.845 0-5.151-2.306-5.151-5.151z" fill="#026841"/></g><g><circle cx="149.376" cy="182.342" fill="#6d3326" r="7.726"/></g><g><circle cx="182.342" cy="152.467" fill="#6d3326" r="7.5"/></g><g><circle cx="243.123" cy="169.98" fill="#6d3326" r="7.5"/></g><g><path d="m261.04 126.534 30.812 5.449c8.37 1.48 16.204 5.136 22.716 10.6l83.803 70.319c4.412 3.702 10.99 3.127 14.692-1.285l73.697-87.829c3.702-4.412 3.127-10.99-1.285-14.692l-127.108-106.656c-4.412-3.702-10.99-3.127-14.692 1.285l-88.807 105.837c-5.159 6.148-1.73 15.575 6.172 16.972z" fill="#fed2a4"/></g><g><path d="m430.398 182.567-88.367-74.149c-6.866-5.761-15.127-9.616-23.953-11.177l-32.49-5.746c-4.584-.811-7.727-4.187-8.734-8.137l-21.987 26.203c-5.159 6.148-1.73 15.575 6.173 16.972l30.811 5.449c8.37 1.48 16.204 5.136 22.716 10.6l83.803 70.319c4.412 3.702 10.99 3.127 14.692-1.285l22.379-26.671c-1.799-.334-3.54-1.118-5.043-2.378z" fill="#ffbd86"/></g></g></svg>