<svg id="Capa_1" enable-background="new 0 0 512 512" height="512" viewBox="0 0 512 512" width="512" xmlns="http://www.w3.org/2000/svg"><g><g><path d="m97.774 272.426h66.941c.406-1.965.629-4.091.629-6.408 0-20.482-16.604-47.388-37.086-47.388s-37.087 26.906-37.087 47.388c0 2.42.239 4.635.682 6.673 1.955-.162 3.925-.265 5.921-.265z" fill="#fe646f"/><g><circle cx="128.258" cy="238.25" fill="#fd4755" r="7.5"/></g><g><g><circle cx="115.258" cy="258.853" fill="#fd4755" r="7.5"/></g><g><circle cx="141.258" cy="258.853" fill="#fd4755" r="7.5"/></g></g><path d="m228.586 272.426c.406-1.965.629-4.091.629-6.408 0-20.482-16.604-47.388-37.087-47.388s-37.086 26.906-37.086 47.388c0 2.317.223 4.443.629 6.408z" fill="#fd4755"/><g><circle cx="192.129" cy="238.25" fill="#e41f2d" r="7.5"/></g><g><g><circle cx="179.129" cy="258.853" fill="#e41f2d" r="7.5"/></g><g><circle cx="205.129" cy="258.853" fill="#e41f2d" r="7.5"/></g></g><path d="m292.457 272.426c.406-1.965.629-4.091.629-6.408 0-20.482-16.604-47.388-37.087-47.388-20.482 0-37.086 26.906-37.086 47.388 0 2.317.223 4.443.629 6.408z" fill="#fe646f"/><g><circle cx="256" cy="238.25" fill="#fd4755" r="7.5"/></g><g><g><circle cx="243" cy="258.853" fill="#fd4755" r="7.5"/></g><g><circle cx="269" cy="258.853" fill="#fd4755" r="7.5"/></g></g><path d="m356.328 272.426c.406-1.965.629-4.091.629-6.408 0-20.482-16.604-47.388-37.087-47.388-20.482 0-37.086 26.906-37.086 47.388 0 2.317.223 4.443.629 6.408z" fill="#fd4755"/><g><circle cx="319.871" cy="238.25" fill="#e41f2d" r="7.5"/></g><g><g><circle cx="306.871" cy="258.853" fill="#e41f2d" r="7.5"/></g><g><circle cx="332.871" cy="258.853" fill="#e41f2d" r="7.5"/></g></g><path d="m414.226 272.426c1.995 0 3.966.104 5.921.264.443-2.037.682-4.252.682-6.673 0-20.482-16.604-47.388-37.087-47.388-20.482 0-37.086 26.906-37.086 47.388 0 2.317.223 4.443.629 6.408h66.941z" fill="#fe646f"/><g><circle cx="383.742" cy="238.25" fill="#fd4755" r="7.5"/></g><g><g><circle cx="370.742" cy="258.853" fill="#fd4755" r="7.5"/></g><g><circle cx="396.742" cy="258.853" fill="#fd4755" r="7.5"/></g></g></g><g><path d="m47.755 339.115c1.149.916 2.583 1.42 4.036 1.42s2.887-.504 4.036-1.42c6.171-4.921 13.602-7.521 21.49-7.521s15.319 2.601 21.49 7.521c1.149.916 2.583 1.42 4.036 1.42s2.887-.504 4.036-1.42c6.171-4.921 13.602-7.521 21.49-7.521s15.319 2.601 21.49 7.521c1.149.916 2.583 1.42 4.036 1.42s2.887-.504 4.036-1.42c6.171-4.921 13.602-7.521 21.49-7.521s15.319 2.601 21.49 7.521c1.149.916 2.583 1.42 4.036 1.42s2.887-.504 4.036-1.42c6.171-4.921 13.602-7.521 21.49-7.521s15.319 2.601 21.49 7.521c1.149.916 2.583 1.42 4.036 1.42s2.887-.504 4.036-1.42c6.171-4.921 13.602-7.521 21.49-7.521s15.319 2.601 21.49 7.521c1.149.916 2.583 1.42 4.036 1.42s2.887-.504 4.036-1.42c6.171-4.921 13.602-7.521 21.49-7.521s15.319 2.601 21.49 7.521c1.149.916 2.583 1.42 4.036 1.42s2.887-.504 4.036-1.42c6.171-4.921 13.602-7.521 21.49-7.521s15.319 2.601 21.49 7.521c1.149.916 2.583 1.42 4.036 1.42s2.887-.504 4.036-1.42c6.171-4.921 13.602-7.521 21.49-7.521s15.319 2.601 21.49 7.521c1.149.916 2.583 1.42 4.036 1.42s2.887-.504 4.036-1.42c6.165-4.917 13.589-7.516 21.469-7.521-5.935-34.057-35.801-60.169-71.488-60.169h-316.45c-35.688 0-65.554 26.111-71.488 60.169 7.88.005 15.303 2.605 21.469 7.521z" fill="#ffbd86"/></g><g><path d="m102.843 340.535c1.453 0 2.887-.504 4.036-1.42 6.171-4.921 13.602-7.521 21.49-7.521s15.319 2.601 21.49 7.521c1.149.916 2.583 1.42 4.036 1.42s2.887-.504 4.036-1.42c6.171-4.921 13.602-7.521 21.49-7.521s15.319 2.601 21.49 7.521c1.149.916 2.583 1.42 4.036 1.42s2.887-.504 4.036-1.42c6.171-4.921 13.602-7.521 21.49-7.521s15.319 2.601 21.49 7.521c1.149.916 2.583 1.42 4.036 1.42s2.887-.504 4.036-1.42c6.171-4.921 13.602-7.521 21.49-7.521s15.319 2.601 21.49 7.521c1.149.916 2.583 1.42 4.036 1.42s2.887-.504 4.036-1.42c6.171-4.921 13.602-7.521 21.49-7.521s15.319 2.601 21.49 7.521c1.149.916 2.583 1.42 4.036 1.42s2.887-.504 4.036-1.42c6.171-4.921 13.602-7.521 21.49-7.521s15.319 2.601 21.49 7.521c1.149.916 2.583 1.42 4.036 1.42.447 0 .888-.063 1.323-.156-1.906-38.252-33.784-68.954-72.487-68.954h-163.984c-38.703 0-70.581 30.702-72.487 68.954.436.093.877.156 1.323.156z" fill="#f6a96c"/></g><g><path d="m200.912 339.115c1.149.916 2.583 1.42 4.036 1.42s2.887-.504 4.036-1.42c6.171-4.921 13.602-7.521 21.49-7.521s15.319 2.601 21.49 7.521c1.149.916 2.583 1.42 4.036 1.42s2.887-.504 4.036-1.42c6.171-4.921 13.602-7.521 21.49-7.521s15.319 2.601 21.49 7.521c1.149.916 2.583 1.42 4.036 1.42s2.887-.504 4.036-1.42c4.842-3.861 10.461-6.286 16.466-7.155-5.783-34.237-35.738-60.535-71.554-60.535-35.816 0-65.771 26.298-71.554 60.535 6.005.869 11.624 3.294 16.466 7.155z" fill="#ffbd86"/></g><path d="m485.735 374.014c-7.888 0-15.319-2.601-21.49-7.521-1.149-.916-2.583-1.42-4.036-1.42s-2.887.504-4.036 1.42c-6.171 4.921-13.602 7.521-21.49 7.521s-15.319-2.601-21.49-7.521c-1.149-.916-2.583-1.421-4.036-1.421s-2.887.505-4.036 1.421c-6.171 4.92-13.603 7.521-21.49 7.521-7.888 0-15.319-2.601-21.49-7.521-1.149-.916-2.583-1.421-4.036-1.421s-2.887.505-4.036 1.421c-6.171 4.92-13.603 7.521-21.49 7.521-7.888 0-15.319-2.601-21.49-7.521-1.149-.916-2.583-1.421-4.037-1.421-1.453 0-2.886.504-4.036 1.42-6.171 4.921-13.602 7.521-21.49 7.521s-15.319-2.601-21.49-7.521c-1.149-.916-2.583-1.42-4.036-1.42-1.454 0-2.887.505-4.037 1.421-6.171 4.92-13.603 7.521-21.49 7.521-7.888 0-15.319-2.601-21.49-7.521-1.149-.916-2.583-1.42-4.036-1.42s-2.887.504-4.036 1.42c-6.171 4.921-13.602 7.521-21.49 7.521s-15.319-2.601-21.49-7.521c-1.149-.916-2.583-1.421-4.037-1.421-1.453 0-2.886.504-4.036 1.42-6.171 4.921-13.602 7.521-21.49 7.521s-15.319-2.601-21.49-7.521c-1.149-.916-2.583-1.42-4.036-1.42-1.454 0-2.887.505-4.037 1.421-6.171 4.92-13.603 7.521-21.49 7.521s-15.318-2.601-21.49-7.521c-1.149-.916-2.583-1.421-4.036-1.421s-2.887.505-4.036 1.421c-6.171 4.92-13.603 7.521-21.49 7.521-1.002 0-1.998-.046-2.988-.13l29.111 62.871c3.373 7.284 10.669 11.947 18.697 11.947h369.831c8.027 0 15.324-4.662 18.697-11.947l29.111-62.871c-.989.084-1.985.13-2.987.13z" fill="#acc7e4"/><path d="m93.25 415.394-19.234-41.54c-6.653-.624-12.886-3.134-18.189-7.361-1.149-.916-2.583-1.421-4.036-1.421s-2.887.505-4.036 1.421c-6.171 4.92-13.603 7.521-21.49 7.521-1.002 0-1.998-.046-2.987-.13l19.22 41.51z" fill="#8fb0c5"/><g><path d="m42.497 415.394 9.891 21.361c3.373 7.284 10.669 11.946 18.697 11.946h369.831c8.027 0 15.324-4.662 18.697-11.946l9.891-21.361z" fill="#3e5690"/></g><g><path d="m52.388 436.755c3.373 7.284 10.668 11.946 18.695 11.947h50.752c-8.027-.001-15.322-4.663-18.695-11.947l-9.891-21.361h-50.752z" fill="#2e3e70"/></g><g><g><path d="m279.94 183.891c-4.142 0-7.5-3.357-7.5-7.5v-10.872c0-13.893 11.303-25.194 25.195-25.194h56.208c5.622 0 10.195-4.573 10.195-10.195s-4.574-10.195-10.195-10.195h-99.926c-15.615 0-28.318-12.703-28.318-28.318 0-15.614 12.703-28.317 28.318-28.317h45.8c4.142 0 7.5 3.357 7.5 7.5s-3.358 7.5-7.5 7.5h-45.8c-7.343 0-13.318 5.975-13.318 13.317 0 7.344 5.975 13.318 13.318 13.318h99.926c13.893 0 25.195 11.303 25.195 25.195s-11.303 25.195-25.195 25.195h-56.208c-5.622 0-10.195 4.573-10.195 10.194v10.872c0 4.143-3.357 7.5-7.5 7.5z" fill="#fe9901"/></g><g><path d="m221.65 183.891c-4.142 0-7.5-3.357-7.5-7.5v-10.872c0-5.621-4.574-10.194-10.195-10.194h-45.799c-13.893 0-25.195-11.303-25.195-25.195s11.303-25.195 25.195-25.195h37.472c4.142 0 7.5 3.357 7.5 7.5s-3.358 7.5-7.5 7.5h-37.472c-5.622 0-10.195 4.573-10.195 10.195s4.574 10.195 10.195 10.195h45.799c13.893 0 25.195 11.302 25.195 25.194v10.872c0 4.143-3.358 7.5-7.5 7.5z" fill="#fdb441"/></g></g><g><path d="m485.735 330.594c-8.366 0-16.045 2.9-22.113 7.739-2.012 1.604-4.814 1.604-6.825 0-6.069-4.839-13.748-7.739-22.113-7.739s-16.045 2.9-22.113 7.739c-2.012 1.604-4.814 1.604-6.825 0-6.069-4.839-13.748-7.739-22.113-7.739s-16.045 2.9-22.113 7.739c-2.012 1.604-4.814 1.604-6.825 0-6.069-4.839-13.748-7.739-22.113-7.739s-16.045 2.9-22.113 7.739c-2.012 1.604-4.814 1.604-6.825 0-6.069-4.839-13.748-7.739-22.113-7.739-8.366 0-16.045 2.9-22.113 7.739-2.012 1.604-4.814 1.604-6.825 0-6.069-4.839-13.748-7.739-22.113-7.739-8.366 0-16.045 2.9-22.113 7.739-2.012 1.604-4.814 1.604-6.825 0-6.069-4.839-13.748-7.739-22.113-7.739-8.366 0-16.045 2.9-22.113 7.739-2.012 1.604-4.814 1.604-6.825 0-6.069-4.839-13.748-7.739-22.113-7.739-8.366 0-16.045 2.9-22.114 7.739-2.012 1.604-4.814 1.604-6.825 0-6.069-4.839-13.748-7.739-22.113-7.739s-16.045 2.9-22.113 7.739c-2.012 1.604-4.814 1.604-6.825 0-6.069-4.839-13.748-7.739-22.113-7.739-4.434 0-8.678.812-12.592 2.296-18.231 6.911-18.231 32.917 0 39.828 3.914 1.484 8.158 2.296 12.592 2.296 8.366 0 16.045-2.9 22.113-7.739 2.012-1.604 4.814-1.604 6.825 0 6.069 4.839 13.748 7.739 22.113 7.739s16.045-2.9 22.113-7.739c2.012-1.604 4.814-1.604 6.825 0 6.069 4.839 13.748 7.739 22.114 7.739s16.045-2.9 22.113-7.739c2.012-1.604 4.814-1.604 6.825 0 6.069 4.839 13.748 7.739 22.113 7.739 8.366 0 16.045-2.9 22.113-7.739 2.012-1.604 4.814-1.604 6.825 0 6.069 4.839 13.748 7.739 22.113 7.739s16.045-2.9 22.113-7.739c2.012-1.604 4.814-1.604 6.825 0 6.069 4.839 13.748 7.739 22.113 7.739 8.366 0 16.045-2.9 22.114-7.739 2.012-1.604 4.814-1.604 6.825 0 6.069 4.839 13.748 7.739 22.113 7.739s16.045-2.9 22.113-7.739c2.012-1.604 4.814-1.604 6.825 0 6.069 4.839 13.748 7.739 22.113 7.739s16.045-2.9 22.113-7.739c2.012-1.604 4.814-1.604 6.825 0 6.069 4.839 13.748 7.739 22.113 7.739s16.045-2.9 22.113-7.739c2.012-1.604 4.814-1.604 6.825 0 6.069 4.839 13.748 7.739 22.113 7.739 4.434 0 8.678-.812 12.592-2.296 18.231-6.911 18.231-32.917 0-39.828-3.915-1.484-8.159-2.296-12.593-2.296z" fill="#fed2a4"/></g></g></svg>