<svg id="Capa_1" enable-background="new 0 0 512 512" height="512" viewBox="0 0 512 512" width="512" xmlns="http://www.w3.org/2000/svg"><g><g><g><g><path d="m294.743 61.939h129.2v55.258h-129.2z" fill="#d8ecfe"/><path d="m294.743 61.939h33.972v55.258h-33.972z" fill="#c4e2ff"/><path d="m439.97 62.939h-161.254c-12.256 0-22.191-9.935-22.191-22.191v-16.273c0-12.256 9.935-22.191 22.191-22.191h161.254c12.256 0 22.191 9.935 22.191 22.191v16.273c0 12.256-9.935 22.191-22.191 22.191z" fill="#acc7e4"/><path d="m290.396 40.748v-16.273c0-12.256 9.935-22.191 22.191-22.191h-33.871c-12.256 0-22.191 9.935-22.191 22.191v16.273c0 12.256 9.935 22.191 22.191 22.191h33.871c-12.255 0-22.191-9.935-22.191-22.191z" fill="#8fb0c5"/><path d="m479.593 204.961-6.157-55.833c-2.067-18.744-17.905-32.931-36.762-32.931h-154.21c-14.837 0-27.801 8.786-33.662 21.663 7.737 20.31 11.774 42.499 11.774 65.422 0 .559-.013 1.119-.018 1.679 68.15 6.679 136.77 7.083 204.994 1.209z" fill="#eaf6ff"/><g><path d="m260.559 204.961h20.639l6.232-55.878c2.088-18.724 17.917-32.885 36.757-32.885h-41.722c-14.837 0-27.8 8.786-33.662 21.663 7.737 20.31 11.774 42.499 11.774 65.422-.001.559-.014 1.118-.018 1.678z" fill="#d8ecfe"/></g><path d="m511.937 498.258-32.344-293.297h-23.429c-4.635 0-9.102-2.019-11.956-5.67-2.918-3.732-7.456-6.132-12.562-6.132s-9.644 2.4-12.562 6.132c-2.855 3.651-7.322 5.67-11.956 5.67h-46.77c-4.635 0-9.102-2.019-11.956-5.67-2.918-3.732-7.456-6.132-12.562-6.132-2.457 0-4.783.556-6.86 1.549-4.103 1.961-8.962 1.961-13.065 0-2.077-.993-4.403-1.549-6.86-1.549-5.106 0-9.644 2.4-12.562 6.132-2.855 3.651-7.322 5.67-11.956 5.67h-23.977c-.089 10.058-.97 20.149-2.642 30.022l-.197 1.167h5.089c5.143 0 9.326 4.184 9.326 9.325v14.062c0 42.567-19.726 80.607-50.51 105.479l-11.139 99.878 21.134 18.565c5.526 4.854 5.678 11.407 3.977 15.92-1.701 4.514-6.139 9.336-13.495 9.336v1h279.571c6.15.001 10.937-5.343 10.263-11.457z" fill="#fff3de"/><path d="m261.559 204.961c-.091 10.339-1.003 20.431-2.655 30.189h3.906c5.703 0 10.326 4.623 10.326 10.326v14.061c0 43.339-20.192 81.958-51.678 106.977l-10.972 98.381 21.134 18.565c5.526 4.854 5.678 11.407 3.977 15.92-1.701 4.514-6.139 9.336-13.495 9.336v1h25.107l33.989-304.755z" fill="#fef0ae"/><g fill="#fed2a4"><circle cx="418.253" cy="399.71" r="7.5"/><circle cx="440.917" cy="452.25" r="7.5"/><circle cx="364.684" cy="381.167" r="7.5"/><circle cx="371.895" cy="324.507" r="7.5"/><circle cx="396.62" cy="285.36" r="7.5"/><circle cx="442.978" cy="252.394" r="7.5"/><circle cx="361.594" cy="250.334" r="7.5"/><circle cx="424.435" cy="338.93" r="7.5"/></g></g><g fill="#fff"><circle cx="310.743" cy="25.755" r="7.5"/><circle cx="342.743" cy="25.755" r="7.5"/><circle cx="374.743" cy="25.755" r="7.5"/><circle cx="406.743" cy="25.755" r="7.5"/></g></g></g><path d="m237.712 112.366-158.78-46.391c-40.032 25.788-67.373 77.593-67.373 137.307 0 11.291.987 22.295 2.842 32.898h76.49c5.342 0 10.243 3.058 12.791 7.982 6.391 12.352 18.992 20.026 32.885 20.026s26.495-7.674 32.885-20.026c2.548-4.924 7.449-7.982 12.791-7.982h76.49c1.856-10.603 2.842-21.607 2.842-32.898.001-33.979-8.857-65.393-23.863-90.916z" fill="#ea9b58"/><path d="m78.383 103.887c-6.677-9.179-9.337-18.539-6.766-26.941 1.286-4.203 3.799-7.868 7.316-10.972-40.033 25.789-67.374 77.594-67.374 137.308 0 10.925.921 21.583 2.661 31.868h32.703c-1.178-8.53-1.793-17.298-1.793-26.244-.001-40.551 12.622-77.436 33.253-105.019z" fill="#d88a55"/><g><g><path d="m232.279 482.709-24.034-21.113c-20.903-18.362-34.333-43.516-38.159-70.719-10.724 2.738-21.953 4.197-33.518 4.197s-22.794-1.459-33.518-4.197c-3.827 27.203-17.256 52.356-38.159 70.719l-24.034 21.113c-10.687 9.388-4.047 27.007 10.178 27.007h171.068c14.223 0 20.863-17.619 10.176-27.007z" fill="#fe9901"/><path d="m136.568 396.105c-11.621 0-22.901-1.456-33.672-4.188-4.02 26.803-17.369 51.551-38.005 69.679l-24.034 21.113c-10.687 9.388-4.047 27.007 10.178 27.007h19.515c-2.089-5.573-1.073-12.31 4.262-16.997l24.034-21.113c22.126-19.437 35.877-46.482 38.729-75.514-.336.002-.67.013-1.007.013z" fill="#fb8801"/><path d="m262.809 235.15h-80.565c-5.823 0-11.03 3.367-13.706 8.539-5.984 11.565-18.051 19.47-31.97 19.47-13.92 0-25.987-7.905-31.97-19.47-2.676-5.172-7.883-8.539-13.706-8.539h-80.566c-5.703 0-10.326 4.623-10.326 10.326v14.061c0 75.424 61.143 136.567 136.567 136.567 75.424 0 136.567-61.143 136.567-136.567v-14.061c.001-5.703-4.622-10.326-10.325-10.326z" fill="#fed402"/><g><path d="m39.525 259.537v-14.061c0-5.703 4.623-10.326 10.326-10.326h-39.525c-5.703 0-10.326 4.623-10.326 10.326v14.061c0 75.424 61.143 136.567 136.567 136.567 6.713 0 13.309-.493 19.762-1.429-66.057-9.575-116.804-66.426-116.804-135.138z" fill="#fac600"/></g></g></g><path d="m167.649 61.081c-46.046-14.088-89.041-6.985-96.033 15.866-4.555 14.888 7.307 32.786 28.857 47.349l93.658 26.602c-.001 0-.002 0-.003 0 22.939-1.218 40.049-9.248 44.236-22.934 6.991-22.851-24.669-52.795-70.715-66.883z" fill="#fff3de"/><path d="m206.689 137.303c5.3-17.323-15.154-38.938-45.684-48.279-30.531-9.341-59.577-2.871-64.877 14.452-2.026 6.621-.279 13.869 4.346 20.82 11.525 7.788 25.814 14.625 41.858 19.534 18.468 5.65 36.439 7.884 51.8 7.068 6.302-3.183 10.775-7.772 12.557-13.595z" fill="#fe9901"/><path d="m123.999 119.82c5.3-17.322 34.346-23.793 64.877-14.452 1.816.556 3.593 1.158 5.335 1.796-8.203-7.49-19.718-14.014-33.206-18.141-30.531-9.341-59.577-2.871-64.877 14.452-2.026 6.621-.279 13.869 4.346 20.82 7.683 5.192 16.601 9.958 26.443 14.015-3.532-6.226-4.718-12.605-2.918-18.49z" fill="#fb8801"/></g></svg>