<svg id="Capa_1" enable-background="new 0 0 512 512" height="512" viewBox="0 0 512 512" width="512" xmlns="http://www.w3.org/2000/svg"><g><g><g><path d="m419.079 259.091c-8.518 0-16.34 3.093-22.429 8.197v34.011h86.071c-.508-17.19-14.715-31.098-32.023-31.098h-6.095c-6.403-6.825-15.485-11.11-25.524-11.11z" fill="#fac600"/></g><path d="m396.65 326.082h93.716v43.723h-93.716z" fill="#c4e2ff"/><path d="m496.547 300.298h-99.897v26.785h99.897c2.845 0 5.151-2.306 5.151-5.151v-16.483c0-2.845-2.306-5.151-5.151-5.151z" fill="#d8ecfe"/><path d="m38.307 221.172c3.126 2.96 4.96 7.031 4.96 11.336v137.297h255.485v-270.393h-157.617c-74.516 0-123.622 35.053-123.622 78.294 0 16.083 7.662 31.031 20.794 43.466z" fill="#f6a96c"/><g><path d="m38.307 221.172c3.126 2.96 4.96 7.031 4.96 11.336v3.592c7.549-10.43 18.915-17.93 32.008-20.407-9.881-11.251-15.526-24.198-15.526-37.986 0-43.24 49.105-78.294 123.622-78.294h-42.237c-74.516 0-123.622 35.053-123.622 78.294.001 16.083 7.663 31.03 20.795 43.465z" fill="#ea9b58"/></g><path d="m196.955 221.172c3.126 2.96 4.96 7.031 4.96 11.336v137.297h195.735v-137.297c0-4.305 1.834-8.376 4.96-11.336 13.132-12.435 20.794-27.383 20.794-43.466 0-43.24-55.347-78.294-123.622-78.294s-123.622 35.053-123.622 78.294c.001 16.083 7.663 31.031 20.795 43.466z" fill="#ea9b58"/><path d="m214.663 202.471c8.266 7.826 13.007 18.774 13.007 30.037v137.297h144.225v-137.297c0-11.264 4.741-22.211 13.009-30.038 5.814-5.505 12.746-14.271 12.746-24.763 0-11.603-8.833-23.85-24.233-33.605-19-12.033-45.839-18.935-73.634-18.935s-54.634 6.901-73.634 18.935c-15.401 9.755-24.233 22.002-24.233 33.605-.001 10.491 6.932 19.258 12.747 24.764z" fill="#fff"/><path d="m214.663 202.471c8.266 7.826 13.007 18.774 13.007 30.037v137.297h26.785v-137.297c0-11.264-4.741-22.211-13.007-30.037-5.815-5.506-12.747-14.273-12.747-24.765 0-11.603 8.833-23.85 24.233-33.605 15.923-10.085 37.358-16.546 60.241-18.38-4.421-.354-8.891-.554-13.392-.554-27.795 0-54.634 6.901-73.634 18.935-15.401 9.755-24.233 22.002-24.233 33.605-.001 10.491 6.932 19.258 12.747 24.764z" fill="#fff3de"/><g><circle cx="283.815" cy="315.235" fill="#ffbd86" r="7.5"/></g><g><circle cx="258.06" cy="293.602" fill="#ffbd86" r="7.5"/></g><g><circle cx="267.847" cy="340.99" fill="#ffbd86" r="7.5"/></g><g><circle cx="313.69" cy="338.93" fill="#ffbd86" r="7.5"/></g><g><circle cx="286.905" cy="279.179" fill="#ffbd86" r="7.5"/></g><g><circle cx="259.091" cy="259.606" fill="#ffbd86" r="7.5"/></g><g><path d="m62.851 287.603h28.876c12.399 0 24.388 4.558 33.758 12.834l.662.584.662-.585c8.584-7.583 19.371-12.032 30.66-12.726 4.306-6.175 6.844-13.662 6.844-21.718 0-28.16-23.04-51.199-51.199-51.199h-28.361c-28.16 0-51.199 23.04-51.199 51.199 0 9.769 3.725 18.708 9.821 25.474 6.007-2.484 12.582-3.863 19.476-3.863z" fill="#fe9901"/><path d="m62.851 286.602h9.353c-3.852-5.954-6.103-13.03-6.103-20.61 0-10.93 3.48-21.081 9.375-29.418l6.787-21.718c-27.015 1.31-48.71 23.811-48.71 51.136 0 9.398 3.452 18.023 9.141 24.69 6.21-2.625 13.022-4.08 20.157-4.08z" fill="#fb8801"/><g fill="#fdb441"><path d="m77.292 255.91c.745.233 1.499.344 2.24.344 3.193 0 6.153-2.056 7.156-5.265l10.449-33.437c.288-.92.382-1.853.318-2.76h-12.702c-.835 0-1.664.023-2.49.063l-9.894 31.658c-1.234 3.956.969 8.162 4.923 9.397z"/><path d="m127.604 216.907c-4.6-1.368-9.461-2.114-14.49-2.114h-.53l-9.913 31.722c-1.235 3.954.968 8.16 4.922 9.396.745.233 1.498.344 2.239.344 3.193 0 6.153-2.056 7.156-5.265l10.449-33.437c.068-.215.12-.43.167-.646z"/></g></g><g><path d="m109.867 338.731c0-15.166 6.567-28.871 16.994-38.419-9.285-8.502-21.63-13.709-35.134-13.709h-28.876c-28.671 0-52.128 23.458-52.128 52.129 0 12.671 6.151 23.975 15.615 31.074h99.144c-9.464-7.1-15.615-18.404-15.615-31.075z" fill="#ea9b58"/><path d="m26.338 369.805h35.107c-9.464-7.099-15.615-18.403-15.615-31.074 0-8.567 2.098-16.666 5.801-23.815l8.829-28.253c-27.571 1.261-49.737 24.199-49.737 52.067 0 12.672 6.151 23.976 15.615 31.075z" fill="#d88a55"/><g fill="#c57a44"><path d="m55.294 328.336c.745.233 1.499.344 2.24.344 3.193 0 6.153-2.056 7.156-5.265l10.639-34.043c.289-.924.383-1.86.317-2.77h-12.795c-.802 0-1.598.025-2.391.061l-10.087 32.277c-1.235 3.955.968 8.161 4.921 9.396z"/><path d="m91.727 286.602h-2.524l-10.106 32.338c-1.235 3.954.968 8.16 4.922 9.396.745.233 1.498.344 2.239.344 3.193 0 6.153-2.056 7.156-5.265l10.638-34.043c.126-.403.207-.809.263-1.214-4.035-1.011-8.25-1.556-12.588-1.556z"/></g></g><g><path d="m124.059 369.805h101.903c9.464-7.099 15.615-18.403 15.615-31.074 0-28.671-23.458-52.129-52.128-52.129h-28.876c-28.671 0-52.128 23.458-52.128 52.129 0 12.671 6.151 23.975 15.614 31.074z" fill="#883f2e"/><path d="m124.06 369.805h35.107c-9.464-7.099-15.615-18.403-15.615-31.074 0-8.151 1.908-15.872 5.281-22.76-.515-1.47-.587-3.109-.087-4.71l7.648-24.475c-26.735 2.148-47.95 24.682-47.95 51.945.001 12.671 6.152 23.975 15.616 31.074z" fill="#6d3326"/><g fill="#d88a55"><path d="m153.667 320.656c.745.233 1.499.344 2.24.344 3.193 0 6.153-2.056 7.156-5.265l9.104-29.133h-11.595c-1.408 0-2.798.073-4.178.184l-7.649 24.475c-1.234 3.954.969 8.16 4.922 9.395z"/><path d="m189.449 286.602h-2.145l-7.706 24.658c-1.235 3.954.968 8.16 4.921 9.396.745.233 1.499.344 2.24.344 3.193 0 6.153-2.056 7.156-5.265l8.584-27.467c-4.175-1.086-8.548-1.666-13.05-1.666z"/></g></g></g><path d="m5.151 412.588h501.698c2.845 0 5.151-2.306 5.151-5.151v-33.481c0-2.845-2.306-5.151-5.151-5.151h-501.698c-2.845 0-5.151 2.306-5.151 5.151v33.481c0 2.844 2.306 5.151 5.151 5.151z" fill="#fe646f"/><path d="m54.085 407.437v-33.481c0-2.845 2.306-5.151 5.151-5.151h-54.085c-2.845 0-5.151 2.306-5.151 5.151v33.481c0 2.845 2.306 5.151 5.151 5.151h54.085c-2.845 0-5.151-2.307-5.151-5.151z" fill="#fd4755"/></g></svg>