<svg id="Capa_1" enable-background="new 0 0 512 512" height="512" viewBox="0 0 512 512" width="512" xmlns="http://www.w3.org/2000/svg"><g><g><path d="m211.286 69.479v64.956h2.618c26.018 19.108 43.064 48.048 47.494 79.602h45.548c2.823 0 5.269-1.893 5.947-4.603 4.823-19.279 22.089-32.744 41.987-32.744s37.164 13.465 41.986 32.743c.678 2.711 3.124 4.604 5.947 4.604h57.879c2.289 0 4.151 1.862 4.151 4.151v39.756c11.339-2.479 22.617-5.334 33.808-8.592v-179.873z" fill="#fb2b3a"/></g><g><path d="m214.231 133.436c14.787 10.797 27.007 24.896 35.588 41.208v-105.165h-38.533v63.956h2.945z" fill="#e41f2d"/></g><path d="m464.844 249.352v35.364c0 2.289-1.862 4.151-4.151 4.151h-213.465c-.022.039-.043.079-.065.118l-.52.918.943.47c9.859 4.916 15.984 14.804 15.984 25.805 0 4.272-.93 8.404-2.763 12.282l-.674 1.428h21.771c2.289 0 4.151 1.862 4.151 4.151v19.744c0 2.289-1.862 4.151-4.151 4.151h-5.205v84.586h9.356 212.597v-193.168z" fill="#fedf74"/><path d="m506.849 441.52h-220.849v30.047h220.849c2.845 0 5.151-2.306 5.151-5.151v-19.745c0-2.845-2.306-5.151-5.151-5.151z" fill="#8fb0c5"/><g><path d="m506.849 70.48h-303.759c-2.845 0-5.151-2.306-5.151-5.151v-19.745c0-2.845 2.306-5.151 5.151-5.151h303.76c2.845 0 5.151 2.306 5.151 5.151v19.745c-.001 2.845-2.307 5.151-5.152 5.151z" fill="#acc7e4"/></g><g><path d="m239.661 65.329v-19.745c0-2.845 2.306-5.151 5.151-5.151h-41.722c-2.845 0-5.151 2.306-5.151 5.151v19.745c0 2.845 2.306 5.151 5.151 5.151h41.722c-2.845 0-5.151-2.306-5.151-5.151z" fill="#8fb0c5"/></g><path d="m460.693 213.038h-57.879c-2.341 0-4.409-1.575-4.977-3.846-4.815-19.246-22.219-33.501-42.957-33.501s-38.142 14.256-42.957 33.501c-.568 2.271-2.635 3.846-4.977 3.846h-45.683c.853 5.723 1.293 11.534 1.293 17.391 0 21.634-5.804 41.937-15.934 59.438h214.071c2.845 0 5.151-2.306 5.151-5.151v-66.527c0-2.845-2.306-5.151-5.151-5.151z" fill="#fff"/><g><g><path d="m114.313 134.436h16.33l-10.009-23.256c-3.375-7.841-2.618-16.428 2.075-23.558 4.694-7.131 12.282-11.22 20.818-11.22s16.124 4.089 20.818 11.22c4.694 7.13 5.45 15.716 2.075 23.558l-10.009 23.256h16.33l7.457-17.326c5.326-12.375 4.083-26.482-3.325-37.735s-19.873-17.973-33.346-17.973-25.939 6.719-33.347 17.972-8.651 25.36-3.325 37.735z" fill="#8fb0c5"/><g><path d="m52.307 287.355c8.511 0 16.544 3.739 22.041 10.258l.765.907.765-.907c5.497-6.519 13.53-10.258 22.041-10.258s16.544 3.739 22.041 10.258l.765.907.765-.907c5.497-6.519 13.53-10.258 22.041-10.258 6.446 0 12.547 2.088 17.642 6.038l1.017.788.513-1.18c4.581-10.534 14.959-17.342 26.439-17.342 11.479 0 21.857 6.808 26.439 17.342l.513 1.181 1.017-.789c5.095-3.95 11.195-6.038 17.642-6.038 4.593 0 8.936 1.086 12.794 3.005 10.184-17.636 16.013-38.103 16.013-59.932 0-39.853-19.428-75.163-49.324-96.993h-141.412c-29.896 21.83-49.324 57.14-49.324 96.993 0 21.829 5.829 42.296 16.013 59.932 3.857-1.919 8.2-3.005 12.794-3.005z" fill="#acc7e4"/></g><path d="m178.86 166.224c-10.691 5.146-22.671 8.039-35.332 8.039s-24.641-2.893-35.332-8.039c-22.62 12.475-37.948 36.546-37.948 64.205 0 22.994 10.599 43.505 27.169 56.94.167-.003.333-.014.501-.014 8.51 0 16.544 3.739 22.041 10.258l.765.906.765-.906c5.497-6.519 13.531-10.258 22.041-10.258 6.448 0 12.548 2.088 17.642 6.038l1.017.789.513-1.181c4.581-10.534 14.959-17.342 26.439-17.342 3.64 0 7.167.689 10.435 1.959 10.747-12.75 17.234-29.21 17.234-47.191-.002-27.657-15.33-51.728-37.95-64.203z" fill="#8fb0c5"/><path d="m261.23 329.888c2.13-4.106 3.341-8.765 3.341-13.71 0-16.47-13.352-29.822-29.822-29.822-6.879 0-13.209 2.335-18.254 6.248-4.591-10.557-15.109-17.943-27.356-17.943s-22.765 7.385-27.356 17.943c-5.045-3.912-11.375-6.248-18.254-6.248-9.151 0-17.335 4.125-22.805 10.614-5.471-6.488-13.654-10.614-22.805-10.614s-17.335 4.125-22.805 10.614c-5.471-6.488-13.654-10.614-22.805-10.614-16.47 0-29.822 13.352-29.822 29.822 0 4.945 1.211 9.604 3.341 13.71z" fill="#fdb441"/><g><path d="m64.516 288.976c-3.727-1.677-7.857-2.62-12.21-2.62-16.47 0-29.822 13.352-29.822 29.822 0 4.945 1.211 9.604 3.341 13.71h24.429c-2.13-4.106-3.341-8.765-3.341-13.71.001-12.115 7.228-22.534 17.603-27.202z" fill="#fe9901"/></g><g><path d="m143.528 174.263c30.219 0 56.584-16.428 70.704-40.828h-141.409c14.121 24.4 40.486 40.828 70.705 40.828z" fill="#3e5690"/></g><g><path d="m106.624 133.436h-33.8c14.12 24.4 40.485 40.827 70.704 40.827 5.796 0 11.447-.609 16.9-1.758-22.979-4.841-42.392-19.349-53.804-39.069z" fill="#2e3e70"/></g><g><circle cx="143.528" cy="230.429" fill="#acc7e4" r="29.059"/></g><path d="m9.356 357.935h268.343v84.586h-268.343z" fill="#fd4755"/><path d="m9.356 357.935h33.931v84.586h-33.931z" fill="#fb2b3a"/><g><path d="m287.055 471.567h-281.904c-2.845 0-5.151-2.306-5.151-5.151v-19.745c0-2.845 2.306-5.151 5.151-5.151h281.904z" fill="#acc7e4"/></g><g><path d="m33.846 466.416v-19.745c0-2.845 2.306-5.151 5.151-5.151h-33.846c-2.845 0-5.151 2.306-5.151 5.151v19.745c0 2.845 2.306 5.151 5.151 5.151h33.846c-2.845 0-5.151-2.306-5.151-5.151z" fill="#8fb0c5"/></g><g><path d="m281.904 358.934h-276.753c-2.845 0-5.151-2.306-5.151-5.151v-19.745c0-2.845 2.306-5.151 5.151-5.151h276.753c2.845 0 5.151 2.306 5.151 5.151v19.745c0 2.845-2.306 5.151-5.151 5.151z" fill="#acc7e4"/></g><g><path d="m33.846 353.783v-19.745c0-2.845 2.306-5.151 5.151-5.151h-33.846c-2.845 0-5.151 2.306-5.151 5.151v19.745c0 2.845 2.306 5.151 5.151 5.151h33.846c-2.845 0-5.151-2.306-5.151-5.151z" fill="#8fb0c5"/></g></g><g><ellipse cx="143.528" cy="399.919" fill="#fff" rx="48.75" ry="14.413"/></g></g><g><path d="m408.467 260.409h-106.995c-4.142 0-7.5-3.357-7.5-7.5s3.358-7.5 7.5-7.5h106.995c4.142 0 7.5 3.357 7.5 7.5s-3.358 7.5-7.5 7.5z" fill="#e41f2d"/></g><g><path d="m372.411 231.564h-34.882c-4.142 0-7.5-3.357-7.5-7.5s3.358-7.5 7.5-7.5h34.882c4.142 0 7.5 3.357 7.5 7.5s-3.358 7.5-7.5 7.5z" fill="#e41f2d"/></g><g><g><path d="m465.844 356.216h-53.426c-4.142 0-7.5-3.357-7.5-7.5s3.358-7.5 7.5-7.5h53.426c4.142 0 7.5 3.357 7.5 7.5s-3.358 7.5-7.5 7.5z" fill="#fb2b3a"/></g><g><path d="m465.844 381.971h-53.426c-4.142 0-7.5-3.357-7.5-7.5s3.358-7.5 7.5-7.5h53.426c4.142 0 7.5 3.357 7.5 7.5s-3.358 7.5-7.5 7.5z" fill="#fb2b3a"/></g><g><path d="m465.844 407.726h-22.351c-4.142 0-7.5-3.357-7.5-7.5s3.358-7.5 7.5-7.5h22.351c4.142 0 7.5 3.357 7.5 7.5s-3.358 7.5-7.5 7.5z" fill="#fb2b3a"/></g></g></g></svg>