<svg id="Capa_1" enable-background="new 0 0 512 512" height="512" viewBox="0 0 512 512" width="512" xmlns="http://www.w3.org/2000/svg"><g><g><path d="m344.663 83.776-.504-1.011-.942.623c-2.473 1.635-5.159 2.843-7.961 3.625l-25.599 95.537h15.529l24.558-91.653c-2.034-2.073-3.758-4.468-5.081-7.121z" fill="#fac600"/><g><path d="m369.029 2.001 69.917 90.426c-5.071 14.011-20.109 22.048-34.768 18.12-8.353-2.238-14.868-7.906-18.447-15.08-6.687 4.423-15.163 6.074-23.516 3.836s-14.868-7.906-18.447-15.08c-6.687 4.423-15.163 6.074-23.516 3.836s-14.868-7.906-18.447-15.08c-6.687 4.423-15.163 6.074-23.516 3.836-14.658-3.928-23.664-18.407-21.05-33.076l105.762-43.354c2.144-.879 4.611-.218 6.028 1.616z" fill="#fedf74"/></g><g><path d="m279.298 60.454 102.455-41.997-12.724-16.456c-1.417-1.833-3.884-2.494-6.029-1.615l-105.762 43.352c-2.614 14.669 6.391 29.149 21.05 33.076 1.049.281 2.099.5 3.148.661-2.35-5.186-3.195-11.088-2.138-17.021z" fill="#fed402"/></g></g><path d="m108.258 62.107h79.184c2.281 0 4.291 1.501 4.939 3.688l34.586 116.755h27.791l-40.746-137.55c-1.676-5.658-6.874-9.539-12.774-9.539h-92.98c-2.845 0-5.151 2.306-5.151 5.151v16.345c0 2.844 2.306 5.15 5.151 5.15z" fill="#d8ecfe"/><path d="m127.962 481.584h259.55c34.362-33.662 55.699-80.566 55.699-132.469 0-30.594-7.412-59.456-20.532-84.894l-.566-1h-23.507c-3.866 0-7.563-1.201-10.69-3.474l-23.233-16.88c-1.272-.924-2.775-1.412-4.347-1.412s-3.075.488-4.347 1.412l-23.233 16.88c-3.127 2.272-6.824 3.474-10.69 3.474h-40.823c-3.866 0-7.563-1.201-10.69-3.474l-23.233-16.88c-1.272-.924-2.775-1.412-4.347-1.412s-3.075.488-4.347 1.412l-20.382 14.809c-.928.674-2.024 1.03-3.171 1.03s-2.244-.356-3.171-1.03l-20.382-14.809c-1.272-.924-2.775-1.412-4.347-1.412-.407 0-.808.036-1.202.1 4.768 9.472 4.303 19.664-1.623 25.59-3.209 3.209-7.63 4.906-12.785 4.906-6.258 0-12.887-2.483-18.668-6.99l-1.326-1.034-.275 1.659c-2.136 12.859-10.777 22.191-20.546 22.191-10.333 0-19.067-9.974-20.767-23.714l-.117-.942h-1.107l-.351.251c-5.473 3.914-11.665 6.069-17.435 6.069-.267 0-.524-.024-.788-.033-11.482 24.123-17.919 51.112-17.919 79.607-.001 51.904 21.336 98.807 55.698 132.469z" fill="#80d261"/><path d="m127.962 481.584h44.663c-34.362-33.662-55.699-80.566-55.699-132.469 0-21.241 3.58-41.644 10.155-60.649-9.261-2.066-16.566-11.822-18.095-24.181-6.162 4.407-13.073 6.545-19.263 6.216-11.19 23.871-17.46 50.507-17.46 78.614 0 51.904 21.337 98.808 55.699 132.469z" fill="#68ca44"/><g><path d="m384.49 184.47c-.855-1.785-2.658-2.921-4.637-2.921h-189.29c-1.144 3.687-3.074 7.405-5.791 10.888l-1.034 1.326 1.659.275c12.859 2.136 22.191 10.777 22.191 20.546 0 10.333-9.974 19.067-23.714 20.767l-1.669.207.978 1.368c1.297 1.813 2.37 3.69 3.25 5.587 1.558-.181 3.167.197 4.498 1.164l20.382 14.808c2.242 1.629 5.277 1.629 7.519 0l20.382-14.808c2.242-1.629 5.277-1.629 7.519 0l23.233 16.88c3.278 2.382 7.226 3.664 11.278 3.664h40.823c4.052 0 8-1.283 11.278-3.664l23.233-16.88c2.242-1.629 5.277-1.629 7.519 0l23.233 16.88c3.278 2.382 7.226 3.664 11.278 3.664h24.074z" fill="#fed2a4"/></g><g><path d="m208.588 214.585c0-10.538-9.855-19.344-23.027-21.532 8.644-11.084 9.746-25.032 2.003-32.776-7.451-7.451-20.647-6.71-31.508 1.057-1.726-13.95-10.808-24.592-21.76-24.592-10.538 0-19.344 9.855-21.532 23.027-11.084-8.644-25.032-9.747-32.776-2.003-7.451 7.451-6.71 20.647 1.057 31.508-13.95 1.726-24.592 10.808-24.592 21.76 0 10.538 9.855 19.344 23.027 21.532-8.644 11.084-9.746 25.032-2.003 32.776 7.451 7.451 20.647 6.71 31.508-1.057 1.726 13.95 10.808 24.592 21.76 24.592 10.538 0 19.344-9.855 21.532-23.027 11.084 8.644 25.032 9.747 32.776 2.003 7.451-7.451 6.71-20.647-1.057-31.508 13.95-1.726 24.592-10.809 24.592-21.76zm-76.067 25.606c-15.306 0-27.757-12.452-27.757-27.757s12.452-27.757 27.757-27.757 27.757 12.452 27.757 27.757-12.452 27.757-27.757 27.757z" fill="#fd4755"/><g><circle cx="132.52" cy="212.434" fill="#fff" r="28.757"/></g><g><path d="m121.046 212.434c0-12.871 8.456-23.765 20.116-27.434-2.728-.858-5.63-1.323-8.642-1.323-15.882 0-28.757 12.875-28.757 28.757s12.875 28.757 28.757 28.757c3.011 0 5.914-.465 8.642-1.323-11.659-3.67-20.116-14.563-20.116-27.434z" fill="#eaf6ff"/></g></g><g><path d="m450.396 512h-387.751c-2.845 0-5.151-2.306-5.151-5.151v-21.114c0-2.845 2.306-5.151 5.151-5.151h387.751c2.845 0 5.151 2.306 5.151 5.151v21.114c0 2.845-2.306 5.151-5.151 5.151z" fill="#d88a55"/></g><g><path d="m102.503 506.849v-21.114c0-2.845 2.306-5.151 5.151-5.151h-45.009c-2.845 0-5.151 2.306-5.151 5.151v21.114c0 2.845 2.306 5.151 5.151 5.151h45.009c-2.845 0-5.151-2.306-5.151-5.151z" fill="#c57a44"/></g></g></svg>