<svg id="Capa_1" enable-background="new 0 0 512 512" height="512" viewBox="0 0 512 512" width="512" xmlns="http://www.w3.org/2000/svg"><g><g><path d="m282.309 183.035c0 4.969-.573 9.979-1.703 14.892l-.193.841.803.314c8.985 3.526 14.792 12.039 14.792 21.687 0 4.496-1.3 8.873-3.76 12.658l-1.147 1.766 2.094-.227c1.067-.115 2.055-.172 3.019-.172 4.461 0 8.721 1.032 12.66 3.067 2.289 1.183 4.864 1.808 7.446 1.808s5.156-.625 7.445-1.808c3.94-2.035 8.2-3.067 12.66-3.067 4.461 0 8.721 1.032 12.661 3.067 2.289 1.183 4.863 1.808 7.446 1.808 2.582 0 5.156-.625 7.445-1.808 3.362-1.737 6.959-2.737 10.714-2.994 1.341-2.826 2.094-5.986 2.094-9.323 0-9.221-5.734-17.097-13.828-20.273 1.002-4.357 1.549-8.888 1.549-13.55 0-33.266-26.967-60.233-60.233-60.233-13.258 0-25.508 4.294-35.457 11.553 8.458 11.118 13.493 24.977 13.493 39.994z" fill="#fed2a4"/><path d="m68.549 269.942c-.85-3.012-1.178-6.143-.977-9.317.861-13.565 11.717-24.629 25.251-25.734.774-.063 1.558-.096 2.329-.096 4.394 0 8.594 1.001 12.483 2.977 2.438 1.237 5.123 1.892 7.766 1.892 2.555 0 4.974-.587 7.188-1.743 3.913-2.045 8.33-3.126 12.773-3.126 4.461 0 8.721 1.032 12.66 3.067 2.289 1.183 4.864 1.808 7.446 1.808s5.157-.625 7.446-1.808c3.939-2.035 8.199-3.067 12.66-3.067s8.72 1.032 12.66 3.067c2.289 1.183 4.863 1.808 7.446 1.808 2.582 0 5.157-.625 7.446-1.808 3.94-2.035 8.199-3.067 12.66-3.067s8.721 1.032 12.661 3.067c2.289 1.183 4.864 1.808 7.446 1.808s5.157-.625 7.446-1.808c3.939-2.035 8.199-3.067 12.66-3.067s8.721 1.032 12.66 3.067c2.289 1.183 4.863 1.808 7.445 1.808 2.583 0 5.157-.625 7.446-1.808 3.94-2.035 8.2-3.067 12.66-3.067 4.461 0 8.721 1.032 12.66 3.067 2.289 1.183 4.864 1.808 7.446 1.808s5.156-.625 7.445-1.808c3.94-2.035 8.2-3.067 12.66-3.067 4.461 0 8.721 1.032 12.661 3.067 2.289 1.183 4.863 1.808 7.446 1.808 2.582 0 5.156-.625 7.445-1.808 3.939-2.035 8.199-3.067 12.66-3.067 4.442 0 8.859 1.081 12.773 3.126 2.214 1.156 4.633 1.743 7.188 1.743 2.643 0 5.328-.654 7.767-1.892 3.89-1.976 8.089-2.977 12.482-2.977.771 0 1.555.032 2.329.096 13.535 1.106 24.392 12.171 25.252 25.735.201 3.174-.127 6.304-.977 9.316z" fill="#ea9b58"/><path d="m148.023 237.861c2.289 1.183 4.864 1.808 7.446 1.808s5.157-.625 7.446-1.808c3.939-2.035 8.199-3.067 12.66-3.067s8.72 1.032 12.66 3.067c2.289 1.183 4.863 1.808 7.446 1.808 2.582 0 5.157-.625 7.446-1.808 3.94-2.035 8.199-3.067 12.66-3.067s8.721 1.032 12.661 3.067c2.289 1.183 4.864 1.808 7.446 1.808s5.157-.625 7.446-1.808c3.939-2.035 8.199-3.067 12.66-3.067s8.721 1.032 12.66 3.067c2.289 1.183 4.863 1.808 7.445 1.808 2.583 0 5.157-.625 7.446-1.808 2.785-1.439 5.733-2.365 8.796-2.791 2.928-4.013 4.659-8.953 4.659-14.301 0-10.287-6.396-19.074-15.426-22.617 1.118-4.861 1.728-9.916 1.728-15.117 0-37.112-30.086-67.198-67.198-67.198s-67.198 30.085-67.198 67.198c0 5.201.61 10.256 1.728 15.117-9.03 3.544-15.426 12.331-15.426 22.617 0 5.395 1.761 10.377 4.736 14.408 2.805.466 5.508 1.359 8.073 2.684z" fill="#fff"/><g><path d="m148.483 236.972c4.35 2.248 9.514 2.331 13.853.062 3.054-1.597 6.433-2.651 10.01-3.053-2.471-3.804-3.911-8.339-3.911-13.213 0-9.001 4.897-16.854 12.171-21.05 1.86-1.073 2.878-3.142 2.512-5.258-.642-3.713-.985-7.529-.985-11.426 0-5.268.619-10.389 1.766-15.307h-33.212-.011c-1.15 4.917-1.762 10.039-1.762 15.307 0 5.2.61 10.256 1.728 15.117-9.03 3.544-15.426 12.331-15.426 22.617 0 4.905 1.458 9.466 3.958 13.285 3.315.442 6.453 1.443 9.309 2.919z" fill="#eaf6ff"/></g><g><path d="m216.111 115.837c-31.843 0-58.494 22.157-65.425 51.89h48.352c3.087 0 5.59 2.503 5.59 5.59v2.08c0 7.784 5.688 14.639 13.424 15.495.901.1 1.787.117 2.651.06 2.909-.192 5.374 2.098 5.374 5.013 0 7.645 6.197 13.842 13.842 13.842 7.645 0 13.842-6.197 13.842-13.842v-14.396c0-7.645 6.197-13.842 13.842-13.842h13.934c-6.931-29.733-33.582-51.89-65.426-51.89z" fill="#883f2e"/></g><g><g><path d="m232.712 117.915c-5.31-1.351-10.869-2.079-16.601-2.079-31.843 0-58.494 22.157-65.425 51.89h33.201c5.683-24.381 24.631-43.657 48.825-49.811z" fill="#6d3326"/></g></g></g><path d="m444.198 270.942c1.01-3.25 1.458-6.748 1.228-10.38-.89-14.034-12.152-25.522-26.167-26.669-5.548-.454-10.797.676-15.347 2.986-4.425 2.246-9.641 2.452-14.039.154-3.958-2.068-8.46-3.239-13.236-3.239-4.729 0-9.189 1.147-13.119 3.178-4.377 2.262-9.597 2.262-13.974 0-3.93-2.031-8.39-3.178-13.119-3.178s-9.189 1.147-13.119 3.178c-4.377 2.262-9.597 2.262-13.974 0-3.93-2.031-8.39-3.178-13.119-3.178s-9.189 1.147-13.119 3.178c-4.377 2.262-9.597 2.262-13.974 0-3.93-2.031-8.39-3.178-13.119-3.178s-9.189 1.147-13.119 3.178c-4.377 2.262-9.597 2.262-13.974 0-3.93-2.031-8.39-3.178-13.119-3.178s-9.189 1.147-13.119 3.178c-4.377 2.262-9.597 2.262-13.974 0-3.93-2.031-8.39-3.178-13.119-3.178s-9.189 1.147-13.119 3.178c-4.377 2.262-9.597 2.262-13.974 0-3.93-2.031-8.39-3.178-13.119-3.178-4.776 0-9.278 1.17-13.236 3.239-4.398 2.298-9.614 2.093-14.038-.154-4.55-2.31-9.799-3.44-15.346-2.987-14.016 1.146-25.277 12.634-26.168 26.668-.231 3.633.217 7.131 1.228 10.381h376.393z" fill="#ea9b58"/><path d="m101.445 269.942c-.805-2.964-1.151-6.117-.943-9.381.581-9.147 5.569-17.21 12.853-22.036-1.81-.241-3.595-.797-5.266-1.646-4.55-2.31-9.799-3.44-15.346-2.986-14.016 1.146-25.277 12.634-26.168 26.668-.207 3.264.14 6.416.944 9.381z" fill="#d88a55"/><g fill="#3e5690"><path d="m54.015 269.942h-31.293c-9.969 0-18.434 8.158-18.248 18.124.181 9.665 8.073 17.445 17.782 17.445h43.323l.034-1.676c.25-12.311-3.858-24.316-11.598-33.893z"/><path d="m489.278 269.942h-31.293c-6.544 9.72-10.452 20.973-11.342 32.657l-.222 2.913h43.323c9.709 0 17.6-7.78 17.781-17.445.187-9.968-8.279-18.125-18.247-18.125z"/></g><path d="m428.618 360.273 29.367-90.331h-403.97l29.367 90.331z" fill="#acc7e4"/><path d="m144.798 359.272-29.042-89.33h-61.741l29.042 89.33z" fill="#8fb0c5"/><g><path d="m506.849 396.163h-501.698c-2.845 0-5.151-2.306-5.151-5.151v-26.589c0-2.845 2.306-5.151 5.151-5.151h501.698c2.845 0 5.151 2.306 5.151 5.151v26.589c0 2.845-2.306 5.151-5.151 5.151z" fill="#fd4755"/></g><g><path d="m48.934 391.012v-26.589c0-2.845 2.306-5.151 5.151-5.151h-48.934c-2.845 0-5.151 2.306-5.151 5.151v26.589c0 2.845 2.306 5.151 5.151 5.151h48.934c-2.845 0-5.151-2.306-5.151-5.151z" fill="#fb2b3a"/></g><g><g><circle cx="333" cy="186.88" fill="#883f2e" r="7.5"/></g><g><circle cx="318" cy="209.88" fill="#883f2e" r="7.5"/></g><g><circle cx="307" cy="165.88" fill="#883f2e" r="7.5"/></g></g></g></svg>