<svg id="Capa_1" enable-background="new 0 0 512 512" height="512" viewBox="0 0 512 512" width="512" xmlns="http://www.w3.org/2000/svg"><g><g><g><g><g><g><path d="m192.932 346.756c-5.443 0-10.745-.862-15.746-2.497v151.995c0 8.696 7.05 15.746 15.746 15.746 8.697 0 15.747-7.05 15.747-15.746v-151.996c-5.001 1.635-10.303 2.498-15.747 2.498z" fill="#fed2a4"/></g></g><g><path d="m177.186 419.208 31.493-14.763v-31.915l-31.493 14.763z" fill="#fe646f"/></g><g><path d="m177.186 487.255 31.493-14.762v-31.915l-31.493 14.762z" fill="#fe646f"/></g></g><path d="m236.666 318.376h-14.471c-3.584 0-6.5-2.916-6.5-6.5s2.916-6.5 6.5-6.5h26.298l-.116-1.104c-.188-1.798-.221-3.629-.096-5.44.568-8.252 4.407-15.71 10.395-20.974-3.512-1.716-6.862-3.82-10.002-6.31-3.085-2.448-6.978-3.795-10.96-3.795s-7.874 1.347-10.96 3.795c-9.709 7.7-21.405 11.771-33.823 11.771-12.417 0-24.113-4.07-33.822-11.771-3.085-2.448-6.978-3.795-10.96-3.795s-7.874 1.347-10.96 3.795c-9.708 7.7-21.405 11.771-33.822 11.771-1.907 0-3.797-.103-5.668-.295 6.974 16.838 22.056 29.467 40.385 32.997 4.684.902 8.787 3.765 11.34 7.795 9.124 14.404 25.195 23.97 43.507 23.97s34.384-9.566 43.507-23.97c.347-.547.727-1.068 1.128-1.57z" fill="#d8ecfe"/><g><path d="m165.986 307.233c-2.553-4.03-6.656-6.893-11.34-7.795-12.631-2.433-23.715-9.192-31.674-18.665-6.096 2.303-12.7 3.575-19.603 3.575-1.759 0-3.497-.092-5.214-.252 7.162 16.301 21.992 28.469 39.93 31.924 4.684.902 8.787 3.765 11.34 7.795 9.124 14.404 25.195 23.97 43.507 23.97s34.384-9.566 43.507-23.97c.096-.152.21-.291.31-.44-7.905 4.95-17.24 7.827-27.257 7.827-18.311.001-34.382-9.565-43.506-23.969z" fill="#c4e2ff"/></g><path d="m248.034 272.354c3.034 2.407 6.329 4.498 9.83 6.235 3.158-2.98 6.965-5.332 11.261-6.806l.868-.299-.223-.89c-.66-2.646-.991-5.375-.982-8.113.054-15.864 11.438-29.425 27.071-32.243l.796-.144.025-.81c.016-.48.033-.963.069-1.447.292-3.919 1.292-7.647 2.865-11.063-3.968-1.672-7.741-3.851-11.244-6.53-3.07-2.348-6.896-3.64-10.773-3.64-3.95 0-7.833 1.336-10.934 3.762-9.001 7.043-19.812 10.8-31.265 10.864l-.298.001c-11.341 0-22.091-3.635-31.085-10.511-3.07-2.347-6.896-3.64-10.774-3.64-3.95 0-7.833 1.337-10.934 3.764-9.001 7.041-19.812 10.798-31.265 10.863l-.293.001c-11.345 0-22.097-3.635-31.091-10.511-3.07-2.348-6.897-3.64-10.774-3.64-3.95 0-7.833 1.336-10.935 3.762-9 7.043-19.81 10.8-31.263 10.864l-.297.001c-6.07 0-12.046-1.1-17.658-3.164-.566 3.126-.883 6.334-.894 9.608-.103 30.756 24.798 55.72 55.529 55.72 13.023 0 24.995-4.486 34.462-11.994 6.005-4.763 14.634-4.763 20.64 0 9.468 7.509 21.439 11.994 34.462 11.994s24.995-4.486 34.462-11.994c6.008-4.762 14.637-4.762 20.642 0z" fill="#eaf6ff"/><g><path d="m76.089 228.628c.007-2.163.151-4.297.404-6.399-3.173.621-6.446.966-9.799.985-6.377.036-12.488-1.082-18.151-3.14-.45 2.792-.695 5.648-.705 8.554-.103 30.756 24.798 55.72 55.529 55.72 4.884 0 9.62-.631 14.132-1.816-23.886-6.261-41.496-28.031-41.41-53.904z" fill="#d8ecfe"/></g><g><path d="m101.675 53.442c.567-.018 1.132-.026 1.694-.026 12.358 0 24.009 4.035 33.694 11.67 3.164 2.494 7.126 3.867 11.156 3.867 3.962 0 7.83-1.338 10.891-3.767 9.711-7.7 21.406-11.771 33.822-11.771s24.112 4.07 33.823 11.771c3.062 2.43 6.93 3.767 10.891 3.767 4.03 0 7.992-1.373 11.155-3.867 9.686-7.635 21.338-11.67 33.695-11.67.561 0 1.128.008 1.694.026 2.766.084 5.482.384 8.135.878-.015-1.161-.054-2.328-.142-3.504-2.019-27.125-24.056-48.932-51.198-50.696-14.265-.927-27.453 3.588-37.702 11.669-6.059 4.777-14.643 4.777-20.702 0-10.249-8.08-23.438-12.596-37.702-11.669-27.143 1.763-49.179 23.571-51.198 50.696-.088 1.176-.127 2.343-.142 3.504 2.653-.495 5.37-.795 8.136-.878z" fill="#d8ecfe"/></g><g><path d="m101.643 52.411c6.945-.211 13.609.861 19.784 2.986-.01-1.514.032-3.04.147-4.581 1.757-23.607 18.679-43.179 40.93-49.024-5.579-1.459-11.502-2.07-17.625-1.672-27.143 1.763-49.179 23.571-51.198 50.696-.061.819-.092 1.632-.117 2.443 2.635-.475 5.332-.765 8.079-.848z" fill="#c4e2ff"/></g><g><path d="m62.686 119.775c1.236-.087 2.488-.131 3.719-.131 11.385 0 22.167 3.659 31.18 10.58 3.059 2.349 6.735 3.591 10.633 3.591 3.965-.001 7.867-1.345 10.987-3.785 8.999-7.042 19.809-10.798 31.261-10.862l.298-.001c11.341 0 22.091 3.635 31.087 10.511 3.071 2.347 6.897 3.64 10.775 3.64 3.95 0 7.832-1.336 10.933-3.762 9-7.043 19.811-10.8 31.264-10.865l.293-.001c11.344 0 22.094 3.634 31.089 10.509 3.09 2.361 6.936 3.662 10.828 3.662 3.915 0 7.747-1.318 10.792-3.711 9.101-7.154 20.046-10.936 31.652-10.936 1.036 0 2.089.031 3.128.093 4.815.286 9.458 1.251 13.838 2.795 1.045-4.287 1.602-8.765 1.586-13.378-.1-29.725-24.092-54.412-53.804-55.313-13.63-.413-26.193 4.09-36.058 11.866-6.068 4.783-14.715 4.904-20.769.103-9.468-7.508-21.439-11.994-34.462-11.994s-24.995 4.486-34.462 11.994c-6.054 4.801-14.701 4.681-20.769-.103-9.865-7.776-22.428-12.279-36.058-11.866-29.711.901-53.704 25.588-53.804 55.313-.017 5.087.663 10.011 1.928 14.694 4.098-1.413 8.427-2.326 12.915-2.643z" fill="#eaf6ff"/></g><g><path d="m62.613 118.747c4.742-.335 9.358-.024 13.78.833-.207-1.983-.311-3.996-.304-6.036.098-29.203 23.261-53.526 52.247-55.226-7.985-4.031-17.071-6.199-26.693-5.907-29.711.901-53.704 25.588-53.804 55.313-.016 4.728.564 9.317 1.66 13.701 4.167-1.43 8.561-2.356 13.114-2.678z" fill="#d8ecfe"/></g><path d="m267.298 211.179c5.983-4.682 14.412-4.729 20.447-.115 3.498 2.674 7.347 4.908 11.458 6.639 4.68-11.068 15.338-19.055 27.846-19.867.724-.047 1.456-.071 2.177-.071 7.388 0 14.352 2.413 20.14 6.977 1.825 1.439 4.083 2.267 6.407 2.377 10.811-10.433 17.14-25.469 15.821-41.933-2.064-25.769-23.125-46.376-48.931-47.907-13.426-.796-25.822 3.471-35.478 11.061-5.938 4.668-14.356 4.628-20.358.041-8.874-6.783-19.979-10.787-32.013-10.719-12.035.068-23.095 4.199-31.893 11.083-5.983 4.682-14.411 4.729-20.447.115-8.875-6.784-19.98-10.79-32.016-10.722-12.034.068-23.093 4.198-31.889 11.08-5.949 4.655-14.366 4.79-20.357.189-9.741-7.481-22.184-11.608-35.6-10.66-25.786 1.822-46.612 22.666-48.386 48.457-2.111 30.707 22.26 56.182 52.469 56.011 12.036-.068 23.095-4.199 31.893-11.083 5.983-4.682 14.412-4.729 20.447-.115 8.875 6.784 19.98 10.79 32.016 10.722s23.095-4.199 31.892-11.083c5.983-4.682 14.412-4.729 20.447-.115 8.875 6.784 19.98 10.79 32.016 10.722 12.035-.069 23.095-4.2 31.892-11.084z" fill="#d8ecfe"/><g><g><path d="m42.221 167.204c1.532-22.282 17.291-40.861 38.179-46.681-5.61-1.557-11.592-2.213-17.787-1.775-25.787 1.821-46.613 22.665-48.387 48.456-2.111 30.707 22.26 56.182 52.469 56.011 4.748-.027 9.34-.695 13.705-1.906-23.193-6.429-39.945-28.432-38.179-54.105z" fill="#c4e2ff"/></g></g></g></g><g><path d="m464.959 305.376c.418-2.528.542-5.154.327-7.845-1.021-12.753-9.67-23.432-21.304-27.508.544-2.428.836-4.951.828-7.545-.055-16.456-12.116-30.38-27.893-33.225-.016-.495-.034-.991-.072-1.49-1.231-16.547-14.674-29.85-31.232-30.926-8.702-.565-16.747 2.189-22.999 7.118-3.696 2.914-8.933 2.914-12.629 0-6.252-4.929-14.298-7.684-22.999-7.118-16.558 1.076-30 14.379-31.232 30.926-.037.5-.056.995-.071 1.49-15.778 2.845-27.838 16.769-27.893 33.225-.01 2.884.344 5.684 1.013 8.358-11.852 4.069-20.627 14.971-21.518 27.926-.156 2.26-.063 4.469.23 6.614z" fill="#fe646f"/><path d="m270.315 298.762c.891-12.955 9.665-23.857 21.518-27.926-.669-2.675-1.022-5.474-1.013-8.358.055-16.456 12.115-30.38 27.893-33.225.016-.495.034-.991.071-1.49.991-13.316 9.893-24.525 21.959-28.958-4.25-1.556-8.899-2.284-13.758-1.968-16.558 1.076-30 14.379-31.232 30.926-.037.5-.056.995-.071 1.49-15.778 2.845-27.838 16.769-27.893 33.225-.01 2.884.344 5.684 1.013 8.358-11.852 4.069-20.627 14.971-21.518 27.926-.155 2.259-.072 4.47.221 6.614h23.031c-.293-2.144-.377-4.355-.221-6.614z" fill="#fd4755"/><path d="m235.639 318.376 42.329 181.523c1.653 7.087 7.97 12.101 15.248 12.101h126.164c7.277 0 13.595-5.014 15.248-12.101l42.329-181.523z" fill="#eaf6ff"/><g><path d="m300.302 482.264-32.254-138.313c-.753-3.231 1.699-6.321 5.016-6.321h166.468c3.317 0 5.77 3.09 5.016 6.321l-32.254 138.313c-.544 2.332-2.622 3.981-5.016 3.981h-101.96c-2.394 0-4.473-1.649-5.016-3.981z" fill="#fe646f"/></g><g><path d="m322.757 482.264-32.254-138.313c-.753-3.231 1.699-6.321 5.016-6.321h-22.456c-3.317 0-5.77 3.09-5.016 6.321l32.254 138.313c.544 2.331 2.622 3.981 5.016 3.981h22.456c-2.394 0-4.472-1.649-5.016-3.981z" fill="#fd4755"/></g><g><path d="m490.401 319.376h-268.206c-4.143 0-7.5-3.357-7.5-7.5s3.357-7.5 7.5-7.5h268.206c4.143 0 7.5 3.357 7.5 7.5s-3.357 7.5-7.5 7.5z" fill="#c4e2ff"/></g><g><circle cx="356.298" cy="404.346" fill="#fff" r="39.147"/></g><g><path d="m342.906 404.346c0-17.107 10.978-31.642 26.27-36.969-4.034-1.405-8.364-2.178-12.877-2.178-21.62 0-39.147 17.527-39.147 39.147s17.527 39.147 39.147 39.147c4.513 0 8.843-.773 12.877-2.178-15.292-5.327-26.27-19.862-26.27-36.969z" fill="#eaf6ff"/></g><g><g><path d="m330.414 286.398c-3.005 0-5.841-1.818-6.993-4.787-1.35-3.476-4.628-5.721-8.353-5.721s-7.003 2.245-8.352 5.72c-1.5 3.861-5.843 5.773-9.706 4.278-3.861-1.499-5.776-5.845-4.278-9.706 3.606-9.289 12.373-15.292 22.336-15.292 9.961 0 18.729 6.002 22.335 15.291 1.5 3.861-.415 8.207-4.276 9.706-.892.347-1.811.511-2.713.511z" fill="#fb2b3a"/></g><g><path d="m378.429 250.269c-3.005 0-5.841-1.818-6.993-4.788-1.35-3.474-4.628-5.719-8.353-5.719s-7.003 2.245-8.353 5.719c-1.499 3.861-5.845 5.778-9.705 4.277-3.861-1.499-5.776-5.844-4.277-9.705 3.605-9.289 12.373-15.291 22.335-15.291s18.729 6.002 22.335 15.291c1.499 3.861-.416 8.206-4.277 9.705-.892.346-1.81.511-2.712.511z" fill="#fb2b3a"/></g><g><path d="m382.183 286.26c-.902 0-1.82-.164-2.713-.511-3.861-1.499-5.776-5.845-4.276-9.706 3.606-9.288 12.374-15.29 22.335-15.29 9.963 0 18.73 6.002 22.336 15.291 1.498 3.861-.417 8.207-4.278 9.706-3.86 1.497-8.207-.417-9.706-4.278-1.348-3.474-4.626-5.719-8.352-5.719-3.725 0-7.003 2.245-8.353 5.72-1.152 2.968-3.988 4.787-6.993 4.787z" fill="#fb2b3a"/></g></g></g></g></svg>