<svg id="Capa_1" enable-background="new 0 0 512 512" height="512" viewBox="0 0 512 512" width="512" xmlns="http://www.w3.org/2000/svg"><g><g><g><path d="m391.852 262.974.513.65.734-.383c12.277-6.397 26.159-9.779 40.145-9.779 5.154 0 10.233.471 15.207 1.343 2.36-.914 4.487-2.294 6.246-4.052 3.262-3.262 5.281-7.77 5.28-12.747.001-9.957-8.071-18.029-18.028-18.028-23.543 0-45.666 9.157-62.294 25.786-.604.604-1.176 1.23-1.76 1.848 4.994 4.808 9.669 9.928 13.957 15.362z" fill="#fb8801"/><path d="m407.644 287.785.335.671.738-.134c5.089-.923 10.286-1.392 15.445-1.392 7.904 0 15.805 1.09 23.48 3.24 12.995 3.639 24.703 10.109 34.484 18.852.217.008.433.031.651.031 4.614 0 9.228-1.761 12.747-5.28 7.041-7.04 7.041-18.455 0-25.495-16.647-16.647-38.766-25.815-62.282-25.815-14.722 0-28.897 3.595-41.524 10.367 6.132 7.752 11.494 16.085 15.926 24.955z" fill="#fdb441"/><path d="m500.925 330.862c-11.541-20.52-30.368-35.313-53.012-41.655-13.383-3.748-27.156-4.255-40.423-1.681 4.82 9.587 8.493 19.641 10.914 29.997h7.919c26.474 0 49.108 16.726 57.91 40.163 3.312.183 6.712-.527 9.817-2.274 8.678-4.88 11.757-15.872 6.875-24.55z" fill="#fb8801"/></g><g><path d="m63.55 254.805c4.974-.873 10.053-1.343 15.207-1.343 13.985 0 27.867 3.382 40.145 9.779l.734.383.513-.65c4.287-5.434 8.963-10.554 13.958-15.364-.584-.618-1.156-1.244-1.76-1.848-16.628-16.628-38.751-25.786-62.294-25.786-9.957-.001-18.029 8.071-18.028 18.028 0 4.977 2.018 9.485 5.28 12.747 1.758 1.76 3.885 3.14 6.245 4.054z" fill="#fb8801"/><path d="m29.223 309.053c.217 0 .434-.023.65-.031 9.781-8.742 21.49-15.213 34.484-18.852 7.676-2.149 15.576-3.24 23.48-3.24 5.159 0 10.356.468 15.445 1.392l.738.134.335-.671c4.431-8.87 9.793-17.203 15.925-24.956-12.627-6.772-26.802-10.367-41.524-10.367-23.516 0-45.635 9.168-62.282 25.815-7.041 7.04-7.041 18.455 0 25.495 3.52 3.52 8.135 5.281 12.749 5.281z" fill="#fdb441"/><path d="m27.767 357.686c8.802-23.437 31.435-40.163 57.91-40.163h7.919c2.421-10.356 6.094-20.41 10.914-29.997-13.267-2.573-27.039-2.067-40.423 1.681-22.645 6.342-41.472 21.135-53.012 41.655-4.882 8.678-1.804 19.67 6.875 24.551 3.105 1.746 6.505 2.457 9.817 2.273z" fill="#fb8801"/></g></g><path d="m174.492 317.523c14.246 0 27.872 5.296 38.368 14.913 10.431 9.557 16.894 22.545 18.198 36.571.104 1.111-.257 2.182-1.016 3.014-.762.836-1.847 1.316-2.977 1.316h-57.821c-14.403 0-26.398 11.714-26.739 26.112l-.024 1.024h62.128c1.166 0 2.231.483 3 1.361.77.878 1.121 2.05.966 3.214-1.464 10.963-7.139 20.739-15.98 27.528l-2.318 1.78c.011.004.022.009.033.013h131.38c.011-.004.022-.009.033-.013l-2.318-1.78c-8.842-6.789-14.517-16.565-15.98-27.528-.155-1.164.196-2.335.966-3.214.769-.878 1.834-1.361 3-1.361h62.128l-.024-1.024c-.341-14.398-12.336-26.112-26.739-26.112h-57.821c-1.13 0-2.215-.479-2.977-1.316-.759-.833-1.119-1.903-1.016-3.014 1.305-14.026 7.768-27.014 18.198-36.571 10.496-9.617 24.122-14.913 38.368-14.913h81.922c-15.65-67.605-82.862-118.44-163.43-118.44s-147.78 50.835-163.43 118.44z" fill="#fe9901"/><g><g><path d="m320.136 434.369h49.374v-34.278c0-.207-.011-.412-.016-.618h-62.104c-3.042 0-5.359 2.692-4.957 5.707 1.608 12.042 8.236 22.489 17.703 29.189z" fill="#fb8801"/><path d="m284.933 374.337h57.822c14.224 0 25.755 11.531 25.755 25.755v34.278h88.205c19.346-10.712 32.45-31.325 32.45-55.005 0-34.706-28.135-62.841-62.841-62.841h-88.815c-30.101 0-54.829 23.004-57.563 52.391-.272 2.914 2.06 5.422 4.987 5.422z" fill="#fdb441"/></g><g><path d="m191.864 434.369c9.467-6.7 16.095-17.147 17.702-29.188.402-3.015-1.915-5.707-4.957-5.707h-62.104c-.005.206-.016.411-.016.618v34.278h49.375z" fill="#fb8801"/><path d="m55.285 434.369h88.205v-34.278c0-14.224 11.531-25.755 25.755-25.755h57.822c2.928 0 5.259-2.508 4.988-5.423-2.734-29.387-27.462-52.391-57.563-52.391h-88.815c-34.706 0-62.841 28.135-62.841 62.841-.001 23.681 13.103 44.294 32.449 55.006z" fill="#fdb441"/><path d="m55.285 434.369h33.996c-19.346-10.712-32.45-31.325-32.45-55.005 0-34.706 28.135-62.841 62.841-62.841h-33.995c-34.706 0-62.841 28.135-62.841 62.841-.001 23.68 13.103 44.293 32.449 55.005z" fill="#fe9901"/></g></g><g><path d="m56.923 465.778 24.437 34.878c1.928 2.752 5.077 4.39 8.437 4.39h332.405c3.36 0 6.509-1.639 8.437-4.39l24.437-34.878z" fill="#fd4755"/><path d="m139.051 500.656-24.437-34.878h-57.69l24.437 34.878c1.928 2.752 5.077 4.39 8.437 4.39h57.69c-3.361 0-6.509-1.638-8.437-4.39z" fill="#fb2b3a"/><g><path d="m495.295 466.779h-478.59c-9.226 0-16.705-7.479-16.705-16.705 0-9.226 7.479-16.705 16.705-16.705h478.591c9.226 0 16.705 7.479 16.705 16.705-.001 9.226-7.48 16.705-16.706 16.705z" fill="#fe646f"/></g><g><path d="m49.964 450.074c0-9.226 7.479-16.705 16.705-16.705h-49.964c-9.226 0-16.705 7.479-16.705 16.705 0 9.226 7.479 16.705 16.705 16.705h49.964c-9.226 0-16.705-7.479-16.705-16.705z" fill="#fd4755"/></g></g><g><g><path d="m283.287 65.961c2.53-1.461 3.365-4.749 1.788-7.208-32.292-50.324-99.016-66.913-151.353-36.697s-71.333 96.297-43.896 149.424c1.341 2.596 4.606 3.517 7.136 2.056z" fill="#fac600"/></g><g><path d="m265.553 76.2c-24.038-41.635-77.296-55.89-118.954-31.839s-55.942 77.301-31.904 118.937z" fill="#fedf74"/></g><g><path d="m146.599 44.361c-25.59 14.774-40.828 40.569-43.221 67.919l86.746 7.469 36.905-78.859c-24.882-11.603-54.84-11.304-80.43 3.471z" fill="#fef0ae"/></g><g><path d="m124.182 62.911 65.942 56.838-16.252-85.526c-9.349 1.78-18.565 5.111-27.273 10.138s-16.201 11.343-22.417 18.55z" fill="#fedf74"/></g></g><g><g><path d="m176.271 192.112c.546 0 1.049.291 1.32.763l13 22.608c1.681 2.684 2.569 5.778 2.569 8.95 0 9.312-7.575 16.887-16.888 16.887-9.311 0-16.887-7.575-16.887-16.887 0-3.171.889-6.266 2.567-8.95l13.002-22.608c.269-.472.774-.763 1.317-.763z" fill="#fedf74"/></g></g><g><g><path d="m224.689 126.18c.546 0 1.049.291 1.32.763l13 22.608c1.681 2.684 2.569 5.778 2.569 8.95 0 9.312-7.575 16.887-16.888 16.887-9.311 0-16.887-7.575-16.887-16.887 0-3.171.889-6.266 2.567-8.95l13.002-22.608c.27-.472.774-.763 1.317-.763z" fill="#fedf74"/></g></g></g></svg>