<svg id="Capa_1" enable-background="new 0 0 512 512" height="512" viewBox="0 0 512 512" width="512" xmlns="http://www.w3.org/2000/svg"><g><g><g><path d="m207.952 360.096c-6.002-23.538-22.067-43.048-43.342-53.698-7.522-3.766-14.193-9.033-19.769-15.331l-5.468-6.175c-6.313-7.13-17.441-7.13-23.755 0l-5.468 6.175c-5.577 6.298-12.247 11.565-19.77 15.331-21.274 10.649-37.339 30.16-43.342 53.698z" fill="#fe9901"/><path d="m103.417 333.998c.987.437 2.016.643 3.029.643 2.878 0 5.625-1.667 6.863-4.469l14.186-32.082 14.186 32.082c1.675 3.787 6.104 5.497 9.893 3.826 3.788-1.675 5.501-6.104 3.826-9.893l-18.246-41.265c-5.674-4.374-13.643-4.374-19.317 0l-18.246 41.264c-1.675 3.79.038 8.219 3.826 9.894z" fill="#fb8801"/></g><g><path d="m464.961 360.096c-6.002-23.538-22.067-43.048-43.342-53.698-7.522-3.766-14.193-9.033-19.77-15.331l-5.468-6.175c-6.313-7.13-17.441-7.13-23.755 0l-5.468 6.175c-5.577 6.298-12.247 11.565-19.77 15.331-21.274 10.649-37.339 30.16-43.342 53.698z" fill="#fedf74"/><path d="m360.426 333.998c3.786 1.675 8.217-.038 9.893-3.826l14.186-32.082 14.186 32.082c1.239 2.802 3.985 4.469 6.863 4.469 1.013 0 2.043-.206 3.029-.643 3.788-1.675 5.501-6.104 3.826-9.893l-18.246-41.264c-5.674-4.374-13.643-4.374-19.317 0l-18.246 41.264c-1.675 3.789.038 8.218 3.826 9.893z" fill="#fed402"/></g></g><path d="m486.519 394.234v-30.064c0-2.803-2.272-5.075-5.075-5.075h-450.888c-2.803 0-5.076 2.272-5.076 5.075v30.064z" fill="#fed2a4"/><path d="m98.571 359.095h314.857v35.139h-314.857z" fill="#ffbd86"/><path d="m199 359.095h114v35.139h-114z" fill="#fed2a4"/><g><path d="m501.588 512h-491.176c-2.803 0-5.075-2.272-5.075-5.075v-108.615c0-2.803 2.272-5.075 5.075-5.075h491.176c2.803 0 5.075 2.272 5.075 5.075v108.615c.001 2.803-2.272 5.075-5.075 5.075z" fill="#d88a55"/></g><g><path d="m53.997 506.925v-108.615c0-2.803 2.272-5.075 5.075-5.075h-48.66c-2.803 0-5.075 2.272-5.075 5.075v108.615c0 2.803 2.272 5.075 5.075 5.075h48.661c-2.804 0-5.076-2.272-5.076-5.075z" fill="#c57a44"/></g><path d="m301.412 232.723c5.789 0 11.333-1.788 16.034-5.172l20.989-15.112c-3.35-28.266-20.898-52.17-45.319-64.395-7.522-3.765-14.193-9.033-19.77-15.331l-5.468-6.175c-6.313-7.13-17.441-7.13-23.755 0l-5.468 6.175c-5.577 6.298-12.247 11.566-19.77 15.331-27.218 13.625-45.911 41.754-45.911 74.264 0 3.531.245 7.002.676 10.415z" fill="#fed2a4"/><g><path d="m151.276 231.722h150.136c5.545 0 10.95-1.743 15.45-4.983l129.322-93.112c9.354-6.735 22.404-.05 22.404 11.476 0 3.974-1.672 7.764-4.606 10.443l-132.628 121.095c-5.611 5.123-12.935 7.964-20.533 7.964h-118.041c-6.167 0-12-2.803-15.853-7.619l-29.614-37.017c-2.659-3.324-.293-8.247 3.963-8.247z" fill="#eaf6ff"/></g><g><g><path d="m224.202 276.985-29.614-37.017c-2.659-3.323-.292-8.246 3.963-8.246h-47.275c-4.256 0-6.622 4.923-3.963 8.246l29.614 37.017c3.853 4.816 9.686 7.619 15.853 7.619h47.275c-6.168.001-12.001-2.803-15.853-7.619z" fill="#d8ecfe"/></g></g><path d="m231.921 175.644c3.786 1.674 8.217-.038 9.893-3.826l14.186-32.083 14.186 32.082c1.239 2.802 3.985 4.469 6.863 4.469 1.013 0 2.043-.207 3.029-.643 3.788-1.675 5.501-6.104 3.826-9.893l-18.247-41.264c-5.674-4.374-13.643-4.374-19.316 0l-18.247 41.264c-1.674 3.789.039 8.219 3.827 9.894z" fill="#ffbd86"/><g><g><path d="m229.075 93.231h-57.931c-16.421 0-29.781-13.359-29.781-29.781s13.36-29.781 29.781-29.781h81.698c5.147 0 9.334-4.188 9.334-9.334 0-5.147-4.188-9.335-9.334-9.335h-36.64c-4.142 0-7.5-3.357-7.5-7.5s3.358-7.5 7.5-7.5h36.64c13.418 0 24.334 10.917 24.334 24.335s-10.917 24.334-24.334 24.334h-81.698c-8.15 0-14.781 6.631-14.781 14.781s6.631 14.781 14.781 14.781h57.931c4.142 0 7.5 3.357 7.5 7.5s-3.358 7.5-7.5 7.5z" fill="#fdb441"/></g><g><path d="m341.967 135.572h-19.021c-4.142 0-7.5-3.357-7.5-7.5s3.358-7.5 7.5-7.5h19.021c7.538 0 13.67-6.132 13.67-13.67s-6.132-13.671-13.67-13.671h-69.929c-4.142 0-7.5-3.357-7.5-7.5s3.358-7.5 7.5-7.5h69.929c15.809 0 28.67 12.861 28.67 28.671.001 15.809-12.861 28.67-28.67 28.67z" fill="#fe9901"/></g></g><g fill="#ea9b58"><path d="m175.808 416.188h-170.472v15h170.471c4.142 0 7.5-3.357 7.5-7.5s-3.357-7.5-7.499-7.5z"/><path d="m506.664 416.188h-69.914c-4.142 0-7.5 3.357-7.5 7.5s3.358 7.5 7.5 7.5h69.914z"/><path d="m506.664 445.625h-69.914c-4.142 0-7.5 3.357-7.5 7.5s3.358 7.5 7.5 7.5h69.914z"/><path d="m506.664 475.063h-69.914c-4.142 0-7.5 3.357-7.5 7.5s3.358 7.5 7.5 7.5h69.914z"/><path d="m175.808 475.063h-170.472v15h170.471c4.142 0 7.5-3.357 7.5-7.5s-3.357-7.5-7.499-7.5z"/><path d="m175.808 445.625h-170.472v15h170.471c4.142 0 7.5-3.357 7.5-7.5s-3.357-7.5-7.499-7.5z"/></g></g></svg>