<svg id="Capa_1" enable-background="new 0 0 512 512" height="512" viewBox="0 0 512 512" width="512" xmlns="http://www.w3.org/2000/svg"><g><g><g><g><path d="m363.575 112.805c2.922 0 5.289-2.43 5.152-5.348-2.803-59.728-52.293-107.457-112.727-107.457s-109.924 47.729-112.727 107.456c-.137 2.919 2.23 5.348 5.152 5.348h215.15z" fill="#fed402"/></g><g><path d="m343.098 112.805c0-48.077-38.995-87.05-87.098-87.05s-87.098 38.974-87.098 87.05z" fill="#fef0ae"/></g><g><path d="m256 25.755c-29.549 0-55.642 14.72-71.39 37.209l71.39 49.841 71.39-49.842c-15.748-22.488-41.841-37.208-71.39-37.208z" fill="#fff"/></g><g><path d="m227.312 30.611 28.688 82.194 28.688-82.194c-8.986-3.133-18.634-4.856-28.688-4.856-10.055 0-19.702 1.723-28.688 4.856z" fill="#fef0ae"/></g></g><g><g><path d="m256.091 194.43c.546 0 1.049.291 1.32.763l13 22.608c1.681 2.684 2.569 5.778 2.569 8.95 0 9.312-7.575 16.887-16.888 16.887-9.311 0-16.887-7.575-16.887-16.887 0-3.171.889-6.266 2.567-8.95l13.002-22.608c.269-.472.774-.763 1.317-.763z" fill="#fedf74"/></g></g><g><path d="m312.659 150.132c.546 0 1.049.291 1.32.763l13 22.608c1.681 2.684 2.569 5.778 2.569 8.95 0 9.312-7.575 16.887-16.888 16.887-9.311 0-16.887-7.575-16.887-16.887 0-3.171.889-6.266 2.567-8.95l13.002-22.608c.27-.472.774-.763 1.317-.763z" fill="#fed402"/></g><g><g><path d="m199.339 134.679c.546 0 1.049.291 1.32.763l13 22.608c1.681 2.684 2.569 5.778 2.569 8.95 0 9.312-7.575 16.887-16.888 16.887-9.311 0-16.887-7.575-16.887-16.887 0-3.171.889-6.266 2.567-8.95l13.002-22.608c.27-.472.774-.763 1.317-.763z" fill="#fed402"/></g></g></g><g><path d="m397.983 294.856c.723-.457 1.554-.699 2.403-.699 1.767 0 3.373 1.031 4.093 2.627 7.2 15.966 4.675 35.912-6.928 54.724l1.387 1.37 19.052-12.055c.109-.069.222-.128.335-.186l.229-.117 24.232-35.952v-46.022c0-2.845-2.306-5.151-5.151-5.151h-35.026c-2.845 0-5.151 2.306-5.151 5.151v36.643z" fill="#fef0ae"/><path d="m405.391 296.373c7.516 16.665 4.421 37.163-6.988 55.66l15.214-9.626v-83.861c0-2.845 2.306-5.151 5.151-5.151h-16.159c-2.845 0-5.151 2.306-5.151 5.151v35.46c2.814-1.772 6.565-.666 7.933 2.367z" fill="#fedf74"/><g><path d="m417.989 340.823c.669-.423 1.437-.646 2.221-.646 1.633 0 3.116.952 3.78 2.427 4.586 10.167 4.903 21.976 1.415 33.845l39.037-24.698 23.498-34.863c1.59-2.359.967-5.56-1.392-7.15l-29.044-19.577c-2.359-1.59-5.56-.967-7.15 1.392l-33.837 50.202z" fill="#fedf74"/></g><g><path d="m457.504 290.161c-2.359-1.59-5.56-.967-7.15 1.392l-32.484 48.194c2.582-1.322 5.815-.255 7.033 2.446 2.397 5.314 3.634 11.045 3.815 16.975l38.148-56.598c1.412-2.096 4.094-2.812 6.329-1.833z" fill="#fed402"/></g><g><path d="m340.384 389.924 56.782-35.926c12.424-18.998 16.008-40.368 8.225-57.625-1.369-3.036-5.128-4.142-7.943-2.361l-52.79 33.4c7.049 17.492 5.838 40.601-4.274 62.512z" fill="#fed402"/></g><g><path d="m405.391 296.373c-1.369-3.036-5.128-4.142-7.943-2.361l-51.99 32.893c2.435 6.026 3.92 12.715 4.414 19.8l47.576-30.1c2.815-1.781 6.573-.675 7.943 2.361 1.27 2.817 2.222 5.748 2.897 8.755 2.23-10.976 1.412-21.793-2.897-31.348z" fill="#fac600"/></g><path d="m472.274 409.982c17.421-20.906 23.584-46.302 14.6-66.221-1.369-3.036-5.128-4.142-7.943-2.361l-108.399 68.582z" fill="#fed402"/><g><path d="m71.888 324.232c.152 3.92 1.707 7.796 4.699 10.789 2.993 2.992 6.869 4.547 10.788 4.699l1.287 1.287c3.889-1.356 8.028-2.107 12.295-2.107h7.78l.296-.315c7.528-8.022 17.68-12.652 28.585-13.038l1.577-.056-.724-1.401c-5.196-10.073-3.311-22.218 4.692-30.221l25.263-25.262c-.17-.187-.321-.385-.502-.566-3.732-3.732-8.833-5.237-13.685-4.552l-5.359-5.359c.685-4.852-.82-9.954-4.551-13.685-3.516-3.516-8.251-5.067-12.845-4.661.406-4.594-1.145-9.329-4.661-12.845-3.732-3.732-8.833-5.237-13.685-4.552l-2.279-2.279c-10.52-10.52-27.577-10.52-38.097 0l-33.451 33.451c-10.52 10.52-10.52 27.577 0 38.097l12.787 12.787c.152 3.92 1.707 7.796 4.699 10.789 2.993 2.993 6.869 4.547 10.788 4.699z" fill="#fdb441"/></g><g><path d="m71.888 324.232c.152 3.92 1.707 7.796 4.699 10.789 2.993 2.992 6.869 4.547 10.788 4.699l.485.486c4.094-1.489 8.504-2.306 13.097-2.306h7.347c.837-.892 1.718-1.743 2.629-2.561-.115-.109-.237-.205-.35-.318-2.993-2.993-4.547-6.869-4.699-10.789l-4.302-4.302c-3.92-.152-7.796-1.707-10.788-4.699-2.993-2.993-4.547-6.869-4.699-10.789l-12.787-12.787c-10.52-10.52-10.52-27.577 0-38.097l35.39-35.39c-10.579-8.532-26.108-7.888-35.935 1.939l-33.451 33.451c-10.52 10.52-10.52 27.577 0 38.097l12.787 12.787c.152 3.92 1.707 7.796 4.699 10.789 2.993 2.993 6.869 4.547 10.788 4.699z" fill="#fe9901"/></g><g><path d="m139.074 325.507c11.293 0 22.243 4.767 30.041 13.077l.296.315h7.78c15.456 0 29.579 9.748 35.145 24.257l.246.642h28.995c3.584 0 6.5 2.916 6.5 6.5s-2.916 6.5-6.5 6.5h-11.134l-9.451 32.995.19.19h47.835l34.822-64.999c-1.522-.218-3.066-.244-4.589-.029l-3.076-3.075c.685-4.852-.82-9.954-4.551-13.685s-8.833-5.236-13.685-4.551l-2.314-2.315c.685-4.852-.82-9.953-4.551-13.685s-8.833-5.236-13.685-4.551l-5.359-5.359c.685-4.852-.82-9.953-4.551-13.685-3.516-3.516-8.251-5.066-12.845-4.661.406-4.594-1.145-9.329-4.661-12.845-3.732-3.732-8.833-5.237-13.685-4.551l-2.279-2.279c-10.52-10.52-27.577-10.52-38.097 0l-33.451 33.451c-8.773 8.773-10.223 22.089-4.364 32.372.324-.011.65-.029.978-.029z" fill="#fe9901"/></g><g><path d="m139.074 324.507c12.102 0 23.05 5.166 30.77 13.392h1.864l-1.431-1.431c-10.52-10.52-10.52-27.577 0-38.097l33.451-33.451c2.749-2.749 5.947-4.773 9.357-6.085-10.572-9.634-26.957-9.343-37.176.875l-33.451 33.451c-8.495 8.495-10.126 21.25-4.902 31.386.505-.018 1.009-.04 1.518-.04z" fill="#fb8801"/></g><path d="m329.404 409.982c3.348-4.325 6.429-9.037 9.152-14.119 18.351-34.255 14.232-72.739-8.558-89.433-2.52-1.846-6.098-1.012-7.573 1.741l-54.543 101.812h61.522z" fill="#fedf74"/><path d="m290.546 409.982 49.729-92.825c-2.836-4.154-6.26-7.785-10.277-10.728-2.52-1.845-6.098-1.012-7.573 1.741l-54.543 101.812z" fill="#fed402"/><path d="m406.043 409.982c20.218-20.528 28.119-47.26 18.86-67.79-1.284-2.847-4.809-3.884-7.448-2.214l-110.645 70.003h99.233z" fill="#fef0ae"/><g><g><path d="m213.644 363.798c-5.294-15.039-19.663-25.898-36.453-25.898h-7.347c-7.719-8.227-18.668-13.392-30.77-13.392-12.102 0-23.05 5.166-30.77 13.392h-7.347c-16.79 0-31.159 10.859-36.453 25.898z" fill="#fff"/></g><g><path d="m79.426 363.798c8.539-6.124 18.98-9.744 30.23-9.744h7.801c1.296 0 2.554-.489 3.473-1.404 10.32-10.278 24.519-16.662 40.146-16.662 2.501 0 4.959.182 7.377.499-7.617-7.4-17.985-11.98-29.377-11.98-12.102 0-23.05 5.166-30.77 13.392h-7.347c-16.79 0-31.159 10.859-36.453 25.898h14.92z" fill="#eaf6ff"/></g><g><g><path d="m221.978 409.982 9.506-33.184h-185.359l9.506 33.184z" fill="#fe646f"/><path d="m95.328 409.982-9.506-33.184h-39.697l9.506 33.184z" fill="#fd4755"/></g></g></g><g><path d="m496.087 408.982h-480.174c-3.519 0-6.002 3.45-4.884 6.786l19.802 59.145c149.32 8.717 299.021 8.755 448.346.115l1.994-.115 19.802-59.146c1.116-3.336-1.367-6.785-4.886-6.785z" fill="#c4e2ff"/></g><path d="m71.979 474.914-19.802-59.146c-1.117-3.336 1.366-6.786 4.884-6.786h-41.148c-3.519 0-6.001 3.45-4.884 6.786l19.802 59.146z" fill="#b3dafe"/><g><circle cx="195.734" cy="277.634" fill="#fdb441" r="7.5"/></g><g><circle cx="181.312" cy="304.419" fill="#fdb441" r="7.5"/></g><g><circle cx="90.656" cy="238.487" fill="#fb8801" r="7.5"/></g><g><circle cx="113.32" cy="258.06" fill="#fb8801" r="7.5"/></g><g><circle cx="83.445" cy="267.332" fill="#fb8801" r="7.5"/></g><g><circle cx="115.38" cy="285.875" fill="#fb8801" r="7.5"/></g><g><circle cx="217.368" cy="302.358" fill="#fdb441" r="7.5"/></g></g><g><path d="m241.578 377.798h-205.007c-4.142 0-7.5-3.357-7.5-7.5s3.358-7.5 7.5-7.5h205.006c4.142 0 7.5 3.357 7.5 7.5s-3.357 7.5-7.499 7.5z" fill="#fb2b3a"/></g></g><g><path d="m481.17 474.913h-450.34l11.239 33.571c.703 2.1 2.67 3.516 4.884 3.516h418.092c2.215 0 4.181-1.415 4.884-3.516z" fill="#fd4755"/></g><g><path d="m83.218 508.484-11.239-33.571h-41.149l11.239 33.571c.703 2.1 2.67 3.516 4.884 3.516h41.148c-2.213 0-4.18-1.415-4.883-3.516z" fill="#fb2b3a"/></g></svg>