<svg id="Capa_1" enable-background="new 0 0 512 512" height="512" viewBox="0 0 512 512" width="512" xmlns="http://www.w3.org/2000/svg"><g><g><path d="m36.294 170.835h43.958c11.827 0 22.047 8.427 24.301 20.037l7.067 36.411c2.753 14.183 15.238 24.477 29.686 24.477h179.638c14.448 0 26.933-10.294 29.685-24.477l7.068-36.411c2.254-11.61 12.474-20.037 24.301-20.037h43.958c.251 0 .498.026.746.041-12.937-96.473-95.563-170.876-195.577-170.876-100.016 0-182.641 74.403-195.578 170.876.249-.015.496-.041.747-.041z" fill="#fd4755"/><path d="m387.302 53.002h-35.792c-2.845 0-5.151 2.306-5.151 5.151v24.498h-46.094v-24.176c0-2.845-2.306-5.151-5.151-5.151h-40.943v-21.549c0-2.845-2.306-5.151-5.151-5.151h-35.792c-2.845 0-5.151 2.306-5.151 5.151v36.213h-40.943c-2.845 0-5.151 2.306-5.151 5.151v24.176h-46.093v-39.162c0-2.845-2.306-5.151-5.151-5.151h-35.792c-2.845 0-5.151 2.306-5.151 5.151v112.682h10.456c11.827 0 22.047 8.427 24.301 20.037l7.067 36.411c.751 3.867 2.229 7.442 4.27 10.601 5.442 8.427 14.908 13.876 25.416 13.876h20.678 46.094 46.094 46.094 20.678c10.509 0 19.974-5.449 25.416-13.876 2.04-3.159 3.518-6.734 4.269-10.601l7.068-36.411c2.254-11.61 12.474-20.037 24.301-20.037h10.456v-112.682c-.001-2.845-2.307-5.151-5.152-5.151z" fill="#fedf74"/><g fill="#fb2b3a"><path d="m35.547 170.876c.249-.015.496-.041.747-.041h33.502v-87.146c-17.868 25.318-29.936 55.023-34.249 87.187z"/><path d="m231.125 0c-52.007 0-99.306 20.125-134.555 53.002h14.169c2.845 0 5.151 2.306 5.151 5.151v24.376c31.661-44.177 81.1-74.747 137.867-81.229-7.428-.849-14.977-1.3-22.632-1.3z"/></g><g fill="#fac600"><path d="m80.251 170.835c4.143 0 8.079 1.053 11.555 2.896v-115.578c0-2.845 2.306-5.151 5.151-5.151h-22.01c-2.845 0-5.151 2.306-5.151 5.151v112.682z"/><path d="m138.164 251.59v-154.275h-22.274v140.569c4.893 7.577 13.041 12.741 22.274 13.706z"/><path d="m184.522 251.76v-178.621c0-2.845 2.306-5.151 5.151-5.151h-22.539c-2.845 0-5.151 2.306-5.151 5.151v178.621z"/><path d="m230.616 251.76v-219.985c0-2.845 2.306-5.151 5.151-5.151h-22.539c-2.845 0-5.151 2.306-5.151 5.151v219.985z"/><path d="m254.171 53.324h22.037v198.436h-22.037z"/><path d="m320.943 251.76c.544 0 1.085-.019 1.623-.048v-169.061h-22.301v169.109z"/><path d="m350.628 227.283 7.068-36.411c1.347-6.938 5.55-12.72 11.229-16.266v-116.453c0-2.845 2.306-5.151 5.151-5.151h-22.566c-2.845 0-5.151 2.306-5.151 5.151v179.731c2.04-3.159 3.519-6.734 4.269-10.601z"/></g><path d="m425.955 169.835h-43.958c-12.332 0-22.933 8.741-25.282 20.847l-7.068 36.411c-2.668 13.744-14.703 23.668-28.704 23.668h-179.637c-14 0-26.036-9.924-28.704-23.668l-7.068-36.41c-2.35-12.106-12.951-20.847-25.283-20.847h-43.957c-8.332 0-14.652 7.51-13.228 15.719l48.934 263.272 2.119-.527c103.819-25.802 212.396-25.621 316.128.527l48.934-263.272c1.425-8.21-4.894-15.72-13.226-15.72z" fill="#fe9901"/><path d="m72.001 448.826c10.227-8.353 22.112-15.875 35.346-22.38l-44.774-240.892c-1.424-8.209 4.896-15.719 13.228-15.719h-39.507c-8.332 0-14.651 7.51-13.228 15.719z" fill="#fb8801"/><g><path d="m231.124 399.72c-64.909 0-122.586 19.264-159.124 49.106l10.177 54.754c.907 4.88 5.165 8.419 10.128 8.419h276.478c5.635 0 10.469-4.018 11.499-9.559l9.965-53.615c-36.537-29.841-94.213-49.105-159.123-49.105z" fill="#fff3de"/></g><g><path d="m131.812 512c-4.963 0-9.221-3.539-10.128-8.419l-14.337-77.135c-13.234 6.505-25.119 14.028-35.346 22.381l10.177 54.754c.907 4.88 5.165 8.419 10.128 8.419z" fill="#fed2a4"/></g></g><g><path d="m340.839 319.13h-219.429c-4.142 0-7.5-3.358-7.5-7.5s3.358-7.5 7.5-7.5h219.429c4.143 0 7.5 3.358 7.5 7.5s-3.358 7.5-7.5 7.5z" fill="#fdb441"/></g><g><g><path d="m453.861 436.743c-4.486-14.559-16.436-25.925-31.331-29.583-5.371-1.319-9.154-6.069-9.552-11.585-.924-12.802-7.104-22.128-13.609-28.508-6.342-6.22-16.832-4.086-20.608 3.955-4.786 10.19-12.733 20.598-19.756 28.716-3.386 3.914-8.297 6.167-13.472 6.166-19.541 0-36.183 13.035-41.668 30.838h149.996z" fill="#fb2b3a"/></g><g><path d="m330.09 436.743c7.993-8.88 19.559-14.488 32.375-14.488 5.176 0 10.086-2.252 13.472-6.166 7.023-8.118 14.971-18.525 19.756-28.716 2.481-5.283 7.859-7.994 13.055-7.483-2.537-5.164-5.908-9.417-9.379-12.821-6.342-6.22-16.832-4.086-20.608 3.955-4.786 10.191-12.733 20.598-19.756 28.716-3.386 3.914-8.297 6.166-13.472 6.166-19.541 0-36.182 13.035-41.668 30.838h26.225z" fill="#e41f2d"/></g><g><path d="m286.182 449.743 17.835 62.257h141.925c4.597 0 8.638-3.046 9.904-7.465l15.696-54.792z" fill="#fedf74"/><path d="m286.183 449.743 17.834 62.257h42.573l-17.834-62.257z" fill="#fed402"/></g></g><g><path d="m481.635 450.743h-205.006c-4.143 0-7.5-3.358-7.5-7.5s3.357-7.5 7.5-7.5h205.006c4.143 0 7.5 3.358 7.5 7.5s-3.358 7.5-7.5 7.5z" fill="#fac600"/></g></g></svg>