<svg id="Capa_1" enable-background="new 0 0 512 512" height="512" viewBox="0 0 512 512" width="512" xmlns="http://www.w3.org/2000/svg"><g><path d="m104.309 316.79 1.669 1.397-.026-2.176-.007-.159c-.003-12.61 10.201-22.814 22.744-22.814 2.3 0 4.571.343 6.751 1.019l2.023.628-.802-1.961c-1.125-2.75-1.695-5.644-1.695-8.601 0-7.014 3.193-13.295 8.199-17.471-6.812-5.741-15.604-9.206-25.209-9.206-21.62 0-39.147 17.527-39.147 39.147 0 3.936.587 7.733 1.668 11.316 8.705.146 17.146 3.281 23.832 8.881z" fill="#fd4755"/><path d="m104.266 315.474c-3.091-5.598-4.853-12.033-4.853-18.881 0-18.053 12.225-33.244 28.845-37.767-3.284-.894-6.735-1.38-10.302-1.38-21.62 0-39.147 17.527-39.147 39.147 0 3.57.487 7.024 1.382 10.31 9.108.079 17.463 3.279 24.075 8.571z" fill="#fb2b3a"/><path d="m90.079 366.824c-2.485-3.657-3.928-8.059-3.928-12.779 0-12.543 10.205-22.748 22.748-22.748.203 0 .402.014.602.028l.415.025 2.164.096-1.331-1.709c-2.911-3.738-4.533-8.152-4.761-12.823-6.932-6.227-16.096-10.02-26.148-10.02-21.62 0-39.147 17.527-39.147 39.147 0 7.638 2.195 14.759 5.978 20.783z" fill="#fdb441"/><path d="m65.572 365.824c-1.838-4.534-2.866-9.483-2.866-14.678 0-20.768 16.174-37.749 36.612-39.056-5.738-3.299-12.385-5.196-19.479-5.196-21.62 0-39.147 17.527-39.147 39.147 0 7.219 1.963 13.977 5.371 19.784h19.509z" fill="#fe9901"/><g><path d="m336.985 256.879c1.107 2.623 1.739 5.492 1.775 8.498l.024 2.01 1.589-1.232c4.031-3.127 8.843-4.78 13.913-4.78 12.543 0 22.747 10.204 22.747 22.747 0 2.538-.445 5.022-1.275 7.415.867-1.031 1.88-1.9 3.046-2.573 1.77-1.021 3.794-1.54 6.017-1.54 3.206 0 6.8 1.094 10.395 3.166l1.309.754.183-1.5c1.804-14.803 9.556-25.547 18.432-25.547 6.392 0 12.302 5.505 15.812 14.727l.617 1.623 1.094-1.349c.915-1.128 1.874-2.195 2.852-3.173 4.616-4.616 10.075-7.923 15.717-9.648-.008-1.08-.147-2.152-.429-3.206-1.509-5.633-6.766-9.673-13.992-11.627 9.727-12.457 12.18-26.69 5.121-33.749-5.197-5.197-14.283-5.231-23.685-1.01.159-1.511.249-3.05.249-4.617 0-18.841-11.896-34.114-26.57-34.114s-26.57 15.273-26.57 34.114c0 1.544.088 3.06.242 4.55-9.4-4.218-18.483-4.182-23.678 1.013-7.069 7.069-4.599 21.332 5.163 33.802-4.112 1.106-7.583 2.885-10.098 5.246z" fill="#68ca44"/><path d="m395.715 289.724c.61-5.01 1.904-9.605 3.708-13.512v-54.758c0-4.142-3.357-7.5-7.5-7.5s-7.5 3.358-7.5 7.5v64.98c3.552-.094 7.437 1.069 11.292 3.29z" fill="#80d261"/></g><g><path d="m375.339 292.724-.803 1.962 2.024-.628c2.179-.676 4.45-1.019 6.751-1.019 12.543 0 22.747 10.204 22.747 22.747 0 5.089-1.662 9.913-4.808 13.952l-1.331 1.709 2.164-.096.415-.025c.199-.014.398-.028.602-.028 12.543 0 22.748 10.205 22.748 22.748 0 4.72-1.443 9.122-3.928 12.779h36.815c2.077-4.672 1.129-10.488-2.174-16.239 15.045-1.852 26.361-9.841 26.361-19.416 0-7.049-6.139-13.235-15.378-16.748 1.133-.917 2.237-1.9 3.3-2.962 12.778-12.778 15.069-31.204 5.117-41.156s-28.378-7.661-41.156 5.117c-1.047 1.047-2.016 2.135-2.921 3.25-3.514-9.236-9.698-15.372-16.746-15.372-9.589 0-17.586 11.348-19.423 26.426-6.238-3.594-12.558-4.427-17.411-1.625-.701.405-1.345.881-1.946 1.409-.266 1.087-.589 2.164-1.019 3.215z" fill="#017b4e"/><path d="m451.683 294.582c-2.809-2.809-7.363-2.81-10.174 0l-35.855 35.855c5.362.573 10.187 2.934 13.876 6.471l32.153-32.153c2.809-2.81 2.809-7.364 0-10.173z" fill="#026841"/></g><g><path d="m393.09 64.399c2.292 3.807 2.951 7.347 1.837 10.325-1.934 5.168-9.074 8.131-19.591 8.131-8.573 0-18.73-2.033-28.599-5.725-11.203-4.191-20.998-10.06-27.579-16.523-6.381-6.267-8.938-12.276-7.199-16.921 1.426-3.812 5.693-6.419 12.05-7.528-38.112-7.742-69.925-1.544-76.918 17.15-8.793 23.503 24.978 57.858 75.429 76.732s98.478 15.122 107.271-8.382c6.267-16.753-9.093-39.016-36.701-57.259z" fill="#fff3de"/><path d="m283.094 59.038c3.777-10.096 14.805-16.534 30.145-19.11 1.918-1.938 4.748-3.355 8.255-4.247-36.987-6.969-67.566-.654-74.404 17.626-8.793 23.503 24.978 57.858 75.429 76.732 19.508 7.298 38.641 11.198 55.296 11.897-6.339-1.686-12.794-3.735-19.292-6.166-50.45-18.874-84.221-53.228-75.429-76.732z" fill="#fef0ae"/><g><ellipse cx="353.443" cy="59.205" fill="#fdb441" rx="20.138" ry="45.292" transform="matrix(.35 -.937 .937 .35 174.147 369.495)"/></g><path d="m369.954 83.211c-23.428-8.765-39.261-24.315-35.364-34.732 2.432-6.501 11.973-9.465 24.496-8.647-22.899-8.19-44.245-6.705-48.063 3.503-3.897 10.417 11.936 25.967 35.364 34.732 8.808 3.295 17.436 5.161 24.981 5.655-.472-.169-.942-.335-1.414-.511z" fill="#fe9901"/></g><g><g><path d="m423.086 366.824c2.37-3.689 3.763-8.065 3.763-12.779 0-13.115-10.632-23.747-23.747-23.747-.358 0-.707.038-1.061.054 3.134-4.024 5.019-9.07 5.019-14.566 0-13.115-10.632-23.747-23.747-23.747-2.454 0-4.82.373-7.047 1.064 1.134-2.772 1.77-5.8 1.77-8.979 0-13.115-10.632-23.747-23.747-23.747-5.479 0-10.509 1.874-14.527 4.99-.156-12.981-10.714-23.46-23.733-23.46-7.036 0-13.338 3.078-17.686 7.939-3.598-8.54-12.044-14.536-21.893-14.536-8.719 0-16.319 4.713-20.449 11.717-4.13-7.004-11.73-11.717-20.449-11.717-9.849 0-18.295 5.996-21.893 14.536-4.349-4.862-10.65-7.939-17.686-7.939-13.018 0-23.577 10.479-23.733 23.46-4.018-3.116-9.048-4.99-14.527-4.99-13.115 0-23.747 10.632-23.747 23.747 0 3.18.636 6.208 1.77 8.979-2.227-.691-4.593-1.064-7.047-1.064-13.115 0-23.747 10.632-23.747 23.747 0 5.496 1.885 10.542 5.019 14.566-.354-.016-.703-.054-1.061-.054-13.115 0-23.747 10.632-23.747 23.747 0 4.714 1.392 9.09 3.763 12.779z" fill="#ea9b58"/></g><path d="m354.287 260.375c-5.479 0-10.509 1.874-14.527 4.99-.156-12.981-10.714-23.46-23.733-23.46-7.036 0-13.337 3.078-17.686 7.939-3.598-8.54-12.044-14.536-21.893-14.536-8.719 0-16.319 4.713-20.449 11.717-4.13-7.003-11.73-11.717-20.449-11.717-9.849 0-18.295 5.996-21.893 14.536-4.349-4.862-10.65-7.939-17.686-7.939-13.018 0-23.577 10.479-23.733 23.46-4.018-3.116-9.048-4.99-14.527-4.99-13.115 0-23.747 10.632-23.747 23.747 0 3.18.636 6.208 1.77 8.979-2.227-.691-4.593-1.064-7.047-1.064-13.115 0-23.747 10.632-23.747 23.747 0 5.496 1.885 10.542 5.019 14.566-.354-.016-.703-.054-1.061-.054-13.115 0-23.747 10.632-23.747 23.747 0 4.293 1.151 8.309 3.144 11.779h33.093c3.922-21.876 16.122-41.824 34.191-58.084-.189-.658-.296-1.351-.296-2.07 0-12.883 10.481-23.364 23.364-23.364 3.849 0 7.546.934 10.838 2.659 25.032-12.435 55.182-19.695 87.632-19.695 37.852 0 72.574 9.877 99.697 26.325.783-2.351 1.219-4.86 1.219-7.474.001-13.112-10.631-23.744-23.746-23.744z" fill="#d88a55"/><g><g><path d="m162.784 313.171c-4.143 0-7.5-3.358-7.5-7.5 0-12.883 10.481-23.364 23.364-23.364 7.239 0 13.951 3.274 18.414 8.982 2.552 3.263 1.975 7.977-1.288 10.528-3.265 2.551-7.977 1.975-10.528-1.289-1.601-2.047-4.006-3.221-6.598-3.221-4.612 0-8.364 3.752-8.364 8.364 0 4.142-3.357 7.5-7.5 7.5z" fill="#c57a44"/></g><g><path d="m268.036 300.967c-4.143 0-7.5-3.358-7.5-7.5 0-4.612-3.753-8.364-8.365-8.364-2.592 0-4.996 1.174-6.596 3.221-2.552 3.264-7.266 3.841-10.528 1.29-3.264-2.551-3.841-7.265-1.29-10.528 4.463-5.708 11.175-8.982 18.414-8.982 12.884 0 23.365 10.481 23.365 23.364 0 4.141-3.357 7.499-7.5 7.499z" fill="#c57a44"/></g><g><path d="m319.22 320.577c-.77 0-1.551-.119-2.321-.37-3.939-1.281-6.094-5.513-4.813-9.452 2.241-6.89 7.427-12.263 14.229-14.74 5.863-2.137 12.209-1.86 17.866.777s9.948 7.319 12.083 13.184c1.417 3.892-.59 8.196-4.482 9.613-3.896 1.419-8.195-.59-9.613-4.482-.764-2.099-2.3-3.775-4.325-4.719-2.023-.944-4.296-1.044-6.396-.279-2.435.887-4.293 2.813-5.096 5.284-1.033 3.17-3.972 5.184-7.132 5.184z" fill="#c57a44"/></g><g><path d="m211.704 344.943c-.77 0-1.551-.119-2.321-.37-3.939-1.281-6.094-5.513-4.813-9.452 2.241-6.891 7.428-12.263 14.229-14.74 5.863-2.134 12.208-1.859 17.866.778 5.657 2.637 9.948 7.319 12.083 13.184 1.417 3.892-.59 8.196-4.482 9.613-3.895 1.418-8.195-.589-9.613-4.482-.764-2.099-2.3-3.775-4.325-4.719-2.024-.944-4.295-1.043-6.396-.279-2.435.887-4.293 2.813-5.096 5.284-1.032 3.169-3.972 5.183-7.132 5.183z" fill="#c57a44"/></g></g></g><path d="m56.927 398.807c20.824 33.478 54.582 60.952 96.077 78.282 3.165 1.322 6.562 2.01 9.993 2.01h186.007c3.43 0 6.827-.688 9.993-2.01 41.495-17.33 75.253-44.804 96.077-78.282z" fill="#d8ecfe"/><path d="m118.939 398.807h-62.012c20.823 33.478 54.581 60.952 96.077 78.282 3.165 1.322 6.562 2.01 9.993 2.01h62.012c-3.431 0-6.827-.688-9.993-2.01-41.496-17.331-75.254-44.804-96.077-78.282z" fill="#c4e2ff"/><g><path d="m496.547 399.807h-481.094c-8.535 0-15.453-6.919-15.453-15.453v-3.077c0-8.534 6.918-15.453 15.453-15.453h481.095c8.534 0 15.453 6.918 15.453 15.453v3.077c-.001 8.534-6.919 15.453-15.454 15.453z" fill="#eaf6ff"/></g><g><path d="m43.783 384.354v-3.077c0-8.534 6.918-15.453 15.453-15.453h-43.783c-8.535 0-15.453 6.919-15.453 15.453v3.077c0 8.534 6.918 15.453 15.453 15.453h43.783c-8.535 0-15.453-6.919-15.453-15.453z" fill="#d8ecfe"/></g><g><path d="m105.377 199.972c10.575 10.575 26.905 11.887 38.909 3.936 2.718-1.8 3.106-5.643.801-7.948l-35.698-35.698c-2.305-2.305-6.147-1.917-7.948.801-7.951 12.004-6.639 28.334 3.936 38.909z" fill="#fe9901"/></g><g><path d="m204.262 129.022c2.513-.673 4.179-3.122 3.769-5.691-1.221-7.649-4.776-14.996-10.672-20.892s-13.243-9.45-20.892-10.672c-2.569-.41-5.018 1.256-5.691 3.769l-9.948 37.125c-1.026 3.83 2.478 7.335 6.309 6.309z" fill="#fb2b3a"/></g><g><path d="m99.132 50.208c-.673-2.513-3.122-4.179-5.691-3.769-7.649 1.221-14.996 4.776-20.892 10.672s-9.45 13.243-10.672 20.892c-.41 2.569 1.256 5.018 3.769 5.691l37.125 9.948c3.83 1.026 7.335-2.478 6.309-6.309z" fill="#68ca44"/></g></g></svg>