<svg id="Capa_1" enable-background="new 0 0 512 512" height="512" viewBox="0 0 512 512" width="512" xmlns="http://www.w3.org/2000/svg"><g><g><g><path d="m297.636 151.014c-.768 2.627-2.095 5.009-3.944 7.08l-1.044 1.17 1.501.453c7.365 2.225 12.608 8.891 13.046 16.586l.067 1.197 1.165-.282c2.226-.537 4.504-.81 6.773-.81 6.254 0 12.042 2.015 16.765 5.42 3.147-4.717 4.984-10.381 4.984-16.477 0-16.42-13.311-29.731-29.731-29.731-3.809 0-7.447.724-10.794 2.03 2.076 4.163 2.522 8.875 1.212 13.364z" fill="#fe646f"/></g><g><path d="m43.432 188.226c6.658-6.538 15.094-11.332 24.594-13.485l2.094-.475-1.71-1.298c-8.646-6.561-15.02-15.464-18.434-25.749-1.285-3.87-2.091-7.836-2.466-11.821-13.087-2.022-26.275.848-37.196 7.643-1.823 1.134-2.741 3.321-2.275 5.417 3.717 16.699 15.197 31.404 32.171 38.532 1.069.449 2.143.86 3.222 1.236z" fill="#80d261"/><path d="m43.444 188.23c4.945-4.837 10.841-8.706 17.38-11.262-2.534-.655-5.053-1.495-7.537-2.538-16.355-6.869-27.587-20.777-31.711-36.72-3.937 1.346-7.719 3.129-11.26 5.332-1.823 1.134-2.741 3.321-2.275 5.417 3.717 16.699 15.197 31.404 32.171 38.532 1.071.45 2.149.862 3.232 1.239z" fill="#68ca44"/><g><path d="m68.886 174.576c3.037-.637 6.166-1.016 9.367-1.083l.805-.017.156-.79c2.554-12.969 10.742-23.675 21.694-29.775-.396-3.924-1.22-7.865-2.514-11.764-5.8-17.473-19.577-30.05-35.941-35.042-2.054-.626-4.304.121-5.576 1.851-10.13 13.787-13.65 32.106-7.85 49.579 3.758 11.317 10.874 20.562 19.859 27.041z" fill="#80d261"/><g><path d="m73.501 162.516c-3.25-4.45-5.877-9.469-7.706-14.981-5.502-16.572-2.606-33.899 6.349-47.405-3.093-1.64-6.333-3-9.69-4.024-2.054-.626-4.304.121-5.576 1.851-10.13 13.787-13.65 32.106-7.85 49.579 3.757 11.317 10.873 20.562 19.858 27.041 2.69-.564 5.455-.912 8.276-1.033z" fill="#68ca44"/></g><path d="m77.162 173.544c.364-.015.725-.043 1.091-.051l.805-.017.156-.79c1.275-6.474 3.956-12.382 7.68-17.438l-5.917-17.823c-1.306-3.931-5.549-6.057-9.481-4.755-3.931 1.305-6.06 5.55-4.755 9.481z" fill="#4fc123"/></g></g><path d="m214.749 144.893c9.415 6.366 16.214 16.283 18.482 27.767l.16.806h4.168c7.413 0 14.587 1.569 21.321 4.664l.375.173.388-.143c3.164-1.162 6.494-1.751 9.898-1.751 8.539 0 16.581 3.765 22.062 10.329l.768.92.768-.92c3.957-4.738 9.25-8.008 15.099-9.466-.029-8.323-5.443-15.987-13.8-18.511 1.865-2.089 3.321-4.599 4.158-7.466 3.006-10.296-2.904-21.079-13.2-24.085-5.575-1.628-11.284-.624-15.833 2.258-2.284-4.877-6.555-8.794-12.131-10.422-10.296-3.006-21.079 2.904-24.085 13.2-.837 2.867-.96 5.766-.513 8.531-6.567-1.853-13.301-.082-18.085 4.116z" fill="#3e5690"/><g><path d="m238.254 152.149c2.642.057 4.844-1.941 5.087-4.572.121-1.306.366-2.62.748-3.928 3.176-10.879 14.327-17.261 25.229-14.641-2.682-5.354-7.771-9.48-14.382-10.52-8.304-1.307-16.65 3.045-20.357 10.589-1.899 3.865-2.359 7.909-1.745 11.698-6.567-1.851-13.301-.08-18.084 4.118 4.352 2.943 8.135 6.651 11.179 10.915 3.579-2.429 7.877-3.755 12.325-3.659z" fill="#2e3e70"/></g><g><path d="m79.333 173.465h155.073c-3.038-17.493-16.343-31.578-33.425-35.772-5.505-1.352-9.384-6.221-9.792-11.875-.947-13.123-7.283-22.683-13.951-29.223-6.501-6.376-17.254-4.188-21.125 4.054-4.906 10.446-13.052 21.115-20.252 29.436-3.471 4.012-8.505 6.321-13.81 6.321-21.988 0-40.385 16.101-44.016 37.092.432-.011.863-.033 1.298-.033z" fill="#eaf6ff"/><path d="m79.333 172.465h28.097c8.091-11.603 21.524-19.238 36.661-19.238 5.305 0 10.339-2.309 13.81-6.321 7.199-8.322 15.346-18.99 20.252-29.437 1.824-3.884 5.181-6.402 8.896-7.335-2.621-5.474-6.163-9.963-9.811-13.541-6.501-6.376-17.254-4.188-21.125 4.054-4.906 10.446-13.052 21.115-20.252 29.436-3.471 4.012-8.505 6.321-13.81 6.321-21.636 0-39.801 15.589-43.836 36.088.373-.006.743-.027 1.118-.027z" fill="#d8ecfe"/><path d="m240.887 207.096c-.052-.745-.075-1.366-.075-1.957 0-12.719 8.311-23.527 19.785-27.297-6.964-3.435-14.782-5.376-23.037-5.376h-158.227c-22.997 0-42.648 15.003-49.685 35.699h211.312z" fill="#fff"/><g><path d="m69.227 208.164c7.037-20.696 26.687-35.699 49.685-35.699h-39.579c-22.997 0-42.648 15.003-49.685 35.699z" fill="#eaf6ff"/></g></g><path d="m299.12 208.164c.101-.995.152-2.004.152-3.026 0-16.42-13.311-29.73-29.731-29.73s-29.73 13.311-29.73 29.73c0 1.021.052 2.031.152 3.026z" fill="#fe646f"/><path d="m279.136 176.999c-3.011-1.026-6.236-1.591-9.594-1.591-16.42 0-29.73 13.311-29.73 29.73 0 1.021.052 2.031.152 3.026h19.188c-.101-.995-.152-2.004-.152-3.026 0-13.061 8.426-24.147 20.136-28.139z" fill="#fd4755"/><path d="m344.778 208.164c.101-.995.152-2.004.152-3.026 0-16.42-13.311-29.73-29.73-29.73s-29.731 13.311-29.731 29.73c0 1.021.052 2.031.152 3.026z" fill="#3e5690"/><path d="m324.735 176.979c-2.994-1.014-6.198-1.571-9.535-1.571-16.42 0-29.731 13.311-29.731 29.73 0 1.021.052 2.031.152 3.026h19.07c-.101-.995-.152-2.004-.152-3.026 0-13.083 8.455-24.184 20.196-28.159z" fill="#2e3e70"/><path d="m165.165 417.068v48.357l2.111-1.277c6.33-3.831 13.586-5.855 20.984-5.855s14.655 2.024 20.984 5.855l2.111 1.277v-48.357z" fill="#eaf6ff"/><path d="m187.145 458.331v-41.263h-21.98v48.357l2.111-1.277c6.011-3.638 12.859-5.624 19.869-5.817z" fill="#d8ecfe"/><path d="m188.261 382.775c-16.788 0-33.104-2.383-48.597-6.841v26.681c0 8.534 6.918 15.453 15.453 15.453h66.29c8.534 0 15.453-6.918 15.453-15.453v-26.681c-15.496 4.459-31.811 6.841-48.599 6.841z" fill="#80d261"/><path d="m168.077 402.615v-21.001c-9.713-1.117-19.208-3.031-28.413-5.68v26.681c0 8.534 6.918 15.453 15.453 15.453h28.413c-8.535 0-15.453-6.919-15.453-15.453z" fill="#68ca44"/><g><path d="m14.677 239.84c15.328 81.927 87.209 143.935 173.583 143.935s158.256-62.009 173.583-143.935z" fill="#eaf6ff"/></g><g><path d="m65.315 239.84c10.856 81.926 61.768 143.935 122.946 143.935s112.09-62.009 122.946-143.935z" fill="#d8ecfe"/></g><g><path d="m114.475 239.84c6.516 81.926 37.07 143.935 73.786 143.935s67.27-62.009 73.786-143.935z" fill="#eaf6ff"/></g><g><path d="m162.742 239.84c2.253 81.926 12.821 143.935 25.519 143.935s23.266-62.009 25.519-143.935z" fill="#d8ecfe"/></g><g><path d="m361.652 240.84c1.781-9.224 2.856-18.7 3.141-28.375.086-2.902-2.254-5.301-5.157-5.301h-342.751c-2.903 0-5.243 2.399-5.157 5.301.286 9.675 1.36 19.151 3.141 28.375z" fill="#80d261"/></g><g><path d="m50.254 207.164h-33.369c-2.903 0-5.243 2.399-5.157 5.301.286 9.675 1.36 19.151 3.141 28.375h33.369c-1.781-9.224-2.856-18.7-3.141-28.375-.086-2.902 2.254-5.301 5.157-5.301z" fill="#68ca44"/></g><g><path d="m166.759 463.292-64.695 39.15c-4.461 2.699-2.547 9.558 2.667 9.558h167.06c5.214 0 7.128-6.858 2.667-9.558l-64.695-39.15c-13.219-7.999-29.785-7.999-43.004 0z" fill="#d8ecfe"/></g><g><path d="m147.233 502.442 63.612-38.494-1.083-.655c-13.219-7.999-29.785-7.999-43.004 0l-64.695 39.15c-4.461 2.699-2.547 9.558 2.667 9.558h45.17c-5.214-.001-7.127-6.859-2.667-9.559z" fill="#c4e2ff"/></g></g><g><path d="m290.087 31.272c-6.506-18.129-25.727-31.272-48.441-31.272-22.713 0-41.932 13.144-48.44 31.272z" fill="#eaf6ff"/><path d="m222.019 31.272c5.072-14.132 17.868-25.233 34.028-29.44-4.567-1.188-9.398-1.832-14.401-1.832-22.713 0-41.932 13.144-48.44 31.272z" fill="#d8ecfe"/><g><path d="m189.757 30.273c-4.171 0-7.425 3.645-6.924 7.786 3.842 31.71 30.85 56.278 63.596 56.278 19.835 0 37.56-9.016 49.31-23.172 4.133-4.979 10.211-7.932 16.683-7.932h175.177c9.102 0 16.48-7.378 16.48-16.48 0-9.102-7.378-16.48-16.48-16.48z" fill="#acc7e4"/></g><g><path d="m215.874 38.059c-.502-4.141 2.753-7.786 6.924-7.786h-33.04c-4.171 0-7.425 3.645-6.924 7.786 3.842 31.71 30.85 56.278 63.596 56.278 5.71 0 11.236-.769 16.504-2.172-24.933-6.644-43.889-27.936-47.06-54.106z" fill="#8fb0c5"/></g></g></g></svg>