<svg id="Capa_1" enable-background="new 0 0 512 512" height="512" viewBox="0 0 512 512" width="512" xmlns="http://www.w3.org/2000/svg"><g><g><path d="m165.982 42.731c-3.116-2.856-7.256-4.614-11.817-4.614-9.672 0-17.513 7.841-17.513 17.513s7.841 17.513 17.513 17.513c4.561 0 8.701-1.758 11.817-4.614z" fill="#fed2a4"/><g><path d="m457.038 42.237h-203.43v26.785h203.43c7.396 0 13.392-5.996 13.392-13.392.001-7.397-5.995-13.393-13.392-13.393z" fill="#fed2a4"/></g><path d="m239.67 8.901c-8.25 0-14.938 6.688-14.938 14.938v-8.901c0-8.25-6.688-14.938-14.938-14.938s-14.938 6.688-14.938 14.938v8.901c0-8.25-6.688-14.938-14.938-14.938s-14.938 6.688-14.938 14.938v68.161l89.626-32.765v-35.397c.002-8.249-6.686-14.937-14.936-14.937z" fill="#d88a55"/><path d="m209.795 0c-8.25 0-14.938 6.688-14.938 14.938v66.141l29.875-10.922v-55.219c.001-8.25-6.687-14.938-14.937-14.938z" fill="#c57a44"/></g><path d="m175.188 169.913c10.263 3.16 19.669-4.427 19.669-14.211v-18.688c0-8.25 6.688-14.938 14.938-14.938 8.25 0 14.938 6.688 14.938 14.938v62.811h29.875v-140.59l-13.292.458c-10.84.374-21.273 4.234-29.746 11.012-10.799 8.638-24.837 12.134-38.536 10.244l-8.052-1.111v75.81c0 6.449 4.044 12.367 10.206 14.265z" fill="#fac600"/><path d="m339.292 253.395v-49.419c0-2.845-2.306-5.151-5.151-5.151h-261.666c-2.845 0-5.151 2.306-5.151 5.151v49.419z" fill="#c4e2ff"/><path d="m104.1 253.395v-49.419c0-2.845 2.306-5.151 5.151-5.151h-36.776c-2.845 0-5.151 2.306-5.151 5.151v49.419z" fill="#b3dafe"/><g><path d="m334.141 512h-261.666c-17.069 0-30.905-13.837-30.905-30.905v-208.097c0-11.379 9.225-20.604 20.604-20.604h282.27c11.379 0 20.604 9.225 20.604 20.604v208.097c-.002 17.068-13.839 30.905-30.907 30.905z" fill="#d8ecfe"/></g><g><path d="m72.475 486.245c-2.845 0-5.151-2.306-5.151-5.151v-197.794c0-2.845 2.306-5.151 5.151-5.151h261.666c2.845 0 5.151 2.306 5.151 5.151v197.795c0 2.845-2.306 5.151-5.151 5.151h-261.666z" fill="#fed402"/></g><g fill="#fac600"><path d="m98.949 481.094v-68.427h-31.625v68.427c0 2.845 2.306 5.151 5.151 5.151h31.625c-2.845.001-5.151-2.306-5.151-5.151z"/><path d="m98.949 352.917v-69.617c0-2.845 2.306-5.151 5.151-5.151h-31.625c-2.845 0-5.151 2.306-5.151 5.151v69.617z"/></g><g fill="#883f2e"><path d="m127.356 387.443c-1.656-2.869-1.656-6.434 0-9.303l14.563-25.224h-100.35v59.75h100.35z"/><path d="m264.696 352.917 14.563 25.224c1.657 2.869 1.657 6.434 0 9.303l-14.563 25.224h100.35v-59.75h-100.35z"/></g><g><path d="m347.018 233.625h-287.421c-4.143 0-7.5-3.357-7.5-7.5s3.357-7.5 7.5-7.5h287.421c4.143 0 7.5 3.357 7.5 7.5s-3.357 7.5-7.5 7.5z" fill="#d8ecfe"/></g><g><path d="m237.256 313.69h-67.896c-3.68 0-7.081 1.964-8.922 5.151l-33.948 58.8c-1.84 3.187-1.84 7.114 0 10.302l33.948 58.8c1.84 3.187 5.241 5.151 8.922 5.151h67.896c3.68 0 7.081-1.964 8.922-5.151l33.948-58.8c1.84-3.187 1.84-7.114 0-10.302l-33.948-58.8c-1.841-3.187-5.241-5.151-8.922-5.151z" fill="#fff"/></g><g><path d="m179.768 418.413-19.079-33.045c-.92-1.594-.92-3.557 0-5.151l19.079-33.045c.92-1.594 2.621-2.575 4.461-2.575h38.158c1.84 0 3.541.982 4.461 2.575l19.079 33.045c.92 1.594.92 3.557 0 5.151l-19.079 33.045c-.92 1.594-2.621 2.575-4.461 2.575h-38.158c-1.84 0-3.541-.982-4.461-2.575z" fill="#fe9901"/></g><g><path d="m202.163 418.412-19.079-33.045c-.92-1.594-.92-3.557 0-5.151l19.079-33.045c.92-1.594 2.621-2.575 4.461-2.575h-22.395c-1.84 0-3.541.982-4.461 2.575l-19.079 33.045c-.92 1.594-.92 3.557 0 5.151l19.079 33.045c.92 1.594 2.62 2.575 4.461 2.575h22.395c-1.84.001-3.541-.981-4.461-2.575z" fill="#fb8801"/></g></g></svg>