<svg id="Capa_1" enable-background="new 0 0 512 512" height="512" viewBox="0 0 512 512" width="512" xmlns="http://www.w3.org/2000/svg"><g><g><g><g><path d="m226.561 185.631c-4.143 0-7.5-3.358-7.5-7.5v-16.942c0-15.479 12.593-28.073 28.072-28.073h65.349c7.208 0 13.072-5.864 13.072-13.072s-5.864-13.073-13.072-13.073h-116.175c-17.481 0-31.703-14.222-31.703-31.703s14.222-31.703 31.703-31.703h53.247c4.143 0 7.5 3.358 7.5 7.5s-3.357 7.5-7.5 7.5h-53.247c-9.21 0-16.703 7.493-16.703 16.703s7.493 16.703 16.703 16.703h116.175c15.479 0 28.072 12.593 28.072 28.073 0 15.479-12.593 28.072-28.072 28.072h-65.349c-7.208 0-13.072 5.864-13.072 13.073v16.942c0 4.142-3.358 7.5-7.5 7.5z" fill="#fe9901"/></g><g><path d="m158.792 185.631c-4.143 0-7.5-3.358-7.5-7.5v-16.942c0-7.208-5.864-13.073-13.072-13.073h-53.247c-15.479 0-28.072-12.593-28.072-28.072s12.593-28.073 28.072-28.073h43.565c4.143 0 7.5 3.358 7.5 7.5s-3.357 7.5-7.5 7.5h-43.565c-7.208 0-13.072 5.864-13.072 13.073 0 7.208 5.864 13.072 13.072 13.072h53.247c15.479 0 28.072 12.593 28.072 28.073v16.942c0 4.142-3.357 7.5-7.5 7.5z" fill="#fdb441"/></g><g><path d="m347.575 58.565h-56.877c-4.143 0-7.5-3.358-7.5-7.5s3.357-7.5 7.5-7.5h56.877c7.208 0 13.072-5.864 13.072-13.073 0-8.542-6.95-15.493-15.492-15.493h-25.413c-4.143 0-7.5-3.358-7.5-7.5s3.357-7.5 7.5-7.5h25.413c16.813 0 30.492 13.679 30.492 30.493 0 15.48-12.592 28.073-28.072 28.073z" fill="#fdb441"/></g><g><path d="m378.729 185.631c-4.143 0-7.5-3.358-7.5-7.5v-10.972c0-15.026 12.225-27.25 27.25-27.25h15.183c7.208 0 13.072-5.864 13.072-13.072 0-8.542-6.95-15.493-15.493-15.493h-25.413c-4.143 0-7.5-3.358-7.5-7.5s3.357-7.5 7.5-7.5h25.413c16.814 0 30.493 13.679 30.493 30.493 0 15.479-12.593 28.072-28.072 28.072h-15.183c-6.755 0-12.25 5.496-12.25 12.25v10.972c0 4.142-3.357 7.5-7.5 7.5z" fill="#fdb441"/></g></g><g><path d="m111.737 232.109c1.156 1.283 2.106 2.696 2.882 4.189.928-1.431 2.034-2.776 3.36-3.97 3.668-3.305 8.405-5.126 13.338-5.126 4.336 0 8.522 1.431 11.944 3.99-.08-.924-.12-1.855-.071-2.797.212-4.076 1.64-7.896 4.073-11.066-.85-2.959-2.345-5.78-4.545-8.221-7.74-8.588-20.976-9.276-29.564-1.536-5.943 5.356-8.096 13.343-6.298 20.602 1.808 1.036 3.46 2.359 4.881 3.935z" fill="#c57a44"/><path d="m149.302 245.16c1.053-.849 2.143-1.69 3.302-2.515 8.3-5.908 18.956-10.953 31.335-14.904-.355-4.425-2.092-8.774-5.293-12.326-7.74-8.588-20.976-9.276-29.564-1.536s-9.276 20.976-1.536 29.564c.556.617 1.147 1.181 1.756 1.717z" fill="#6d3326"/><g><path d="m350.601 246.453.703.605 17.82-17.821-20.091-20.091c-4.793-4.793-12.565-4.793-17.358 0l-18.275 18.275c15.267 4.761 28.134 11.228 37.201 19.032z" fill="#017b4e"/></g><g><path d="m357.36 253.396h55.809l-26.13-26.13c-4.793-4.793-12.565-4.793-17.358 0l-19.113 19.113c2.616 2.248 4.891 4.592 6.792 7.017z" fill="#80d261"/></g><path d="m83.504 252.133c5.642 0 11.04 2.401 14.813 6.589.66.733 1.257 1.504 1.792 2.305.905-1.366 1.983-2.636 3.239-3.768 2.534-2.284 5.583-3.838 8.85-4.594-1.68-5.847-.644-12.28 3.047-17.314-.76-1.376-1.669-2.694-2.766-3.912-7.74-8.588-20.976-9.276-29.564-1.536-6.661 6.003-8.546 15.305-5.456 23.188 1.939-.618 3.972-.958 6.045-.958z" fill="#6d3326"/><path d="m102.241 281.385c3.714-7.47 2.744-16.759-3.18-23.333-7.74-8.588-20.976-9.276-29.564-1.536-7.141 6.436-8.799 16.665-4.712 24.869z" fill="#883f2e"/><path d="m134.422 267.832c1.273-8.739 7.237-17.179 17.438-24.637-.693-3.631-2.332-7.128-4.987-10.074-7.74-8.588-20.976-9.276-29.564-1.536s-9.276 20.976-1.536 29.564c4.88 5.415 11.943 7.681 18.649 6.683z" fill="#883f2e"/><path d="m135.424 281.385c.155-.312.29-.631.428-.949l-.141-.39c-1.032-2.863-1.556-5.778-1.556-8.663 0-2.795.495-5.568 1.438-8.301-.849-1.786-1.957-3.485-3.349-5.03-7.74-8.588-20.976-9.276-29.564-1.536-7.141 6.436-8.799 16.665-4.712 24.869z" fill="#c57a44"/><path d="m323.746 281.385v-16.714c0-6.217 5.058-11.274 11.274-11.274h23.555c-10.483-13.836-32.704-25.091-61.103-31.16.924 1.449 1.428 2.954 1.428 4.497 0 10.497-22.777 19.364-49.737 19.364-26.961 0-49.738-8.868-49.738-19.364 0-1.542.504-3.048 1.428-4.497-39.949 8.537-67.699 27.331-67.699 49.146 0 3.418.689 6.76 1.991 10.002z" fill="#fff"/><path d="m202.501 234.738c-2.62-2.457-4.075-5.162-4.075-8.004 0-1.442.379-2.848 1.089-4.205-39.229 8.668-66.359 27.284-66.359 48.855 0 3.418.689 6.76 1.991 10.002h38.588c-1.302-3.242-1.987-6.584-1.987-10.002-.001-14.144 11.665-27.015 30.753-36.646z" fill="#eaf6ff"/><path d="m440.577 281.385v-16.714c0-6.779-5.495-12.274-12.274-12.274h-93.283c-6.779 0-12.274 5.495-12.274 12.274v16.714z" fill="#fe9901"/><path d="m355.463 281.385v-16.714c0-6.779 5.495-12.274 12.274-12.274h-32.717c-6.779 0-12.274 5.495-12.274 12.274v16.714z" fill="#fb8801"/><g><ellipse cx="249.164" cy="226.733" fill="#fedf74" rx="50.738" ry="20.364"/></g><g><path d="m276.708 241.603c-28.022 0-50.738-9.117-50.738-20.364 0-5.747 5.94-10.933 15.478-14.636-24.36 1.492-43.022 9.936-43.022 20.13 0 11.247 22.716 20.364 50.738 20.364 13.704 0 26.13-2.184 35.26-5.728-2.516.154-5.093.234-7.716.234z" fill="#fac600"/></g><g fill="#3e5690"><path d="m453.544 307.735v-21.317c0-3.332-2.701-6.032-6.032-6.032h-396.389c-3.332 0-6.032 2.701-6.032 6.032v21.317z"/><g><path d="m426.115 357.163c.387 5.359 4.053 9.797 9.122 11.042 5.887 1.445 11.261 4.357 15.711 8.304 1.7-8.728 2.597-17.733 2.597-26.939v-13.673h-36.221c5.262 6.227 8.22 13.361 8.791 21.266z"/><path d="m137.978 482.396h194.874l-1.87-1.733c-10.798-10.012-16.991-24.169-16.991-38.843v-40.912c0-2.566 2.088-4.654 4.654-4.654h13.148l.187-.762c4.099-16.696 18.937-28.357 36.083-28.357 4.818 0 9.393-2.094 12.551-5.744 8.028-9.28 13.898-17.816 17.446-25.37.02-.043.048-.081.069-.124h-353.038v13.673c0 60.762 38.822 112.897 92.887 132.826z"/></g></g><g fill="#2e3e70"><path d="m135.36 481.397h55.637c-52.695-20.628-90.269-72.05-90.269-131.826v-13.673h-55.637v13.673c0 59.775 37.574 111.197 90.269 131.826z"/><path d="m100.727 307.735v-21.317c0-3.332 2.701-6.032 6.032-6.032h-55.636c-3.332 0-6.032 2.701-6.032 6.032v21.317z"/></g><path d="m468.844 306.735h-439.054c-5.692 0-10.306 4.614-10.306 10.306v9.549c0 5.692 4.614 10.306 10.306 10.306h367.831c.142-.29.303-.589.438-.876 1.726-3.675 5.431-6.05 9.44-6.05 2.621 0 5.105 1.021 6.996 2.876 1.331 1.305 2.549 2.656 3.655 4.05h50.693c5.692 0 10.307-4.614 10.307-10.306v-9.549c.001-5.692-4.613-10.306-10.306-10.306z" fill="#acc7e4"/><g><path d="m66.601 326.59v-9.549c0-5.692 4.614-10.306 10.306-10.306h-47.117c-5.692 0-10.306 4.614-10.306 10.306v9.549c0 5.692 4.614 10.306 10.306 10.306h47.117c-5.692.001-10.306-4.613-10.306-10.306z" fill="#8fb0c5"/></g></g><g><path d="m463.722 396.254c-3.083-14.226-14.16-25.561-28.247-29.02-4.702-1.155-8.015-5.313-8.363-10.143-.809-11.208-6.22-19.373-11.915-24.959-5.553-5.446-14.736-3.577-18.043 3.463-4.19 8.922-11.148 18.034-17.297 25.141-2.965 3.427-7.264 5.399-11.795 5.399-18.231 0-33.575 12.959-37.293 30.119z" fill="#fb2b3a"/><path d="m352.776 395.254c6.997-8.989 17.905-14.804 30.111-14.804 4.531 0 8.83-1.972 11.795-5.399 6.149-7.107 13.107-16.219 17.297-25.141 2.172-4.625 6.88-6.999 11.43-6.552-2.221-4.521-5.172-8.244-8.211-11.225-5.553-5.446-14.737-3.577-18.043 3.463-4.19 8.922-11.148 18.034-17.297 25.141-2.965 3.427-7.264 5.399-11.795 5.399-17.875 0-32.973 12.459-37.061 29.119h21.774z" fill="#e41f2d"/></g><g><path d="m331.384 482.396h131.719c11.27-9.896 18.393-24.4 18.393-40.576v-40.912c0-3.123-2.532-5.655-5.655-5.655h-157.196c-3.123 0-5.655 2.532-5.655 5.655v40.912c.001 16.177 7.124 30.681 18.394 40.576z" fill="#eaf6ff"/><path d="m330.271 481.397h42.941c-10.624-9.86-17.28-23.938-17.28-39.576v-40.912c0-3.123 2.532-5.655 5.655-5.655h-42.941c-3.123 0-5.655 2.532-5.655 5.655v40.912c0 15.637 6.655 29.715 17.28 39.576z" fill="#d8ecfe"/></g></g><g><path d="m492.017 512h-472.034c-2.846 0-5.153-2.307-5.153-5.153v-20.297c0-2.846 2.307-5.153 5.153-5.153h472.035c2.846 0 5.153 2.307 5.153 5.153v20.297c0 2.846-2.308 5.153-5.154 5.153z" fill="#d88a55"/></g><g><path d="m61.103 506.847v-20.297c0-2.846 2.307-5.153 5.153-5.153h-46.273c-2.846 0-5.153 2.307-5.153 5.153v20.297c0 2.846 2.307 5.153 5.153 5.153h46.273c-2.846 0-5.153-2.307-5.153-5.153z" fill="#c57a44"/></g></g></svg>