<svg id="Capa_1" enable-background="new 0 0 512 512" height="512" viewBox="0 0 512 512" width="512" xmlns="http://www.w3.org/2000/svg"><g><path d="m158.228 176.356 12.669-10.061-22.999-77.899c-1.173-3.973-5.346-6.246-9.316-5.069-3.973 1.173-6.242 5.344-5.069 9.316z" fill="#ea9b58"/><g><path d="m308.422 172.19c1.003 3.802-.339 7.839-3.418 10.284l-31.296 24.853h48.027c3.356 0 6.456 1.678 8.292 4.487 1.836 2.81 2.128 6.323.779 9.397l-12.82 29.237h81.436l-95.566-95.566z" fill="#e41f2d"/></g><g><path d="m252.801 169.119c1.003 3.802-.338 7.839-3.418 10.284l-35.163 27.924h61.097l30.309-24.07c3.391-2.693 4.867-7.136 3.763-11.322l-10.934-41.453c-2.007-7.609-11.166-10.653-17.328-5.759l-33.103 26.288z" fill="#fe9901"/></g><path d="m100.259 250.449h35.114l16.311-37.193c1.579-3.602 5.14-5.928 9.072-5.928h55.073l34.177-27.141c3.391-2.693 4.867-7.136 3.763-11.322l-10.934-41.453c-2.007-7.609-11.166-10.653-17.328-5.759l-126.065 100.11c-3.391 2.693-4.867 7.136-3.763 11.322z" fill="#fb2b3a"/><path d="m99.995 249.449h23.214l-3.598-13.642c-1.104-4.186.372-8.63 3.763-11.322l119.942-95.25-.481-1.824c-2.007-7.609-11.166-10.653-17.328-5.759l-126.065 100.111c-3.391 2.693-4.867 7.136-3.763 11.322z" fill="#e41f2d"/><path d="m105.292 305.461 35.852 197.58c.941 5.188 5.459 8.959 10.731 8.959h195.731c5.272 0 9.79-3.771 10.731-8.959l35.852-197.58z" fill="#d8ecfe"/><g fill="#c4e2ff"><path d="m177.585 424.208h-50.747l2.162 11.911c.435-.078.881-.126 1.338-.126h49.386z"/><path d="m182.446 450.993h-50.747l2.161 11.911c.435-.078.881-.126 1.338-.126h49.386z"/><path d="m125.478 409.208h49.386l-18.644-102.747h-50.747l18.667 102.873c.435-.079.88-.126 1.338-.126z"/><path d="m191.89 503.041-4.584-25.263h-50.747l4.584 25.263c.941 5.188 5.459 8.959 10.731 8.959h50.747c-5.272 0-9.79-3.771-10.731-8.959z"/></g><path d="m319.078 250.449 12.645-28.835c3.16-7.207-2.119-15.286-9.988-15.286h-160.98c-4.33 0-8.249 2.561-9.988 6.526l-16.486 37.595z" fill="#fb8801"/><g><path d="m216.194 175.935h-10.302c-4.142 0-7.5-3.358-7.5-7.5s3.358-7.5 7.5-7.5h10.302c4.142 0 7.5 3.358 7.5 7.5s-3.358 7.5-7.5 7.5z" fill="#fed2a4"/></g><g><path d="m184.258 224.426c-1.919 0-3.838-.732-5.303-2.196l-7.285-7.284c-2.929-2.929-2.929-7.678 0-10.607 2.93-2.929 7.677-2.929 10.607 0l7.285 7.284c2.929 2.929 2.929 7.678 0 10.607-1.465 1.464-3.384 2.196-5.304 2.196z" fill="#fed2a4"/></g><g><path d="m219.284 72.917h-10.302c-4.142 0-7.5-3.358-7.5-7.5s3.358-7.5 7.5-7.5h10.302c4.142 0 7.5 3.358 7.5 7.5s-3.357 7.5-7.5 7.5z" fill="#fed2a4"/></g><g><path d="m388.234 192.417h-10.302c-4.143 0-7.5-3.358-7.5-7.5s3.357-7.5 7.5-7.5h10.302c4.143 0 7.5 3.358 7.5 7.5s-3.358 7.5-7.5 7.5z" fill="#fed2a4"/></g><g><path d="m148.633 40.977c-2.896 0-5.653-1.687-6.882-4.511-1.652-3.798.088-8.217 3.887-9.869l9.447-4.108c3.799-1.651 8.217.089 9.869 3.887s-.088 8.217-3.887 9.869l-9.447 4.108c-.974.423-1.989.624-2.987.624z" fill="#fed2a4"/></g><g><path d="m282 178.091c-2.362 0-4.687-1.112-6.146-3.193l-5.917-8.433c-2.379-3.391-1.559-8.068 1.832-10.447 3.393-2.379 8.068-1.559 10.447 1.832l5.917 8.433c2.379 3.391 1.559 8.068-1.832 10.447-1.31.92-2.813 1.361-4.301 1.361z" fill="#fed2a4"/></g><g><path d="m116.309 159.416c-2.362 0-4.686-1.112-6.146-3.193-2.379-3.391-1.559-8.068 1.832-10.447l8.433-5.917c3.391-2.379 8.067-1.559 10.447 1.832 2.379 3.391 1.559 8.068-1.832 10.447l-8.433 5.917c-1.31.92-2.813 1.361-4.301 1.361z" fill="#fed2a4"/></g><path d="m269.439 250.449 5.701-5.702c2.929-2.929 2.929-7.678-.001-10.607-2.928-2.929-7.677-2.928-10.606 0l-7.284 7.285c-2.446 2.446-2.841 6.159-1.201 9.023h13.391z" fill="#fed2a4"/><path d="m429.205 16.4c-2.048-3.601-6.627-4.859-10.228-2.811l-66.505 37.834 11 11 62.923-35.796c3.6-2.047 4.859-6.627 2.81-10.227z" fill="#d88a55"/><g><path d="m364.127 148.036-113.83-113.83c-5.564-5.564-3.584-15.01 3.746-17.871l39.937-15.588c4.033-1.574 8.616-.614 11.677 2.448l113.83 113.83c5.564 5.564 3.584 15.01-3.746 17.871l-39.937 15.588c-4.033 1.574-8.616.614-11.677-2.448z" fill="#fed2a4"/></g><g><path d="m305.658 3.195c-3.062-3.062-7.644-4.022-11.677-2.448l-39.937 15.588c-7.33 2.861-9.311 12.307-3.746 17.871l113.83 113.83c3.061 3.062 7.644 4.022 11.677 2.448l6.373-2.487-2.261-28.266c-.519-6.482-4.827-12.041-10.974-14.161l-13.758-4.744c-4.877-1.682-8.676-5.566-10.248-10.48l-4.187-13.084c-1.307-4.085-4.166-7.493-7.962-9.491l-4.717-2.483c-6.059-3.189-9.491-9.815-8.601-16.604l3.673-28.006z" fill="#fb2b3a"/></g><path d="m380.627 148.036-113.83-113.83c-5.564-5.564-3.584-15.01 3.746-17.871l34.686-13.539c-3.05-2.74-7.398-3.552-11.249-2.05l-39.937 15.588c-7.33 2.861-9.31 12.307-3.746 17.871l113.83 113.83c3.062 3.062 7.644 4.022 11.677 2.448l5.251-2.05c-.144-.129-.29-.258-.428-.397z" fill="#e41f2d"/><g><path d="m405.725 306.461h-313.007c-6.023 0-10.906-4.883-10.906-10.906v-35.2c0-6.023 4.883-10.906 10.906-10.906h313.007c6.023 0 10.906 4.883 10.906 10.906v35.2c0 6.023-4.883 10.906-10.906 10.906z" fill="#eaf6ff"/></g><g><path d="m126.567 295.555v-35.2c0-6.023 4.883-10.906 10.906-10.906h-44.755c-6.023 0-10.906 4.883-10.906 10.906v35.2c0 6.023 4.883 10.906 10.906 10.906h44.755c-6.023 0-10.906-4.883-10.906-10.906z" fill="#d8ecfe"/></g><g><path d="m374.001 424.208h-248.523c-4.142 0-7.5-3.358-7.5-7.5s3.358-7.5 7.5-7.5h248.523c4.143 0 7.5 3.358 7.5 7.5s-3.357 7.5-7.5 7.5z" fill="#b3dafe"/></g><g><path d="m369.141 450.993h-238.803c-4.142 0-7.5-3.358-7.5-7.5s3.358-7.5 7.5-7.5h238.803c4.143 0 7.5 3.358 7.5 7.5s-3.358 7.5-7.5 7.5z" fill="#b3dafe"/></g><g><path d="m364.281 477.778h-229.082c-4.142 0-7.5-3.358-7.5-7.5s3.358-7.5 7.5-7.5h229.082c4.143 0 7.5 3.358 7.5 7.5s-3.358 7.5-7.5 7.5z" fill="#b3dafe"/></g></g></svg>