<svg id="Capa_1" enable-background="new 0 0 512 512" height="512" viewBox="0 0 512 512" width="512" xmlns="http://www.w3.org/2000/svg"><g><path d="m459.012 310.744c-.442-7.107-3.921-13.437-9.121-17.732-4.48.684-7.711 1.854-11.43 3.203-6.957 2.524-14.842 5.386-29.824 5.386-14.981 0-22.866-2.861-29.823-5.386-5.922-2.147-10.6-3.844-21.063-3.844-10.462 0-15.138 1.696-21.058 3.844-6.957 2.524-14.841 5.386-29.821 5.386-14.981 0-22.865-2.861-29.82-5.386-5.921-2.147-10.598-3.844-21.06-3.844s-15.138 1.696-21.058 3.844c-6.957 2.524-14.841 5.386-29.82 5.386-14.98 0-22.864-2.861-29.819-5.386-5.921-2.147-10.597-3.844-21.058-3.844-10.462 0-15.139 1.696-21.06 3.844-6.957 2.524-14.841 5.386-29.821 5.386-14.979 0-22.864-2.861-29.82-5.386-3.719-1.349-6.948-2.519-11.426-3.203-5.2 4.295-8.679 10.625-9.121 17.731-.375 6.037 1.389 11.646 4.602 16.152.083.003.165.002.247.006 11.596.585 18.43 3.065 24.459 5.254 5.919 2.147 10.594 3.845 21.058 3.845s15.14-1.697 21.06-3.845c6.957-2.524 14.841-5.386 29.821-5.386s22.864 2.861 29.819 5.386c5.919 2.147 10.595 3.845 21.058 3.845 10.464 0 15.139-1.697 21.058-3.845 6.956-2.524 14.84-5.386 29.82-5.386 14.981 0 22.865 2.861 29.821 5.386 5.92 2.147 10.596 3.845 21.059 3.845 10.464 0 15.14-1.697 21.059-3.845 6.956-2.524 14.84-5.386 29.82-5.386 14.981 0 22.866 2.861 29.823 5.386 5.921 2.147 10.598 3.845 21.063 3.845s15.142-1.697 21.063-3.845c6.03-2.188 12.866-4.669 24.462-5.254.083-.004.165-.003.248-.006 3.213-4.505 4.978-10.114 4.603-16.151z" fill="#fd4755"/><path d="m86.868 310.744c.225-3.623 1.241-7.044 2.87-10.098-6.87-1.052-11.734-2.809-16.203-4.43-3.719-1.349-6.948-2.519-11.426-3.203-5.2 4.295-8.679 10.625-9.121 17.731-.375 6.037 1.389 11.646 4.602 16.152.083.003.165.002.247.006 11.596.585 18.43 3.065 24.459 5.254 5.919 2.147 10.594 3.845 21.058 3.845.058 0 .111-.002.169-.002-10.204-3.622-17.376-13.652-16.655-25.255z" fill="#fb2b3a"/><path d="m408.637 241.512c-14.981 0-22.866-2.861-29.823-5.386-5.921-2.147-10.598-3.845-21.063-3.845-10.464 0-15.139 1.697-21.058 3.845-6.957 2.524-14.842 5.386-29.821 5.386-14.981 0-22.865-2.861-29.82-5.386-5.92-2.147-10.596-3.845-21.06-3.845s-15.139 1.697-21.058 3.845c-6.957 2.524-14.841 5.386-29.82 5.386-14.98 0-22.864-2.861-29.819-5.386-5.919-2.147-10.595-3.845-21.058-3.845-10.464 0-15.14 1.697-21.06 3.845-6.956 2.524-14.84 5.386-29.821 5.386-14.979 0-22.864-2.861-29.82-5.386-3.718-1.349-6.947-2.519-11.426-3.204-5.2 4.295-8.679 10.625-9.121 17.732-.375 6.035 1.388 11.643 4.599 16.148 11.75.565 18.592 3.044 24.71 5.265 5.921 2.147 10.597 3.844 21.058 3.844s15.138-1.696 21.058-3.844c6.958-2.524 14.842-5.386 29.823-5.386 14.98 0 22.864 2.861 29.819 5.386 5.921 2.147 10.597 3.844 21.058 3.844 10.462 0 15.138-1.696 21.058-3.844 6.956-2.524 14.84-5.386 29.82-5.386 14.981 0 22.865 2.861 29.821 5.386 5.921 2.147 10.598 3.844 21.059 3.844 10.462 0 15.138-1.696 21.059-3.844 6.957-2.524 14.841-5.386 29.821-5.386 14.981 0 22.866 2.861 29.823 5.386 5.922 2.147 10.6 3.844 21.063 3.844s15.141-1.696 21.062-3.844c6.12-2.22 12.962-4.699 24.714-5.265 3.21-4.505 4.974-10.113 4.599-16.148-.442-7.107-3.921-13.437-9.121-17.732-4.481.685-7.711 1.855-11.431 3.204-6.958 2.525-14.843 5.386-29.824 5.386z" fill="#fd4755"/><path d="m103.355 275.911c.058 0 .111-.002.169-.002-10.205-3.622-17.376-13.652-16.655-25.255.225-3.623 1.24-7.044 2.869-10.097-6.87-1.052-11.734-2.809-16.203-4.43-3.718-1.349-6.947-2.52-11.426-3.204-5.2 4.295-8.679 10.625-9.121 17.732-.375 6.035 1.388 11.643 4.599 16.148 11.75.565 18.592 3.044 24.71 5.265 5.921 2.147 10.597 3.843 21.058 3.843z" fill="#fb2b3a"/><g><path d="m145.608 144.218c2.601-.228 5.446-.363 8.628-.363 14.98 0 22.864 2.861 29.819 5.386 5.921 2.147 10.597 3.844 21.058 3.844 5.766 0 9.772-.517 13.2-1.339 10.848-6.456 19.766-16.269 24.993-28.612.93-2.195-.199-4.722-2.455-5.494l-107.659-36.826c-2.256-.771-4.696.535-5.306 2.84-5.923 22.398 1.464 45.582 17.722 60.564z" fill="#fd4755"/><path d="m145.608 144.218c2.601-.228 5.446-.363 8.628-.363 9.774 0 16.518 1.22 21.963 2.768-17.013-13.88-25.596-36.254-21.489-58.449l-21.518-7.36c-2.256-.772-4.696.535-5.306 2.84-5.923 22.398 1.464 45.582 17.722 60.564z" fill="#fb2b3a"/><g><g><path d="m175.655 142.54c-.805 0-1.624-.131-2.428-.405-3.919-1.341-6.01-5.604-4.669-9.523l2.701-7.897c1.34-3.919 5.602-6.01 9.523-4.67 3.919 1.341 6.01 5.604 4.669 9.523l-2.701 7.897c-1.065 3.115-3.977 5.075-7.095 5.075z" fill="#fe646f"/></g><g><path d="m203.673 140.13c-2.772 0-5.437-1.544-6.74-4.2l-3.674-7.495c-1.823-3.72-.286-8.213 3.433-10.036s8.212-.286 10.036 3.433l3.674 7.495c1.823 3.72.286 8.213-3.433 10.036-1.062.52-2.187.767-3.296.767z" fill="#fe646f"/></g><g><path d="m154.146 124.436c-2.772 0-5.437-1.543-6.739-4.2-1.824-3.719-.287-8.212 3.432-10.036l7.495-3.675c3.718-1.822 8.212-.287 10.036 3.433 1.824 3.719.287 8.212-3.432 10.036l-7.495 3.675c-1.063.52-2.189.767-3.297.767z" fill="#fe646f"/></g></g></g><g><g><path d="m335.457 118.702c-2.813-4.274-6.238-8.244-10.295-11.761-14.954-12.964-34.725-16.773-52.484-11.928-1.289.352-2.228 1.435-2.393 2.76-2.277 18.267 4.299 37.297 19.253 50.261 1.642 1.423 3.344 2.729 5.093 3.932 3.219.694 7.005 1.119 12.241 1.119 10.462 0 15.138-1.696 21.059-3.844.761-.276 1.541-.556 2.333-.836-.941-10.045.76-20.322 5.193-29.703z" fill="#68ca44"/><path d="m330.279 137.438-27.148-23.535c-3.129-2.714-7.867-2.375-10.58.754-2.713 3.13-2.375 7.867.754 10.58l29.659 25.711c1.663-.513 3.264-1.091 4.966-1.708.762-.277 1.539-.557 2.332-.837-.34-3.642-.342-7.314.017-10.965z" fill="#4fc123"/></g><g><path d="m357.751 143.855c8.959 0 15.37 1.026 20.573 2.388 1.691-1.533 3.319-3.169 4.852-4.937 12.964-14.954 16.773-34.725 11.928-52.484-.352-1.289-1.435-2.228-2.76-2.393-18.267-2.277-37.297 4.299-50.261 19.253-10.78 12.435-15.223 28.2-13.631 43.37 6.832-2.476 14.69-5.197 29.299-5.197z" fill="#80d261"/><g><path d="m354.871 143.894 13.103-15.115c2.713-3.13 2.375-7.867-.754-10.58-3.13-2.714-7.866-2.375-10.58.754l-25.165 29.028c5.715-1.96 12.577-3.807 23.396-4.087z" fill="#4fc123"/></g></g></g><path d="m52.988 190.565c-.375 6.034 1.388 11.642 4.598 16.147 11.751.565 18.592 3.044 24.71 5.265 5.924 2.148 10.6 3.845 21.058 3.845s15.134-1.696 21.053-3.843c6.963-2.526 14.847-5.388 29.828-5.388 14.98 0 22.864 2.861 29.819 5.386 5.924 2.148 10.6 3.845 21.058 3.845 10.459 0 15.135-1.696 21.054-3.844 6.96-2.525 14.844-5.387 29.824-5.387 14.981 0 22.865 2.861 29.821 5.386 5.925 2.148 10.601 3.845 21.059 3.845 10.459 0 15.135-1.696 21.055-3.844 6.96-2.525 14.845-5.387 29.825-5.387 14.981 0 22.866 2.861 29.823 5.386 5.926 2.148 10.602 3.845 21.063 3.845s15.137-1.696 21.058-3.844c6.124-2.221 12.967-4.7 24.719-5.266 3.21-4.505 4.973-10.113 4.598-16.147-.52-8.372-5.253-15.67-12.052-19.827-3.068.686-5.641 1.615-8.499 2.651-6.957 2.524-14.842 5.386-29.824 5.386-14.981 0-22.866-2.861-29.823-5.386-5.922-2.147-10.6-3.844-21.063-3.844-10.462 0-15.138 1.696-21.058 3.844-6.957 2.524-14.841 5.386-29.821 5.386-14.981 0-22.865-2.861-29.82-5.386-5.921-2.147-10.598-3.844-21.06-3.844s-15.138 1.696-21.058 3.844c-6.957 2.524-14.841 5.386-29.82 5.386-14.98 0-22.864-2.861-29.819-5.386-5.921-2.147-10.597-3.844-21.058-3.844-10.462 0-15.139 1.696-21.06 3.844-6.957 2.524-14.841 5.386-29.821 5.386-14.979 0-22.864-2.861-29.82-5.386-2.857-1.036-5.429-1.965-8.495-2.651-6.8 4.158-11.531 11.455-12.052 19.827z" fill="#fd4755"/><path d="m52.988 190.565c-.375 6.034 1.388 11.642 4.598 16.148 11.751.565 18.592 3.044 24.71 5.265 5.924 2.148 10.6 3.845 21.058 3.845 1.877 0 3.562-.057 5.107-.159-9.97-3.751-16.922-13.664-16.211-25.098.274-4.409 1.717-8.52 4.014-12.031-10.549-.734-16.965-3.052-22.73-5.145-2.857-1.036-5.429-1.965-8.495-2.651-6.799 4.157-11.53 11.454-12.051 19.826z" fill="#fb2b3a"/><g><g><path d="m408.637 179.775c-15.155 0-23.129-2.893-30.164-5.445-5.829-2.115-10.434-3.785-20.721-3.785-10.286 0-14.889 1.67-20.717 3.785-7.035 2.553-15.008 5.445-30.162 5.445s-23.127-2.893-30.162-5.445c-5.829-2.115-10.432-3.785-20.719-3.785-10.286 0-14.889 1.67-20.717 3.785-7.035 2.553-15.008 5.445-30.161 5.445s-23.127-2.893-30.161-5.445c-5.828-2.115-10.431-3.785-20.716-3.785-10.286 0-14.89 1.67-20.719 3.785-7.035 2.553-15.008 5.445-30.162 5.445-15.153 0-23.127-2.893-30.161-5.445-5.828-2.115-10.431-3.785-20.717-3.785-7.646 0-13.845-6.199-13.845-13.845s6.199-13.845 13.845-13.845c15.153 0 23.127 2.893 30.161 5.445 5.828 2.115 10.431 3.785 20.717 3.785s14.89-1.67 20.719-3.785c7.035-2.553 15.008-5.445 30.162-5.445 15.153 0 23.127 2.893 30.161 5.445 5.828 2.115 10.431 3.785 20.716 3.785 10.286 0 14.889-1.67 20.717-3.785 7.035-2.553 15.008-5.445 30.162-5.445s23.127 2.893 30.162 5.445c5.829 2.115 10.432 3.785 20.718 3.785s14.889-1.67 20.718-3.785c7.035-2.553 15.008-5.445 30.162-5.445 15.155 0 23.129 2.893 30.164 5.445 5.83 2.115 10.434 3.785 20.722 3.785s14.892-1.67 20.722-3.785c7.035-2.553 15.009-5.445 30.164-5.445 7.646 0 13.845 6.199 13.845 13.845s-6.199 13.845-13.845 13.845c-10.288 0-14.892 1.67-20.722 3.785-7.037 2.553-15.011 5.445-30.166 5.445z" fill="#fedf74"/></g></g><g><g><path d="m408.637 242.512c-15.155 0-23.129-2.893-30.164-5.445-5.829-2.115-10.434-3.785-20.721-3.785-10.286 0-14.889 1.67-20.717 3.785-7.035 2.553-15.008 5.445-30.162 5.445s-23.127-2.893-30.162-5.445c-5.829-2.115-10.432-3.785-20.719-3.785-10.286 0-14.889 1.67-20.717 3.785-7.035 2.553-15.008 5.445-30.161 5.445s-23.127-2.893-30.161-5.445c-5.828-2.115-10.431-3.785-20.716-3.785-10.286 0-14.89 1.67-20.719 3.785-7.035 2.553-15.008 5.445-30.162 5.445-15.153 0-23.127-2.893-30.161-5.445-5.828-2.115-10.431-3.785-20.717-3.785-7.646 0-13.845-6.199-13.845-13.845s6.199-13.845 13.845-13.845c15.153 0 23.127 2.893 30.161 5.445 5.828 2.115 10.431 3.785 20.717 3.785s14.89-1.67 20.719-3.785c7.035-2.553 15.008-5.445 30.162-5.445 15.153 0 23.127 2.893 30.161 5.445 5.828 2.115 10.431 3.785 20.716 3.785 10.286 0 14.889-1.67 20.717-3.785 7.035-2.553 15.008-5.445 30.162-5.445s23.127 2.893 30.162 5.445c5.829 2.115 10.432 3.785 20.718 3.785s14.889-1.67 20.718-3.785c7.035-2.553 15.008-5.445 30.162-5.445 15.155 0 23.129 2.893 30.164 5.445 5.83 2.115 10.434 3.785 20.722 3.785s14.892-1.67 20.722-3.785c7.035-2.553 15.009-5.445 30.164-5.445 7.646 0 13.845 6.199 13.845 13.845s-6.199 13.845-13.845 13.845c-10.288 0-14.892 1.67-20.722 3.785-7.037 2.553-15.011 5.445-30.166 5.445z" fill="#fedf74"/></g></g><g><g><path d="m408.637 302.602c-15.155 0-23.129-2.893-30.164-5.445-5.829-2.115-10.434-3.785-20.721-3.785-10.286 0-14.889 1.67-20.717 3.785-7.035 2.553-15.008 5.445-30.162 5.445s-23.127-2.893-30.162-5.445c-5.829-2.115-10.432-3.785-20.719-3.785-10.286 0-14.889 1.67-20.717 3.785-7.035 2.553-15.008 5.445-30.161 5.445s-23.127-2.893-30.161-5.445c-5.828-2.115-10.431-3.785-20.716-3.785-10.286 0-14.89 1.67-20.719 3.785-7.035 2.553-15.008 5.445-30.162 5.445-15.153 0-23.127-2.893-30.161-5.445-5.828-2.115-10.431-3.785-20.717-3.785-7.646 0-13.845-6.199-13.845-13.845s6.199-13.845 13.845-13.845c15.153 0 23.127 2.893 30.161 5.445 5.828 2.115 10.431 3.785 20.717 3.785s14.89-1.67 20.719-3.785c7.035-2.553 15.008-5.445 30.162-5.445 15.153 0 23.127 2.893 30.161 5.445 5.828 2.115 10.431 3.785 20.716 3.785 10.286 0 14.889-1.67 20.717-3.785 7.035-2.553 15.008-5.445 30.162-5.445s23.127 2.893 30.162 5.445c5.829 2.115 10.432 3.785 20.718 3.785s14.889-1.67 20.718-3.785c7.035-2.553 15.008-5.445 30.162-5.445 15.155 0 23.129 2.893 30.164 5.445 5.83 2.115 10.434 3.785 20.722 3.785s14.892-1.67 20.722-3.785c7.035-2.553 15.009-5.445 30.164-5.445 7.646 0 13.845 6.199 13.845 13.845s-6.199 13.845-13.845 13.845c-10.288 0-14.892 1.67-20.722 3.785-7.037 2.552-15.011 5.445-30.166 5.445z" fill="#fedf74"/></g></g><path d="m473.368 360.731v-16.385c0-10.507-8.763-18.974-19.257-18.444-11.743.593-18.606 3.083-24.753 5.313-5.83 2.115-10.434 3.785-20.722 3.785s-14.892-1.67-20.722-3.785c-7.035-2.552-15.009-5.445-30.164-5.445-15.154 0-23.127 2.893-30.162 5.445-5.828 2.115-10.432 3.785-20.718 3.785s-14.889-1.67-20.718-3.785c-7.035-2.552-15.008-5.445-30.162-5.445s-23.127 2.893-30.162 5.445c-5.828 2.115-10.431 3.785-20.717 3.785-10.285 0-14.888-1.67-20.716-3.785-7.034-2.552-15.007-5.445-30.161-5.445s-23.127 2.893-30.162 5.445c-5.829 2.115-10.432 3.785-20.719 3.785-10.286 0-14.889-1.67-20.717-3.785-6.146-2.23-13.008-4.72-24.75-5.313-10.494-.53-19.257 7.937-19.257 18.444v16.385z" fill="#fedf74"/><g><path d="m53.643 392.14 15.825 33.379c1.705 3.596 5.329 5.888 9.309 5.888h354.447c3.98 0 7.604-2.292 9.309-5.888l15.825-33.379z" fill="#d8ecfe"/><path d="m115.826 425.519-15.825-33.379h-46.358l15.825 33.379c1.705 3.596 5.329 5.889 9.309 5.889h46.358c-3.98 0-7.604-2.292-9.309-5.889z" fill="#c4e2ff"/><g><path d="m495.295 393.14h-478.59c-9.226 0-16.705-7.479-16.705-16.704 0-9.226 7.479-16.705 16.705-16.705h478.591c9.226 0 16.705 7.479 16.705 16.705-.001 9.225-7.48 16.704-16.706 16.704z" fill="#eaf6ff"/></g><g><path d="m43.783 376.436c0-9.226 7.479-16.705 16.705-16.705h-43.783c-9.226 0-16.705 7.479-16.705 16.705s7.479 16.705 16.705 16.705h43.783c-9.226-.001-16.705-7.48-16.705-16.705z" fill="#d8ecfe"/></g></g></g></svg>