<svg id="Capa_1" enable-background="new 0 0 512 512" height="512" viewBox="0 0 512 512" width="512" xmlns="http://www.w3.org/2000/svg"><g><path d="m462 338h-412c7.71 59.187 40.346 110.522 87.014 143.19h237.972c46.668-32.668 79.304-84.003 87.014-143.19z" fill="#d8ecfe"/><path d="m100.094 338.649h-50c7.784 58.317 39.776 108.952 85.523 141.541h50c-45.748-32.589-77.739-83.223-85.523-141.541z" fill="#c4e2ff"/><g><g><path d="m339.182 183.456 1.09 1.343.64-1.607c3.669-9.208 9.438-17.269 16.764-23.641-.977-5.491-2.703-10.941-5.241-16.212-9.408-19.537-27.638-31.958-47.606-34.801-1.449-.206-2.864.475-3.606 1.737-7.037 11.961-10.015 26.106-8.124 40.131 17.812 6.566 33.743 17.849 46.083 33.05z" fill="#80d261"/></g><g><path d="m311.833 158.313c-4.312-15.951-2.005-32.633 5.69-46.562-4.103-1.498-8.352-2.595-12.692-3.213-1.449-.206-2.864.475-3.606 1.737-6.85 11.643-9.847 25.355-8.258 39.012 6.614 2.407 12.927 5.436 18.866 9.026z" fill="#68ca44"/></g></g><g><g><path d="m342.648 187.953c3.782 5.197 9.956 8.3 16.514 8.3h17.481c7.935 0 15.334 2.319 21.574 6.3 18.686-9.602 30.575-27.387 33.346-46.847.206-1.449-.475-2.864-1.737-3.606-17.384-10.227-39.381-11.882-58.918-2.474-15.072 7.258-25.904 19.768-31.375 34.274 1.065 1.326 2.109 2.672 3.115 4.053z" fill="#68ca44"/></g><path d="m359.161 195.238h2.984l24.456-11.777c3.732-1.797 5.301-6.279 3.503-10.011-1.798-3.733-6.28-5.299-10.011-3.503l-36.491 17.573c3.701 4.849 9.443 7.718 15.559 7.718z" fill="#80d261"/></g><g fill="#fedf74"><path d="m96.426 222.927v-.001z"/><path d="m421.781 240.914c-2.223-.259-3.893-2.15-3.893-4.388v-.042c0-4.829-.848-9.468-2.391-13.784-105.372-11.102-211.62-11.099-316.992.009l-2.079.219c-1.492 4.251-2.313 8.811-2.313 13.556v.042c.006 2.236-1.661 4.129-3.882 4.387-20.465 2.378-36.487 19.883-36.487 40.959 0 4.314.675 8.476 1.917 12.392h400.678c1.243-3.916 1.917-8.078 1.917-12.392.001-21.073-16.016-38.575-36.475-40.958z"/></g><g><path d="m376.642 195.238h-17.481c-6.254 0-12.122-2.994-15.811-8.043-19.665-26.917-51.462-44.407-87.351-44.407s-67.686 17.49-87.351 44.407c-3.689 5.049-9.557 8.043-15.811 8.043h-17.481c-17.94 0-33.291 11.613-38.932 27.69 2.366.834 4.922 1.295 7.606 1.295h74.324c6.031 0 11.941 2.225 16.164 6.53 8.906 9.079 23.486 9.132 32.458.159l2.117-2.117c13.457-13.457 35.276-13.457 48.733 0 8.104 8.104 21.298 8.195 29.37.059 3.908-3.939 9.226-6.154 14.773-6.154h93.524c-5.701-15.96-20.995-27.462-38.851-27.462z" fill="#d88a55"/></g><g><path d="m104.032 224.222c-2.685 0-5.24-.461-7.606-1.295-1.492 4.252-2.313 8.811-2.313 13.556v.042c.002 2.213-1.591 4.126-3.789 4.376-20.509 2.336-36.58 19.862-36.58 40.969 0 3.943.562 7.76 1.608 11.377h21.114c2.884-18.13 17.687-32.419 36.061-34.511 2.199-.25 3.792-2.164 3.789-4.377 0-.014 0-.028 0-.042 0-11.843 5.066-22.555 13.13-30.096h-25.414z" fill="#fed402"/></g><g><path d="m278.204 160.622c20.481 0 39.626 5.703 55.947 15.597-19.683-20.595-47.413-33.432-78.151-33.432-35.96 0-67.813 17.56-87.468 44.569-3.638 4.999-9.51 7.882-15.693 7.882h-17.481c-17.94 0-33.291 11.613-38.932 27.69 2.366.834 4.922 1.295 7.606 1.295h25.413c7.381-6.903 17.274-11.149 28.116-11.149h17.481c6.183 0 12.055-2.883 15.693-7.882 19.656-27.01 51.508-44.57 87.469-44.57z" fill="#c57a44"/></g><g><path d="m475.376 338.649h-438.752c-12.116 0-21.938-9.822-21.938-21.938v-1.526c0-12.116 9.822-21.938 21.938-21.938h438.751c12.116 0 21.938 9.822 21.938 21.938v1.526c0 12.117-9.822 21.938-21.937 21.938z" fill="#eaf6ff"/></g><g><path d="m77.901 316.712v-1.526c0-12.116 9.822-21.937 21.938-21.937h-63.215c-12.116 0-21.937 9.822-21.937 21.937v1.526c0 12.116 9.822 21.938 21.937 21.938h63.214c-12.115-.001-21.937-9.822-21.937-21.938z" fill="#d8ecfe"/></g><g><path d="m181.536 131.299c-4.143 0-7.5-3.358-7.5-7.5v-9.263c0-16.621 13.521-30.142 30.142-30.142h10.292c7.215 0 13.084-5.87 13.084-13.084s-5.869-13.084-13.084-13.084h-39.11c-15.485 0-28.084-12.599-28.084-28.084v-2.058c0-15.485 12.599-28.084 28.084-28.084h39.109c4.143 0 7.5 3.358 7.5 7.5s-3.357 7.5-7.5 7.5h-39.109c-7.215 0-13.084 5.87-13.084 13.084v2.058c0 7.214 5.869 13.084 13.084 13.084h39.109c15.485 0 28.084 12.599 28.084 28.084s-12.599 28.084-28.084 28.084h-10.292c-8.349 0-15.142 6.792-15.142 15.142v9.263c.001 4.142-3.356 7.5-7.499 7.5z" fill="#fdb441"/></g><g><path d="m77.209 168.057c-4.143 0-7.5-3.358-7.5-7.5v-24.767c0-15.417 12.543-27.96 27.96-27.96h13.999c7.146 0 12.96-5.814 12.96-12.96s-5.813-12.96-12.96-12.96h-16.152c-4.143 0-7.5-3.358-7.5-7.5s3.357-7.5 7.5-7.5h16.152c15.417 0 27.96 12.543 27.96 27.96s-12.543 27.96-27.96 27.96h-13.999c-7.146 0-12.96 5.814-12.96 12.96v24.768c0 4.141-3.357 7.499-7.5 7.499z" fill="#fdb441"/></g><g><path d="m496.625 512h-481.25c-2.803 0-5.075-2.272-5.075-5.075v-21.659c0-2.803 2.272-5.075 5.075-5.075h481.25c2.803 0 5.075 2.272 5.075 5.075v21.659c.001 2.803-2.272 5.075-5.075 5.075z" fill="#fed2a4"/></g><g><path d="m57.96 506.925v-21.659c0-2.803 2.272-5.075 5.075-5.075h-47.66c-2.803 0-5.075 2.272-5.075 5.075v21.659c0 2.803 2.272 5.075 5.075 5.075h47.661c-2.804 0-5.076-2.272-5.076-5.075z" fill="#ffbd86"/></g></g></svg>