<svg id="Capa_1" enable-background="new 0 0 512 512" height="512" viewBox="0 0 512 512" width="512" xmlns="http://www.w3.org/2000/svg"><g><g><path d="m501.431 100.543c-1.914-52.575-68.953-94.819-151.379-94.819s-149.465 42.243-151.379 94.819z" fill="#883f2e"/><path d="m379.254 7.536c-9.45-1.184-19.211-1.812-29.202-1.812-81.902 0-148.606 41.709-151.329 93.819h58.402c2.392-45.753 54.109-83.482 122.129-92.007z" fill="#6d3326"/><g><path d="m506.834 99.543h-313.564c-3.298 0-5.751 3.05-5.043 6.271l8.817 40.133c27.938 1.132 54.445 10.451 76.984 27.13 23.616 17.475 40.85 41.417 49.839 69.24.708 2.189 2.666 3.815 4.989 4.143 26.786 3.78 47.219 24.295 51.71 49.99h81.127c4.85 0 9.046-3.375 10.087-8.111l40.098-182.523c.707-3.223-1.745-6.273-5.044-6.273z" fill="#80d261"/><path d="m255.304 99.543 8.502 66.659c3.485 2.135 6.901 4.417 10.222 6.875 23.616 17.475 40.85 41.417 49.839 69.24.708 2.189 2.666 3.815 4.989 4.143 26.786 3.78 47.219 24.295 51.71 49.99h39.121l25.114-196.906h-189.497z" fill="#68ca44"/><path d="m323.866 242.316c.708 2.189 2.666 3.815 4.989 4.143 20.409 2.88 37.134 15.474 45.93 32.672l7.885-179.588h-65.237l6.245 142.23c.061.182.129.361.188.543z" fill="#80d261"/></g><g><path d="m293.086 58.494h-20.604c-4.142 0-7.5-3.358-7.5-7.5s3.358-7.5 7.5-7.5h20.604c4.142 0 7.5 3.358 7.5 7.5s-3.357 7.5-7.5 7.5z" fill="#c57a44"/></g><g><path d="m372.411 80.128h-20.604c-4.142 0-7.5-3.358-7.5-7.5s3.358-7.5 7.5-7.5h20.604c4.142 0 7.5 3.358 7.5 7.5s-3.358 7.5-7.5 7.5z" fill="#c57a44"/></g><g><path d="m431.131 58.494h-20.604c-4.142 0-7.5-3.358-7.5-7.5s3.358-7.5 7.5-7.5h20.604c4.142 0 7.5 3.358 7.5 7.5s-3.358 7.5-7.5 7.5z" fill="#c57a44"/></g></g><g><g><g><path d="m322.901 368.329c-.898.038-1.791.057-2.681.057-.002 0-.003 0-.004 0-15.81-.001-30.825-6.021-42.278-16.952l-.711-.679-.711.679c-11.453 10.932-26.467 16.952-42.277 16.952s-30.823-6.02-42.277-16.952l-.711-.679-.711.679c-11.453 10.932-26.467 16.952-42.277 16.952s-30.823-6.02-42.277-16.952l-.711-.679-.711.679c-11.453 10.932-26.467 16.952-42.277 16.952-.89 0-1.786-.019-2.685-.057-6.843-.293-13.408-1.737-19.51-4.136l29.432 133.972c1.041 4.737 5.237 8.111 10.087 8.111h223.281c4.85 0 9.046-3.374 10.087-8.111l29.432-133.972c-6.102 2.399-12.667 3.843-19.51 4.136z" fill="#fd4755"/></g><g><path d="m277.939 351.435-.711-.679-.711.679c-11.453 10.932-26.467 16.952-42.277 16.952s-30.823-6.02-42.277-16.952l-.711-.679-.711.679c-11.453 10.932-26.467 16.952-42.277 16.952s-30.823-6.02-42.277-16.952l-.711-.679-.711.679c-.788.753-1.597 1.476-2.418 2.182l19.471 152.659h139.27l19.471-152.659c-.823-.706-1.632-1.43-2.42-2.182z" fill="#fe646f"/></g><g><path d="m191.963 351.435-.711-.679-.711.679c-8.278 7.901-18.422 13.22-29.376 15.571l6.115 139.27h47.945l6.115-139.27c-10.955-2.351-21.098-7.67-29.377-15.571z" fill="#fd4755"/></g></g><g><path d="m328.995 245.469c-1.936-.273-3.576-1.6-4.177-3.46-18.218-56.386-71.115-97.182-133.566-97.182s-115.348 40.795-133.566 97.182c-.601 1.86-2.241 3.187-4.177 3.46-31.043 4.381-54.737 31.631-53.46 64.167 1.263 32.17 27.344 58.346 59.51 59.722 17.75.759 33.93-5.928 45.717-17.178 11.18 10.671 26.313 17.236 42.988 17.236s31.808-6.566 42.988-17.236c11.18 10.671 26.313 17.236 42.988 17.236s31.808-6.566 42.988-17.236c11.787 11.25 27.967 17.937 45.717 17.178 32.166-1.376 58.247-27.552 59.51-59.722 1.277-32.537-22.417-59.787-53.46-64.167z" fill="#fed2a4"/></g><g><g><path d="m39.404 320.881c-1.277-32.536 22.417-59.786 53.46-64.167 1.936-.273 3.576-1.6 4.177-3.46 18.218-56.386 71.115-97.182 133.566-97.182 6.285 0 12.471.42 18.536 1.221-17.649-8.005-37.247-12.466-57.891-12.466-62.451 0-115.347 40.796-133.566 97.182-.601 1.86-2.241 3.187-4.177 3.46-31.043 4.381-54.737 31.631-53.46 64.167 1.263 32.17 27.344 58.346 59.51 59.722 2.139.092 4.254.069 6.342-.05-15.391-10.857-25.714-28.487-26.497-48.427z" fill="#ffbd86"/></g></g></g><g><g><g><circle cx="117.149" cy="251.364" fill="#ea9b58" r="7.5"/></g><g><circle cx="165.149" cy="251.364" fill="#c57a44" r="7.5"/></g><g><circle cx="213.149" cy="251.364" fill="#c57a44" r="7.5"/></g><g><circle cx="141.18" cy="207.066" fill="#c57a44" r="7.5"/></g><g><circle cx="190.18" cy="207.066" fill="#ea9b58" r="7.5"/></g><g><circle cx="239.18" cy="207.066" fill="#c57a44" r="7.5"/></g><g><circle cx="261.149" cy="251.364" fill="#ea9b58" r="7.5"/></g></g></g></g></svg>