<svg id="Capa_1" enable-background="new 0 0 512 512" height="512" viewBox="0 0 512 512" width="512" xmlns="http://www.w3.org/2000/svg"><g><g><g><g><path d="m235.998 103.81-140.011 28.511c-11.716 2.386-16.068 16.85-7.614 25.305l111.501 111.501c8.455 8.455 22.919 4.103 25.305-7.614l28.511-140.012c2.144-10.532-7.159-19.835-17.692-17.691z" fill="#fe9901"/></g><g><path d="m126.406 146.626c-5.9-5.9-5.557-14.724-.833-20.33l-29.586 6.025c-11.716 2.386-16.068 16.85-7.614 25.305l111.501 111.501c8.455 8.455 22.919 4.103 25.305-7.614l2.726-13.388z" fill="#fb8801"/></g><g><circle cx="202.016" cy="222.311" fill="#fef0ae" r="7.5"/></g><g><circle cx="170.196" cy="149.479" fill="#fef0ae" r="7.5"/></g><g><circle cx="130.598" cy="156.55" fill="#fef0ae" r="7.5"/></g><g><circle cx="203.43" cy="172.814" fill="#fef0ae" r="7.5"/></g><g><circle cx="214.037" cy="139.58" fill="#fef0ae" r="7.5"/></g><g><circle cx="168.075" cy="198.269" fill="#fef0ae" r="7.5"/></g></g><g><g><path d="m158.778 361.807c-3.584 0-6.5-2.916-6.5-6.5s2.916-6.5 6.5-6.5h28.224c1.131-3.078 2.673-5.957 4.546-8.584l-69.671-74.333c-7.35-7.842-20.321-5.635-24.665 4.197l-56.824 128.627h139.331l-10.572-36.907z" fill="#fed402"/><path d="m73.221 398.714 55.468-125.556-6.812-7.268c-7.35-7.842-20.321-5.635-24.665 4.197l-56.824 128.627z" fill="#fac600"/><g><circle cx="96.398" cy="350.179" fill="#fef0ae" r="7.5"/></g><g><circle cx="79.259" cy="386.57" fill="#fef0ae" r="7.5"/></g><g><circle cx="134.657" cy="336.569" fill="#fef0ae" r="7.5"/></g><g><circle cx="113.684" cy="308.692" fill="#fef0ae" r="7.5"/></g><g><circle cx="127.668" cy="371.358" fill="#fef0ae" r="7.5"/></g></g><g><path d="m287.417 324.542.296.315h7.565c13.236 0 24.847 7.083 31.247 17.656l98.883-20.136-58.334-93.767c-5.678-9.127-18.83-9.495-25.01-.7l-63.095 89.795c3.085 1.874 5.937 4.161 8.448 6.837z" fill="#fe9901"/><g><g><path d="m288.146 323.857h7.132c5.418 0 10.571 1.174 15.234 3.265l62.507-88.958-5.944-9.554c-5.678-9.127-18.83-9.495-25.01-.7l-62.511 88.963c3.167 1.94 6.062 4.288 8.592 6.984z" fill="#fb8801"/></g></g><g><circle cx="325.628" cy="306.302" fill="#fef0ae" r="7.5"/></g><g><circle cx="365.808" cy="300.424" fill="#fef0ae" r="7.5"/></g><g><circle cx="350.682" cy="268.989" fill="#fef0ae" r="7.5"/></g></g><g><path d="m454.436 315.447-128.486 26.163c1.45 2.244 2.669 4.652 3.604 7.197h28.224c3.584 0 6.5 2.916 6.5 6.5s-2.916 6.5-6.5 6.5h-10.893l-10.572 36.907h122.461l13.353-65.576c2.145-10.533-7.159-19.836-17.691-17.691z" fill="#fed402"/><g><circle cx="388.634" cy="361.115" fill="#fef0ae" r="7.5"/></g><g><circle cx="421.868" cy="384.45" fill="#fef0ae" r="7.5"/></g><g><circle cx="432.474" cy="351.216" fill="#fef0ae" r="7.5"/></g></g><g><path d="m330.598 348.807c-5.192-14.5-19.092-24.949-35.32-24.949h-7.132c-7.493-7.986-18.121-13-29.868-13-11.748 0-22.375 5.014-29.868 13h-7.132c-16.228 0-30.128 10.449-35.32 24.949z" fill="#fe646f"/></g><g><path d="m214.706 347.807c6.867-8.982 17.681-14.807 29.794-14.807h7.132c7.493-7.986 18.121-13 29.868-13 .869 0 1.73.036 2.586.09-7.06-5.757-16.042-9.233-25.808-9.233-11.748 0-22.375 5.014-29.868 13h-7.132c-15.851 0-29.478 9.972-34.941 23.949h28.369z" fill="#fd4755"/></g><g><g><path d="m168.106 361.807 10.573 36.907h158.674l10.572-36.907z" fill="#017b4e"/><path d="m168.106 361.807 10.573 36.907h28.893l-10.572-36.907z" fill="#026841"/></g></g><g><path d="m451.504 512h-391.008c-2.183 0-4.113-1.416-4.769-3.498l-32.846-104.286c-1.015-3.222 1.391-6.502 4.769-6.502h456.7c3.378 0 5.784 3.28 4.769 6.502l-32.845 104.286c-.656 2.082-2.587 3.498-4.77 3.498z" fill="#fd4755"/></g><g><path d="m106.08 508.502-32.846-104.286c-1.015-3.222 1.391-6.502 4.769-6.502h-50.353c-3.378 0-5.784 3.28-4.769 6.502l32.845 104.286c.656 2.082 2.586 3.498 4.769 3.498h50.353c-2.182 0-4.112-1.416-4.768-3.498z" fill="#fb2b3a"/></g><g><path d="m43.51 469.714 12.216 38.788c.656 2.082 2.586 3.498 4.769 3.498h391.009c2.183 0 4.113-1.416 4.769-3.498l12.216-38.788z" fill="#fb2b3a"/></g><g><path d="m106.08 508.502-12.216-38.788h-50.354l12.216 38.788c.656 2.082 2.586 3.498 4.769 3.498h50.353c-2.182 0-4.112-1.416-4.768-3.498z" fill="#e41f2d"/></g></g></g><g><g><path d="m276.444 18.002 28.511 140.012c2.386 11.716 16.85 16.068 25.305 7.614l111.501-111.502c8.455-8.455 4.103-22.919-7.614-25.305l-140.012-28.511c-10.532-2.144-19.836 7.159-17.691 17.692z" fill="#fed402"/></g><g><path d="m337.821 158.013-28.511-140.011c-1.087-5.341.772-10.362 4.239-13.738l-19.414-3.954c-10.532-2.145-19.836 7.159-17.691 17.691l28.511 140.012c2.386 11.716 16.85 16.068 25.305 7.614l7.572-7.572c-.004-.014-.008-.027-.011-.042z" fill="#fac600"/></g><g><circle cx="394.945" cy="51.984" fill="#fef0ae" r="7.5"/></g><g><circle cx="322.113" cy="83.804" fill="#fef0ae" r="7.5"/></g><g><circle cx="329.184" cy="123.402" fill="#fef0ae" r="7.5"/></g><g><circle cx="345.447" cy="50.57" fill="#fef0ae" r="7.5"/></g><g><circle cx="305.125" cy="32.875" fill="#fef0ae" r="7.5"/></g><g><circle cx="370.903" cy="85.925" fill="#fef0ae" r="7.5"/></g></g><g><path d="m357.778 362.807h-199c-4.142 0-7.5-3.357-7.5-7.5s3.358-7.5 7.5-7.5h199c4.142 0 7.5 3.357 7.5 7.5s-3.358 7.5-7.5 7.5z" fill="#026841"/></g></g></svg>