<svg id="Capa_1" enable-background="new 0 0 512 512" height="512" viewBox="0 0 512 512" width="512" xmlns="http://www.w3.org/2000/svg"><g><path d="m95.222 484.73v22.119c0 2.845 2.306 5.151 5.151 5.151h228.601c2.845 0 5.151-2.306 5.151-5.151v-22.119z" fill="#fedf74"/><path d="m129.016 506.849v-22.119h-33.794v22.119c0 2.845 2.306 5.151 5.151 5.151h33.794c-2.844 0-5.151-2.306-5.151-5.151z" fill="#fed402"/><g><g><path d="m368.501 229.186c7.965-19.429 12.367-40.695 12.367-62.992-.001-91.787-74.408-166.194-166.194-166.194s-166.194 74.407-166.194 166.194c0 22.297 4.402 43.563 12.367 62.992z" fill="#acc7e4"/></g><g><path d="m100.073 229.186c-7.965-19.427-12.363-40.695-12.363-62.992 0-85.149 64.039-155.329 146.579-165.036-6.435-.757-12.978-1.158-19.615-1.158-91.786 0-166.194 74.407-166.194 166.194 0 22.297 4.402 43.563 12.367 62.992z" fill="#8fb0c5"/></g></g><g><path d="m129.257 89.17h371.216v-21.172c0-2.845-2.306-5.151-5.151-5.151h-360.914c-2.845 0-5.151 2.306-5.151 5.151z" fill="#f6a96c"/></g><g><g fill="#fed402"><path d="m194.097 143.358c0-6.228-1.315-8.727-3.494-12.866-2.035-3.866-4.595-8.754-5.927-16h-29.586c1.345 7.479 3.974 12.501 6.061 16.466 2.179 4.14 3.379 6.42 3.379 12.4 0 5.981-1.2 8.261-3.38 12.401-2.93 5.568-6.943 13.192-6.943 26.823 0 13.633 4.013 21.257 6.944 26.825 2.179 4.14 3.379 6.42 3.379 12.4 0 3.258-.359 5.417-1.035 7.378h29.619c.634-1.961.984-4.176.984-7.378 0-6.227-1.315-8.725-3.494-12.865-2.882-5.477-6.829-12.974-6.829-26.359s3.946-20.883 6.828-26.357c2.178-4.141 3.494-6.64 3.494-12.868z"/><path d="m185.48 90.17c1.411-5.321 3.445-9.205 5.122-12.392 2.179-4.142 3.494-6.641 3.494-12.866 0-1.575.261-3.089.729-4.51-1.931-6.351-7.83-10.974-14.812-10.974-8.551 0-15.484 6.932-15.484 15.484 0 5.98-1.2 8.26-3.379 12.4-1.732 3.291-3.837 7.313-5.274 12.858z"/></g><g fill="#fedf74"><path d="m213.448 90.17c1.411-5.321 3.445-9.205 5.122-12.392 2.179-4.142 3.494-6.641 3.494-12.866 0-1.888.374-3.688 1.034-5.343-2.178-5.915-7.847-10.141-14.518-10.141-8.551 0-15.484 6.932-15.484 15.484 0 5.98-1.2 8.26-3.379 12.4-1.732 3.291-3.837 7.313-5.274 12.858z"/><path d="m222.064 143.358c0-6.228-1.315-8.727-3.494-12.866-2.035-3.866-4.595-8.754-5.927-16h-28.986c1.345 7.479 3.974 12.501 6.061 16.466 2.179 4.14 3.379 6.42 3.379 12.4 0 5.981-1.2 8.261-3.38 12.401-2.93 5.568-6.943 13.192-6.943 26.823 0 13.633 4.013 21.257 6.944 26.825 2.179 4.14 3.379 6.42 3.379 12.4 0 3.258-.359 5.417-1.035 7.378h29.019c.634-1.961.984-4.176.984-7.378 0-6.227-1.315-8.725-3.494-12.865-2.882-5.477-6.829-12.974-6.829-26.359s3.946-20.883 6.828-26.357c2.179-4.141 3.494-6.64 3.494-12.868z"/></g><g fill="#fed402"><path d="m241.416 90.17c1.411-5.321 3.445-9.205 5.122-12.393 2.179-4.14 3.494-6.639 3.494-12.865 0-1.888.374-3.688 1.034-5.343-2.178-5.915-7.847-10.141-14.518-10.141-8.551 0-15.484 6.932-15.484 15.484 0 5.98-1.2 8.26-3.379 12.4-1.732 3.291-3.837 7.313-5.274 12.858z"/><path d="m250.032 143.358c0-6.226-1.315-8.725-3.493-12.864-2.036-3.868-4.597-8.756-5.929-16.002h-28.985c1.345 7.479 3.974 12.501 6.061 16.466 2.179 4.14 3.379 6.42 3.379 12.4 0 5.981-1.2 8.261-3.38 12.401-2.93 5.568-6.943 13.192-6.943 26.823 0 13.633 4.013 21.257 6.944 26.825 2.179 4.14 3.379 6.42 3.379 12.4 0 3.258-.359 5.417-1.035 7.378h29.019c.634-1.961.984-4.176.984-7.378 0-6.227-1.315-8.726-3.494-12.865-2.883-5.477-6.829-12.975-6.829-26.359s3.946-20.882 6.828-26.356c2.179-4.142 3.494-6.641 3.494-12.869z"/></g><g fill="#fedf74"><path d="m280 143.358c0-13.632-4.013-21.257-6.944-26.824-.384-.729-.735-1.398-1.057-2.042h-32.407c1.345 7.479 3.974 12.501 6.061 16.466 2.179 4.14 3.379 6.42 3.379 12.4 0 5.981-1.2 8.261-3.38 12.401-2.93 5.568-6.943 13.192-6.943 26.823 0 13.633 4.013 21.257 6.944 26.825 2.179 4.14 3.379 6.42 3.379 12.4 0 3.258-.359 5.417-1.035 7.378h31.571c.272-2.249.432-4.693.432-7.378 0-13.632-4.013-21.256-6.943-26.823-2.179-4.14-3.38-6.42-3.38-12.401 0-5.98 1.2-8.26 3.379-12.4 2.931-5.568 6.944-13.192 6.944-26.825z"/><path d="m273.873 90.17c2.807-5.432 6.127-12.855 6.127-25.258 0-8.552-6.932-15.484-15.484-15.484-8.551 0-15.484 6.932-15.484 15.484 0 5.98-1.2 8.26-3.379 12.4-1.732 3.291-3.837 7.313-5.274 12.858z"/></g></g><g><path d="m46.104 259.748 40.636 221.76c.448 2.446 2.58 4.222 5.067 4.222h245.735c2.487 0 4.618-1.776 5.067-4.222l40.636-221.76z" fill="#fe9901"/><path d="m126.058 481.508-40.636-221.76h-39.318l40.636 221.76c.448 2.446 2.58 4.222 5.067 4.222h39.318c-2.487 0-4.619-1.777-5.067-4.222z" fill="#fb8801"/></g><g><path d="m375.058 304.419h-27.198c-2.501 0-4.641 1.797-5.073 4.261l-18.796 107.139c-.553 3.153 1.873 6.041 5.073 6.041h24.474z" fill="#fedf74"/></g><g><path d="m391.952 260.748h-354.557c-5.69 0-10.302-4.612-10.302-10.302v-11.959c0-5.69 4.612-10.302 10.302-10.302h354.557c5.69 0 10.302 4.612 10.302 10.302v11.959c0 5.69-4.612 10.302-10.302 10.302z" fill="#eaf6ff"/></g><g><path d="m66.931 250.446v-11.959c0-5.69 4.612-10.302 10.302-10.302h-39.838c-5.69 0-10.302 4.612-10.302 10.302v11.959c0 5.69 4.612 10.302 10.302 10.302h39.838c-5.689 0-10.302-4.612-10.302-10.302z" fill="#d8ecfe"/></g><g><circle cx="216.132" cy="368.805" fill="#fff" r="72.628"/></g><g><path d="m170.124 368.805c0-35.562 25.567-65.135 59.318-71.389-4.317-.8-8.761-1.239-13.31-1.239-40.111 0-72.628 32.517-72.628 72.628s32.517 72.628 72.628 72.628c4.549 0 8.993-.439 13.31-1.239-33.751-6.255-59.318-35.827-59.318-71.389z" fill="#eaf6ff"/></g><g><path d="m117.925 295.436h-35.027c-4.142 0-7.5-3.357-7.5-7.5s3.358-7.5 7.5-7.5h35.026c4.142 0 7.5 3.357 7.5 7.5s-3.357 7.5-7.499 7.5z" fill="#fff"/></g><g><path d="m134.408 115.492h360.914c2.845 0 5.151-2.306 5.151-5.151v-21.171h-371.216v21.172c0 2.844 2.306 5.15 5.151 5.15z" fill="#ffbd86"/></g><g><path d="m243.519 363.428h-57.69c-4.142 0-7.5-3.357-7.5-7.5s3.358-7.5 7.5-7.5h57.69c4.142 0 7.5 3.357 7.5 7.5s-3.358 7.5-7.5 7.5z" fill="#fdb441"/></g><g><path d="m231.157 392.272h-32.966c-4.142 0-7.5-3.357-7.5-7.5s3.358-7.5 7.5-7.5h32.966c4.142 0 7.5 3.357 7.5 7.5s-3.358 7.5-7.5 7.5z" fill="#fdb441"/></g><g><g><path d="m117.213 190.398c-4.142 0-7.5-3.357-7.5-7.5v-13.943c0-7.226-5.878-13.104-13.104-13.104h-56.182c-15.935 0-28.899-12.964-28.899-28.898 0-15.936 12.964-28.899 28.899-28.899h45.316c4.142 0 7.5 3.357 7.5 7.5s-3.358 7.5-7.5 7.5h-45.316c-7.664 0-13.899 6.234-13.899 13.898s6.235 13.899 13.899 13.899h56.182c15.497 0 28.104 12.607 28.104 28.104v13.943c0 4.143-3.358 7.5-7.5 7.5z" fill="#fdb441"/></g></g><g><path d="m27.725 76.473c-4.142 0-7.5-3.357-7.5-7.5v-9.163c0-9.75 7.932-17.682 17.682-17.682h14.254c3.725 0 6.754-3.03 6.754-6.755s-3.03-6.754-6.754-6.754h-28.509c-4.142 0-7.5-3.357-7.5-7.5s3.358-7.5 7.5-7.5h28.509c11.996 0 21.754 9.759 21.754 21.754 0 11.996-9.759 21.755-21.754 21.755h-14.254c-1.479 0-2.682 1.203-2.682 2.682v9.163c0 4.142-3.358 7.5-7.5 7.5z" fill="#fdb441"/></g></g></svg>