<svg id="Capa_1" enable-background="new 0 0 512 512" height="512" viewBox="0 0 512 512" width="512" xmlns="http://www.w3.org/2000/svg"><g><path d="m64.232 431.285 23.434 37.534c1.882 3.015 5.185 4.846 8.739 4.846h319.192c3.554 0 6.856-1.832 8.739-4.846l23.434-37.534z" fill="#d8ecfe"/><path d="m127.112 468.819-23.434-37.534h-39.446l23.434 37.534c1.882 3.015 5.185 4.846 8.739 4.846h39.447c-3.555.001-6.858-1.831-8.74-4.846z" fill="#c4e2ff"/><g><g><path d="m331.861 195.817h-75.861v-54.738h75.861c2.845 0 5.151 2.306 5.151 5.151v44.436c0 2.845-2.306 5.151-5.151 5.151z" fill="#fe9901"/></g><g><path d="m256 141.079h28.187v54.738h-28.187z" fill="#fb8801"/></g><g><path d="m60.038 315.597c-2.997 3.494-5.143 7.265-6.27 11.083 9.379 2.385 18.021 7.292 25.114 14.384 3.579 3.579 6.586 7.582 8.999 11.864 2.522-1.005 5.204-1.689 8-1.993.986-1.47 1.887-2.993 2.682-4.565 16.252-32.14 43.769-57.685 77.129-73.539-.895-5.083-3.176-9.462-6.92-12.547-6.016-4.957-14.582-5.593-23.381-2.602 2.418-19.936-5.835-37.433-19.439-40.034-10.085-1.927-20.453 4.845-27.223 16.388-.778-1.37-1.615-2.73-2.525-4.071-12.326-18.151-32.109-26.217-44.187-18.015s-11.876 29.565.45 47.716c.911 1.341 1.867 2.62 2.853 3.849-13.227 2.036-23.345 9.175-25.273 19.26-2.602 13.595 10.594 27.707 29.991 32.822z" fill="#68ca44"/><path d="m75.101 291.164 25.786 4.87 14.943 22.004c3.242-3.982 6.692-7.814 10.324-11.497l-7.487-11.026 5.707-29.883c.777-4.069-1.89-7.997-5.958-8.775-4.07-.776-7.998 1.891-8.775 5.958l-2.895 15.146-16.864-24.834c-2.327-3.427-6.992-4.317-10.418-1.991-3.427 2.327-4.318 6.991-1.991 10.418l11.543 16.998-11.097-2.121c-4.069-.777-7.998 1.89-8.775 5.958-.779 4.069 1.888 7.997 5.957 8.775z" fill="#017b4e"/></g><g><path d="m404.333 330.775.901 1.355.802-1.418c5.457-9.661 15.714-15.662 26.768-15.662 5.561 0 10.776 1.491 15.282 4.084.292-.279.593-.543.88-.83 14.869-14.869 19.126-36.225 12.656-54.375-18.15-6.47-39.505-2.213-54.375 12.656-10.475 10.475-15.66 24.167-15.561 37.691 4.591 5.242 8.821 10.751 12.647 16.499z" fill="#80d261"/><g><path d="m461.622 263.93c-18.15-6.47-39.505-2.213-54.375 12.656-10.083 10.083-15.265 23.149-15.552 36.175 1.65 1.858 3.25 3.755 4.807 5.681l28.244-28.244c1.573-1.573 3.671-2.293 5.73-2.176 10.128-7.367 22.208-10.715 33.989-10.007-.276-4.795-1.223-9.541-2.843-14.085z" fill="#68ca44"/></g><path d="m405.154 330.203c3.264-5.775 8.29-10.412 14.339-13.214l15.862-16.185c2.929-2.929 2.929-7.678 0-10.606-2.93-2.929-7.678-2.929-10.607 0l-28.24 28.24c3.068 3.796 5.954 7.722 8.646 11.765z" fill="#017b4e"/></g><path d="m417.876 355.984.27.167c5.122 3.183 9.627 6.496 13.507 9.911 5.552-9.237 15.43-14.885 26.33-14.885 2.053 0 4.059.206 6.001.592.369-1.934.568-3.929.568-5.971 0-17.534-14.214-31.748-31.748-31.748-12.266 0-22.899 6.96-28.186 17.142 5.118 7.763 9.53 15.943 13.134 24.497z" fill="#fb2b3a"/><g><path d="m418.674 355.302c3.063 1.904 5.928 3.865 8.585 5.878-2.533-4.559-3.995-9.795-3.995-15.381 0-13.627 8.587-25.245 20.644-29.747-3.457-1.291-7.197-2.001-11.104-2.001-11.864 0-22.201 6.512-27.65 16.153 5.284 7.938 9.825 16.328 13.52 25.098z" fill="#e41f2d"/></g><path d="m256 254.839c2.508 0 5.008.053 7.5.149v-118.288c0-4.142-3.357-7.5-7.5-7.5-4.142 0-7.5 3.358-7.5 7.5v118.303c2.492-.099 4.991-.164 7.5-.164z" fill="#c57a44"/><path d="m418.674 355.302c-7.994-18.973-19.922-36.184-34.873-50.826-.002.004-.003.009-.005.013-86.3-7.639-173.158-6.357-259.195 3.825l-.19.022c-.004-.005-.009-.01-.013-.014-10.762 11.253-19.8 23.896-26.728 37.598-.914 1.808-1.97 3.534-3.128 5.187 3.136-.481 6.425-.488 9.794.06 14.754 2.399 25.669 15.45 25.638 30.398-.01 4.958-1.186 9.712-3.493 14.13l-.764 1.462h257.047l-.058-1.373c-.012-.24-.023-.479-.023-.722 0-16.955 13.794-30.748 30.748-30.748 5.51 0 10.92 1.48 15.646 4.28l.923.547.481-.959c.519-1.037 1.104-2.023 1.723-2.98-3.937-3.441-8.461-6.749-13.53-9.9z" fill="#fedf74"/><path d="m124.41 308.337c-.004-.005-.007-.011-.011-.016-10.763 11.253-19.801 23.897-26.73 37.6-.711 1.407-1.505 2.766-2.365 4.08 1.286-.158 2.592-.25 3.921-.25 11.144 0 20.94 5.746 26.605 14.432 1.288-1.085 2.616-2.16 4.021-3.217 5.299-3.985 9.655-9.129 12.648-15.046 3.409-6.741 7.344-13.215 11.727-19.404z" fill="#fed402"/><g><path d="m202.408 331.864 34.366-16.678c11.307-5.487 24.624-4.877 35.381 1.623l18.19 10.99c10.048 6.071 22.942 4.504 31.243-3.798l3.696-3.696c7.146-7.146 18.332-8.281 26.768-2.717 6.54 4.314 15.211 3.433 20.751-2.106l10.993-10.993c-31.795-31.139-77.271-50.65-127.796-50.65-52.573 0-99.677 21.127-131.59 54.498l35.224 21.478c12.981 7.915 29.096 8.687 42.774 2.049z" fill="#883f2e"/></g><g><g><path d="m196.876 314.151-13.295-8.106c-13.086-7.979-14.657-25.984-3.994-36.213-21.158 9.388-39.909 22.54-55.178 38.506l35.224 21.478c12.981 7.915 29.095 8.687 42.773 2.049l21.252-10.314c-9.301.072-18.592-2.406-26.782-7.4z" fill="#6d3326"/></g></g><g><path d="m56.401 397.158h16.333l-.764-1.462c-2.317-4.438-3.493-9.214-3.493-14.196 0-13.313 8.507-24.674 20.369-28.941-2.452-4.361-5.533-8.476-9.257-12.2-15.585-15.585-37.969-20.047-56.992-13.266-6.781 19.024-2.32 41.407 13.266 56.992 6.025 6.024 13.068 10.379 20.538 13.073z" fill="#80d261"/><path d="m52.742 373.216c-13.475-13.475-18.628-32.031-15.395-49.104-5.021.291-9.991 1.284-14.75 2.98-6.781 19.024-2.32 41.407 13.266 56.992 6.025 6.025 13.068 10.38 20.538 13.073h15.21c-2.26-3.977-3.685-8.488-4.04-13.297-5.341-2.636-10.365-6.18-14.829-10.644z" fill="#68ca44"/><path d="m67.477 381.499c0-5.785 1.555-11.204 4.258-15.875l-10.744-10.744c-2.929-2.929-7.678-2.929-10.606 0-2.929 2.929-2.929 7.678 0 10.606l17.129 17.129c-.013-.371-.037-.741-.037-1.116z" fill="#017b4e"/></g><path d="m444.178 395.063c0 .236-.012.469-.022.702l-.055 1.393h41.742c2.478-4.522 3.889-9.712 3.889-15.232 0-17.534-14.214-31.748-31.748-31.748-12.792 0-23.81 7.57-28.837 18.471 8.992 5.371 15.031 15.199 15.031 26.414z" fill="#fdb441"/><path d="m472.981 353.94c-4.467-2.399-9.573-3.762-14.998-3.762-12.431 0-23.187 7.149-28.398 17.556 9.333 5.529 15.593 15.695 15.593 27.329 0 .705-.031 1.401-.076 2.095h15.032c-2.481-4.523-3.904-9.708-3.904-15.232 0-12.109 6.781-22.632 16.751-27.986z" fill="#fe9901"/><path d="m445.102 397.158c.045-.693.076-1.39.076-2.095 0-17.534-14.214-31.748-31.748-31.748s-31.748 14.214-31.748 31.748c0 .705.031 1.401.076 2.095z" fill="#fb2b3a"/><path d="m404.428 397.158c-.045-.694-.082-1.39-.082-2.095 0-13.54 8.48-25.094 20.416-29.658-3.52-1.346-7.338-2.09-11.332-2.09-17.534 0-31.748 14.214-31.748 31.748 0 .705.031 1.401.076 2.095z" fill="#e41f2d"/><path d="m126.839 397.158c2.627-4.622 4.134-9.963 4.134-15.659 0-17.534-14.214-31.748-31.748-31.748s-31.748 14.214-31.748 31.748c0 5.696 1.508 11.037 4.134 15.659z" fill="#fb2b3a"/><path d="m94.288 397.158c-2.63-4.622-4.147-9.96-4.147-15.659 0-13.54 8.48-25.094 20.416-29.658-3.52-1.346-7.338-2.09-11.332-2.09-17.534 0-31.748 14.214-31.748 31.748 0 5.696 1.508 11.037 4.134 15.659z" fill="#e41f2d"/><g><path d="m201.262 217.548c-4.142 0-7.5-3.358-7.5-7.5v-24.084c0-7.938-6.458-14.395-14.396-14.395h-47.075c-16.208 0-29.395-13.187-29.395-29.396s13.187-29.395 29.395-29.395h65.686c16.389 0 29.722-13.333 29.722-29.722s-13.333-29.722-29.722-29.722h-54.737c-4.142 0-7.5-3.358-7.5-7.5s3.358-7.5 7.5-7.5h54.738c24.66 0 44.722 20.062 44.722 44.722s-20.063 44.722-44.722 44.722h-65.686c-7.938 0-14.395 6.458-14.395 14.395s6.458 14.396 14.395 14.396h47.075c16.209 0 29.396 13.187 29.396 29.395v24.084c-.001 4.142-3.359 7.5-7.501 7.5z" fill="#fdb441"/></g></g><g><path d="m493.936 432.285h-475.872c-9.977 0-18.064-8.087-18.064-18.064 0-9.976 8.087-18.064 18.064-18.064h475.873c9.976 0 18.064 8.087 18.064 18.064-.001 9.977-8.088 18.064-18.065 18.064z" fill="#eaf6ff"/></g><g><path d="m43.783 414.221c0-9.976 8.087-18.064 18.064-18.064h-43.783c-9.977.001-18.064 8.088-18.064 18.064 0 9.976 8.087 18.064 18.064 18.064h43.783c-9.977 0-18.064-8.087-18.064-18.064z" fill="#d8ecfe"/></g><g><path d="m367.26 251.797c-4.143 0-7.5-3.358-7.5-7.5v-23.694c0-14.928 12.145-27.073 27.073-27.073h13.393c6.657 0 12.073-5.417 12.073-12.074s-5.416-12.073-12.073-12.073h-15.453c-4.143 0-7.5-3.358-7.5-7.5s3.357-7.5 7.5-7.5h15.453c14.929 0 27.073 12.145 27.073 27.073 0 14.929-12.145 27.074-27.073 27.074h-13.393c-6.657 0-12.073 5.416-12.073 12.073v23.694c0 4.142-3.358 7.5-7.5 7.5z" fill="#fdb441"/></g></g></svg>