<svg id="Capa_1" enable-background="new 0 0 512 512" height="512" viewBox="0 0 512 512" width="512" xmlns="http://www.w3.org/2000/svg"><g><g><g><g><path d="m135.075 139.953c6.486 1.85 12.232 5.762 16.429 11.348l.8 1.064.8-1.064c5.997-7.983 15.154-12.563 25.124-12.563s19.128 4.579 25.125 12.563l.8 1.064.8-1.064c4.196-5.586 9.942-9.497 16.428-11.348l27.335-27.335c4.023-4.023 4.023-10.546 0-14.569l-63.203-63.203c-4.023-4.023-10.546-4.023-14.569 0l-63.204 63.203c-4.023 4.023-4.023 10.546 0 14.569z" fill="#883f2e"/></g><g><path d="m133.701 138.578c7.552 1.745 14.096 6.122 18.603 12.122 3.082-4.102 7.12-7.439 11.776-9.704l-28.378-28.378c-4.023-4.023-4.023-10.546 0-14.569l56.507-56.507-6.696-6.696c-4.023-4.023-10.546-4.023-14.569 0l-63.204 63.203c-4.023 4.023-4.023 10.546 0 14.569z" fill="#6d3326"/></g><g><g><path d="m157.633 178.705c.746-2.728 1.151-5.596 1.151-8.561 0-17.897-14.508-32.405-32.405-32.405s-32.405 14.508-32.405 32.405c0 2.965.406 5.833 1.152 8.561z" fill="#d88a55"/><path d="m137.468 139.687c-3.459-1.26-7.193-1.948-11.089-1.948-17.897 0-32.405 14.508-32.405 32.405 0 2.965.406 5.833 1.152 8.561h22.177c-.746-2.728-1.152-5.596-1.152-8.561.001-14.002 8.882-25.929 21.317-30.457z" fill="#c57a44"/><path d="m261.329 178.705c.746-2.728 1.151-5.596 1.151-8.561 0-17.897-14.508-32.405-32.405-32.405s-32.405 14.508-32.405 32.405c0 2.965.406 5.833 1.152 8.561z" fill="#d88a55"/><path d="m241.165 139.687c-3.459-1.26-7.193-1.948-11.089-1.948-17.897 0-32.405 14.508-32.405 32.405 0 2.965.406 5.833 1.152 8.561h22.177c-.746-2.728-1.152-5.596-1.152-8.561 0-14.002 8.881-25.929 21.317-30.457z" fill="#c57a44"/></g><path d="m209.481 178.705c.746-2.728 1.151-5.596 1.151-8.561 0-17.897-14.508-32.405-32.405-32.405s-32.405 14.508-32.405 32.405c0 2.965.406 5.833 1.152 8.561z" fill="#f6a96c"/><path d="m189.316 139.687c-3.459-1.26-7.193-1.948-11.089-1.948-17.897 0-32.405 14.508-32.405 32.405 0 2.965.406 5.833 1.152 8.561h22.177c-.746-2.728-1.152-5.596-1.152-8.561.001-14.002 8.882-25.929 21.317-30.457z" fill="#ea9b58"/></g><path d="m109.454 403.664c5.836-101.177 88.796-180.899 190.351-182.462l159.267-2.451v-30.745c0-5.69-4.612-10.302-10.302-10.302h-368.838c-14.914 0-27.004 12.09-27.004 27.004v198.955h56.526z" fill="#883f2e"/><path d="m80.869 403.664v-198.955c0-14.914 12.09-27.004 27.004-27.004h-27.941c-14.914 0-27.004 12.09-27.004 27.004v198.955z" fill="#6d3326"/><path d="m109.337 363h349.735v40.664h-349.735z" fill="#d88a55"/><path d="m109.337 363h39.524v40.664h-39.524z" fill="#c57a44"/><g><path d="m109.337 276h349.735v88.574h-349.735z" fill="#fed2a4"/></g><g><path d="m109.337 335.212h349.735v27.788h-349.735z" fill="#fed2a4"/></g><path d="m109.337 336.536h39.524v28.038h-39.524z" fill="#ffbd86"/><g><path d="m109.337 246.941h349.735v28.979h-349.735z" fill="#d88a55"/><path d="m109.337 306.325h349.735v30.212h-349.735z" fill="#d88a55"/><g><path d="m109.337 307.325h39.524v29.211h-39.524z" fill="#c57a44"/></g></g><g><path d="m109.337 274.92h349.735v32.405h-349.735z" fill="#fed2a4"/></g><g><path d="m109.337 247.941h39.524v26.979h-39.524z" fill="#c57a44"/></g><g><path d="m459.072 247.941v-29.19h-338.933c-5.966 0-10.802 4.836-10.802 10.802v18.388z" fill="#fed2a4"/></g><g><path d="m195.659 92.31h-35.646c-4.143 0-7.5-3.358-7.5-7.5s3.357-7.5 7.5-7.5h35.646c4.143 0 7.5 3.358 7.5 7.5s-3.357 7.5-7.5 7.5z" fill="#d88a55"/></g><g><path d="m208.621 118.234h-61.569c-4.143 0-7.5-3.358-7.5-7.5s3.357-7.5 7.5-7.5h61.569c4.143 0 7.5 3.358 7.5 7.5s-3.357 7.5-7.5 7.5z" fill="#d88a55"/></g></g><g><path d="m44.039 437.791 24.639 35.704c2.885 4.18 7.639 6.676 12.719 6.676h349.207c5.079 0 9.834-2.496 12.719-6.676l24.639-35.704z" fill="#eaf6ff"/><path d="m119.157 473.495-24.639-35.704h-50.479l24.639 35.704c2.885 4.18 7.639 6.676 12.718 6.676h50.479c-5.079 0-9.833-2.495-12.718-6.676z" fill="#d8ecfe"/><g><path d="m493.936 438.791h-475.872c-9.977 0-18.064-8.087-18.064-18.064 0-9.976 8.087-18.064 18.064-18.064h475.873c9.976 0 18.064 8.087 18.064 18.064-.001 9.977-8.088 18.064-18.065 18.064z" fill="#d8ecfe"/></g><g><path d="m493.936 438.791h-475.872c-9.977 0-18.064-8.087-18.064-18.064 0-9.976 8.087-18.064 18.064-18.064h475.873c9.976 0 18.064 8.087 18.064 18.064-.001 9.977-8.088 18.064-18.065 18.064z" fill="#d8ecfe"/></g><path d="m62 420.728c0-9.976 8.087-18.064 18.063-18.064h-62c-9.976 0-18.063 8.087-18.063 18.064 0 9.976 8.087 18.063 18.063 18.063h62c-9.976 0-18.063-8.087-18.063-18.063z" fill="#c4e2ff"/></g></g><g fill="#ffbd86"><path d="m109.337 274.92h39.524v32.405h-39.524z"/><path d="m148.861 218.751h-28.722c-5.966 0-10.802 4.836-10.802 10.802v18.388h39.524z"/></g></g></svg>