<svg id="Capa_1" enable-background="new 0 0 512 512" height="512" viewBox="0 0 512 512" width="512" xmlns="http://www.w3.org/2000/svg"><g><path d="m115.233 442.373h281.534c6.735-3.655 11.307-10.788 11.307-18.989 0-11.924-9.667-21.591-21.591-21.591 11.924 0 21.591-9.667 21.591-21.591 0-11.924-9.667-21.591-21.591-21.591 11.924 0 21.591-9.667 21.591-21.591 0-11.924-9.667-21.591-21.591-21.591h-260.967c-11.924 0-21.591 9.667-21.591 21.591 0 11.924 9.667 21.591 21.591 21.591-11.924 0-21.591 9.667-21.591 21.591 0 11.924 9.667 21.591 21.591 21.591-11.924 0-21.591 9.667-21.591 21.591.001 8.201 4.573 15.334 11.308 18.989z" fill="#f6a96c"/><g><path d="m315.214 278.251c-.423 2.549.718 5.098 2.836 6.342 6.524 3.834 10.511 10.911 10.403 18.468-.059 4.226-1.428 8.299-3.959 11.781l-1.155 1.588h27.238c3.022-2.405 5.85-5.143 8.43-8.215 13.069-15.563 16.661-35.922 11.4-54.078-.382-1.318-1.509-2.264-2.873-2.412-18.792-2.043-38.224 5.015-51.292 20.578-.133.158-.258.32-.389.479-.133 1.829-.34 3.657-.639 5.469z" fill="#68ca44"/><g><path d="m317.145 283.914c13.051-14.842 32.018-21.567 50.39-19.569 1.364.148 2.491 1.095 2.873 2.412.951 3.282 1.603 6.637 1.971 10.022.809-7.6.156-15.3-1.971-22.642-.382-1.318-1.509-2.264-2.873-2.412-18.792-2.043-38.224 5.015-51.292 20.578-.133.158-.258.32-.389.479-.132 1.829-.34 3.657-.639 5.469-.358 2.153.409 4.297 1.93 5.663z" fill="#4fc123"/></g><path d="m328.453 303.061c-.059 4.226-1.428 8.299-3.959 11.781l-1.155 1.588h2.102l25.907-30.852c2.664-3.172 2.252-7.903-.92-10.567-3.173-2.663-7.902-2.251-10.566.92l-14.02 16.696c1.729 3.148 2.664 6.732 2.611 10.434z" fill="#017b4e"/></g><path d="m165.865 287.095c6.811 0 13.124 3.09 17.322 8.477l1.094 1.403.631-1.664c1.698-4.485 4.909-8.292 9.039-10.718 2.118-1.245 3.258-3.793 2.835-6.343-.533-3.229-.804-6.513-.804-9.757 0-1.206.046-2.401.117-3.59-4.114-3.895-9.665-6.288-15.777-6.288-12.681 0-22.961 10.28-22.961 22.961 0 2.378.362 4.672 1.033 6.829 2.333-.847 4.849-1.31 7.471-1.31z" fill="#3e5690"/><g><path d="m169.488 281.576c0-10.57 7.145-19.467 16.868-22.137-1.925-.524-3.942-.824-6.033-.824-12.681 0-22.961 10.28-22.961 22.961 0 2.378.362 4.672 1.033 6.829 2.333-.847 4.849-1.31 7.471-1.31 1.505 0 2.984.159 4.423.453-.513-1.906-.801-3.904-.801-5.972z" fill="#2e3e70"/></g><path d="m187.609 316.43c.113-.334.219-.671.317-1.011l-.42-.577c-2.531-3.481-3.9-7.555-3.959-11.781-.035-2.462.371-4.869 1.151-7.134-4.15-5.942-11.035-9.833-18.833-9.833-12.681 0-22.961 10.28-22.961 22.961 0 2.581.432 5.059 1.217 7.374h43.488z" fill="#fe646f"/><path d="m172.905 287.197c-2.218-.715-4.583-1.102-7.04-1.102-12.681 0-22.961 10.28-22.961 22.961 0 2.581.432 5.059 1.217 7.374h14.074c-.785-2.315-1.217-4.794-1.217-7.374.001-10.227 6.688-18.888 15.927-21.859z" fill="#fd4755"/><path d="m324.551 316.43c2.994-3.667 4.831-8.286 4.903-13.355.116-8.243-4.292-15.462-10.897-19.344-1.83-1.075-2.702-3.224-2.356-5.317.534-3.229.818-6.541.818-9.921 0-33.699-27.319-61.018-61.018-61.018s-61.018 27.318-61.018 61.018c0 3.38.284 6.692.818 9.921.346 2.093-.527 4.242-2.356 5.317-6.606 3.882-11.014 11.101-10.897 19.344.072 5.069 1.909 9.688 4.903 13.355z" fill="#fff3de"/><path d="m256 208.476c2.98 0 5.907.226 8.771.647v-81.123c0-10.336 6.957-19.071 16.432-21.786l8.884-15.388c-.825-.312-1.716-.491-2.651-.491-20.769 0-37.665 16.896-37.665 37.665v80.799c2.048-.212 4.126-.323 6.229-.323z" fill="#6d3326"/><path d="m115.233 442.373h281.534c6.735-3.655 11.307-10.788 11.307-18.989 0-11.924-9.667-21.591-21.591-21.591h-260.967c-11.924 0-21.591 9.667-21.591 21.591.001 8.201 4.573 15.334 11.308 18.989z" fill="#f6a96c"/><path d="m115.233 442.373h44.475c-6.735-3.655-11.307-10.788-11.307-18.989 0-11.924 9.667-21.591 21.591-21.591h-44.475c-11.924 0-21.591 9.667-21.591 21.591 0 8.201 4.572 15.334 11.307 18.989z" fill="#ea9b58"/><g><path d="m386.484 401.793h-260.968c-11.924 0-21.591-9.667-21.591-21.591 0-11.924 9.667-21.591 21.591-21.591h260.967c11.924 0 21.591 9.667 21.591 21.591.001 11.924-9.666 21.591-21.59 21.591z" fill="#d88a55"/></g><g><path d="m153.854 380.202c0-11.924 9.666-21.591 21.591-21.591h-49.929c-11.924 0-21.591 9.667-21.591 21.591 0 11.924 9.667 21.591 21.591 21.591h49.929c-11.925 0-21.591-9.667-21.591-21.591z" fill="#c57a44"/></g><g><path d="m386.484 358.611h-260.968c-11.924 0-21.591-9.667-21.591-21.591 0-11.924 9.667-21.591 21.591-21.591h260.967c11.924 0 21.591 9.667 21.591 21.591.001 11.925-9.666 21.591-21.59 21.591z" fill="#f6a96c"/></g><g><path d="m148.4 337.02c0-11.924 9.667-21.591 21.591-21.591h-44.475c-11.924 0-21.591 9.667-21.591 21.591s9.667 21.591 21.591 21.591h44.475c-11.924 0-21.591-9.666-21.591-21.591z" fill="#ea9b58"/></g><path d="m81.2 473.293 21.185 33.932c1.854 2.97 5.109 4.775 8.61 4.775h290.01c3.502 0 6.756-1.805 8.611-4.775l21.185-33.932z" fill="#d8ecfe"/><path d="m146.833 507.225-21.185-33.932h-44.448l21.185 33.932c1.854 2.97 5.109 4.775 8.61 4.775h44.448c-3.501 0-6.756-1.805-8.61-4.775z" fill="#c4e2ff"/><g><path d="m472.815 474.293h-433.63c-9.091 0-16.46-7.369-16.46-16.46 0-9.091 7.369-16.46 16.46-16.46h433.63c9.091 0 16.46 7.369 16.46 16.46 0 9.09-7.37 16.46-16.46 16.46z" fill="#eaf6ff"/></g><g><path d="m82.812 457.833c0-9.091 7.369-16.46 16.46-16.46h-60.087c-9.091 0-16.46 7.369-16.46 16.46s7.369 16.46 16.46 16.46h60.086c-9.09 0-16.459-7.37-16.459-16.46z" fill="#d8ecfe"/></g><path d="m347.22 47.959c2.125 2.36 5.131 3.713 8.245 3.713.871 0 1.74-.107 2.584-.318.421-.106.849-.182 1.272-.277-6.056-6.786-7.408-16.959-2.619-25.255 4.008-6.941 11.303-10.825 18.795-10.825 3.672 0 7.391.934 10.793 2.897 5.01 2.893 8.594 7.563 10.091 13.151 1.498 5.588.729 11.425-2.163 16.436-1.279 2.216-2.923 4.133-4.823 5.734 2.566.979 5.068 2.137 7.46 3.518l6.474 3.738c1.441-1.693 2.744-3.523 3.88-5.49 4.896-8.48 6.196-18.359 3.662-27.817s-8.601-17.364-17.08-22.26c-17.505-10.107-39.971-4.087-50.078 13.418-3.7 6.41-5.23 13.483-4.835 20.372z" fill="#e41f2d"/><g><path d="m347.963 47.291-15.979-17.746c-2.307-2.562-6.443-2.128-8.167.858l-43.96 76.141c-1.974 3.418.539 7.682 4.486 7.612l26.707-.474c4.368-.078 8.224 2.682 9.733 6.783 4.155 11.294 12.107 21.255 23.281 27.706l68.792 39.717c4.809 2.777 10.959 1.129 13.735-3.68l43.236-74.887c2.777-4.809 1.129-10.959-3.68-13.735l-68.792-39.717c-12.413-7.167-26.589-8.726-39.549-5.482-3.585.895-7.37-.35-9.843-3.096z" fill="#fd4755"/></g><g><path d="m430.188 161.004-69.771-40.282c-11.333-6.543-19.398-16.645-23.612-28.1-1.53-4.159-5.441-6.958-9.871-6.879l-27.087.481c-3.073.055-5.279-2.482-5.237-5.232l-14.752 25.552c-1.974 3.418.539 7.682 4.486 7.612l26.707-.474c4.368-.078 8.224 2.682 9.733 6.783 4.155 11.294 12.107 21.255 23.281 27.706l68.792 39.717c4.809 2.777 10.959 1.129 13.735-3.68l13.219-22.896c-2.954 1.457-6.557 1.462-9.623-.308z" fill="#fb2b3a"/></g><g><circle cx="229.1" cy="176.005" fill="#883f2e" r="7.5"/></g><g><circle cx="286.96" cy="188.5" fill="#883f2e" r="7.5"/></g><g><circle cx="200.678" cy="199.5" fill="#883f2e" r="7.5"/></g><g><path d="m196.592 254.593c6.293-26.998 30.493-47.118 59.408-47.118s53.115 20.119 59.408 47.118h-12.652c-6.941 0-12.569 5.627-12.569 12.569v13.071c0 6.941-5.627 12.569-12.569 12.569-6.941 0-12.569-5.627-12.569-12.569v-13.071c0-6.941-5.627-12.569-12.569-12.569z" fill="#6d3326"/></g></g></svg>