<svg id="Capa_1" enable-background="new 0 0 512 512" height="512" viewBox="0 0 512 512" width="512" xmlns="http://www.w3.org/2000/svg"><g><path d="m286.936 319.683c2.072.736 4.11 1.544 6.113 2.419 9.38-5.268 19.757-8.961 30.773-10.719 1.435-3.355 2.231-7.048 2.231-10.928 0-15.362-12.453-27.815-27.815-27.815-4.026 0-7.848.862-11.302 2.401z" fill="#fd4755"/><path d="m192.909 338.701c8.229-7.536 17.7-13.496 27.98-17.632.05-.684.085-1.373.085-2.069 0-15.362-12.453-27.815-27.815-27.815s-27.815 12.453-27.815 27.815c0 .771.04 1.533.101 2.289 10.178 4.18 19.457 10.108 27.464 17.412z" fill="#fd4755"/><path d="m185.32 332.47c-2.217-3.993-3.493-8.58-3.493-13.471 0-12.492 8.236-23.06 19.573-26.573-2.604-.807-5.372-1.242-8.241-1.242-15.362 0-27.815 12.453-27.815 27.815 0 .771.04 1.533.101 2.289 7.105 2.918 13.773 6.686 19.875 11.182z" fill="#fb2b3a"/><path d="m222.691 138.505c-7.207 0-13.049-5.842-13.049-13.049v111.472c0 7.207 5.842 13.049 13.049 13.049s13.049-5.842 13.049-13.049v-111.472c0 7.207-5.842 13.049-13.049 13.049z" fill="#fedf74"/><path d="m248.789 149c-7.207 0-13.049-5.842-13.049-13.049v180.545c6.507-1.421 13.224-2.163 20.062-2.163 2.028 0 4.04.072 6.036.201v-178.583c0 7.207-5.843 13.049-13.049 13.049z" fill="#fac600"/><path d="m274.887 138.505c-7.207 0-13.049-5.842-13.049-13.049v189.078c9.114.585 17.876 2.481 26.098 5.508v-194.586c0 7.207-5.843 13.049-13.049 13.049z" fill="#fedf74"/><g><path d="m497.17 82.573h-147.283c-5.029 0-9.724-2.461-12.63-6.564-4.693-6.624-12.415-10.949-21.151-10.949h-29.17v63.871h29.17c8.736 0 16.458-4.325 21.151-10.949 2.907-4.103 7.602-6.564 12.63-6.564h147.69c8.197 0 14.796-6.837 14.406-15.12-.365-7.757-7.047-13.725-14.813-13.725z" fill="#acc7e4"/></g><path d="m222.691 139.748c-7.207 0-13.049-5.842-13.049-13.049v-59.407c0-7.207 5.842-13.049 13.049-13.049 7.207 0 13.049 5.842 13.049 13.049v59.407c0 7.207-5.842 13.049-13.049 13.049z" fill="#fac600"/><path d="m248.789 150.05c-7.207 0-13.049-5.842-13.049-13.049v-80.011c0-7.207 5.842-13.049 13.049-13.049 7.207 0 13.049 5.842 13.049 13.049v80.011c0 7.206-5.843 13.049-13.049 13.049z" fill="#fedf74"/><path d="m274.887 139.748c-7.207 0-13.049-5.842-13.049-13.049v-59.407c0-7.207 5.842-13.049 13.049-13.049 7.207 0 13.049 5.842 13.049 13.049v59.407c0 7.207-5.843 13.049-13.049 13.049z" fill="#fac600"/><path d="m55.915 351.046c6.574-8.605 14.7-16.133 24.169-22.165l.975-.621-.755-.875c-5.222-6.055-9.146-12.967-11.662-20.546-1.464-4.41-2.38-8.926-2.806-13.46-14.958-2.277-30.025 1.085-42.446 8.957-1.792 1.136-2.696 3.288-2.252 5.363 3.965 18.529 16.369 34.929 34.777 43.347z" fill="#017b4e"/><path d="m40.112 301.653c-.444-2.075.46-4.227 2.252-5.363 1.671-1.059 3.393-2.029 5.154-2.922-8.583 1.278-16.815 4.334-24.127 8.968-1.792 1.136-2.696 3.288-2.252 5.363 3.964 18.53 16.368 34.93 34.776 43.347 3.013-3.943 6.367-7.647 10.011-11.098-13.46-9.101-22.534-22.961-25.814-38.295z" fill="#026841"/><g><path d="m80.222 328.833c13.476-8.567 29.29-13.766 46.25-14.422.876-8.458.013-17.233-2.84-25.828-6.63-19.974-22.46-34.303-41.218-39.856-2.035-.602-4.25.133-5.521 1.833-11.713 15.668-15.831 36.619-9.201 56.593 2.747 8.27 7.075 15.568 12.53 21.68z" fill="#80d261"/><path d="m80.222 328.833c5.127-3.259 10.593-6.029 16.33-8.249-2.587-4.121-4.734-8.607-6.335-13.431-6.039-18.191-3.159-37.191 6.251-52.274-4.41-2.613-9.126-4.693-14.053-6.151-2.035-.602-4.25.133-5.521 1.833-11.713 15.668-15.831 36.619-9.201 56.593 2.746 8.269 7.074 15.567 12.529 21.679z" fill="#68ca44"/><path d="m95.447 321.022c4.607-1.852 9.394-3.346 14.328-4.448l-6.826-20.563c-1.306-3.931-5.548-6.061-9.481-4.755-3.931 1.305-6.06 5.55-4.755 9.481z" fill="#017b4e"/></g><g><g><g><path d="m338.573 309.213c-16.759 0-32.49 4.382-46.125 12.05 29.573 13.001 51.194 40.752 55.553 73.94h48.551l-.172-1.148c-.202-1.344-.305-2.68-.305-3.972 0-14.786 12.029-26.815 26.815-26.815.315 0 .628.013.94.024-15.085-31.956-47.576-54.079-85.257-54.079z" fill="#fac600"/><path d="m396.074 390.082c0-5.631 1.749-10.86 4.726-15.179-10.847-23.545-34.649-39.936-62.228-39.936-7.101 0-13.945 1.103-20.389 3.118 15.942 14.603 26.86 34.601 29.817 57.118h48.551l-.172-1.148c-.202-1.345-.305-2.681-.305-3.973z" fill="#fedf74"/></g><path d="m338.573 360.722c-.744 0-1.482.024-2.217.062 5.96 10.395 10.017 22.021 11.645 34.419h32.515c-3.865-19.628-21.199-34.481-41.943-34.481z" fill="#fac600"/></g><g><path d="m71.95 373.381c.187-.299.366-.589.56-.896 12.23-20.001 34.238-32.397 57.609-32.397 16.846 0 32.992 6.269 45.463 17.652l.878.801.639-1.002c4.686-7.352 10.278-13.892 16.571-19.529-16.76-15.317-39.057-24.677-63.552-24.677-36.169 0-67.565 20.379-83.37 50.273 1.383-.221 2.8-.339 4.245-.339 8.476 0 16.04 3.956 20.957 10.114z" fill="#fac600"/></g><g><path d="m77.809 390.082c0 1.292-.102 2.629-.303 3.972l-.172 1.148h271.918c-6.068-46.202-45.592-81.869-93.45-81.869-33.44 0-62.811 17.415-79.544 43.668-12.184-11.12-28.382-17.913-46.138-17.913-24.986 0-46.873 13.455-58.835 33.493 4.059 4.7 6.524 10.816 6.524 17.501z" fill="#fed402"/><path d="m78.33 395.203c.309-1.661.479-3.371.479-5.121 0-15.362-12.453-27.815-27.815-27.815s-27.815 12.453-27.815 27.815c0 1.75.169 3.46.479 5.121z" fill="#fd4755"/><path d="m40.15 395.203c-.31-1.662-.488-3.369-.488-5.121 0-12.492 8.236-23.06 19.573-26.573-2.604-.807-5.372-1.242-8.241-1.242-15.362 0-27.815 12.453-27.815 27.815 0 1.75.169 3.46.479 5.121z" fill="#fb2b3a"/><path d="m450.226 395.203c.309-1.661.479-3.371.479-5.121 0-15.362-12.453-27.815-27.815-27.815s-27.815 12.453-27.815 27.815c0 1.75.169 3.46.479 5.121z" fill="#fd4755"/><path d="m416.168 395.203c-.31-1.662-.49-3.369-.49-5.121 0-11.721 7.253-21.741 17.513-25.836-3.187-1.272-6.661-1.979-10.302-1.979-15.362 0-27.815 12.453-27.815 27.815 0 1.75.169 3.46.479 5.121z" fill="#fb2b3a"/><path d="m171.034 395.203c-5.326-17.549-21.649-30.36-40.915-30.36-19.265 0-35.589 12.811-40.915 30.36z" fill="#fac600"/><path d="m323.164 395.203c-5.851-31.877-33.821-56.115-67.363-56.115s-61.512 24.238-67.363 56.115z" fill="#fedf74"/><path d="m296.716 395.203c-5.326-17.549-21.649-30.36-40.915-30.36-19.265 0-35.589 12.811-40.915 30.36z" fill="#fac600"/></g></g><g><path d="m44.449 426.612 22.851 36.601c1.882 3.014 5.185 4.846 8.739 4.846h321.407c3.554 0 6.857-1.832 8.739-4.846l22.851-36.601z" fill="#d8ecfe"/><path d="m114.373 463.213-22.851-36.601h-47.073l22.851 36.601c1.882 3.014 5.185 4.846 8.739 4.846h47.072c-3.553 0-6.856-1.832-8.738-4.846z" fill="#c4e2ff"/><path d="m456.781 427.612h-440.076c-9.226 0-16.705-7.479-16.705-16.705 0-9.226 7.479-16.705 16.705-16.705h440.076c9.226 0 16.705 7.479 16.705 16.705-.001 9.226-7.48 16.705-16.705 16.705z" fill="#eaf6ff"/><path d="m57.573 410.907c0-9.226 7.479-16.705 16.705-16.705h-57.573c-9.226.001-16.705 7.48-16.705 16.705 0 9.226 7.479 16.705 16.705 16.705h57.573c-9.226 0-16.705-7.479-16.705-16.705z" fill="#d8ecfe"/></g></g></svg>