<svg id="Capa_1" enable-background="new 0 0 512 512" height="512" viewBox="0 0 512 512" width="512" xmlns="http://www.w3.org/2000/svg"><g><path d="m439.858 308.166c-116.79 53.245-250.926 53.245-367.716 0l-19.76 34.226c4.82 2.126 9.166 5.312 12.676 9.415 47.843 55.931 117.439 88.01 190.943 88.01s143.1-32.078 190.943-88.01c3.51-4.103 7.856-7.289 12.676-9.415z" fill="#fef0ae"/><path d="m264.908 5.143c-3.959-6.858-13.857-6.858-17.816 0l-174.95 303.023c43.773 57.735 109.883 94.517 183.858 94.517s140.085-36.782 183.858-94.517z" fill="#fedf74"/><g fill="#fed402"><path d="m174.169 176.132c10.487 0 20.207-3.266 28.216-8.824l21.163-36.655c.11-1.347.181-2.705.181-4.08 0-17.469-9.047-32.816-22.702-41.642l-49.493 85.725c6.787 3.492 14.477 5.476 22.635 5.476z"/><path d="m174.169 209.557c-14.247 0-27.654-3.595-39.369-9.92l-62.658 108.529c9.047 11.933 19.063 22.955 29.891 32.958l76.016-131.664c-1.287.058-2.579.097-3.88.097z"/><path d="m264.908 5.143c-3.959-6.858-13.857-6.858-17.817 0l-29.337 50.813c12.759 7.892 23.214 19.145 30.143 32.52l27.335-47.346c1.718-2.975 4.554-4.655 7.537-5.049z"/></g><path d="m394.611 229.796c-8.797 1.857-17.174 6.195-24.005 13.026-17.059 17.059-18.609 43.755-4.649 62.565 2.253 3.037 6.7 3.333 9.374.66l12.358-12.359c2.427-2.427 6.363-2.427 8.79 0l8.003 8.002c2.427 2.427 6.362 2.427 8.79 0l14.485-14.485z" fill="#d88a55"/><g><path d="m389.58 247.378c3.219-3.219 6.789-5.863 10.577-7.976l-5.546-9.606c-8.796 1.857-17.174 6.194-24.006 13.026-17.059 17.059-18.609 43.755-4.649 62.565 2.253 3.037 6.7 3.333 9.374.66l4.585-4.586c-8.175-17.75-4.961-39.457 9.665-54.083z" fill="#c57a44"/></g><path d="m217.755 55.956-16.729 28.974c13.656 8.826 22.702 24.173 22.702 41.642 0 27.371-22.188 49.559-49.559 49.559-8.158 0-15.849-1.984-22.636-5.476l-16.733 28.982c11.715 6.326 25.121 9.92 39.369 9.92 45.831 0 82.985-37.154 82.985-82.985.001-29.841-15.758-55.992-39.399-70.616z" fill="#017b4e"/><path d="m123.068 287.863c0-14.121-8.917-26.158-21.426-30.793l-29.5 51.095c2.92 3.851 5.946 7.601 9.06 11.261 2.871.821 5.901 1.267 9.036 1.267 18.131 0 32.83-14.699 32.83-32.83z" fill="#fb2b3a"/><path d="m310.19 83.573c-12.736 4.515-21.861 16.662-21.861 30.946 0 18.132 14.699 32.83 32.83 32.83 8.136 0 15.575-2.966 21.31-7.867z" fill="#fb2b3a"/><path d="m304.883 114.519c0-9.115 3.726-17.348 9.724-23.295l-4.417-7.651c-12.736 4.515-21.861 16.662-21.861 30.946 0 18.132 14.698 32.83 32.83 32.83 2.855 0 5.622-.373 8.262-1.059-14.116-3.673-24.538-16.504-24.538-31.771z" fill="#e41f2d"/><g><path d="m256 512c-94.63 0-184.22-41.286-245.797-113.271-13.141-15.363-11.341-38.472 4.022-51.614 15.365-13.14 38.472-11.34 51.614 4.022 47.648 55.703 116.958 87.649 190.16 87.649s142.513-31.947 190.16-87.649c13.143-15.363 36.252-17.162 51.614-4.022 15.363 13.143 17.164 36.251 4.022 51.614-61.575 71.985-151.165 113.271-245.795 113.271z" fill="#ea9b58"/></g><g><path d="m53.354 412.202c-13.141-15.363-11.341-38.472 4.022-51.614 3.373-2.885 7.119-5.048 11.051-6.507-.864-.979-1.737-1.949-2.588-2.943-13.143-15.362-36.249-17.162-51.614-4.022-15.363 13.143-17.164 36.251-4.022 51.614 45.07 52.688 105.149 88.926 171.227 104.57-48.938-19.131-93.042-50.143-128.076-91.098z" fill="#d88a55"/></g><path d="m230.294 300.905c2.299 2.299 6.122 2.044 8.06-.567 12.003-16.173 10.67-39.126-3.997-53.793s-37.621-16-53.793-3.997c-2.611 1.938-2.866 5.761-.567 8.06l10.626 10.626c2.087 2.087 2.087 5.47 0 7.557l-6.88 6.88c-2.087 2.087-2.087 5.47 0 7.557l13.932 13.931c2.087 2.087 5.47 2.087 7.557 0l6.88-6.88c2.087-2.087 5.471-2.087 7.557 0z" fill="#d88a55"/><g><path d="m205.683 283.228c-2.087-2.087-2.087-5.47 0-7.557l6.88-6.88c2.087-2.087 2.087-5.47 0-7.557l-10.626-10.626c-2.299-2.299-2.044-6.122.567-8.06 4.17-3.095 8.793-5.296 13.606-6.618-11.987-3.289-25.164-1.089-35.549 6.618-2.611 1.938-2.866 5.761-.567 8.06l10.626 10.626c2.087 2.087 2.087 5.47 0 7.557l-6.881 6.88c-2.087 2.087-2.087 5.47 0 7.557l13.932 13.931c2.087 2.087 5.471 2.087 7.557 0l6.88-6.88c.107-.107.23-.185.343-.28z" fill="#c57a44"/></g><path d="m295.658 326.931c12.479 12.479 28.626 19.041 44.971 19.712 2.75.113 5.123-1.91 5.39-4.65l1.646-16.858c.289-2.957-1.976-5.595-4.946-5.645-10.088-.173-20.123-4.101-27.821-11.799-8.091-8.091-12.019-18.762-11.797-29.365.065-3.106-2.552-5.589-5.644-5.287l-16.918 1.652c-2.623.256-4.674 2.45-4.651 5.085.153 17.084 6.736 34.12 19.77 47.155z" fill="#017b4e"/><circle cx="309.403" cy="210.414" fill="#fb2b3a" r="32.83"/><path d="m298.514 210.414c0-14.283 9.124-26.43 21.86-30.946-3.431-1.216-7.122-1.885-10.97-1.885-18.132 0-32.831 14.699-32.831 32.83 0 18.132 14.699 32.83 32.831 32.83 3.848 0 7.539-.668 10.97-1.885-12.736-4.513-21.86-16.66-21.86-30.944z" fill="#e41f2d"/><path d="m253.705 332.676c-.703-2.624-3.32-4.238-5.988-3.725-6.076 1.168-11.878 4.102-16.583 8.806-4.704 4.704-7.638 10.507-8.806 16.583-.513 2.668 1.101 5.284 3.725 5.988l29.154 7.812c3.83 1.026 7.335-2.479 6.309-6.309z" fill="#fe9901"/><path d="m152.684 350.176c.68 2.537 3.168 4.211 5.756 3.76 6.773-1.178 13.262-4.379 18.492-9.61 5.23-5.23 8.432-11.719 9.61-18.492.45-2.588-1.223-5.076-3.76-5.756l-32.496-8.707c-3.83-1.026-7.335 2.479-6.309 6.309z" fill="#fe9901"/><circle cx="262.697" cy="55.606" fill="#fb8801" r="7.5"/><circle cx="296.694" cy="363.646" fill="#017b4e" r="7.5"/><g fill="#fb8801"><circle cx="248.273" cy="207.05" r="7.5"/><circle cx="142.159" cy="247.23" r="7.5"/></g></g></svg>