<svg id="Capa_1" enable-background="new 0 0 512 512" height="512" viewBox="0 0 512 512" width="512" xmlns="http://www.w3.org/2000/svg"><g><g><path d="m362.797 191.234c8.493-10.149 7.976-25.283-1.56-34.82-4.226-4.226-9.553-6.675-15.058-7.36-.685-5.505-3.134-10.832-7.36-15.058-10.088-10.088-26.445-10.088-36.533 0-7.8 7.801-9.564 19.346-5.302 28.846-1.811 1.077-3.519 2.393-5.077 3.951-6.627 6.627-8.9 15.958-6.821 24.441z" fill="#fedf74"/><path d="m238.754 164.956c-.483 1.899-.741 3.888-.741 5.937 0 8.57 4.491 16.087 11.244 20.34h25.567c6.753-4.253 11.243-11.77 11.243-20.34 0-2.049-.258-4.038-.741-5.937 9.051-3.445 15.485-12.198 15.485-22.458 0-13.27-10.757-24.027-24.027-24.027-5.559 0-10.673 1.893-14.744 5.063-4.071-3.169-9.185-5.063-14.744-5.063-13.27 0-24.027 10.757-24.027 24.027 0 10.26 6.434 19.013 15.485 22.458z" fill="#fed402"/><path d="m181.632 171.347c.088 1.958.417 3.936 1.011 5.897 1.873 6.187 6.019 11.059 11.245 13.989h23.516c9.624-5.393 14.561-16.915 11.233-27.909-.594-1.962-1.417-3.79-2.429-5.468 7.665-5.919 11.288-16.16 8.315-25.981-3.844-12.701-17.256-19.881-29.957-16.037-5.321 1.61-9.667 4.904-12.645 9.116-4.815-1.854-10.258-2.185-15.578-.575-12.701 3.844-19.881 17.256-16.037 29.957 2.972 9.822 11.665 16.336 21.326 17.011z" fill="#fef0ae"/><g><path d="m191.563 191.234c7.773-9.438 7.252-23.416-1.572-32.24-9.383-9.383-24.596-9.383-33.979 0-.436.436-.845.889-1.24 1.349-8.707-3.597-19.098-1.861-26.175 5.216-6.943 6.943-8.734 17.073-5.402 25.676h68.368z" fill="#fedf74"/></g><g><path d="m145.571 165.558c2.493-2.493 5.401-4.308 8.498-5.476-8.559-3.225-18.583-1.412-25.472 5.476-6.943 6.943-8.734 17.073-5.402 25.676h16.974c-3.332-8.603-1.541-18.733 5.402-25.676z" fill="#fed402"/></g><g><path d="m257.229 191.234c7.773-9.438 7.252-23.416-1.572-32.24-9.383-9.383-24.596-9.383-33.979 0-.436.436-.845.889-1.24 1.349-8.707-3.597-19.098-1.861-26.175 5.216-6.943 6.943-8.734 17.073-5.402 25.676h68.368z" fill="#fff"/></g><g><path d="m206.026 165.558c3.187-3.187 7.047-5.28 11.121-6.302-7.931-2-16.682.098-22.885 6.302-6.943 6.943-8.734 17.073-5.402 25.676h11.764c-3.331-8.603-1.541-18.733 5.402-25.676z" fill="#eaf6ff"/></g><g><path d="m326.461 191.234c2.031-3.525 3.195-7.613 3.195-11.974 0-13.27-10.757-24.027-24.027-24.027-5.559 0-10.673 1.893-14.744 5.063-4.071-3.169-9.185-5.063-14.744-5.063-13.27 0-24.027 10.757-24.027 24.027 0 4.361 1.164 8.449 3.195 11.974z" fill="#fef0ae"/></g><g><path d="m283.563 156.421c-2.339-.761-4.829-1.188-7.422-1.188-13.27 0-24.027 10.757-24.027 24.027 0 4.361 1.164 8.449 3.195 11.974h14.886c-2.031-3.525-3.195-7.613-3.195-11.974 0-10.663 6.949-19.699 16.563-22.839z" fill="#fedf74"/></g></g><g><path d="m214.504 3.998c-11.063-7.328-25.972-4.299-33.299 6.764-3.07 4.635-4.315 9.944-3.921 15.088-4.89 1.644-9.293 4.862-12.362 9.497-7.327 11.063-4.299 25.972 6.764 33.299 8.344 5.526 18.873 5.159 26.689-.099.479.372.97.734 1.484 1.075 11.063 7.327 25.972 4.299 33.299-6.764s4.299-25.972-6.764-33.299c-.514-.341-1.039-.651-1.569-.947 1.792-9.25-1.978-19.088-10.321-24.614z" fill="#fef0ae"/></g><path d="m177.998 41.347c3.07-4.635 7.472-7.853 12.362-9.497-.395-5.144.851-10.453 3.921-15.088 5.216-7.876 14.274-11.675 23.052-10.569-.876-.789-1.817-1.525-2.829-2.195-11.063-7.328-25.972-4.299-33.299 6.764-3.07 4.635-4.315 9.943-3.921 15.088-4.891 1.644-9.293 4.862-12.362 9.497-7.327 11.063-4.299 25.972 6.764 33.299 3.186 2.11 6.691 3.355 10.241 3.802-8.695-7.831-10.585-21.052-3.929-31.101z" fill="#fedf74"/><g><path d="m424.464 83.263c-2.642-13.004-15.325-21.405-28.329-18.763-5.448 1.107-10.082 3.98-13.441 7.896-4.62-2.296-10.009-3.133-15.457-2.026-13.004 2.642-21.405 15.325-18.763 28.329 1.992 9.808 9.697 16.993 18.942 18.802.076.602.167 1.205.289 1.809 2.642 13.004 15.325 21.405 28.329 18.763s21.405-15.325 18.763-28.329c-.123-.604-.274-1.195-.439-1.779 7.808-5.272 12.099-14.894 10.106-24.702z" fill="#fedf74"/></g><g><path d="m380.717 112.296c-.123-.604-.214-1.207-.289-1.809-9.245-1.809-16.95-8.994-18.942-18.802-1.626-8.007.938-15.888 6.18-21.383-.143.026-.285.039-.428.068-13.004 2.642-21.405 15.325-18.763 28.329 1.992 9.808 9.697 16.993 18.942 18.802.076.602.167 1.205.289 1.809 2.642 13.004 15.325 21.405 28.329 18.763 4.993-1.014 9.303-3.513 12.574-6.937-12.849 2.368-25.28-5.982-27.892-18.84z" fill="#fed402"/></g><g><circle cx="301.328" cy="55.115" fill="#fef0ae" r="18.543"/></g><path d="m295.913 55.115c0-7.927 4.983-14.672 11.979-17.325-2.043-.775-4.25-1.218-6.564-1.218-10.241 0-18.543 8.302-18.543 18.543s8.302 18.543 18.543 18.543c2.315 0 4.521-.443 6.564-1.218-6.996-2.653-11.979-9.399-11.979-17.325z" fill="#fedf74"/><g><circle cx="105.594" cy="106.624" fill="#fedf74" r="18.543"/></g><path d="m100.913 106.624c0-7.789 4.807-14.444 11.612-17.191-2.143-.865-4.479-1.352-6.932-1.352-10.241 0-18.543 8.302-18.543 18.543s8.302 18.543 18.543 18.543c2.453 0 4.789-.487 6.932-1.352-6.804-2.747-11.612-9.403-11.612-17.191z" fill="#fed402"/><g><path d="m113.757 224.374 23.925 202.802 2.943.428c70.154 10.209 141.427 10.065 211.54-.428l24.435-202.802z" fill="#fb2b3a"/><path d="m113.757 224.374 23.925 202.802h28.002l-23.925-202.802z" fill="#e41f2d"/><g><path d="m307.027 428.176 14.21-203.802h-152.112l13.914 203.802z" fill="#fff"/></g><g><path d="m245.185 262.696c8.472 0 16.52 1.794 23.806 5.002l.962-42.325h-49.539l.942 42.335c7.292-3.214 15.349-5.012 23.829-5.012z" fill="#fb2b3a"/><g><path d="m265.344 428.176 1.163-51.151c-6.617 2.559-13.801 3.977-21.321 3.977-7.549 0-14.759-1.429-21.397-4.007l1.139 51.181z" fill="#fb2b3a"/></g></g><g><path d="m380.426 225.373h-270.481c-9.704 0-17.57-7.866-17.57-17.57 0-9.704 7.866-17.57 17.57-17.57h270.481c9.704 0 17.57 7.866 17.57 17.57-.001 9.704-7.867 17.57-17.57 17.57z" fill="#eaf6ff"/></g><g><path d="m131.865 207.804c0-9.703 7.866-17.57 17.57-17.57h-39.49c-9.703 0-17.57 7.866-17.57 17.57s7.866 17.57 17.57 17.57h39.49c-9.704-.001-17.57-7.867-17.57-17.57z" fill="#d8ecfe"/></g><g><path d="m137.682 427.176 9.471 80.277c.306 2.593 2.504 4.548 5.115 4.548h185.109c2.607 0 4.802-1.947 5.114-4.535l9.674-80.29z" fill="#fedf74"/></g><g><path d="m175.127 507.452-9.471-80.277h-27.974l9.471 80.277c.306 2.593 2.504 4.548 5.115 4.548h27.974c-2.611 0-4.809-1.954-5.115-4.548z" fill="#fed402"/></g><g><circle cx="245.185" cy="321.849" fill="#fedf74" r="59.153"/></g><g><path d="m219.596 321.849c0-26.838 17.879-49.487 42.371-56.723-5.322-1.572-10.95-2.43-16.782-2.43-32.669 0-59.153 26.484-59.153 59.153s26.484 59.153 59.153 59.153c5.831 0 11.46-.858 16.782-2.43-24.492-7.236-42.371-29.885-42.371-56.723z" fill="#fed402"/></g></g></g></svg>