<svg id="Capa_1" enable-background="new 0 0 512 512" height="512" viewBox="0 0 512 512" width="512" xmlns="http://www.w3.org/2000/svg"><g><g><path d="m287.716 170.252c-.025-.945-.078-1.896-.17-2.855-1.887-19.574-18.043-35.071-37.679-36.14-9.008-.49-17.408 1.999-24.315 6.566-3.536 2.338-7.892 2.961-11.991 1.879-3.266-.862-6.694-1.323-10.231-1.323-19.328 0-35.459 13.673-39.257 31.873z" fill="#fed2a4"/><path d="m191.881 170.252c3.014-14.439 13.797-26.024 27.776-30.196-2.01.292-4.084.177-6.097-.354-3.266-.862-6.694-1.323-10.231-1.323-19.328 0-35.459 13.673-39.257 31.873z" fill="#ffbd86"/><path d="m477.367 169.252h-320.356c-4.706 0-7.841 4.891-5.854 9.157 6.613 14.193 16.862 26.35 29.548 35.273 5.31-2.366 11.099-3.617 17.033-3.617 7.203 0 14.312 1.865 20.555 5.394 1.758.994 3.75 1.52 5.761 1.52 2.01 0 4.002-.525 5.76-1.52 6.243-3.528 13.352-5.394 20.555-5.394 9.073 0 17.808 2.923 25.009 8.293 7.163-4.05 13.713-9.06 19.465-14.864 3.688-3.722 8.654-5.898 13.894-5.898h169.102c7.916 0 14.315-6.489 14.17-14.438-.144-7.801-6.838-13.906-14.642-13.906z" fill="#acc7e4"/><path d="m180.706 213.682c5.31-2.366 11.099-3.617 17.032-3.617 7.203 0 14.312 1.865 20.555 5.394.107.061.223.103.332.16-14.024-9.059-25.339-21.953-32.448-37.21-1.988-4.266 1.148-9.157 5.854-9.157h-35.02c-4.706 0-7.841 4.891-5.854 9.157 6.614 14.193 16.863 26.35 29.549 35.273z" fill="#8fb0c5"/></g><g><g><path d="m213.484 115.513c-4.143 0-7.5-3.357-7.5-7.5v-9.607c0-13.5 10.982-24.482 24.482-24.482h35.941c5.229 0 9.482-4.254 9.482-9.482s-4.254-9.482-9.482-9.482h-68.692c-15.152 0-27.479-12.327-27.479-27.479 0-15.154 12.327-27.481 27.48-27.481h30.861c4.143 0 7.5 3.357 7.5 7.5s-3.357 7.5-7.5 7.5h-30.861c-6.881 0-12.479 5.599-12.479 12.479s5.599 12.479 12.479 12.479h68.692c13.5 0 24.482 10.982 24.482 24.482s-10.982 24.482-24.482 24.482h-35.941c-5.229 0-9.482 4.254-9.482 9.482v9.607c-.001 4.144-3.358 7.502-7.501 7.502z" fill="#fdb441"/></g><g><path d="m297.356 15h-32.354c-4.143 0-7.5-3.357-7.5-7.5s3.357-7.5 7.5-7.5h32.354c4.143 0 7.5 3.357 7.5 7.5s-3.357 7.5-7.5 7.5z" fill="#fdb441"/></g></g><g><g><path d="m100.601 214.917c5.472 5.473 9.62 11.908 12.331 19.13l.565 1.504 1.1-1.171c5.786-6.159 13.057-10.305 21.05-12.137 5.546-12.597-3.612-27.243-17.854-27.243-10.734 0-18.584 8.321-19.427 17.812.759.68 1.507 1.378 2.235 2.105z" fill="#017b4e"/><path d="m49.593 293.713h12.839c.677-.241 1.351-.512 2.018-.836 1.193-8.821 4.932-17.085 10.918-23.895l.893-1.015-1.231-.557c-5.941-2.686-11.296-6.39-15.914-11.008-.124-.124-.241-.252-.364-.377-11.163-1.61-22.222 6.924-22.222 19.3-.001 8.892 5.71 15.797 13.063 18.388z" fill="#017b4e"/><g><path d="m98.29 254.896c3.534-.905 6.417-3.462 7.711-6.838 1.917-4.998 4.756-9.485 8.275-13.297-2.63-7.478-6.95-14.531-12.968-20.55-15.291-15.29-37.251-19.668-55.915-13.015-6.653 18.664-2.276 40.624 13.015 55.914 5.105 5.105 10.956 8.987 17.177 11.655 5.864-6.606 13.658-11.552 22.705-13.869z" fill="#80d261"/><path d="m72.672 249.345c-13.953-13.953-18.813-33.458-14.503-50.945-4.348.392-8.642 1.322-12.775 2.796-6.653 18.664-2.276 40.624 13.015 55.914 5.105 5.105 10.956 8.987 17.177 11.655 3.207-3.613 6.994-6.723 11.245-9.184-5.094-2.564-9.89-5.966-14.159-10.236z" fill="#68ca44"/><path d="m91.024 257.434c2.316-1.035 4.741-1.892 7.266-2.539 2.766-.708 5.121-2.438 6.639-4.771l-21.767-21.767c-2.93-2.928-7.678-2.928-10.607 0-2.929 2.93-2.929 7.678 0 10.607z" fill="#4fc123"/></g><path d="m384.771 293.713c-2.212-19.331-16.255-35.06-34.706-39.786-3.197-.819-5.843-3.146-7.025-6.227-6.174-16.1-21.77-27.531-40.042-27.531-4.662 0-9.147.749-13.347 2.127-3.603 1.183-7.596.517-10.398-2.038-7.621-6.951-17.756-11.191-28.884-11.191-7.651 0-14.829 2.009-21.046 5.523-3.278 1.852-7.259 1.852-10.537 0-6.217-3.514-13.395-5.523-21.046-5.523-11.127 0-21.263 4.24-28.884 11.191-2.802 2.556-6.794 3.221-10.398 2.038-4.2-1.379-8.685-2.127-13.347-2.127-18.273 0-33.868 11.432-40.042 27.531-1.182 3.082-3.828 5.408-7.025 6.227-18.452 4.726-32.494 20.455-34.706 39.786z" fill="#fed2a4"/><path d="m93.958 293.713c4.395-18.629 18.879-33.357 37.376-38.094 3.54-.907 6.47-3.483 7.778-6.895 4.39-11.447 13.085-20.755 24.1-25.956-1.574.182-3.199.037-4.755-.473-4.2-1.379-8.686-2.127-13.348-2.127-18.273 0-33.868 11.432-40.042 27.531-1.182 3.082-3.828 5.408-7.025 6.227-18.452 4.726-32.494 20.455-34.706 39.786h30.622z" fill="#ffbd86"/><g><path d="m194.398 271.993h-11.652c-4.143 0-7.5-3.357-7.5-7.5s3.357-7.5 7.5-7.5h11.652c4.143 0 7.5 3.357 7.5 7.5s-3.357 7.5-7.5 7.5z" fill="#fff3de"/></g><g><path d="m250.295 252.38h-11.653c-4.143 0-7.5-3.357-7.5-7.5s3.357-7.5 7.5-7.5h11.653c4.143 0 7.5 3.357 7.5 7.5s-3.357 7.5-7.5 7.5z" fill="#fff3de"/></g><g><path d="m130.97 272.935c-1.919 0-3.839-.732-5.304-2.196-2.929-2.93-2.929-7.678 0-10.607l8.24-8.24c2.93-2.928 7.678-2.928 10.607 0 2.929 2.93 2.929 7.678 0 10.607l-8.24 8.24c-1.464 1.463-3.384 2.196-5.303 2.196z" fill="#fff3de"/></g><g><path d="m310.781 270.948c-1.92 0-3.839-.732-5.304-2.197l-8.239-8.24c-2.929-2.929-2.929-7.678.001-10.606 2.929-2.929 7.678-2.928 10.606.001l8.239 8.24c2.929 2.929 2.929 7.678-.001 10.606-1.463 1.464-3.383 2.196-5.302 2.196z" fill="#fff3de"/></g></g><path d="m285.824 467.399h-150.043c-.069-.03-.137-.063-.206-.093v34.786c0 5.472 4.436 9.907 9.907 9.907h130.641c5.472 0 9.907-4.436 9.907-9.907v-34.786c-.069.03-.137.064-.206.093z" fill="#fd4755"/><path d="m174.571 502.093v-34.693h-38.79c-.069-.03-.137-.063-.206-.093v34.786c0 5.472 4.436 9.907 9.907 9.907h38.996c-5.471 0-9.907-4.436-9.907-9.907z" fill="#fb2b3a"/><g><path d="m286.03 468.399h-150.455c-65.114-27.918-111.591-90.968-115.57-165.309-.302-5.647 4.246-10.377 9.901-10.377h361.794c5.655 0 10.203 4.729 9.901 10.377-3.98 74.341-50.457 137.391-115.571 165.309z" fill="#fe646f"/></g><g><path d="m64.212 303.09c-.302-5.647 4.246-10.377 9.901-10.377h-44.207c-5.655 0-10.203 4.729-9.901 10.377 3.979 74.342 50.456 137.391 115.57 165.309h44.207c-65.114-27.918-111.591-90.968-115.57-165.309z" fill="#fd4755"/></g></g></g></svg>