<svg id="Capa_1" enable-background="new 0 0 512 512" height="512" viewBox="0 0 512 512" width="512" xmlns="http://www.w3.org/2000/svg"><g><g><path d="m33.481 360.602v33.664c0 2.845 2.306 5.151 5.151 5.151h91.686c2.845 0 5.151-2.306 5.151-5.151v-33.664z" fill="#883f2e"/><path d="m74.688 394.266v-33.664h-41.207v33.664c0 2.845 2.306 5.151 5.151 5.151h41.207c-2.845 0-5.151-2.306-5.151-5.151z" fill="#6d3326"/><path d="m376.531 360.602v33.664c0 2.845 2.306 5.151 5.151 5.151h91.686c2.845 0 5.151-2.306 5.151-5.151v-33.664z" fill="#883f2e"/><path d="m417.738 394.266v-33.664h-41.207v33.664c0 2.845 2.306 5.151 5.151 5.151h41.207c-2.845 0-5.151-2.306-5.151-5.151z" fill="#6d3326"/></g><g><g><path d="m40.906 333.225h114.872l-2.362-1.796c-10.053-7.644-17.126-18.662-19.917-31.026-2.914-12.914-.815-26.441 5.911-38.091l60.547-104.871-10.249-17.751c-20.866-36.141-73.032-36.141-93.898 0l-70.507 122.121c-14.872 25.759-5.891 56.103 15.603 71.414z" fill="#eaf6ff"/><path d="m95.81 139.689-70.507 122.122c-14.872 25.759-5.89 56.103 15.604 71.414h34.065c-17.141-12.21-26.309-33.98-21.783-55.361-3.719-.444-6.604-3.603-6.604-7.442 0-4.142 3.357-7.5 7.5-7.5h4.677c.203-.37.394-.743.606-1.111l70.507-122.122c7.138-12.363 17.938-20.492 29.894-24.393-22.989-7.49-50.238.628-63.959 24.393z" fill="#d8ecfe"/><path d="m155.778 333.225-2.362-1.796c-10.053-7.644-17.126-18.662-19.917-31.026-2.914-12.914-.815-26.441 5.911-38.091l17.531-30.365h-56.911c-2.973 0-5.384 2.41-5.384 5.384v95.894z" fill="#017b4e"/></g><g><path d="m372.591 262.311c6.726 11.65 8.824 25.178 5.91 38.091-2.791 12.364-9.864 23.382-19.917 31.026l-2.362 1.796h114.872c21.494-15.311 30.476-45.654 15.604-71.413l-70.508-122.122c-20.866-36.141-73.032-36.141-93.898 0l-10.249 17.751z" fill="#eaf6ff"/><g><path d="m331.129 188.498 28.18-48.809c6.845-11.857 17.068-19.797 28.441-23.875-23.293-8.351-51.437-.41-65.458 23.875l-9.671 16.751z" fill="#d8ecfe"/></g><path d="m372.591 262.311c6.726 11.65 8.824 25.178 5.91 38.091-2.791 12.364-9.864 23.382-19.917 31.026l-2.362 1.796h61.132v-95.894c0-2.974-2.41-5.384-5.384-5.384h-56.911z" fill="#017b4e"/></g><g><path d="m154.148 333.225h203.704c21.495-15.311 30.477-45.655 15.604-71.414l-70.508-122.122c-20.866-36.141-73.032-36.141-93.898 0l-70.507 122.122c-14.871 25.759-5.89 56.103 15.605 71.414z" fill="#fed2a4"/><path d="m209.051 139.689-70.507 122.122c-14.872 25.759-5.89 56.103 15.604 71.414h39.295c-14.092-10.038-22.805-26.538-22.944-43.971-.001 0-.003 0-.004 0h-5.151c-4.143 0-7.5-3.358-7.5-7.5s3.357-7.5 7.5-7.5h5.151c.685 0 1.346.1 1.977.272 1.205-4.302 2.973-8.568 5.367-12.715l53.05-91.885c-2.39-1.254-4.023-3.756-4.023-6.642 0-4.142 3.357-7.5 7.5-7.5h4.688l9.292-16.095c6.617-11.461 16.386-19.274 27.301-23.466-23.506-9.028-52.347-1.214-66.596 23.466z" fill="#ffbd86"/><path d="m304.113 333.225v-95.895c0-2.974-2.411-5.384-5.384-5.384h-85.458c-2.974 0-5.384 2.41-5.384 5.384v95.895z" fill="#017b4e"/><path d="m236.007 333.225v-95.895c0-2.974 2.411-5.384 5.384-5.384h-28.12c-2.973 0-5.384 2.411-5.384 5.384v95.895z" fill="#026841"/></g><g><path d="m239.518 170.784h-5.151c-4.143 0-7.5-3.358-7.5-7.5s3.357-7.5 7.5-7.5h5.151c4.143 0 7.5 3.358 7.5 7.5s-3.358 7.5-7.5 7.5z" fill="#fff"/></g><g><path d="m279.694 202.719h-5.151c-4.143 0-7.5-3.358-7.5-7.5s3.357-7.5 7.5-7.5h5.151c4.143 0 7.5 3.358 7.5 7.5s-3.357 7.5-7.5 7.5z" fill="#fff"/></g><g><path d="m170.495 289.254h-5.151c-4.143 0-7.5-3.358-7.5-7.5s3.357-7.5 7.5-7.5h5.151c4.143 0 7.5 3.358 7.5 7.5s-3.357 7.5-7.5 7.5z" fill="#fff"/></g><g><path d="m335.324 266.59h-5.151c-4.143 0-7.5-3.358-7.5-7.5s3.357-7.5 7.5-7.5h5.151c4.143 0 7.5 3.358 7.5 7.5s-3.357 7.5-7.5 7.5z" fill="#fff"/></g><g><path d="m452.765 278.953h-5.151c-4.143 0-7.5-3.358-7.5-7.5s3.357-7.5 7.5-7.5h5.151c4.143 0 7.5 3.358 7.5 7.5s-3.358 7.5-7.5 7.5z" fill="#fff"/></g><g><path d="m59.235 277.922h-5.15c-4.143 0-7.5-3.358-7.5-7.5s3.357-7.5 7.5-7.5h5.15c4.143 0 7.5 3.358 7.5 7.5s-3.357 7.5-7.5 7.5z" fill="#fff"/></g><g><path d="m402.286 199.629h-5.151c-4.143 0-7.5-3.358-7.5-7.5s3.357-7.5 7.5-7.5h5.151c4.143 0 7.5 3.358 7.5 7.5s-3.357 7.5-7.5 7.5z" fill="#fff"/></g><g><path d="m365.199 165.633h-5.151c-4.143 0-7.5-3.358-7.5-7.5s3.357-7.5 7.5-7.5h5.151c4.143 0 7.5 3.358 7.5 7.5s-3.357 7.5-7.5 7.5z" fill="#fff"/></g><g><path d="m141.649 159.452h-5.15c-4.143 0-7.5-3.358-7.5-7.5s3.357-7.5 7.5-7.5h5.15c4.143 0 7.5 3.358 7.5 7.5s-3.357 7.5-7.5 7.5z" fill="#fff"/></g><g><path d="m116.926 200.659h-5.151c-4.143 0-7.5-3.358-7.5-7.5s3.357-7.5 7.5-7.5h5.151c4.143 0 7.5 3.358 7.5 7.5s-3.358 7.5-7.5 7.5z" fill="#fff"/></g></g><g><path d="m501.698 361.602h-491.396c-5.69 0-10.302-4.612-10.302-10.302v-8.773c0-5.69 4.612-10.302 10.302-10.302h491.396c5.69 0 10.302 4.612 10.302 10.302v8.773c0 5.69-4.612 10.302-10.302 10.302z" fill="#d88a55"/></g><g><path d="m48.934 351.3v-8.773c0-5.69 4.612-10.302 10.302-10.302h-48.934c-5.69 0-10.302 4.612-10.302 10.302v8.773c0 5.69 4.612 10.302 10.302 10.302h48.934c-5.69 0-10.302-4.612-10.302-10.302z" fill="#c57a44"/></g></g></svg>