<svg id="Capa_1" enable-background="new 0 0 512 512" height="512" viewBox="0 0 512 512" width="512" xmlns="http://www.w3.org/2000/svg"><g><path d="m99.333 209.463c1.853.778 3.723 1.456 5.603 2.039 4.246-6.202 11.376-10.281 19.444-10.281 2.382 0 4.733.355 6.99 1.055l2.024.628-.803-1.962c-.897-2.192-1.446-4.475-1.654-6.807-9.575-7.192-16.882-17.206-20.811-29.042-1.442-4.343-2.344-8.791-2.764-13.255-14.744-2.248-29.595 1.064-41.839 8.823-1.766 1.119-2.657 3.24-2.219 5.285 4.034 18.849 16.909 35.488 36.029 43.517z" fill="#80d261"/><path d="m99.333 209.463c1.525.64 3.061 1.206 4.605 1.714 3.576-5.366 9.208-9.242 15.771-10.506-1.358-.461-2.712-.957-4.055-1.521-19.12-8.029-31.995-24.668-36.028-43.517-.11-.512-.136-1.029-.086-1.533-4.922 1.587-9.637 3.787-14.016 6.562-1.766 1.119-2.657 3.24-2.219 5.285 4.033 18.848 16.908 35.487 36.028 43.516z" fill="#68ca44"/><g><path d="m131.113 195.454c-.166-1.128-.277-2.265-.277-3.415 0-12.986 10.564-23.551 23.551-23.551 4.567 0 8.929 1.298 12.736 3.767.811-8.239-.048-16.778-2.825-25.143-6.533-19.681-22.131-33.8-40.614-39.272-2.005-.594-4.188.131-5.44 1.806-11.541 15.439-15.599 36.083-9.066 55.764 4.163 12.54 12.01 22.818 21.935 30.044z" fill="#017b4e"/><path d="m131.113 195.453c-.166-1.128-.277-2.265-.277-3.415 0-5.776 2.094-11.07 5.558-15.172-2.072-3.566-3.823-7.388-5.174-11.458-5.959-17.952-3.103-36.703 6.203-51.576-4.313-2.544-8.924-4.568-13.738-5.994-2.005-.594-4.188.131-5.44 1.806-11.541 15.439-15.599 36.082-9.066 55.764 4.162 12.542 12.009 22.819 21.934 30.045z" fill="#026841"/><path d="m135.504 176.35c3.32-3.992 7.883-6.909 13.093-8.17l-4.576-13.784c-1.306-3.931-5.549-6.059-9.481-4.755-3.931 1.305-6.06 5.55-4.755 9.481z" fill="#68ca44"/></g><g><path d="m432.383 267.635c.147-1.084.247-2.184.247-3.309 0-13.559-10.992-24.551-24.551-24.551-.37 0-.731.039-1.097.055 3.24-4.16 5.189-9.377 5.189-15.059 0-13.559-10.992-24.551-24.551-24.551-2.537 0-4.983.385-7.285 1.1 1.172-2.865 1.83-5.996 1.83-9.283 0-13.559-10.992-24.551-24.551-24.551-5.664 0-10.864 1.937-15.018 5.159-.161-13.421-11.077-24.254-24.536-24.254-7.274 0-13.789 3.182-18.285 8.208-3.719-8.829-12.452-15.028-22.633-15.028-9.014 0-16.871 4.873-21.141 12.113-4.27-7.24-12.127-12.113-21.141-12.113-10.182 0-18.914 6.199-22.633 15.028-4.496-5.026-11.011-8.208-18.285-8.208-13.459 0-24.375 10.833-24.536 24.254-4.154-3.222-9.354-5.159-15.018-5.159-13.559 0-24.551 10.992-24.551 24.551 0 3.287.657 6.418 1.829 9.283-2.302-.714-4.749-1.1-7.285-1.1-13.559 0-24.551 10.992-24.551 24.551 0 5.682 1.949 10.898 5.189 15.059-.366-.016-.727-.055-1.097-.055-13.559 0-24.551 10.992-24.551 24.551 0 1.125.1 2.224.247 3.309z" fill="#fff3de"/><path d="m133.785 267.635c-2.283-3.957-3.519-8.591-3.25-13.548.652-12.029 10.193-21.984 22.189-23.09 1.684-.155 3.337-.14 4.944.031 2.054.218 3.665-1.683 3.275-3.711-.512-2.666-.592-5.486-.15-8.39 1.67-10.973 10.747-19.56 21.793-20.65 4.931-.486 9.586.503 13.605 2.564 1.81.928 3.968-.143 4.373-2.137 2.272-11.207 12.169-19.644 24.047-19.644 5.91 0 11.319 2.101 15.551 5.584 1.402 1.154 3.531.772 4.488-.771 4.328-6.982 12.06-11.633 20.879-11.633 7.578 0 14.338 3.443 18.836 8.842 1.193 1.431 3.417 1.431 4.61 0 4.499-5.399 11.259-8.842 18.836-8.842 8.819 0 16.551 4.651 20.879 11.633.957 1.543 3.086 1.925 4.488.771 4.232-3.484 9.641-5.584 15.551-5.584 13.459 0 24.375 10.833 24.536 24.254 2.309-1.791 4.95-3.166 7.806-4.051 1.053-3.403 1.398-7.115.808-10.984-1.684-11.025-10.839-19.656-21.945-20.685-6.559-.607-12.622 1.394-17.337 5.051-.161-13.421-11.077-24.254-24.536-24.254-7.274 0-13.789 3.182-18.285 8.208-3.719-8.829-12.452-15.028-22.634-15.028-9.014 0-16.871 4.873-21.141 12.113-4.27-7.241-12.127-12.113-21.141-12.113-10.182 0-18.914 6.199-22.634 15.028-4.496-5.026-11.011-8.208-18.285-8.208-13.459 0-24.375 10.833-24.536 24.254-4.753-3.686-10.876-5.691-17.495-5.036-11.045 1.092-20.118 9.68-21.786 20.653-.709 4.666-.072 9.114 1.542 13.059-2.998-.93-6.241-1.303-9.609-.992-11.996 1.105-21.538 11.06-22.19 23.089-.337 6.206 1.656 11.925 5.152 16.414-.366-.016-.727-.055-1.097-.055-13.559 0-24.551 10.992-24.551 24.551 0 1.125.1 2.224.247 3.309h54.167z" fill="#fef0ae"/><g><g><path d="m159.559 227.063c-4.143 0-7.5-3.358-7.5-7.5 0-13.179 10.722-23.901 23.901-23.901 7.406 0 14.272 3.349 18.837 9.189 2.552 3.263 1.975 7.977-1.289 10.528-3.262 2.553-7.977 1.974-10.527-1.29-1.703-2.178-4.262-3.427-7.021-3.427-4.908 0-8.901 3.993-8.901 8.901 0 4.142-3.358 7.5-7.5 7.5z" fill="#fedf74"/></g><g><path d="m315.704 228.076c-.77 0-1.55-.119-2.321-.37-3.938-1.28-6.094-5.512-4.813-9.451 2.292-7.049 7.598-12.545 14.557-15.079 6.001-2.184 12.49-1.901 18.276.796s10.176 7.487 12.36 13.486c1.417 3.892-.59 8.196-4.482 9.613-3.895 1.419-8.195-.59-9.613-4.482-.813-2.234-2.447-4.018-4.603-5.022-2.156-1.005-4.574-1.109-6.806-.296-2.593.944-4.569 2.993-5.424 5.622-1.03 3.169-3.971 5.183-7.131 5.183z" fill="#fedf74"/></g><g><path d="m228.447 236.25c-.769 0-1.55-.119-2.32-.369-3.939-1.281-6.095-5.512-4.814-9.452 2.292-7.049 7.598-12.545 14.557-15.08 12.387-4.507 26.127 1.898 30.637 14.281 1.418 3.892-.589 8.196-4.48 9.614-3.894 1.415-8.197-.59-9.613-4.481-1.681-4.613-6.805-7-11.41-5.319-2.593.944-4.569 2.993-5.424 5.623-1.032 3.168-3.973 5.183-7.133 5.183z" fill="#fedf74"/></g></g></g><g><path d="m342.341 478.162v-40.399c-.08.04-.157.084-.237.125h-172.208c-.08-.04-.157-.084-.237-.125v40.399z" fill="#fb2b3a"/><path d="m214.265 478.162v-40.275h-44.369c-.08-.04-.157-.084-.237-.125v40.399h44.606z" fill="#e41f2d"/><g><path d="m169.659 438.887h172.681c60.012-30.14 102.106-90.708 106.012-161.464.323-5.848-4.276-10.788-10.133-10.788h-364.439c-5.857 0-10.456 4.94-10.133 10.788 3.906 70.756 46 131.324 106.012 161.464z" fill="#fd4755"/></g><g><path d="m107.813 277.423c-.323-5.848 4.276-10.788 10.133-10.788h-44.166c-5.857 0-10.456 4.94-10.133 10.788 3.906 70.756 46 131.324 106.012 161.464h44.166c-60.012-30.14-102.106-90.708-106.012-161.464z" fill="#fb2b3a"/></g></g><g><path d="m463.118 512h-414.236c-2.803 0-5.075-2.272-5.075-5.075v-24.687c0-2.803 2.272-5.075 5.075-5.075h414.236c2.803 0 5.075 2.272 5.075 5.075v24.687c0 2.803-2.272 5.075-5.075 5.075z" fill="#f6a96c"/></g><g><path d="m88.431 506.925v-24.687c0-2.803 2.272-5.075 5.075-5.075h-44.624c-2.803 0-5.075 2.272-5.075 5.075v24.687c0 2.803 2.272 5.075 5.075 5.075h44.625c-2.803 0-5.076-2.272-5.076-5.075z" fill="#ea9b58"/></g><g><g><path d="m299.815 119.047c-4.143 0-7.5-3.358-7.5-7.5v-10.713c0-13.75 11.187-24.936 24.936-24.936h55.386c5.479 0 9.936-4.458 9.936-9.936 0-5.479-4.457-9.936-9.936-9.936h-98.463c-15.446 0-28.013-12.566-28.013-28.013s12.567-28.013 28.013-28.013h45.129c4.143 0 7.5 3.358 7.5 7.5s-3.357 7.5-7.5 7.5h-45.129c-7.175 0-13.013 5.837-13.013 13.013s5.838 13.013 13.013 13.013h98.463c13.749 0 24.936 11.186 24.936 24.936s-11.187 24.936-24.936 24.936h-55.386c-5.479 0-9.936 4.457-9.936 9.936v10.713c0 4.142-3.357 7.5-7.5 7.5z" fill="#fdb441"/></g><g><path d="m242.379 119.047c-4.143 0-7.5-3.358-7.5-7.5v-10.713c0-5.479-4.457-9.936-9.936-9.936h-45.129c-13.75 0-24.936-11.186-24.936-24.936s11.186-24.936 24.936-24.936h36.924c4.143 0 7.5 3.358 7.5 7.5s-3.357 7.5-7.5 7.5h-36.924c-5.479 0-9.936 4.458-9.936 9.936s4.457 9.936 9.936 9.936h45.129c13.75 0 24.936 11.186 24.936 24.936v10.713c0 4.142-3.358 7.5-7.5 7.5z" fill="#fdb441"/></g></g></g></svg>