<svg id="Capa_1" enable-background="new 0 0 512 512" height="512" viewBox="0 0 512 512" width="512" xmlns="http://www.w3.org/2000/svg"><g><g><g><path d="m339.858 130.007c6.852-11.488 19.397-19.187 33.745-19.187 21.688 0 39.269 17.582 39.269 39.269 0 1.563-.102 3.102-.279 4.618 4.729-1.327 9.522-2.018 14.254-2.018 4.383 0 8.519.604 12.35 1.766.095-1.444.16-2.897.16-4.365 0-36.316-29.44-65.755-65.755-65.755-21.643 0-40.839 10.459-52.822 26.596z" fill="#fed2a4"/><path d="m108.431 260.538 1.359-.245-.657-1.215c-1.125-2.08-2.09-4.185-2.915-6.298-19.049-2.706-33.7-19.073-33.7-38.869 0-21.688 17.582-39.269 39.269-39.269 11.349 0 21.568 4.82 28.737 12.518 1.531-6.733 4.712-12.678 9.439-17.405 1.784-1.784 3.74-3.344 5.844-4.684-11.655-10.511-27.088-16.914-44.019-16.914-36.315 0-65.755 29.44-65.755 65.755 0 26.285 15.428 48.959 37.719 59.484 5.692-6.359 14.312-10.991 24.679-12.858z" fill="#fed2a4"/><g><path d="m286.422 193.598c2.847-1.356 6.014-2.048 9.443-2.048 5.694 0 12.061 1.928 18.412 5.577l1.307.75.184-1.496c3.211-26.095 17.016-45.036 32.824-45.036 11.455 0 22.011 9.772 28.236 26.14l.618 1.625 1.094-1.352c1.589-1.964 3.256-3.822 4.954-5.531l-103.574-103.573c-2.115-2.115-5.565-1.975-7.542.27-22.005 24.984-27.026 59.677-15.103 89.113 13.017 1.327 24.39 15.446 29.147 35.561z" fill="#fb2b3a"/><path d="m286.422 193.598c2.847-1.356 6.014-2.048 9.443-2.048 1.026 0 2.081.084 3.147.209-25.377-30.69-26.164-74.858-2.391-106.404l-16.701-16.701c-2.115-2.115-5.565-1.975-7.542.27-22.005 24.984-27.026 59.677-15.103 89.113 13.017 1.327 24.39 15.446 29.147 35.561z" fill="#e41f2d"/><g><g><path d="m298.788 169.739c-1.919 0-3.839-.732-5.303-2.197-2.929-2.929-2.929-7.678 0-10.606l8.302-8.302c2.929-2.929 7.678-2.929 10.606 0 2.929 2.929 2.929 7.678 0 10.606l-8.302 8.302c-1.465 1.465-3.384 2.197-5.303 2.197z" fill="#fe646f"/></g><g><path d="m296.228 132.867h-11.741c-4.142 0-7.5-3.358-7.5-7.5s3.358-7.5 7.5-7.5h11.741c4.142 0 7.5 3.358 7.5 7.5s-3.358 7.5-7.5 7.5z" fill="#fe646f"/></g></g></g><g><g><path d="m216.979 107.055c28.645-28.645 29.901-74.307 3.768-104.445-1.96-2.26-5.43-2.384-7.545-.269l-100.937 100.938c-2.115 2.115-1.991 5.585.269 7.545 30.137 26.132 75.8 24.876 104.445-3.769z" fill="#fd4755"/></g><g><path d="m131.621 87.368c-.66-.572-1.115-1.279-1.408-2.037l-17.949 17.949c-2.115 2.115-1.991 5.585.269 7.545 30.138 26.133 75.8 24.877 104.445-3.768 5.597-5.597 10.134-11.85 13.64-18.505-28.733 23.741-70.705 23.348-98.997-1.184z" fill="#fb2b3a"/></g><g><g><path d="m195.315 94.373c-1.919 0-3.839-.732-5.303-2.197l-7.405-7.405c-2.929-2.929-2.929-7.678 0-10.606 2.929-2.929 7.678-2.929 10.606 0l7.405 7.405c2.929 2.929 2.929 7.678 0 10.606-1.464 1.464-3.384 2.197-5.303 2.197z" fill="#e41f2d"/></g><g><path d="m162.427 107.128c-4.142 0-7.5-3.358-7.5-7.5v-10.472c0-4.142 3.358-7.5 7.5-7.5s7.5 3.358 7.5 7.5v10.472c0 4.142-3.358 7.5-7.5 7.5z" fill="#e41f2d"/></g><g><path d="m209.551 62.098h-10.472c-4.142 0-7.5-3.358-7.5-7.5s3.358-7.5 7.5-7.5h10.472c4.142 0 7.5 3.358 7.5 7.5s-3.358 7.5-7.5 7.5z" fill="#e41f2d"/></g></g></g><path d="m166.49 318.684c0-4.851.553-9.573 1.57-14.122-18.026-5.716-30.004-17.003-30.004-29.579 0-11.452 9.768-22.006 26.128-28.232l1.622-.617-1.347-1.094c-1.989-1.614-3.868-3.303-5.584-5.019-10.421-10.421-17.11-23.322-18.912-36.402-9.555-2.078-18.986-.599-26.326 4.98-13.81 10.497-15.629 32.009-5.382 50.955-17.322 3.121-30.687 14.159-32.693 28.878-1.65 12.103 4.773 23.859 15.92 31.906h75.05c-.014-.552-.042-1.1-.042-1.654z" fill="#80d261"/><g><g fill="#017b4e"><path d="m271.212 320.337c.086-.106.183-.209.268-.315.015-.445.034-.89.034-1.339 0-22.205-18.064-40.269-40.269-40.269s-40.27 18.064-40.27 40.269c0 .555.03 1.104.052 1.654z"/><path d="m231.245 253.929c22.562 0 42.455 11.606 54.052 29.153-.35-6.479.036-12.991 1.163-19.404-.755-1.186-1.496-2.389-2.209-3.624-7.595-13.155-11.662-27.279-11.452-39.772.207-12.306 4.545-21.522 12.214-25.95.753-.435 1.534-.815 2.336-1.148-5.076-21.244-17.526-36.261-32.082-36.261-12.278 0-23.051 10.692-29.171 26.784-1.596-1.973-3.309-3.897-5.16-5.748-22.255-22.255-54.348-26.245-71.681-8.912s-13.343 49.426 8.912 71.681c1.824 1.824 3.719 3.512 5.661 5.088-16.086 6.121-26.773 16.892-26.773 29.166 0 13.268 12.481 24.78 30.777 30.559 6.091-29.426 32.209-51.612 63.413-51.612z"/></g><g fill="#026841"><path d="m209.969 307.766c-5.342-1.061-10.336-2.581-14.858-4.478-2.096 4.913-3.222 10.338-3.131 16.038.004.004.007.007.011.011h20.017c.433-1.552.976-3.118 1.627-4.692 1.221-2.955-.53-6.256-3.666-6.879z"/><path d="m137.056 274.983c0 13.035 12.042 24.382 29.815 30.256 1.378-6.633 3.765-12.894 6.977-18.63-2.166-3.633-3.353-7.545-3.353-11.625 0-10.462 7.762-19.831 20.014-26.16 3.029-1.565 3.566-5.632 1.152-8.04-.018-.018-.036-.036-.055-.055-22.255-22.255-26.245-54.348-8.912-71.681 3.418-3.418 7.416-5.994 11.793-7.777-16.82-5.687-34.081-3.375-45.233 7.777-17.333 17.333-13.343 49.426 8.912 71.681 1.824 1.823 3.719 3.512 5.661 5.088-16.085 6.12-26.771 16.891-26.771 29.166z"/></g><g><path d="m223.953 254.35c2.395-.27 4.826-.422 7.292-.422 5.29 0 10.429.652 15.354 1.855l-40.894-40.894c-2.929-2.929-7.678-2.929-10.606 0-2.929 2.929-2.929 7.678 0 10.606z" fill="#026841"/></g></g><g><path d="m440.031 239.241c1.942-1.577 3.837-3.265 5.661-5.088 22.255-22.255 26.245-54.348 8.912-71.681s-49.426-13.343-71.681 8.912c-1.851 1.851-3.563 3.775-5.16 5.748-6.12-16.092-16.893-26.784-29.171-26.784-16.677 0-30.591 19.709-33.816 45.913-10.844-6.228-21.825-7.665-30.261-2.794-16.511 9.533-17.017 39.569-1.129 67.088.906 1.569 1.857 3.08 2.826 4.563 2.403-15.197 8.935-29.88 19.687-42.199.861-.986 2.105-1.552 3.413-1.552 1.199 0 2.327.467 3.174 1.314l97.657 97.657h16.363c-.185-5.754-2.184-11.95-5.728-18.101 26.26-3.199 46.026-17.129 46.026-33.829-.001-12.276-10.687-23.046-26.773-29.167z" fill="#68ca44"/><g><path d="m408.761 208.313c-2.929-2.929-7.678-2.929-10.606 0l-49.311 49.311 10.606 10.606 49.311-49.311c2.929-2.928 2.929-7.677 0-10.606z" fill="#80d261"/></g></g><g><path d="m296 318.684c0 .147-.005.294-.01.44l-.036 1.214h115.603l-98.364-98.364c-2.256-2.256-5.949-2.117-8.047.287-14.71 16.855-21.713 38.096-21.013 59.128 7.463 10.552 11.867 23.415 11.867 37.295z" fill="#fff"/><path d="m352.368 320.337h34.745c5.324-2.209 10.314-5.471 14.643-9.8l-64.031-64.031c-17.682 17.682-17.682 46.349 0 64.031 4.329 4.329 9.319 7.591 14.643 9.8z" fill="#fedf74"/><path d="m352.397 320.337h16.99c-5.326-2.208-10.318-5.47-14.648-9.8-14.735-14.735-17.179-37.095-7.355-54.373l-9.658-9.658c-17.682 17.682-17.682 46.349 0 64.031 4.335 4.336 9.337 7.592 14.671 9.8z" fill="#fed402"/></g><g><path d="m192.017 320.337c-.023-.549-.042-1.099-.042-1.654 0-21.688 17.582-39.269 39.269-39.269s39.269 17.582 39.269 39.269c0 .555-.019 1.105-.042 1.654h26.486c.014-.551.042-1.099.042-1.654 0-36.316-29.44-65.755-65.755-65.755s-65.755 29.44-65.755 65.755c0 .555.028 1.102.042 1.654z" fill="#fed2a4"/></g><g><path d="m178.896 512h146.338c1.996 0 3.979-.371 5.824-1.133 72.072-29.757 123.683-99.007 127.862-180.785.299-5.855-4.429-10.745-10.293-10.745h-393.124c-5.863 0-10.592 4.889-10.293 10.745 4.179 81.778 55.79 151.028 127.862 180.785 1.845.762 3.828 1.133 5.824 1.133z" fill="#d8ecfe"/></g><g><path d="m89.796 367.785h-39.159c15.569 64.963 61.747 118.024 122.435 143.082 1.845.762 3.828 1.133 5.824 1.133h39.159c-1.996 0-3.979-.371-5.824-1.133-60.688-25.057-106.866-78.119-122.435-143.082z" fill="#c4e2ff"/></g><g><path d="m448.627 319.337h-393.124c-5.863 0-10.592 4.889-10.293 10.745.66 12.916 2.506 25.518 5.427 37.703h402.856c2.92-12.185 4.767-24.787 5.427-37.703.299-5.855-4.43-10.745-10.293-10.745z" fill="#eaf6ff"/></g><g><path d="m45.21 330.082c.66 12.916 2.506 25.518 5.427 37.703h39.159c-2.92-12.185-4.767-24.787-5.427-37.703-.299-5.855 4.43-10.745 10.293-10.745h-39.159c-5.863 0-10.592 4.89-10.293 10.745z" fill="#d8ecfe"/></g></g><g><path d="m382.115 47.257c2.494-.668 4.122-3.081 3.782-5.64-1.35-10.176-5.929-20.005-13.748-27.825-7.819-7.819-17.648-12.399-27.824-13.748-2.559-.339-4.972 1.289-5.64 3.782l-13.588 50.71c-1.026 3.83 2.478 7.334 6.308 6.308z" fill="#fe9901"/></g><g><path d="m347.622 54.537 13.179-49.184c-5.189-2.783-10.778-4.553-16.476-5.309-2.559-.339-4.972 1.289-5.64 3.782l-13.588 50.71c-1.026 3.83 2.478 7.334 6.308 6.308l16.082-4.309c-.082-.639-.049-1.313.135-1.998z" fill="#fb8801"/></g></g></g></svg>