<svg id="Capa_1" enable-background="new 0 0 512 512" height="512" viewBox="0 0 512 512" width="512" xmlns="http://www.w3.org/2000/svg"><g><g><path d="m10.311 299.899c0 3.947.682 7.734 1.922 11.257h34.249l63.292-109.624c-3.824-1.495-7.982-2.324-12.336-2.324-15.521 0-28.597 10.432-32.624 24.663-5.101-3.07-11.073-4.838-17.46-4.838-18.729 0-33.911 15.183-33.911 33.911 0 8.326 3.005 15.947 7.984 21.849-6.83 6.204-11.116 15.154-11.116 25.106z" fill="#80d261"/><path d="m10.311 299.899c0 3.947.682 7.734 1.922 11.257h22.678c-1.242-3.525-1.936-7.307-1.936-11.257 0-9.952 4.287-18.902 11.115-25.106-4.979-5.902-7.984-13.523-7.984-21.849 0-14.755 9.427-27.303 22.584-31.966-3.545-1.258-7.36-1.945-11.337-1.945-18.729 0-33.911 15.183-33.911 33.911 0 8.326 3.005 15.947 7.984 21.849-6.829 6.204-11.115 15.154-11.115 25.106z" fill="#68ca44"/><g><path d="m383.519 109.463c-8.428-14.598-29.499-14.598-37.927 0l-40.031 69.335 34.813 60.298c7.209-14.372 22.179-24.171 38.802-24.171 5.556 0 10.828-2.414 14.469-6.622 9.325-10.777 16.142-20.689 20.261-29.46 1.288-2.743 3.514-4.868 6.172-6.059z" fill="#fac600"/><path d="m357.724 99.588c-4.852 1.57-9.238 4.861-12.132 9.875l-40.031 69.335 34.813 60.297c6.429-12.813 19.029-21.987 33.47-23.824 2.689-43.073-3.453-83.225-16.12-115.683z" fill="#fed402"/></g><path d="m337.908 311.156-8.124-31.055h-10.428c-2.289 0-4.151-1.862-4.151-4.151v-19.573c0-2.288 1.862-4.15 4.151-4.15h16.894l.136-.84c.771-4.76 2.337-9.247 4.535-13.344l-65.314-113.127c-8.428-14.598-29.499-14.598-37.927 0l-36.38 63.013 71.146 123.228h65.462z" fill="#fac600"/><path d="m257.7 285.617c3.499-14.436 6.051-29.617 7.499-45.352 4.295-46.673-1.789-90.381-15.387-125.224-4.852 1.57-9.238 4.861-12.132 9.875l-36.38 63.013z" fill="#fedf74"/><g><path d="m273.772 311.156-95.259-164.993c-8.428-14.598-29.499-14.598-37.927 0l-95.259 164.993z" fill="#fac600"/><path d="m159.538 311.156c4.05-15.709 6.975-32.343 8.567-49.644 4.295-46.673-1.789-90.381-15.387-125.224-4.852 1.57-9.238 4.861-12.132 9.875l-95.259 164.993z" fill="#fedf74"/><g fill="#fed402"><path d="m73.142 311.156 87.285-151.181c-2.203-8.267-4.78-16.183-7.709-23.687-4.852 1.57-9.238 4.862-12.132 9.875l-95.259 164.993z"/><path d="m273.772 311.156-41.274-71.49c-27.974 6.71-56.763 17.007-85.231 31.035-24.102 11.876-46.237 25.558-66.032 40.455z"/></g></g><g><g><path d="m490.974 252.226c-2.498-18.061-15.973-32.738-33.421-37.023-5.467-1.343-9.318-6.178-9.723-11.792-.94-13.031-7.232-22.525-13.853-29.019-6.456-6.332-17.134-4.159-20.978 4.026-4.872 10.373-12.961 20.968-20.111 29.231-3.447 3.984-8.445 6.277-13.714 6.277-22.344 0-40.956 16.743-43.938 38.301h155.738z" fill="#017b4e"/></g><g><path d="m369.79 252.226c7.843-12.629 21.836-21.087 37.715-21.087 5.268 0 10.267-2.292 13.713-6.277 7.149-8.263 15.239-18.857 20.111-29.23.904-1.924 2.194-3.502 3.71-4.729-2.648-6.851-6.782-12.311-11.062-16.51-6.456-6.332-17.134-4.159-20.978 4.026-4.872 10.373-12.961 20.968-20.111 29.231-3.447 3.984-8.445 6.277-13.714 6.277-22.344 0-40.956 16.743-43.938 38.301h34.554z" fill="#026841"/></g><g><path d="m489.33 311.156 8.124-31.054h-168.703l8.124 31.054z" fill="#fb2b3a"/></g><g><path d="m489.33 311.156 8.124-31.054h-168.703l8.124 31.054z" fill="#fb2b3a"/></g><path d="m328.751 280.102 8.124 31.054h27.546l-8.125-31.054z" fill="#e41f2d"/><path d="m506.849 281.101h-187.493c-2.845 0-5.151-2.306-5.151-5.151v-19.573c0-2.845 2.306-5.151 5.151-5.151h187.493c2.845 0 5.151 2.306 5.151 5.151v19.573c0 2.845-2.306 5.151-5.151 5.151z" fill="#fd4755"/><path d="m347.686 275.95v-19.573c0-2.845 2.306-5.151 5.151-5.151h-33.481c-2.845 0-5.151 2.306-5.151 5.151v19.573c0 2.845 2.306 5.151 5.151 5.151h33.481c-2.845 0-5.151-2.306-5.151-5.151z" fill="#fb2b3a"/></g><path d="m20.241 346.555 19.337 63.286c.662 2.166 2.661 3.646 4.926 3.646h422.991c2.265 0 4.264-1.479 4.926-3.646l19.337-63.286z" fill="#d8ecfe"/><path d="m85.936 409.84-19.337-63.285h-46.358l19.337 63.285c.662 2.166 2.661 3.646 4.926 3.646h46.358c-2.265 0-4.264-1.48-4.926-3.646z" fill="#c4e2ff"/></g><path d="m506.849 347.554h-501.698c-2.845 0-5.151-2.306-5.151-5.151v-27.096c0-2.845 2.306-5.151 5.151-5.151h501.698c2.845 0 5.151 2.306 5.151 5.151v27.096c0 2.845-2.306 5.151-5.151 5.151z" fill="#eaf6ff"/><path d="m48.934 342.403v-27.096c0-2.845 2.306-5.151 5.151-5.151h-48.934c-2.845 0-5.151 2.306-5.151 5.151v27.096c0 2.845 2.306 5.151 5.151 5.151h48.934c-2.845 0-5.151-2.306-5.151-5.151z" fill="#d8ecfe"/></g></svg>