<svg id="Capa_1" enable-background="new 0 0 512 512" height="512" viewBox="0 0 512 512" width="512" xmlns="http://www.w3.org/2000/svg"><g><g><g><path d="m379.436 388.695c-11.093 0-21.819-3.997-30.205-11.253l-.654-.566-.654.566c-8.385 7.257-19.112 11.253-30.205 11.253s-21.819-3.997-30.205-11.253l-.654-.566-.654.566c-8.385 7.257-19.112 11.253-30.205 11.253s-21.819-3.997-30.205-11.253l-.654-.566-.654.566c-8.385 7.257-19.112 11.253-30.205 11.253s-21.819-3.997-30.205-11.253l-.654-.566-.654.566c-8.385 7.257-19.112 11.253-30.205 11.253-15.168 0-28.971-7.41-37.471-19.176v49.808h321.814v-49.808c-8.501 11.766-22.304 19.176-37.471 19.176z" fill="#fed402"/></g><g><path d="m95.093 369.519v49.808h39.346v-30.674c-.623.025-1.248.042-1.874.042-15.168 0-28.971-7.41-37.472-19.176z" fill="#fac600"/></g><path d="m86.915 354.53c5.331 20.237 23.738 35.165 45.65 35.165s40.319-14.928 45.65-35.165z" fill="#fb2b3a"/><path d="m115.383 354.53h-28.468c5.331 20.237 23.738 35.165 45.65 35.165 4.964 0 9.745-.773 14.238-2.193-15.344-4.849-27.296-17.32-31.42-32.972z" fill="#e41f2d"/><path d="m148.633 354.53c5.331 20.237 23.738 35.165 45.65 35.165s40.319-14.928 45.65-35.165z" fill="#fb2b3a"/><path d="m176.531 354.53h-27.899c5.331 20.237 23.738 35.165 45.65 35.165 4.858 0 9.543-.735 13.953-2.097-15.482-4.784-27.555-17.317-31.704-33.068z" fill="#e41f2d"/><path d="m210.35 354.53c5.331 20.237 23.738 35.165 45.65 35.165s40.319-14.928 45.65-35.165z" fill="#fb2b3a"/><path d="m238.342 354.53h-27.992c5.331 20.237 23.738 35.165 45.65 35.165 4.875 0 9.576-.741 13.999-2.113-15.459-4.794-27.512-17.317-31.657-33.052z" fill="#e41f2d"/><path d="m272.068 354.53c5.331 20.237 23.738 35.165 45.65 35.165s40.319-14.928 45.65-35.165z" fill="#fb2b3a"/><path d="m300.153 354.53h-28.085c5.331 20.237 23.738 35.165 45.65 35.165 4.892 0 9.609-.747 14.046-2.128-15.437-4.805-27.47-17.318-31.611-33.037z" fill="#e41f2d"/><path d="m333.786 354.53c5.331 20.237 23.738 35.165 45.65 35.165s40.319-14.928 45.65-35.165z" fill="#fb2b3a"/><path d="m361.597 354.53h-27.812c5.331 20.237 23.738 35.165 45.65 35.165 4.842 0 9.512-.729 13.909-2.083-15.502-4.773-27.594-17.316-31.747-33.082z" fill="#e41f2d"/><g><path d="m430.109 355.53h-348.218c-8.534 0-15.453-6.918-15.453-15.453v-31.465c0-8.534 6.918-15.453 15.453-15.453h348.218c8.534 0 15.453 6.918 15.453 15.453v31.465c0 8.534-6.919 15.453-15.453 15.453z" fill="#fed2a4"/></g><g><path d="m111.758 340.077v-31.465c0-8.534 6.918-15.453 15.453-15.453h-45.32c-8.534 0-15.453 6.919-15.453 15.453v31.465c0 8.534 6.918 15.453 15.453 15.453h45.32c-8.535 0-15.453-6.919-15.453-15.453z" fill="#ffbd86"/></g><g><path d="m447.299 477v-43.221c0-8.534-6.918-15.453-15.453-15.453h-351.692c-8.534 0-15.453 6.918-15.453 15.453v43.221z" fill="#fed2a4"/></g><g><path d="m125.167 418.327h-45.013c-8.534 0-15.453 6.918-15.453 15.453v43.22h45.013v-43.221c0-8.534 6.919-15.452 15.453-15.452z" fill="#ffbd86"/></g><g><path d="m497.72 512h-483.44c-2.845 0-5.151-2.306-5.151-5.151v-26.072c0-2.845 2.306-5.151 5.151-5.151h483.44c2.845 0 5.151 2.306 5.151 5.151v26.072c0 2.845-2.306 5.151-5.151 5.151z" fill="#017b4e"/></g><g><path d="m71.313 506.849v-26.072c0-2.845 2.306-5.151 5.151-5.151h-62.184c-2.845 0-5.151 2.306-5.151 5.151v26.072c0 2.845 2.306 5.151 5.151 5.151h62.183c-2.844 0-5.15-2.306-5.15-5.151z" fill="#026841"/></g></g><g><path d="m280.252 292.159-25.31 13.571 46.804 25.097c4.879 2.616 10.745 2.616 15.624 0l72.114-38.668z" fill="#fe9901"/><path d="m254.942 305.731 46.804 25.097c4.88 2.616 10.745 2.616 15.624 0l11.895-6.378-54.616-29.286z" fill="#fb8801"/><path d="m122.515 292.159 72.114 38.668c4.879 2.616 10.745 2.616 15.624 0l72.114-38.668z" fill="#fe9901"/><path d="m122.515 292.159 72.114 38.668c4.879 2.616 10.745 2.616 15.624 0l11.885-6.373-60.23-32.296h-39.393z" fill="#fb8801"/></g><g><path d="m263.5 44.44c-2.346.837-4.87 1.297-7.5 1.297s-5.154-.46-7.5-1.297v49.255h15z" fill="#883f2e"/></g><g><g><path d="m178.828 148.436h154.343v38.822h-154.343z" fill="#fe9901"/></g><g><path d="m198.636 187.258v-38.822h-98.221c-10.72 0-19.411 8.691-19.411 19.411 0 10.72 8.691 19.411 19.411 19.411z" fill="#fdb441"/></g><g><path d="m114.865 167.847c0-10.72 8.691-19.411 19.411-19.411h-33.86c-10.72 0-19.411 8.691-19.411 19.411s8.691 19.411 19.411 19.411h33.86c-10.72.001-19.411-8.69-19.411-19.411z" fill="#fe9901"/></g><g><path d="m430.995 167.847c0-10.72-8.691-19.411-19.411-19.411h-98.221v38.822h98.221c10.72 0 19.411-8.69 19.411-19.411z" fill="#fdb441"/></g></g><g><path d="m447.299 134.543v-26.394c0-8.534-6.918-15.453-15.453-15.453h-351.692c-8.534 0-15.453 6.918-15.453 15.453v26.394c0 8.534 6.918 15.453 15.453 15.453h351.692c8.534 0 15.453-6.919 15.453-15.453z" fill="#fed2a4"/></g><g><path d="m109.714 134.543v-26.394c0-8.534 6.918-15.453 15.453-15.453h-45.013c-8.534 0-15.453 6.919-15.453 15.453v26.394c0 8.534 6.918 15.453 15.453 15.453h45.013c-8.534 0-15.453-6.919-15.453-15.453z" fill="#ffbd86"/></g><g><path d="m70.136 260.317c0 18.138 14.704 32.842 32.842 32.842h306.044c18.138 0 32.842-14.704 32.842-32.842 0-18.138-14.704-32.842-32.842-32.842h-306.044c-18.138 0-32.842 14.704-32.842 32.842z" fill="#883f2e"/></g><path d="m115.032 260.317c0-3.848.668-7.539 1.884-10.97-5.403-5.713-8.709-13.466-8.735-21.872h-5.203c-18.138 0-32.842 14.704-32.842 32.842 0 18.138 14.704 32.842 32.842 32.842h44.896c-18.138 0-32.842-14.704-32.842-32.842z" fill="#6d3326"/><g><path d="m108.225 226.445c-.013.311-.047.616-.047.93 0 16.855 13.197 31.112 30.045 31.607 9.704.285 18.433-3.9 24.301-10.642 5.679 6.525 14.039 10.655 23.369 10.655s17.69-4.13 23.369-10.655c5.679 6.525 14.039 10.655 23.369 10.655s17.69-4.13 23.369-10.655c5.679 6.525 14.039 10.655 23.369 10.655s17.69-4.13 23.369-10.655c5.679 6.525 14.039 10.655 23.369 10.655s17.69-4.13 23.369-10.655c5.868 6.742 14.597 10.927 24.301 10.642 16.848-.495 30.045-14.752 30.045-31.607 0-.314-.034-.619-.047-.93z" fill="#80d261"/></g><g><path d="m136.503 227.475h-28.322c.052 16.812 13.228 31.013 30.043 31.507 5.478.161 10.644-1.104 15.161-3.448-10.05-5.274-16.845-15.995-16.882-28.059z" fill="#68ca44"/></g><g><path d="m447.299 206.433c0-11.621-9.421-21.041-21.041-21.041h-340.516c-11.621 0-21.041 9.421-21.041 21.041s9.421 21.041 21.041 21.041h340.515c11.621.001 21.042-9.42 21.042-21.041z" fill="#fb2b3a"/></g><g><path d="m109.714 206.433c0-11.621 9.421-21.042 21.041-21.042h-45.012c-11.621 0-21.041 9.421-21.041 21.042 0 11.621 9.421 21.041 21.041 21.041h45.013c-11.621.001-21.042-9.42-21.042-21.041z" fill="#e41f2d"/></g><g><circle cx="256" cy="23.369" fill="#fb2b3a" r="23.369"/></g><g><path d="m249.439 23.369c0-9.943 6.212-18.43 14.965-21.806-2.609-1.006-5.44-1.563-8.404-1.563-12.906 0-23.369 10.463-23.369 23.369s10.463 23.369 23.369 23.369c2.964 0 5.795-.557 8.404-1.564-8.752-3.375-14.965-11.862-14.965-21.805z" fill="#e41f2d"/></g></g></svg>