<svg id="Capa_1" enable-background="new 0 0 512 512" height="512" viewBox="0 0 512 512" width="512" xmlns="http://www.w3.org/2000/svg"><g><g><path d="m467.874 211.494h-121.066v12.906h5.406c2.825 0 5.467.771 7.752 2.094h107.909c4.142 0 7.5-3.358 7.5-7.5s-3.359-7.5-7.501-7.5z" fill="#6d3326"/><path d="m76.832 224.399h34.436c10.223 0 18.54 8.317 18.54 18.54h2c0-10.223 8.316-18.54 18.539-18.54h40.231c10.223 0 18.54 8.317 18.54 18.54h2c0-10.223 8.316-18.54 18.539-18.54h40.231c10.223 0 18.54 8.317 18.54 18.54h2c0-10.223 8.316-18.54 18.539-18.54h38.842v-14.218c0-9.125-7.398-16.523-16.523-16.523h-43.248c-10.791 0-19.539 8.748-19.539 19.539 0-10.791-8.748-19.539-19.539-19.539h-40.232c-10.791 0-19.539 8.748-19.539 19.539 0-10.791-8.748-19.539-19.539-19.539h-40.232c-10.791 0-19.539 8.748-19.539 19.539 0-10.791-8.748-19.539-19.539-19.539h-34.437c-13.992 0-25.335 11.343-25.335 25.335 0 12.988 9.775 23.687 22.368 25.156 2.151-11.232 12.045-19.75 23.896-19.75z" fill="#ffbd86"/><g fill="#f6a96c"><path d="m62.212 228.05c-6.038-4.631-9.934-11.914-9.934-20.112 0-5.298 1.628-10.214 4.409-14.28h-.783c-13.992 0-25.335 11.343-25.335 25.335 0 12.644 9.264 23.123 21.374 25.025 1.237-6.572 5.011-12.245 10.269-15.968z"/><path d="m111.267 223.4c10.791 0 19.539 8.748 19.539 19.539 0-7.895 4.692-14.679 11.431-17.761-6.389-3.213-10.783-9.81-10.783-17.449v-11.592c0-.841.071-1.664.174-2.478h-2.212c-10.791 0-19.539 8.748-19.539 19.539v10.202z"/><path d="m190.577 223.4c10.791 0 19.539 8.748 19.539 19.539 0-6.156 2.854-11.64 7.303-15.222-3.639-3.549-5.906-8.498-5.906-13.983v-11.592c0-3.045.716-5.915 1.959-8.484h-4.745c-10.791 0-19.539 8.748-19.539 19.539v10.203z"/><path d="m269.887 223.4c10.791 0 19.539 8.748 19.539 19.539 0-9.497 6.778-17.404 15.758-19.166-5.075-3.529-8.404-9.395-8.404-16.045v-11.592c0-.841.071-1.664.174-2.478h-8.918c-10.791 0-19.539 8.748-19.539 19.539v10.203z"/></g></g><g><g><path d="m488.803 241.235h-121.066v15h121.066c4.142 0 7.5-3.358 7.5-7.5s-3.358-7.5-7.5-7.5z" fill="#6d3326"/></g><path d="m59.891 267.57h65.899c3.109-3.46 5.017-8.021 5.017-13.039 0 5.018 1.908 9.579 5.017 13.039h69.276c3.109-3.46 5.017-8.021 5.017-13.039 0 5.018 1.908 9.579 5.017 13.039h69.277c3.109-3.46 5.017-8.021 5.017-13.039 0 5.018 1.908 9.579 5.017 13.039h70.885c2.129-2.782 3.409-6.249 3.409-10.023v-17.624c0-9.125-7.398-16.523-16.523-16.523h-43.248c-10.791 0-19.539 8.748-19.539 19.539 0-10.791-8.748-19.539-19.539-19.539h-40.232c-10.791 0-19.539 8.748-19.539 19.539 0-10.791-8.748-19.539-19.539-19.539h-40.232c-10.791 0-19.539 8.748-19.539 19.539 0-10.791-8.748-19.539-19.539-19.539h-34.438c-13.992 0-25.335 11.343-25.335 25.335-.001 7.478 3.241 14.197 8.394 18.835z" fill="#d88a55"/><g fill="#c57a44"><path d="m126.62 266.57c2.01-2.568 3.403-5.643 3.928-9.011-.785.096-1.58.161-2.392.161h-34.435c-13.992 0-25.335-11.343-25.335-25.335 0-2.778.454-5.449 1.28-7.951-10.501 3.092-18.169 12.798-18.169 24.301 0 6.957 2.806 13.257 7.345 17.835z"/><path d="m205.93 266.57c2.014-2.573 3.408-5.656 3.931-9.032-.83.107-1.669.182-2.528.182h-40.232c-10.791 0-19.539-8.748-19.539-19.539v-11.592c0-1.025.103-2.025.255-3.007-9.594 1.243-17.011 9.425-17.011 19.357v11.592c0 4.546 1.566 8.719 4.171 12.039z"/><path d="m285.239 266.57c1.979-2.527 3.361-5.544 3.905-8.85h-37.656c-10.791 0-19.539-8.748-19.539-19.539v-11.592c0-1.089.112-2.149.283-3.189h-2.575c-10.791 0-19.539 8.748-19.539 19.539v11.592c0 4.546 1.566 8.719 4.17 12.039z"/><path d="m366.036 266.57c1.667-2.551 2.659-5.584 2.692-8.851-.008 0-.016.001-.024.001h-43.248c-10.791 0-19.539-8.748-19.539-19.539v-11.592c0-1.011.101-1.996.249-2.966-9.461 1.362-16.739 9.478-16.739 19.316v11.592c0 4.546 1.566 8.719 4.171 12.039z"/></g></g><g><path d="m243.163 170.315c-4.142 0-7.5-3.358-7.5-7.5v-15.421c0-14.461 11.765-26.226 26.226-26.226h59.483c6.19 0 11.226-5.036 11.226-11.226s-5.036-11.226-11.226-11.226h-105.748c-16.283 0-29.53-13.248-29.53-29.531s13.247-29.531 29.53-29.531h48.467c4.142 0 7.5 3.358 7.5 7.5s-3.358 7.5-7.5 7.5h-48.467c-8.012 0-14.53 6.519-14.53 14.531s6.518 14.531 14.53 14.531h105.747c14.461 0 26.226 11.765 26.226 26.226s-11.765 26.226-26.226 26.226h-59.483c-6.19 0-11.226 5.036-11.226 11.226v15.421c.001 4.143-3.357 7.5-7.499 7.5z" fill="#fe9901"/></g><g><path d="m181.477 170.315c-4.142 0-7.5-3.358-7.5-7.5v-15.421c0-6.19-5.036-11.226-11.226-11.226h-48.467c-14.461 0-26.226-11.765-26.226-26.226s11.765-26.226 26.226-26.226h39.655c4.142 0 7.5 3.358 7.5 7.5s-3.358 7.5-7.5 7.5h-39.655c-6.19 0-11.226 5.036-11.226 11.226s5.036 11.226 11.226 11.226h48.467c14.461 0 26.226 11.765 26.226 26.226v15.421c0 4.143-3.358 7.5-7.5 7.5z" fill="#fdb441"/></g><g><path d="m353.315 54.655h-51.772c-4.142 0-7.5-3.358-7.5-7.5s3.358-7.5 7.5-7.5h51.772c6.19 0 11.226-5.036 11.226-11.226 0-7.405-6.024-13.429-13.429-13.429h-23.132c-4.142 0-7.5-3.358-7.5-7.5s3.358-7.5 7.5-7.5h23.132c15.676 0 28.429 12.753 28.429 28.429 0 14.461-11.765 26.226-26.226 26.226z" fill="#fdb441"/></g><g><g fill="#8fb0c5"><path d="m66.399 280.57h15v29.749h-15z"/><path d="m137.999 280.57h15v29.749h-15z"/><path d="m209.598 280.57h15v29.749h-15z"/><path d="m281.197 280.57h15v29.749h-15z"/><path d="m352.797 280.57h15v29.749h-15z"/></g><path d="m120.78 471.142h192.637c43.177-29.013 72.556-76.977 76.221-131.98h-345.079c3.665 55.003 33.044 102.967 76.221 131.98z" fill="#acc7e4"/><path d="m120.78 471.142h44.674c-43.185-29.011-72.574-76.972-76.239-131.98h-44.656c3.665 55.003 33.044 102.967 76.221 131.98z" fill="#8fb0c5"/><g><path d="m406.561 340.162h-378.926c-3.042 0-5.508-2.466-5.508-5.508v-19.828c0-3.042 2.466-5.508 5.508-5.508h378.926c3.042 0 5.508 2.466 5.508 5.508v19.828c0 3.042-2.466 5.508-5.508 5.508z" fill="#eaf6ff"/></g><g><path d="m72.433 334.654v-19.828c0-3.042 2.466-5.508 5.508-5.508h-50.306c-3.042 0-5.508 2.466-5.508 5.508v19.828c0 3.042 2.466 5.508 5.508 5.508h50.305c-3.041 0-5.507-2.466-5.507-5.508z" fill="#d8ecfe"/></g><path d="m311.847 471.142h51.706c31.894-10.315 55.446-39.174 57.898-73.878.229-3.243-2.341-6.004-5.591-6.004h-156.32c-3.251 0-5.821 2.762-5.591 6.004 2.452 34.704 26.004 63.563 57.898 73.878z" fill="#fd4755"/><path d="m311.847 471.142h39.19c-31.881-10.321-55.418-39.183-57.87-73.878-.229-3.243 2.341-6.004 5.591-6.004h-39.218c-3.251 0-5.821 2.762-5.591 6.004 2.452 34.704 26.004 63.563 57.898 73.878z" fill="#fb2b3a"/></g><g><path d="m438.147 512h-416.406c-3.338 0-6.044-2.706-6.044-6.044v-29.77c0-3.338 2.706-6.044 6.044-6.044h416.406c3.338 0 6.044 2.706 6.044 6.044v29.77c0 3.338-2.706 6.044-6.044 6.044z" fill="#ffbd86"/></g><g><path d="m65.473 505.956v-29.77c0-3.338 2.706-6.044 6.044-6.044h-49.776c-3.338 0-6.044 2.706-6.044 6.044v29.77c0 3.338 2.706 6.044 6.044 6.044h49.777c-3.339 0-6.045-2.706-6.045-6.044z" fill="#f6a96c"/></g></g><g><path d="m397.182 281.57h-359.099c-4.142 0-7.5-3.358-7.5-7.5s3.358-7.5 7.5-7.5h359.099c4.142 0 7.5 3.358 7.5 7.5s-3.358 7.5-7.5 7.5z" fill="#acc7e4"/></g></svg>