<svg id="Capa_1" enable-background="new 0 0 512 512" height="512" viewBox="0 0 512 512" width="512" xmlns="http://www.w3.org/2000/svg"><g><g fill="#acc7e4"><path d="m324.409 216.581v-20.338c0-8.704-7.261-15.712-16.056-15.298-8.238.388-14.575 7.484-14.575 15.731v28.722c10.394-2.074 20.644-5.012 30.631-8.817z"/><path d="m293.778 297.896v19.66c0 20.63-16.245 37.989-36.869 38.476-21.245.502-38.687-16.634-38.687-37.766v-20.369c-10.304-1.481-20.534-3.573-30.631-6.272v26.642c0 29.927 19.324 55.411 46.147 64.667 4.141 1.429 6.947 5.289 6.947 9.669v84.662h30.631v-84.662c0-4.38 2.806-8.24 6.947-9.669 26.823-9.256 46.147-34.74 46.147-64.667v-26.642c-10.098 2.698-20.328 4.79-30.632 6.271z"/><path d="m218.222 225.398v-28.722c0-8.247-6.337-15.343-14.575-15.731-8.795-.414-16.056 6.594-16.056 15.298v20.338c9.987 3.805 20.236 6.743 30.631 8.817z"/></g><path d="m439.91 168.136c-14.533-10.559-34.496-8.784-47.197 3.919-5.388 5.389-11.031 10.377-16.879 14.993v42.747c0 3.584-2.916 6.5-6.5 6.5s-6.5-2.916-6.5-6.5v-33.333c-10.181 6.729-20.878 12.385-31.925 16.986v31.608c0 1.736-.676 3.369-1.903 4.597-1.228 1.227-2.859 1.903-4.596 1.903l-.2-.004c-3.475-.103-6.301-3.158-6.301-6.81v-26.422c-10.932 3.654-22.132 6.318-33.457 7.978v34.019c0 3.584-2.916 6.5-6.5 6.5s-6.5-2.916-6.5-6.5v-32.561c-10.284.812-20.62.812-30.904 0v32.561c0 3.584-2.916 6.5-6.5 6.5s-6.5-2.916-6.5-6.5v-34.019c-11.325-1.66-22.525-4.324-33.457-7.978v26.736c0 3.584-2.916 6.5-6.5 6.5s-6.5-2.916-6.5-6.5v-31.608c-11.046-4.601-21.744-10.256-31.925-16.985v33.333c0 3.584-2.916 6.5-6.5 6.5s-6.5-2.916-6.5-6.5v-42.747c-5.848-4.615-11.491-9.604-16.879-14.993-12.701-12.703-32.664-14.478-47.197-3.919-18.081 13.137-20.022 39.265-4.244 55.094 103.241 103.578 273.066 103.578 376.307 0 15.778-15.83 13.838-41.958-4.243-55.095z" fill="#ea9b58"/><g><g><path d="m95.377 206.429c-12.387-12.427-13.848-31.2-5.156-45.053-6.362.541-12.635 2.768-18.13 6.76-18.081 13.137-20.022 39.265-4.244 55.094 92.042 92.342 237.003 102.355 340.526 30.047-100.504 53.173-228.858 37.563-312.996-46.848z" fill="#d88a55"/></g></g><g><path d="m254.988 183.47c-4.143 0-7.5-3.357-7.5-7.5v-29.61c0-14.832 12.067-26.899 26.9-26.899h69.43c6.562 0 11.899-5.338 11.899-11.899s-5.338-11.899-11.899-11.899h-28.589c-4.143 0-7.5-3.357-7.5-7.5s3.357-7.5 7.5-7.5h28.589c14.832 0 26.899 12.067 26.899 26.899s-12.067 26.899-26.899 26.899h-69.43c-6.562 0-11.9 5.338-11.9 11.899v29.61c0 4.142-3.357 7.5-7.5 7.5z" fill="#fe9901"/></g><g><path d="m276.421 95.661h-59.73c-16.803 0-30.473-13.67-30.473-30.473 0-16.804 13.67-30.474 30.473-30.474h84.234c5.436 0 9.857-4.422 9.857-9.857s-4.422-9.857-9.857-9.857h-37.777c-4.143 0-7.5-3.357-7.5-7.5s3.357-7.5 7.5-7.5h37.777c13.706 0 24.857 11.151 24.857 24.857s-11.151 24.857-24.857 24.857h-84.235c-8.531 0-15.473 6.941-15.473 15.473s6.941 15.474 15.473 15.474h59.73c4.143 0 7.5 3.357 7.5 7.5s-3.357 7.5-7.499 7.5z" fill="#fdb441"/></g><g fill="#ffbd86"><path d="m142.666 237.295c4.143 0 7.5-3.357 7.5-7.5v-32.681c-5.137-3.349-10.141-6.972-15-10.859v43.54c0 4.143 3.357 7.5 7.5 7.5z"/><path d="m187.591 252.556c4.143 0 7.5-3.357 7.5-7.5v-26.402c-5.062-1.661-10.066-3.536-15-5.624v32.026c0 4.142 3.357 7.5 7.5 7.5z"/><path d="m234.048 267.817c4.143 0 7.5-3.357 7.5-7.5v-32.477c-5.017-.37-10.02-.941-15-1.697v34.175c0 4.142 3.357 7.499 7.5 7.499z"/><path d="m277.952 267.817c4.143 0 7.5-3.357 7.5-7.5v-34.175c-4.98.756-9.983 1.327-15 1.697v32.478c0 4.143 3.358 7.5 7.5 7.5z"/><path d="m324.179 252.552c4.247.127 7.73-3.278 7.73-7.497v-32.025c-4.934 2.088-9.938 3.962-15 5.624v26.088c0 4.107 3.165 7.688 7.27 7.81z"/><path d="m369.334 237.295c4.143 0 7.5-3.357 7.5-7.5v-43.54c-4.859 3.887-9.863 7.51-15 10.859v32.681c0 4.143 3.357 7.5 7.5 7.5z"/></g><g><path d="m274.919 512h-37.837c-2.803 0-5.075-2.272-5.075-5.075v-25.585c0-2.803 2.272-5.075 5.075-5.075h37.837c2.803 0 5.075 2.272 5.075 5.075v25.585c0 2.803-2.272 5.075-5.075 5.075z" fill="#883f2e"/></g><g><path d="m253.97 506.925v-25.585c0-2.803 2.272-5.075 5.075-5.075h-21.964c-2.803 0-5.075 2.272-5.075 5.075v25.585c0 2.803 2.272 5.075 5.075 5.075h21.964c-2.803 0-5.075-2.272-5.075-5.075z" fill="#6d3326"/></g></g></svg>