<svg id="Capa_1" enable-background="new 0 0 512 512" height="512" viewBox="0 0 512 512" width="512" xmlns="http://www.w3.org/2000/svg"><g><path d="m441.354 18.116c-12.296-12.296-32.489-11.412-43.664 1.912l-52.463 62.552 20.169 25.214.617-.147c2.042-.489 4.13-.737 6.207-.737 3.812 0 7.435.814 10.714 2.267l56.509-47.395c13.324-11.176 14.208-31.369 1.911-43.666z" fill="#acc7e4"/><path d="m441.354 18.116c-12.296-12.296-32.489-11.413-43.664 1.912l-51.808 61.771 15.192 18.992 58.676-69.96c6.084-7.254 14.841-10.812 23.541-10.572-.606-.736-1.247-1.453-1.937-2.143z" fill="#8fb0c5"/><g><path d="m93.258 145.279c4.392-3.406 9.898-5.44 15.873-5.44.347 0 .69.013 1.034.026l23.668-29.589c-2.043-3.422-4.463-6.688-7.274-9.733-13.753-14.9-33.451-21.025-52.085-18.11-1.352.211-2.431 1.208-2.75 2.539-4.394 18.341.139 38.466 13.892 53.365 2.38 2.579 4.94 4.892 7.642 6.942z" fill="#80d261"/><path d="m111.651 136.405 9.479-11.85-16.443-17.86c-2.805-3.047-7.55-3.244-10.597-.438-3.047 2.805-3.244 7.55-.438 10.597z" fill="#68ca44"/></g><path d="m418.995 173.201-64.828-81.045-.346-.041c-68.482-8.05-137.657-8.281-206.191-.688l-65.411 81.774z" fill="#eaf6ff"/><g><path d="m130.024 148.764c4.944-6.056 12.466-9.926 20.893-9.926 1.252 0 2.481.093 3.688.258l37.502-46.884c-1.823-.505-3.715-.786-5.64-.786h-38.837l-37.936 47.426c8.198.169 15.497 3.991 20.33 9.912z" fill="#d8ecfe"/></g><g><path d="m201.411 97.616 4.373 4.373c8.253 8.253 21.635 8.253 29.888 0l4.364-4.364c8.253-8.253 21.635-8.253 29.888 0l.72.72c8.253 8.253 21.635 8.253 29.888 0 3.963-3.964 9.339-6.19 14.944-6.19h38.691l-55.072-68.849c-24.857-31.075-72.119-31.075-96.976 0l-54.489 68.12h38.837c5.605 0 10.98 2.227 14.944 6.19z" fill="#fe646f"/></g><g><path d="m202.119 23.307-54.489 68.12h38.837c1.925 0 3.817.281 5.64.786l55.118-68.906c7.147-8.934 16.149-15.285 25.935-19.082-24.251-9.411-53.331-3.06-71.041 19.082z" fill="#fd4755"/></g><g><g><path d="m371.68 153.45c4.399-7.186 12.322-11.992 21.348-11.992 1.841 0 3.635.206 5.364.585.887-2.703 1.373-5.589 1.373-8.589 0-15.213-12.333-27.545-27.545-27.545s-27.545 12.333-27.545 27.545c0 .797.041 1.583.108 2.362 11.889.335 22.107 7.461 26.897 17.634z" fill="#fe646f"/><g><path d="m362.743 141.001c-.684-2.401-1.069-4.927-1.069-7.547 0-12.246 7.994-22.62 19.045-26.203-2.678-.868-5.533-1.343-8.5-1.343-15.213 0-27.545 12.333-27.545 27.545 0 .456.012.91.034 1.36 6.747.169 12.97 2.437 18.035 6.188z" fill="#fd4755"/></g><path d="m418.158 173.201c.573-2.147.884-4.401.884-6.729 0-14.367-11.647-26.013-26.013-26.013s-26.013 11.647-26.013 26.013c0 2.328.31 4.582.884 6.729z" fill="#2e3e70"/><path d="m374.866 173.201c.469-2.169.723-4.419.723-6.729 0-17.495-14.182-31.677-31.677-31.677s-31.677 14.182-31.677 31.677c0 2.31.254 4.56.723 6.729z" fill="#3e5690"/><path d="m330.13 173.201c-.469-2.169-.719-4.419-.719-6.729 0-14.517 9.769-26.744 23.089-30.489-2.732-.768-5.61-1.188-8.588-1.188-17.495 0-31.677 14.182-31.677 31.677 0 2.31.254 4.56.723 6.729z" fill="#2e3e70"/></g><path d="m135.052 173.201c.671-2.353 1.038-4.834 1.038-7.403 0-14.889-12.07-26.959-26.959-26.959s-26.959 12.07-26.959 26.959c0 2.569.367 5.05 1.038 7.403z" fill="#3e5690"/><g fill="#2e3e70"><path d="m99.816 173.201c-.672-2.354-1.051-4.833-1.051-7.403 0-11.993 7.834-22.152 18.663-25.652-2.614-.845-5.401-1.307-8.296-1.307-14.889 0-26.959 12.07-26.959 26.959 0 2.568.367 5.05 1.038 7.403z"/><path d="m176.839 173.201c.671-2.353 1.038-4.834 1.038-7.403 0-14.889-12.07-26.959-26.959-26.959s-26.959 12.07-26.959 26.959c0 2.569.367 5.05 1.038 7.403z"/></g></g><path d="m250.606 452.563c5.694 0 11.325.449 16.85 1.307v-94.713c-5.573.494-11.192.756-16.85.756-5.657 0-11.276-.262-16.849-.756v94.713c5.525-.858 11.155-1.307 16.849-1.307z" fill="#eaf6ff"/><g><path d="m430.993 227.803c4.916-15.968 7.772-32.839 8.253-50.304.08-2.901-2.256-5.299-5.158-5.299h-366.963c-2.902 0-5.238 2.398-5.158 5.299.481 17.465 3.337 34.336 8.253 50.304l.304.061c118.975 23.853 241.503 23.832 360.469-.061z" fill="#fd4755"/></g><path d="m70.225 227.803c8.05 26.146 21.633 49.864 39.374 69.8 0-.001 0-.002 0-.003l.305.057c93.098 17.41 188.618 17.391 281.709-.057 0 .001 0 .001.001.002 17.741-19.936 31.324-43.654 39.374-69.799z" fill="#fe646f"/><g><g><path d="m115.435 227.803c-4.916-15.965-7.776-32.831-8.258-50.293-.08-2.905 2.252-5.31 5.158-5.31h-45.21c-2.906 0-5.238 2.405-5.158 5.31.482 17.461 3.337 34.328 8.253 50.293z" fill="#fb2b3a"/></g></g><path d="m109.599 297.601c8.7-8.17 20.398-13.183 33.275-13.183.417 0 .829.023 1.244.033-12.55-16.932-22.336-36.035-28.683-56.647h-45.215c8.149 26.467 21.963 50.451 40.026 70.537-.215-.246-.433-.5-.647-.74z" fill="#fd4755"/><g><path d="m391.614 297.601c-8.7-8.17-20.398-13.183-33.275-13.183-14.223 0-27.019 6.108-35.911 15.842-8.892-9.734-21.687-15.842-35.911-15.842s-27.019 6.108-35.911 15.842c-8.892-9.734-21.687-15.842-35.911-15.842-14.223 0-27.019 6.108-35.911 15.842-8.892-9.734-21.687-15.842-35.911-15.842-12.876 0-24.575 5.013-33.275 13.183 34.565 38.839 84.924 63.313 141.007 63.313s106.444-24.474 141.009-63.313z" fill="#eaf6ff"/></g><g><path d="m109.596 297.604c34.565 38.839 84.928 63.309 141.011 63.309 7.651 0 15.192-.465 22.605-1.35-52.825-6.307-98.943-34.436-129.094-75.113-.415-.01-.826-.033-1.244-.033-12.876 0-24.575 5.013-33.275 13.183-.001.002-.002.003-.003.004z" fill="#d8ecfe"/></g><g><path d="m329.706 512c8.357 0 13.276-9.455 8.416-16.254-19.063-26.67-51.139-44.184-87.515-44.184s-68.452 17.514-87.515 44.184c-4.86 6.799.059 16.254 8.416 16.254z" fill="#eaf6ff"/></g><g><path d="m208.232 495.746c15.003-20.99 38.069-36.301 64.945-41.874-7.273-1.508-14.823-2.309-22.57-2.309-36.376 0-68.452 17.514-87.515 44.183-4.86 6.799.059 16.254 8.416 16.254h45.14c-8.358 0-13.276-9.455-8.416-16.254z" fill="#d8ecfe"/></g><g><circle cx="279.967" cy="59.751" fill="#fff" r="7.5"/></g><g><circle cx="248.031" cy="30.905" fill="#fff" r="7.5"/></g><g><circle cx="219.186" cy="59.751" fill="#fff" r="7.5"/></g></g></svg>