<svg id="Capa_1" enable-background="new 0 0 512 512" height="512" viewBox="0 0 512 512" width="512" xmlns="http://www.w3.org/2000/svg"><g><g><g><g><path d="m119.336 109.907c-.001.001-.001.002-.002.003 5.279-7.056 12.445-12.912 21.27-16.72 23.473-10.128 51.213-1.465 64.809 20.185 5.66 9.013 8.222 18.989 8.048 28.766 2.467-.329 4.959-.516 7.466-.516 4.578 0 9.151.552 13.592 1.64l.547.134 39.355-39.355c-1.944-6.87-4.621-13.639-8.077-20.202-26.718-50.739-88.645-70.322-139.63-44.078-12.564 6.466-23.218 15.122-31.789 25.236 4.659 16.463 12.902 31.692 24.138 44.594z" fill="#fed2a4"/></g><g><path d="m248.96 105.279c2.768 5.204 5.048 10.539 6.858 15.953l18.282-18.282c-1.956-6.631-4.594-13.164-7.964-19.5-26.716-50.225-89.58-69.731-140-43.386-12.315 6.435-22.791 14.971-31.23 24.933.007.001.013.002.02.003l2.23 4.103c3.724-2.621 7.653-5.041 11.803-7.21 50.42-26.345 113.285-6.839 140.001 43.386z" fill="#ffbd86"/></g><path d="m114.053 118.656c1.468-3.064 3.226-6 5.282-8.749l-24.41-44.907c-15.19 17.924-23.784 40.457-24.617 63.664 13.303-6.368 28.144-9.956 43.745-10.008z" fill="#fb8801"/><g><path d="m256.797 68.955-61.217 32.963c3.869 3.363 7.292 7.333 10.09 11.879l59.292-32.489c-2.454-4.364-5.189-8.483-8.165-12.353z" fill="#f6a96c"/></g><g><path d="m166.801 28.577-1.595 60.616c5.137.413 10.189 1.57 14.979 3.434l1.6-64.001c-4.968-.374-9.976-.395-14.984-.049z" fill="#f6a96c"/></g></g><g><g><path d="m167.984 160.227h10.637l.297-.315c3.399-3.623 7.227-6.763 11.364-9.371-18.778-20.024-45.385-32.618-74.939-32.885-56.886-.514-104.047 45.402-104.98 102.283-.76 46.315 28.753 85.841 70.048 100.099 12.114 4.183 24.712-5.011 24.712-17.826 0-7.32-4.146-14.109-10.805-17.15-18.809-8.589-31.639-27.997-30.524-50.27 1.332-26.591 22.942-48.2 49.532-49.532 3.271-.164 6.479-.026 9.601.387 9.33-15.494 26.184-25.42 45.057-25.42z" fill="#fed2a4"/></g><g><path d="m120.962 140.161c21.518.195 41.463 6.937 57.972 18.31 3.192-3.282 6.75-6.205 10.625-8.677-18.733-19.587-45.034-31.875-74.216-32.138-56.886-.514-104.047 45.402-104.98 102.283-.22 13.431 2.12 26.284 6.54 38.123-.68-5.1-1.008-10.311-.921-15.616.933-56.883 48.094-102.799 104.98-102.285z" fill="#ffbd86"/></g><g><path d="m68.48 259.268c5.232 11.393 14.432 20.585 25.839 25.794 6.658 3.04 10.805 9.83 10.805 17.149 0 12.815-12.599 22.009-24.712 17.827-28.911-9.982-52.029-32.358-63.045-60.77z" fill="#fb8801"/></g><g><path d="m112.986 117.664c-5.092.069-10.1.513-15 1.299v69.46c4.727-1.753 9.763-2.842 15-3.139z" fill="#f6a96c"/></g><g><path d="m19.404 179.355 52.621 29.965c2.79-4.33 6.2-8.227 10.103-11.564l-55.307-32.062c-2.797 4.345-5.281 8.908-7.417 13.661z" fill="#f6a96c"/></g></g><g><g><path d="m254.863 152.778.592.434.592-.434c9.949-7.297 21.685-11.153 33.938-11.153 11.193 0 22.081 3.267 31.484 9.448l.7.46.575-.609c19.433-20.554 45.685-32.014 73.922-32.269l.938-.004c3.624 0 7.206.195 10.738.567 12.964-39.694 4.623-84.88-25.044-117.469-2.08-2.285-5.667-2.332-7.852-.147l-141.516 141.518c7.486 1.745 14.576 4.995 20.933 9.658z" fill="#fed402"/></g><g><path d="m321.303 150.989c15.04-16.227 35.19-27.644 57.892-31.703 14.951-33.782 8.615-74.696-19.06-102.372l-126.205 126.206c7.486 1.744 14.576 4.995 20.933 9.658l.592.434.592-.434c9.949-7.297 21.685-11.153 33.938-11.153 11.144 0 22.041 3.332 31.326 9.37-.003-.002-.005-.004-.008-.006z" fill="#fef0ae"/></g><g><path d="m321.303 150.989c15.045-16.232 35.204-27.652 57.915-31.707 7.448-16.852 9.592-35.48 6.44-53.354l-90.648 16.112-10.641 59.869c1.857-.181 3.729-.284 5.615-.284 11.144 0 22.041 3.332 31.326 9.37-.002-.002-.004-.004-.007-.006z" fill="#fff"/></g><g><path d="m374.274 120.288-79.264-38.248 30.984 64.211c13.26-12.595 29.833-21.731 48.28-25.963z" fill="#fef0ae"/></g></g><g><g><path d="m448.205 234.791c.439 8.766-1.29 17.083-4.685 24.477 16.778 3.774 34.184 3.786 50.967.033l.146-.033c4.719-12.17 7.231-25.44 7.003-39.33-.933-56.881-48.094-102.797-104.98-102.283-29.773.269-56.554 13.05-75.354 33.334 3.876 2.519 7.478 5.499 10.69 8.922l.297.315h10.637c18.937 0 35.836 9.993 45.146 25.573 3.436-.522 6.978-.722 10.6-.54 26.591 1.332 48.201 22.942 49.533 49.532z" fill="#fed2a4"/></g><g><path d="m396.657 117.655c-29.402.266-55.891 12.729-74.652 32.574 3.917 2.573 7.52 5.592 10.717 8.998h10.205c3.812 0 7.531.409 11.123 1.175 17.014-12.54 37.973-20.035 60.683-20.241 27.862-.252 53.386 10.639 72.293 28.497-18.38-30.771-52.183-51.348-90.369-51.003z" fill="#ffbd86"/></g><g fill="#f6a96c"><path d="m399.014 185.284c5.237.297 10.273 1.386 15 3.139v-69.46c-4.9-.786-9.908-1.23-15-1.299z"/><path d="m485.232 165.775-55.193 32.127c3.905 3.368 7.316 7.294 10.094 11.658l52.19-30.8c-2.059-4.509-4.432-8.846-7.091-12.985z"/></g></g><path d="m395.102 200.438c-5.653-23.56-26.946-41.211-52.175-41.211h-10.205c-10.722-11.426-25.929-18.602-42.738-18.602-12.887 0-24.824 4.229-34.529 11.346-9.705-7.117-21.641-11.346-34.529-11.346-16.809 0-32.016 7.175-42.738 18.602h-10.205c-25.229 0-46.522 17.652-52.175 41.211z" fill="#fb2b3a"/><path d="m154.101 199.439c.888-16.43 9.25-30.956 21.732-40.212h-7.849c-24.873 0-45.932 17.152-51.939 40.212z" fill="#e41f2d"/><g><circle cx="173.07" cy="182.5" fill="#fe646f" r="7.5"/></g><g><path d="m404.227 199.439h-297.543c-3.845 0-6.541 3.794-5.275 7.425l32.485 93.198h242.863l32.741-93.185c1.276-3.633-1.42-7.438-5.271-7.438z" fill="#fd4755"/></g><g><path d="m150.021 249.717-14.937-42.853c-1.266-3.631 1.43-7.425 5.275-7.425h-33.675c-3.845 0-6.541 3.794-5.275 7.425l14.937 42.853z" fill="#fb2b3a"/></g><g><path d="m133.954 300.062 43.795 125.645 5.532.503c49.702 4.517 99.719 4.349 149.39-.503l44.145-125.645-66.08-4.484c-35.119-2.383-70.357-2.433-105.483-.15z" fill="#d8ecfe"/></g><path d="m133.954 300.062 43.795 125.645h33.535l-43.795-125.645z" fill="#c4e2ff"/><g><path d="m376.817 300.062 17.688-50.345h-278.1l17.549 50.345z" fill="#fb2b3a"/></g><g><path d="m150.021 249.717h-33.616l17.549 50.345h33.615z" fill="#e41f2d"/></g><path d="m177.994 425.707h154.922v45.898h-154.922z" fill="#eaf6ff"/><path d="m177.994 425.707h33.708v44.898h-33.708z" fill="#d8ecfe"/><g><path d="m438.764 512h-366.617c-2.845 0-5.151-2.306-5.151-5.151v-31.094c0-2.845 2.306-5.151 5.151-5.151h366.617c2.845 0 5.151 2.306 5.151 5.151v31.094c0 2.845-2.306 5.151-5.151 5.151z" fill="#d88a55"/></g><g><path d="m123.234 506.849v-31.094c0-2.845 2.306-5.151 5.151-5.151h-56.238c-2.845 0-5.151 2.306-5.151 5.151v31.094c0 2.845 2.306 5.151 5.151 5.151h56.238c-2.845 0-5.151-2.306-5.151-5.151z" fill="#c57a44"/></g><g><circle cx="209.127" cy="167.92" fill="#fe646f" r="7.5"/></g><g><circle cx="242.093" cy="184.5" fill="#fe646f" r="7.5"/></g><g><circle cx="208.097" cy="224.579" fill="#fe646f" r="7.5"/></g><g><circle cx="182.342" cy="274.028" fill="#fe646f" r="7.5"/></g><g><circle cx="150.406" cy="224.579" fill="#fe646f" r="7.5"/></g></g><g><path d="m269.165 375.022c-2.012-2.012-5.273-2.012-7.285 0l-32.642 32.642c-2.011 2.012-2.011 5.273 0 7.284l10.758 10.757h51.054l10.757-10.757c2.012-2.012 2.012-5.273 0-7.284z" fill="#fff"/></g><g><path d="m251.327 407.665 25.24-25.24-7.402-7.402c-2.012-2.012-5.273-2.012-7.285 0l-32.642 32.642c-2.011 2.012-2.011 5.273 0 7.284l10.758 10.757h22.09l-10.758-10.757c-2.012-2.011-2.012-5.273-.001-7.284z" fill="#eaf6ff"/></g><g><path d="m239.745 357.259-24.401 24.401c-2.012 2.012-5.273 2.012-7.284 0l-24.401-24.401c-2.012-2.012-2.012-5.273 0-7.284l24.401-24.401c2.012-2.012 5.273-2.012 7.284 0l24.401 24.401c2.012 2.011 2.012 5.272 0 7.284z" fill="#fff"/></g><g><path d="m206 357.259c-2.012-2.012-2.012-5.273 0-7.284l16.873-16.873-7.528-7.528c-2.012-2.012-5.273-2.012-7.284 0l-24.401 24.401c-2.012 2.012-2.012 5.273 0 7.284l24.401 24.401c2.012 2.012 5.273 2.012 7.284 0l7.528-7.528z" fill="#eaf6ff"/></g><g><path d="m443.52 259.268c-5.232 11.393-14.432 20.585-25.839 25.794-6.658 3.04-10.805 9.83-10.805 17.149 0 12.815 12.599 22.009 24.712 17.827 28.911-9.982 52.029-32.358 63.045-60.77z" fill="#fb8801"/></g><g><path d="m323.97 312.961-32.642 32.642c-2.012 2.012-5.273 2.012-7.284 0l-32.642-32.642c-2.012-2.012-2.012-5.273 0-7.284l32.642-32.642c2.012-2.012 5.273-2.012 7.284 0l32.642 32.642c2.011 2.011 2.011 5.273 0 7.284z" fill="#fff"/></g><g><path d="m273.992 312.961c-2.012-2.012-2.012-5.273 0-7.284l24.989-24.989-7.653-7.653c-2.012-2.012-5.273-2.012-7.284 0l-32.642 32.642c-2.012 2.012-2.012 5.273 0 7.284l32.642 32.642c2.012 2.012 5.273 2.012 7.284 0l7.653-7.653z" fill="#eaf6ff"/></g></g></svg>