<svg id="Capa_1" enable-background="new 0 0 512 512" height="512" viewBox="0 0 512 512" width="512" xmlns="http://www.w3.org/2000/svg"><g><path d="m297.12 79.227c3.236-4.649 5.143-10.283 5.143-16.344 0-13.336-9.208-24.619-21.579-27.821-3.527-.913-6.466-3.348-8.074-6.617l-12.836-26.096c-1.541-3.132-6.007-3.132-7.548 0l-12.836 26.095c-1.608 3.269-4.547 5.704-8.074 6.617-12.371 3.201-21.579 14.485-21.579 27.821 0 6.061 1.907 11.696 5.143 16.344h82.24z" fill="#fef0ae"/><path d="m229.272 75.882c0-13.336 9.208-24.62 21.579-27.821 3.527-.913 6.466-3.348 8.074-6.617l10.04-20.411-9.191-18.684c-1.541-3.133-6.007-3.133-7.548 0l-12.836 26.095c-1.608 3.269-4.547 5.704-8.074 6.617-12.371 3.201-21.579 14.485-21.579 27.821 0 6.062 1.908 11.697 5.146 16.344h14.606c-.129-1.099-.217-2.211-.217-3.344z" fill="#fedf74"/><path d="m197.874 132.017h116.252c8.962-4.829 15.054-14.298 15.054-25.192 0-15.795-12.804-28.599-28.599-28.599h-89.161c-15.795 0-28.599 12.804-28.599 28.599-.001 10.894 6.091 20.363 15.053 25.192z" fill="#fedf74"/><path d="m197.874 132.017h39.184c-8.962-4.829-15.054-14.298-15.054-25.192 0-15.795 12.804-28.599 28.599-28.599h-39.184c-15.795 0-28.599 12.804-28.599 28.599 0 10.894 6.092 20.363 15.054 25.192z" fill="#fac600"/><path d="m169.216 184.777h173.568c8.93-4.839 14.994-14.291 14.994-25.161 0-15.795-12.804-28.599-28.599-28.599h-146.359c-15.795 0-28.599 12.804-28.599 28.599.001 10.87 6.065 20.323 14.995 25.161z" fill="#fef0ae"/><path d="m169.216 184.777h45.119c-8.93-4.839-14.994-14.291-14.994-25.161 0-15.795 12.804-28.599 28.599-28.599h-45.12c-15.795 0-28.599 12.804-28.599 28.599.001 10.87 6.065 20.323 14.995 25.161z" fill="#fedf74"/><path d="m150.664 237.512c.065 0 .129-.005.193-.005h210.286c.065 0 .129.004.193.005 8.904-4.846 14.947-14.285 14.947-25.136 0-15.795-12.804-28.599-28.599-28.599h-183.37c-15.795 0-28.599 12.804-28.599 28.599.001 10.851 6.045 20.29 14.949 25.136z" fill="#fedf74"/><path d="m150.663 237.512c.065 0 .129-.005.194-.005h44.878c-8.899-4.848-14.939-14.284-14.939-25.131 0-15.795 12.804-28.599 28.599-28.599h-45.08c-15.795 0-28.599 12.804-28.599 28.599 0 10.851 6.043 20.29 14.947 25.136z" fill="#fac600"/><g><path d="m192.36 419.771 16.396 87.821c.477 2.555 2.708 4.408 5.307 4.408h83.876c2.6 0 4.83-1.853 5.307-4.408l16.396-87.821z" fill="#d88a55"/></g><g><path d="m235.083 419.771 5.659 92.229h30.516l5.659-92.229z" fill="#c57a44"/></g><path d="m185.051 380.623 7.495 40.147h126.908l7.495-40.147z" fill="#883f2e"/><path d="m185.051 380.623 7.495 40.147h39.169l-7.495-40.147z" fill="#6d3326"/><path d="m152.088 313 13.518 60.565c1.051 4.709 5.23 8.058 10.054 8.058h160.68c4.825 0 9.003-3.349 10.054-8.058l13.518-60.565z" fill="#d88a55"/><path d="m210.699 373.565-13.518-60.565h-45.093l13.518 60.565c1.051 4.709 5.23 8.058 10.054 8.058h45.093c-4.825 0-9.003-3.349-10.054-8.058z" fill="#c57a44"/><path d="m386.14 279c2.292-4.114 3.602-8.85 3.602-13.894 0-15.795-12.804-28.599-28.599-28.599h-210.286c-15.795 0-28.599 12.804-28.599 28.599 0 5.044 1.31 9.779 3.602 13.894z" fill="#fef0ae"/><path d="m170.478 278c-1.961-3.875-3.074-8.253-3.074-12.894 0-15.795 12.804-28.599 28.599-28.599h-45.146c-15.795 0-28.599 12.804-28.599 28.599 0 4.64 1.112 9.018 3.074 12.894z" fill="#fedf74"/><path d="m392 314h-272c-2.761 0-5-2.239-5-5v-26c0-2.761 2.239-5 5-5h272c2.761 0 5 2.239 5 5v26c0 2.761-2.239 5-5 5z" fill="#ea9b58"/><path d="m163 309v-26c0-2.761 2.239-5 5-5h-48c-2.761 0-5 2.239-5 5v26c0 2.761 2.239 5 5 5h48c-2.761 0-5-2.239-5-5z" fill="#d88a55"/></g></svg>