<svg id="Capa_1" enable-background="new 0 0 512 512" height="512" viewBox="0 0 512 512" width="512" xmlns="http://www.w3.org/2000/svg"><g><g><path d="m346.008 203.163v-180.857c0-8.034-6.513-14.547-14.547-14.547-8.034 0-14.547 6.513-14.547 14.547v180.857z" fill="#8fb0c5"/><path d="m243.098 262.788h73.952c17.445-11.895 28.958-31.92 28.958-54.508v-6.118h-126.717c-2.845 0-5.152 2.307-5.152 5.152v.966c0 22.588 11.514 42.613 28.959 54.508z" fill="#acc7e4"/><path d="m243.098 262.788h39.819c-17.455-11.892-28.982-31.913-28.982-54.507v-.966c0-2.845 2.307-5.152 5.152-5.152h-39.795c-2.845 0-5.152 2.307-5.152 5.152v.966c-.001 22.587 11.513 42.612 28.958 54.507z" fill="#8fb0c5"/></g><g fill="#acc7e4"><path d="m49.708 286.747h-44.504c-2.874 0-5.204 2.33-5.204 5.204v23.157c0 8.623 6.99 15.613 15.613 15.613h34.096v-43.974z"/><path d="m423.231 286.747h-44.505v43.974h34.096c8.623 0 15.613-6.99 15.613-15.613v-23.157c0-2.874-2.33-5.204-5.204-5.204z"/></g><path d="m330.428 473.827-.551-.277c-40.641-20.412-67.061-61.257-68.948-106.597-.047-1.125.359-2.194 1.145-3.012.795-.829 1.865-1.286 3.012-1.286h114.642v-95.715c0-2.845-2.307-5.152-5.152-5.152h-320.716c-2.845 0-5.152 2.307-5.152 5.152v206.389c0 17.072 13.84 30.912 30.912 30.912h250.808z" fill="#fd4755"/><g><path d="m93.931 473.329v-206.389c0-2.845 2.307-5.152 5.152-5.152h-45.223c-2.845 0-5.152 2.307-5.152 5.152v206.389c0 17.072 13.84 30.912 30.912 30.912h45.223c-17.072 0-30.912-13.84-30.912-30.912z" fill="#fb2b3a"/></g><g><path d="m329.428 504.241h107.917c2.845 0 5.152-2.307 5.152-5.152v-26.089h-113.069z" fill="#fedf74"/><path d="m329.428 473h39.892v31.241h-39.892z" fill="#fed402"/><g><path d="m329.428 474.444h113.069c39.782-19.98 67.539-60.38 69.499-107.449.121-2.915-2.238-5.339-5.156-5.339h-241.755c-2.918 0-5.277 2.423-5.156 5.339 1.961 47.069 29.717 87.469 69.499 107.449z" fill="#fed402"/></g><path d="m300.004 366.995c-.121-2.915 2.238-5.339 5.156-5.339h-40.075c-2.918 0-5.277 2.423-5.156 5.339 1.96 47.069 29.717 87.469 69.499 107.449h40.075c-39.782-19.98-67.539-60.38-69.499-107.449z" fill="#fac600"/></g><g><path d="m104.575 90.912h-39.67c-14.079 0-25.532-11.454-25.532-25.532s11.454-25.532 25.532-25.532h76.745c4.142 0 7.5 3.358 7.5 7.5s-3.358 7.5-7.5 7.5h-76.745c-5.808 0-10.532 4.725-10.532 10.532s4.725 10.532 10.532 10.532h39.67c4.142 0 7.5 3.358 7.5 7.5s-3.358 7.5-7.5 7.5z" fill="#fdb441"/></g><g><path d="m160.078 226.406c-4.142 0-7.5-3.358-7.5-7.5v-18.066c0-7.96-6.477-14.437-14.437-14.437h-7.381c-16.231 0-29.437-13.206-29.437-29.437s13.206-29.437 29.437-29.437h29.72c10.095 0 18.308-8.213 18.308-18.308s-8.213-18.309-18.308-18.309h-22.932c-4.142 0-7.5-3.358-7.5-7.5s3.358-7.5 7.5-7.5h22.932c18.366 0 33.308 14.942 33.308 33.309s-14.942 33.308-33.308 33.308h-29.72c-7.96 0-14.437 6.477-14.437 14.437s6.477 14.437 14.437 14.437h7.381c16.231 0 29.437 13.206 29.437 29.437v18.066c0 4.142-3.358 7.5-7.5 7.5z" fill="#fe9901"/></g><g><path d="m274.591 170.765c-4.143 0-7.5-3.358-7.5-7.5v-12.392c0-4.161-3.386-7.546-7.547-7.546h-17.305c-12.432 0-22.546-10.114-22.546-22.546s10.114-22.546 22.546-22.546h21.017c4.143 0 7.5 3.358 7.5 7.5s-3.357 7.5-7.5 7.5h-21.017c-4.161 0-7.546 3.385-7.546 7.546s3.385 7.546 7.546 7.546h17.305c12.433 0 22.547 10.114 22.547 22.546v12.392c0 4.142-3.358 7.5-7.5 7.5z" fill="#fe9901"/></g></g></svg>