<svg id="Capa_1" enable-background="new 0 0 512 512" height="512" viewBox="0 0 512 512" width="512" xmlns="http://www.w3.org/2000/svg"><g><path d="m324.779 355.671h16.76c17.1 0 31.159 13.234 32.493 29.998 3.121-.74 6.37-1.144 9.714-1.144 7.634 0 14.793 2.053 20.972 5.621.04-.019.079-.039.119-.057-2.992-9.132-3.341-19.201-.473-29.029.528-1.809 2.211-3.071 4.093-3.071.567 0 1.123.113 1.653.337l20.169 8.523c6.02-10.249 8.954-22.359 7.776-34.864-.288-3.061-3.202-5.182-6.221-4.599l-103.544 19.988c-3.019.583-4.934 3.635-4.062 6.584.171.577.364 1.144.551 1.713z" fill="#fef0ae"/><path d="m492.79 392.18-82.291-34.776c-2.897-1.224-6.214.357-7.095 3.376-2.813 9.639-2.579 19.591.217 28.711 8.436 4.513 15.256 11.877 19.066 21.171l.436 1.063.993-.578c5.683-3.313 12.173-5.065 18.769-5.065 11.954 0 22.667 5.605 29.52 14.443 9.413-4.27 17.54-11.433 22.909-20.903 1.551-2.737.373-6.217-2.524-7.442z" fill="#fef0ae"/><path d="m422.687 410.661.436 1.063.993-.578c3.57-2.082 7.46-3.545 11.493-4.347-9.734-11.798-13.784-27.713-10.269-43.123l-14.842-6.272c-2.897-1.224-6.214.357-7.095 3.376-2.813 9.639-2.579 19.591.217 28.711 8.437 4.513 15.256 11.877 19.067 21.17z" fill="#fedf74"/><path d="m374.146 388.277v17.418c0 14.906-10.072 27.896-24.493 31.589l.248 1.969h55.886l.117-.866c1.568-11.647 8.507-21.478 18.099-27.135-6.188-16.209-21.873-27.727-40.257-27.727-3.375 0-6.654.401-9.806 1.134.132 1.188.206 2.395.206 3.618z" fill="#fac600"/><g><path d="m480.989 439.253c-2.074-19.213-18.34-34.172-38.104-34.172s-36.03 14.959-38.104 34.172z" fill="#fedf74"/></g><g><path d="m426.412 439.253c1.681-15.559 12.669-28.323 27.287-32.615-3.431-1.007-7.057-1.557-10.814-1.557-19.764 0-36.03 14.959-38.104 34.172z" fill="#fed402"/></g><path d="m26.63 420.583c.053 5.402 1.393 10.87 4.167 15.941.517.946 1.076 1.854 1.667 2.729h61.513v-1.969c-14.421-3.692-24.494-16.683-24.494-31.589v-17.418c0-17.979 14.627-32.607 32.607-32.607h72.532c-.661-3.269-1.811-6.496-3.496-9.576-4.932-9.016-13.359-14.897-22.675-16.901-.121-5.256-1.458-10.561-4.155-15.491-9.003-16.458-29.644-22.502-46.103-13.499-7.858 4.298-13.334 11.252-15.94 19.134-10.391-8.44-25.258-10.263-37.729-3.441-16.281 8.906-22.361 29.199-13.774 45.568-.604.286-1.204.585-1.797.91-16.458 9.003-22.502 29.644-13.499 46.103 2.775 5.07 6.656 9.148 11.176 12.106z" fill="#80d261"/><path d="m26.63 420.583c.053 5.402 1.393 10.87 4.167 15.941.517.946 1.076 1.854 1.667 2.729h32.099c-.245-.408-.488-.818-.718-1.24-2.774-5.071-4.115-10.539-4.167-15.941-4.521-2.958-8.402-7.036-11.176-12.107-9.003-16.459-2.96-37.099 13.499-46.103.593-.325 1.194-.624 1.797-.91-8.587-16.369-2.507-36.661 13.774-45.568.369-.202.746-.371 1.119-.558-10.055-6.211-23.058-7.009-34.167-.932-16.281 8.906-22.361 29.199-13.774 45.567-.604.286-1.204.585-1.797.91-16.459 9.003-22.502 29.644-13.499 46.103 2.775 5.073 6.656 9.151 11.176 12.109z" fill="#68ca44"/><g fill="#883f2e"><path d="m208.736 354.671h-106.645c-18.561 0-33.607 15.046-33.607 33.607v17.418c0 18.561 15.046 33.607 33.607 33.607h106.645z"/><path d="m341.539 354.67h-56.037v49.665c0 3.242-1.263 6.289-3.556 8.58-2.29 2.288-5.332 3.548-8.566 3.548 0 0-.207-.002-.207-.002-6.577-.109-11.927-5.549-11.927-12.126v-9.22c0-7.79-6.336-14.128-14.125-14.128l-.296.003c-7.628.157-13.834 6.691-13.834 14.566v43.745h108.548c18.561 0 33.607-15.046 33.607-33.607v-17.418c0-18.559-15.046-33.606-33.607-33.606z"/></g><path d="m101.423 413.013c-3.741-.339-6.684-3.49-6.684-7.318v-17.418c0-3.828 2.942-6.979 6.684-7.318 3.341-15.04 16.752-26.289 32.798-26.289h-32.131c-18.561 0-33.607 15.046-33.607 33.607v17.418c0 18.561 15.046 33.607 33.607 33.607h32.131c-16.046 0-29.457-11.249-32.798-26.289z" fill="#6d3326"/><g fill="#fd4755"><path d="m247.122 380.988-.296.003c-7.628.157-13.834 6.691-13.834 14.566v17.489h31.992c-2.296-2.214-3.737-5.306-3.737-8.711v-9.22c0-7.789-6.337-14.127-14.125-14.127z"/><path d="m341.539 380.926h-56.037v23.41c0 3.242-1.263 6.289-3.556 8.58-.046.046-.097.085-.144.13h59.737c4.054 0 7.351-3.298 7.351-7.351v-17.418c.001-4.053-3.297-7.351-7.351-7.351z"/><path d="m208.736 380.926h-106.645c-4.054 0-7.352 3.298-7.352 7.352v17.418c0 4.053 3.298 7.351 7.352 7.351h106.645z"/></g><g><path d="m140.522 380.926-10.502 32.121s32.864-.743 33.607 0l10.502-32.121z" fill="#fe646f"/></g><g><path d="m140.522 380.926-10.502 32.121s32.864-.743 33.607 0l10.502-32.121z" fill="#fe646f"/></g><path d="m259.851 217.051 27.807-27.807c-.312-.041-.627-.069-.95-.069-26.857 0-48.708 21.85-48.708 48.707v80.354c0 4.143 3.358 7.5 7.5 7.5s7.5-3.357 7.5-7.5v-80.354c0-6.932 2.115-13.372 5.718-18.734.159-.782.543-1.507 1.133-2.097z" fill="#fe9901"/><g><path d="m496.084 40.592c-14.171-14.17-37.229-14.17-51.399 0l-6.535 6.535 10.607 10.607 6.534-6.534c8.322-8.324 21.864-8.324 30.187 0 8.322 8.322 8.322 21.863 0 30.186l-25.674 25.675c1.471 6.133 2.333 12.358 2.624 18.59l33.657-33.657c6.865-6.865 10.646-15.992 10.646-25.7s-3.782-18.837-10.647-25.702z" fill="#c4e2ff"/><g><path d="m507.707 187.92c-11.085-1.976-22.538-1.384-33.4 1.778-6.942 2.021-14.405 1.142-20.608-2.573l-6.37-3.815c-3.953 6.328-8.645 12.295-14.096 17.745-4.507 4.507-9.372 8.524-14.525 12.038l3.379 5.643c3.715 6.203 4.594 13.666 2.573 20.608-3.162 10.862-3.755 22.315-1.778 33.4.734 4.118 5.769 5.738 8.727 2.78l78.878-78.878c2.958-2.957 1.338-7.992-2.78-8.726z" fill="#d8ecfe"/></g><g><g><path d="m446.566 224.217c2.442-8.39 1.38-17.409-3.11-24.905l-3.455-5.769c-2.112 2.594-4.362 5.107-6.768 7.513-4.507 4.507-9.372 8.524-14.525 12.038l3.379 5.643c3.715 6.203 4.594 13.666 2.573 20.608-3.162 10.862-3.755 22.315-1.778 33.4.734 4.118 5.769 5.738 8.727 2.78l12.545-12.546c-2.055-12.896-1.257-26.157 2.412-38.762z" fill="#c4e2ff"/></g></g><g><path d="m430.32 45.168-171.176 171.175c-2.502 2.502-1.794 6.723 1.386 8.273l5.407 2.634c9.878 4.812 21.721 2.828 29.491-4.942l3.042-3.042c3.472-3.472 8.858-4.207 13.093-1.724 38.679 22.676 89.214 17.425 122.398-15.759s38.435-83.719 15.759-122.398c-2.483-4.236-1.748-9.622 1.724-13.093 2.012-2.012 2.012-5.273 0-7.284l-13.841-13.841c-2.01-2.011-5.272-2.011-7.283.001z" fill="#acc7e4"/></g><g><path d="m448.81 173.289c-33.184 33.184-83.719 38.435-122.398 15.759-4.236-2.483-9.622-1.748-13.093 1.724l-3.042 3.042c-7.77 7.77-19.613 9.754-29.491 4.942l-2.726-1.328-18.916 18.916c-2.502 2.502-1.794 6.723 1.386 8.273l5.407 2.634c9.878 4.812 21.721 2.828 29.491-4.942l3.042-3.042c3.472-3.472 8.858-4.207 13.093-1.723 38.679 22.676 89.214 17.425 122.398-15.759 11.526-11.525 19.673-25.146 24.46-39.634-2.894 3.881-6.085 7.612-9.611 11.138z" fill="#8fb0c5"/></g></g><g><circle cx="191.614" cy="317.722" fill="#fe9901" r="7.5"/></g><g><circle cx="282.27" cy="318.752" fill="#fe9901" r="7.5"/></g><g><circle cx="211.187" cy="283.726" fill="#fe9901" r="7.5"/></g><g><path d="m116.937 154.734h-39.67c-14.078 0-25.532-11.453-25.532-25.531s11.454-25.532 25.532-25.532h76.745c4.142 0 7.5 3.357 7.5 7.5s-3.358 7.5-7.5 7.5h-76.745c-5.807 0-10.532 4.725-10.532 10.532s4.725 10.531 10.532 10.531h39.67c4.142 0 7.5 3.357 7.5 7.5s-3.357 7.5-7.5 7.5z" fill="#fdb441"/></g><g><path d="m172.44 290.228c-4.142 0-7.5-3.357-7.5-7.5v-18.066c0-7.96-6.477-14.437-14.438-14.437h-7.381c-16.231 0-29.437-13.206-29.437-29.438s13.206-29.437 29.437-29.437h29.72c10.095 0 18.309-8.213 18.309-18.309s-8.213-18.309-18.309-18.309h-22.931c-4.142 0-7.5-3.357-7.5-7.5s3.358-7.5 7.5-7.5h22.931c18.366 0 33.309 14.942 33.309 33.309s-14.942 33.309-33.309 33.309h-29.72c-7.96 0-14.437 6.477-14.437 14.437 0 7.961 6.477 14.438 14.437 14.438h7.381c16.232 0 29.438 13.205 29.438 29.437v18.066c0 4.142-3.358 7.5-7.5 7.5z" fill="#fdb441"/></g><g><path d="m276 344.168h-57.762c-5.8 0-10.502 4.702-10.502 10.502v84.632h26.255v-43.744c0-7.219 5.637-13.418 12.855-13.566 7.364-.152 13.401 5.775 13.401 13.125v9.22c0 7.165 5.746 13.007 12.91 13.126 7.334.122 13.345-5.79 13.345-13.126v-49.667c0-5.8-4.702-10.502-10.502-10.502z" fill="#fe9901"/></g><path d="m231.118 344.168h-12.88c-5.8 0-10.502 4.702-10.502 10.502v84.632h12.879v-84.632c.001-5.8 4.703-10.502 10.503-10.502z" fill="#fb8801"/><g><path d="m506.849 482.035h-501.698c-2.845 0-5.151-2.306-5.151-5.151v-33.481c0-2.845 2.306-5.151 5.151-5.151h501.698c2.845 0 5.151 2.306 5.151 5.151v33.481c0 2.845-2.306 5.151-5.151 5.151z" fill="#ea9b58"/></g><g><path d="m48.934 476.884v-33.481c0-2.845 2.306-5.151 5.151-5.151h-48.934c-2.845 0-5.151 2.306-5.151 5.151v33.481c0 2.845 2.306 5.151 5.151 5.151h48.934c-2.845 0-5.151-2.306-5.151-5.151z" fill="#d88a55"/></g></g></svg>