<svg id="Capa_1" enable-background="new 0 0 512 512" height="512" viewBox="0 0 512 512" width="512" xmlns="http://www.w3.org/2000/svg"><g><g><g><path d="m471.564 167.485c-.268.421-.526.847-.824 1.255-4.238 5.799-10.533 9.172-17.725 9.496-.457.02-.919.03-1.382.03-8.401 0-16.209-3.371-21.984-9.493l-.728-.771-.728.771c-5.775 6.122-13.583 9.493-21.983 9.493-8.401 0-16.209-3.371-21.984-9.493l-.728-.771-.728.771c-5.774 6.122-13.582 9.493-21.983 9.493s-16.209-3.371-21.984-9.493l-.728-.771-.728.771c-5.774 6.122-13.582 9.493-21.983 9.493s-16.209-3.371-21.983-9.493l-.728-.771-.728.771c-5.775 6.122-13.583 9.493-21.984 9.493s-16.209-3.371-21.983-9.493l-.728-.771-.728.771c-5.775 6.122-13.583 9.493-21.984 9.493-8.4 0-16.208-3.371-21.983-9.493l-.728-.771-.728.771c-5.775 6.122-13.583 9.493-21.983 9.493-8.401 0-16.209-3.371-21.984-9.493l-.728-.771-.728.771c-5.774 6.122-13.582 9.493-21.983 9.493-.464 0-.925-.011-1.385-.03-7.19-.324-13.484-3.697-17.723-9.496-.298-.408-.556-.834-.824-1.255-23.369 32.882-38.227 71.281-40.195 111.013 144.143 9.658 288.767 9.773 432.925.346l5.285-.346c-1.965-39.733-16.823-78.131-40.192-111.013z" fill="#fe646f"/></g><g><path d="m133.675 179.266c-.478 0-.954-.011-1.427-.032-7.948-.358-14.387-4.293-18.487-9.905-.228-.312-.445-.627-.655-.946-23 32.682-37.6 70.746-39.55 110.115h42.544c1.861-37.58 15.259-73.964 36.477-105.619-5.248 4.002-11.794 6.387-18.902 6.387z" fill="#fd4755"/></g><path d="m436.793 436.925c-75.067-3.517-150.23-4.279-225.337-2.301v44.345h171.906c4.913 0 9.741-1.36 13.888-3.994 16.798-10.666 32.617-23.381 46.835-37.709z" fill="#fe646f"/></g><path d="m511.759 278.497h-109.615c-5.96 0-11.385-3.392-14.039-8.729-17.439-35.067-53.629-59.166-95.451-59.166s-78.012 24.099-95.451 59.166c-2.654 5.337-8.079 8.729-14.039 8.729h-109.615c-.137 2.76-.23 5.524-.241 8.296.12 18.248 3.06 36.157 8.316 53.411 8.158-6.826 18.512-10.669 29.151-10.669 12.465 0 24.549 5.261 33.155 14.433l.297.315h8.523c21.907 0 40.11 17.138 41.442 39.016l.057.939h22.135c2.297 0 4.165 1.868 4.165 4.165v25.227c0 2.297-1.868 4.166-4.165 4.166h-4.928v19.471h232.629c40.175-40.485 67.543-93.87 67.915-150.474-.011-2.771-.104-5.536-.241-8.296z" fill="#fff3de"/><g><path d="m110.774 328.535c3.62 0 7.142.433 10.529 1.226-3.441-13.999-5.344-28.375-5.441-42.968.011-2.771.1-5.536.237-8.295h-42.55c-.137 2.76-.23 5.524-.241 8.295.118 17.881 2.936 35.439 7.994 52.372 8.038-6.625 18.305-10.63 29.472-10.63z" fill="#fed2a4"/></g><path d="m134.92 85.97h315.468v36.847h-315.468z" fill="#fed2a4"/><path d="m134.92 85.97h45.282v36.847h-45.282z" fill="#ffbd86"/><g><path d="m450.388 121.816h-315.468l-16.45 13.571c-10.148 8.372-12.472 23.318-4.71 33.941 4.1 5.612 10.539 9.547 18.487 9.905.473.021.949.032 1.427.032 8.952 0 17.017-3.772 22.711-9.807 5.694 6.035 13.76 9.807 22.711 9.807s17.017-3.772 22.711-9.807c5.694 6.035 13.76 9.807 22.711 9.807 8.952 0 17.017-3.772 22.711-9.807 5.694 6.035 13.76 9.807 22.711 9.807s17.017-3.772 22.711-9.807c5.694 6.035 13.76 9.807 22.711 9.807 8.952 0 17.017-3.772 22.711-9.807 5.694 6.035 13.76 9.807 22.711 9.807 8.952 0 17.017-3.772 22.711-9.807 5.694 6.035 13.76 9.807 22.711 9.807 8.952 0 17.017-3.772 22.711-9.807 5.694 6.035 13.76 9.807 22.711 9.807.478 0 .954-.011 1.427-.032 7.948-.358 14.387-4.293 18.487-9.905 7.762-10.623 5.438-25.569-4.71-33.941z" fill="#d88a55"/></g><g><g><path d="m147.727 169.329c-7.762-10.623-5.438-25.569 4.71-33.941l16.45-13.572h-33.967l-16.45 13.572c-10.148 8.372-12.472 23.318-4.71 33.941 4.1 5.612 10.539 9.547 18.487 9.905.473.021.949.032 1.427.032 6.699 0 12.902-2.114 17.986-5.707-1.476-1.256-2.797-2.676-3.933-4.23z" fill="#c57a44"/></g></g><g><path d="m452.139 86.97h-318.97c-9.651 0-17.474-7.823-17.474-17.474v-18.991c0-9.651 7.823-17.474 17.474-17.474h318.971c9.651 0 17.474 7.823 17.474 17.474v18.992c-.001 9.65-7.824 17.473-17.475 17.473z" fill="#d88a55"/></g><g><path d="m155.181 69.496v-18.991c0-9.651 7.823-17.474 17.474-17.474h-39.486c-9.651 0-17.474 7.823-17.474 17.474v18.992c0 9.651 7.823 17.474 17.474 17.474h39.486c-9.65-.001-17.474-7.824-17.474-17.475z" fill="#c57a44"/></g><g><g><circle cx="425.451" cy="348.622" fill="#fe646f" r="21.031"/></g></g><g><g><g><path d="m255.072 289.472c.33.33.671.639 1.008.956 2.985-.736 6.091-1.134 9.281-1.134h22.435c-2.021-7.556-5.99-14.698-11.918-20.627-5.889-5.889-12.975-9.848-20.474-11.881-7.413-2.01-14.222 4.799-12.212 12.212 2.032 7.499 5.991 14.585 11.88 20.474z" fill="#68ca44"/><path d="m319.947 289.294c3.189 0 6.296.398 9.281 1.134.337-.318.679-.627 1.008-.956 5.889-5.889 9.848-12.975 11.881-20.474 2.01-7.413-4.799-14.222-12.212-12.212-7.5 2.033-14.585 5.992-20.474 11.881-5.929 5.929-9.898 13.071-11.918 20.627z" fill="#68ca44"/><path d="m306.215 289.294c.746-3.29 1.15-6.709 1.15-10.225 0-8.393-2.246-16.259-6.167-23.036-3.773-6.519-13.317-6.519-17.089 0-3.921 6.776-6.167 14.643-6.167 23.036 0 3.516.404 6.935 1.15 10.225z" fill="#80d261"/></g><g><path d="m328.616 390.428 25.149-43.56c15.03-26.033-3.758-58.574-33.818-58.574h-54.587c-30.06 0-48.848 32.541-33.818 58.574l25.149 43.56c15.984 27.684 55.942 27.684 71.925 0z" fill="#fb2b3a"/></g><g><path d="m284.834 390.428-25.149-43.56c-15.03-26.033 3.758-58.574 33.818-58.574h-28.143c-30.06 0-48.848 32.541-33.818 58.574l25.149 43.56c10.719 18.565 32.213 24.66 50.034 18.326-8.753-3.112-16.625-9.207-21.891-18.326z" fill="#e41f2d"/></g></g></g><g><g><circle cx="276.125" cy="348.459" fill="#6d3326" r="7.5"/></g><g><circle cx="309.183" cy="348.459" fill="#6d3326" r="7.5"/></g><g><circle cx="292.654" cy="372.219" fill="#6d3326" r="7.5"/></g><g><circle cx="259.596" cy="322.632" fill="#6d3326" r="7.5"/></g><g><circle cx="292.654" cy="322.632" fill="#6d3326" r="7.5"/></g><g><circle cx="325.712" cy="322.632" fill="#6d3326" r="7.5"/></g></g><g><g><g><path d="m195.252 384.238c-.844-22.67-19.636-40.956-42.502-40.956h-8.091c-8.501-9.059-20.557-14.748-33.885-14.748-13.327 0-25.384 5.689-33.885 14.748h-8.091c-22.866 0-41.659 18.286-42.502 40.956z" fill="#fb2b3a"/></g><g><path d="m60.982 384.238c-.575-2.777-.879-5.65-.879-8.591 0-12.926 5.849-24.546 15.024-32.365h-6.328c-22.866 0-41.659 18.286-42.502 40.956z" fill="#e41f2d"/></g><g><circle cx="63.017" cy="371.5" fill="#fe646f" r="7.5"/></g><g><circle cx="161.157" cy="364.988" fill="#fe646f" r="7.5"/></g><g><circle cx="101.24" cy="356.723" fill="#fe646f" r="7.5"/></g><path d="m131.775 383.238c1.096-1.304 1.758-2.984 1.758-4.821 0-4.142-3.358-7.5-7.5-7.5s-7.5 3.358-7.5 7.5c0 1.837.662 3.517 1.758 4.821z" fill="#fe646f"/><path d="m9.094 417.796v50.843c0 5.706 4.625 10.331 10.331 10.331h193.032v-61.174z" fill="#d8ecfe"/><g><path d="m48.355 468.639v-49.843h-39.262v49.843c0 5.706 4.625 10.331 10.331 10.331h39.262c-5.706-.001-10.331-4.626-10.331-10.331z" fill="#c4e2ff"/></g><g><path d="m5.165 418.796h211.219c2.853 0 5.165-2.313 5.165-5.165v-25.227c0-2.853-2.313-5.165-5.165-5.165h-211.219c-2.853 0-5.165 2.313-5.165 5.165v25.227c0 2.852 2.313 5.165 5.165 5.165z" fill="#eaf6ff"/></g><g><path d="m39.616 413.63v-25.227c0-2.853 2.313-5.165 5.165-5.165h-39.616c-2.853 0-5.165 2.313-5.165 5.165v25.227c0 2.853 2.313 5.165 5.165 5.165h39.616c-2.852.001-5.165-2.312-5.165-5.165z" fill="#d8ecfe"/></g></g></g></g></svg>