<svg id="Capa_1" enable-background="new 0 0 512 512" height="512" viewBox="0 0 512 512" width="512" xmlns="http://www.w3.org/2000/svg"><g><g><g><g><path d="m230.351 228.489c6.406 0 11.992 3.567 14.885 8.817 2.866-5.202 8.379-8.744 14.712-8.808-1.225-2.346-1.928-5.006-1.928-7.831 0-3.364.995-6.495 2.69-9.136-3.131-5.291-8.88-8.85-15.473-8.85-9.933 0-17.986 8.053-17.986 17.986 0 2.833.673 5.503 1.84 7.887.416-.032.834-.065 1.26-.065z" fill="#fb8801"/><path d="m260.121 228.489c6.406 0 11.992 3.567 14.885 8.817 2.893-5.25 8.479-8.817 14.885-8.817.426 0 .843.033 1.261.064 1.167-2.384 1.84-5.054 1.84-7.887 0-9.933-8.053-17.986-17.986-17.986s-17.986 8.053-17.986 17.986c0 2.833.673 5.503 1.84 7.887.418-.031.835-.064 1.261-.064z" fill="#fdb441"/></g><g><path d="m246.099 254.159c1.423-2.575 2.238-5.534 2.238-8.684 0-9.933-8.053-17.986-17.986-17.986s-17.986 8.053-17.986 17.986c0 3.151.815 6.109 2.238 8.684z" fill="#fdb441"/><path d="m305.639 254.159c1.423-2.575 2.238-5.534 2.238-8.684 0-9.933-8.053-17.986-17.986-17.986s-17.986 8.053-17.986 17.986c0 3.151.815 6.109 2.238 8.684z" fill="#fb8801"/><path d="m275.869 254.159c1.423-2.575 2.238-5.534 2.238-8.684 0-9.933-8.053-17.986-17.986-17.986s-17.986 8.053-17.986 17.986c0 3.151.815 6.109 2.238 8.684z" fill="#fe9901"/></g></g><path d="m325.022 369.496v-111.186c0-2.845-2.306-5.151-5.151-5.151h-119.501c-2.845 0-5.151 2.306-5.151 5.151v111.186z" fill="#017b4e"/><path d="m231.276 369.496v-111.186c0-2.845 2.306-5.151 5.151-5.151h-36.057c-2.845 0-5.151 2.306-5.151 5.151v111.186z" fill="#026841"/></g><g><path d="m56.343 369.496h74.808c23.191-6.949 40.096-28.444 40.096-53.897v-42.464c0-31.076-25.192-56.268-56.268-56.268h-42.465c-31.076 0-56.268 25.192-56.268 56.268v42.464c.001 25.453 16.905 46.948 40.097 53.897z" fill="#017b4e"/><path d="m34 315.599v-42.464c0-31.076 25.192-56.268 56.268-56.268h-17.754c-31.076 0-56.268 25.192-56.268 56.268v42.464c0 25.453 16.905 46.948 40.096 53.897h17.753c-23.19-6.949-40.095-28.444-40.095-53.897z" fill="#026841"/><g><path d="m57.724 340.283c4.326 2.602 9.385 4.102 14.79 4.102h42.464c15.898 0 28.786-12.888 28.786-28.786v-16.681l-6.051-6.388c-9.527-10.058-25.55-10.036-35.05.047z" fill="#fe9901"/></g><path d="m83.847 263.61-40.119 40.119v11.87c0 10.467 5.618 19.645 13.995 24.684l47.526-47.526c-10.4-6.587-18.177-16.938-21.402-29.147z" fill="#fe646f"/><path d="m82.204 250.945c0-2.238.163-4.437.451-6.596h-10.141c-15.873 0-28.786 12.913-28.786 28.786v33.501l40.77-40.77c-1.487-4.709-2.294-9.721-2.294-14.921z" fill="#fd4755"/><g><path d="m114.979 244.349h-32.324c-.288 2.159-.451 4.358-.451 6.596 0 27.32 22.148 49.468 49.468 49.468 4.172 0 8.222-.522 12.092-1.495v-25.783c0-15.873-12.913-28.786-28.785-28.786z" fill="#fff"/></g></g><g><path d="m396.248 369.496h51.222c10.006-3.628 19.399-9.438 27.422-17.461 29.289-29.289 29.289-76.777 0-106.066s-76.777-29.289-106.066 0-29.289 76.777 0 106.066c8.023 8.023 17.416 13.833 27.422 17.461z" fill="#fe9901"/><path d="m387.967 245.969c12.205-12.205 27.571-19.305 43.463-21.338-22.245-2.846-45.519 4.254-62.603 21.338-29.289 29.289-29.289 76.777 0 106.066 8.023 8.023 17.416 13.833 27.422 17.461h19.141c-10.006-3.628-19.399-9.438-27.422-17.461-29.29-29.289-29.29-76.776-.001-106.066z" fill="#fb8801"/><path d="m453.077 267.784c-17.241-17.241-45.195-17.241-62.436 0s-17.241 45.195 0 62.436c5.236 5.236 11.464 8.872 18.076 10.928l56.168-52.017c-1.786-7.822-5.715-15.254-11.808-21.347z" fill="#fe646f"/><path d="m426.901 308.253c4.512-4.512 9.505-8.242 14.809-11.214l-38.199-38.199c-4.663 2.129-9.033 5.107-12.87 8.945s-6.815 8.208-8.945 12.87l37.211 37.211c2.325-3.384 4.987-6.606 7.994-9.613z" fill="#fd4755"/></g><g><g><path d="m33.481 396.873v33.664c0 2.845 2.306 5.151 5.151 5.151h91.686c2.845 0 5.151-2.306 5.151-5.151v-33.664z" fill="#ea9b58"/><path d="m69.537 430.537v-33.664h-36.056v33.664c0 2.845 2.306 5.151 5.151 5.151h36.056c-2.845 0-5.151-2.306-5.151-5.151z" fill="#d88a55"/><path d="m376.531 396.873v33.664c0 2.845 2.306 5.151 5.151 5.151h91.686c2.845 0 5.151-2.306 5.151-5.151v-33.664z" fill="#ea9b58"/><path d="m417.738 430.537v-33.664h-41.207v33.664c0 2.845 2.306 5.151 5.151 5.151h41.207c-2.844 0-5.151-2.306-5.151-5.151z" fill="#d88a55"/></g></g><g><path d="m501.698 397.873h-491.396c-5.69 0-10.302-4.612-10.302-10.302v-8.773c0-5.69 4.612-10.302 10.302-10.302h491.396c5.69 0 10.302 4.612 10.302 10.302v8.773c0 5.69-4.612 10.302-10.302 10.302z" fill="#883f2e"/></g><g><path d="m48.934 387.571v-8.773c0-5.69 4.612-10.302 10.302-10.302h-48.934c-5.69 0-10.302 4.612-10.302 10.302v8.773c0 5.69 4.612 10.302 10.302 10.302h48.934c-5.69 0-10.302-4.612-10.302-10.302z" fill="#6d3326"/></g><g><g><path d="m495.002 107.56h-461.521v-26.097c0-2.845 2.306-5.151 5.151-5.151h451.219c2.845 0 5.151 2.306 5.151 5.151z" fill="#f6a96c"/></g><g><path d="m89.111 76.312h-50.479c-2.845 0-5.151 2.306-5.151 5.151v26.098h50.479v-26.099c0-2.844 2.306-5.15 5.151-5.15z" fill="#ea9b58"/></g><g><path d="m489.851 138.809h-451.219c-2.845 0-5.151-2.306-5.151-5.151v-26.098h461.521v26.098c0 2.845-2.306 5.151-5.151 5.151z" fill="#ea9b58"/></g><g><path d="m83.96 133.658v-26.098h-50.479v26.098c0 2.845 2.306 5.151 5.151 5.151h50.479c-2.845 0-5.151-2.306-5.151-5.151z" fill="#d88a55"/></g></g><path d="m464.885 289.132c-13.9 2.062-27.285 8.422-37.984 19.121-9.387 9.387-15.445 20.84-18.184 32.895 15.159 4.713 32.355 1.077 44.36-10.928 11.149-11.148 15.078-26.774 11.808-41.088z" fill="#fff"/></g></svg>