<svg id="Capa_1" enable-background="new 0 0 512 512" height="512" viewBox="0 0 512 512" width="512" xmlns="http://www.w3.org/2000/svg"><g><path d="m511.952 458.517c-8.476-108.178-98.944-193.32-209.298-193.32-11.038 0-21.876.857-32.454 2.499 103.158 12.347 183.465 100.134 183.962 206.449v1h42.376c8.995-.001 16.117-7.659 15.414-16.628z" fill="#fac600"/><path d="m69.707 361.708c5.43-8.382 11.48-16.397 18.116-23.985-7.608-7.942-12.291-18.708-12.291-30.575 0-24.421 19.797-44.219 44.219-44.219 16.421 0 30.74 8.958 38.367 22.246 9.12-4.185 18.529-7.707 28.166-10.533-12.039-24.595-37.304-41.536-66.533-41.536-40.892 0-74.042 33.15-74.042 74.042-.001 21.595 9.25 41.025 23.998 54.56z" fill="#fed2a4"/><g><path d="m118.834 93.733 58.273-23.029c2.979-1.177 4.439-4.546 3.262-7.525l-8.952-22.654c-1.177-2.979-4.546-4.439-7.525-3.262l-58.273 23.029c-2.979 1.177-4.439 4.546-3.262 7.525l8.952 22.654c1.177 2.979 4.546 4.439 7.525 3.262z" fill="#fb8801"/></g><path d="m46.016 411.901-42.346 16.735c-2.979 1.177-4.439 4.546-3.262 7.525l8.952 22.654c1.177 2.979 4.546 4.439 7.525 3.262l20.444-8.079c1.448-14.405 4.378-28.498 8.687-42.097z" fill="#017b4e"/><path d="m71.319 359.24-8.063-20.404c-1.177-2.979-4.546-4.439-7.525-3.262l-22.654 8.952c-2.979 1.177-4.439 4.546-3.262 7.525l19.671 49.777c5.604-14.972 12.926-29.257 21.833-42.588z" fill="#017b4e"/><path d="m56.799 384.693-33.211-14.397c-2.939-1.274-6.354.076-7.628 3.014l-9.688 22.349c-1.274 2.939.076 6.354 3.014 7.628l34.798 15.085c3.265-11.596 7.516-22.862 12.715-33.679z" fill="#80d261"/><g><path d="m223.292 241.792c5.221-3.641 11.364-5.565 17.764-5.565 4.633 0 9.197 1.059 13.343 3.038 6.626-16.063 22.433-27.372 40.888-27.372 16.998 0 31.747 9.596 39.148 23.662 2.278-.441 4.621-.675 7.011-.675 1.665 0 3.351.113 5.013.337 7.827 1.051 14.986 4.481 20.704 9.921l.687.653.668-.631c-5.294-35.698-36.06-63.091-73.23-63.091-36.174 0-66.27 25.948-72.738 60.242z" fill="#fed2a4"/></g><path d="m337.772 287.78.742.367.5-.66c7.444-9.845 18.779-15.49 31.1-15.49 10.961 0 21.478 4.655 28.853 12.773l.648.713.736-.621c7.015-5.917 15.932-9.176 25.109-9.176 2.3 0 4.55.212 6.742.596 2.206-20.55-12.344-39.237-32.952-42.005-11.92-1.601-23.289 2.472-31.399 10.135-5.639-5.365-12.955-9.072-21.26-10.188-20.952-2.815-40.219 11.888-43.034 32.84-.331 2.465-.411 4.905-.276 7.299 11.793 3.415 23.309 7.882 34.491 13.417z" fill="#017b4e"/><g><g><path d="m346.474 145.46c25.578 25.578 66.351 26.699 93.262 3.365 2.018-1.75 2.128-4.848.24-6.737l-90.129-90.129c-1.889-1.889-4.987-1.778-6.737.24-23.335 26.91-22.213 67.683 3.364 93.261z" fill="#fd4755"/></g><g><path d="m374.398 150.994c-22.896-22.896-26.179-57.961-9.882-84.366l-14.67-14.67c-1.889-1.889-4.987-1.778-6.737.24-23.335 26.91-22.213 67.684 3.365 93.262 13.604 13.604 31.505 20.288 49.334 20.056-7.776-3.336-15.062-8.174-21.41-14.522z" fill="#fb2b3a"/></g><g><g><path d="m364.496 133.615c-1.919 0-3.839-.732-5.304-2.197-2.929-2.929-2.928-7.678 0-10.606l6.612-6.611c2.929-2.928 7.677-2.929 10.607.001 2.929 2.929 2.928 7.678 0 10.606l-6.612 6.611c-1.464 1.464-3.383 2.196-5.303 2.196z" fill="#fe646f"/></g><g><path d="m362.458 104.249h-9.351c-4.142 0-7.5-3.357-7.5-7.5s3.358-7.5 7.5-7.5h9.351c4.142 0 7.5 3.357 7.5 7.5s-3.358 7.5-7.5 7.5z" fill="#fe646f"/></g><g><path d="m393.315 146.327c-4.142 0-7.5-3.357-7.5-7.5v-9.351c0-4.143 3.358-7.5 7.5-7.5s7.5 3.357 7.5 7.5v9.351c0 4.143-3.358 7.5-7.5 7.5z" fill="#fe646f"/></g></g></g><path d="m459.73 335.24c3.619-6.012 5.703-13.053 5.703-20.581 0-22.076-17.896-39.973-39.973-39.973-9.814 0-18.797 3.543-25.754 9.411-7.312-8.048-17.862-13.101-29.593-13.101-13.417 0-25.282 6.618-32.532 16.76 50.968 25.223 90.235 70.629 107.285 125.715 1.304.128 2.625.197 3.962.197 22.076 0 39.973-17.896 39.973-39.973 0-18.295-12.296-33.708-29.071-38.455z" fill="#80d261"/><path d="m465.106 309.542c-2.43-19.041-18.419-33.842-37.591-34.804-10.612-.532-20.369 3.084-27.808 9.36-7.804-8.59-19.297-13.768-31.977-13.032-12.312.715-23.268 7.138-30.13 16.7 5.672 2.808 11.2 5.861 16.568 9.154 4.884-2.129 10.277-3.309 15.946-3.309 10.216 0 19.537 3.833 26.604 10.139 1.781 1.59 4.393 1.742 6.369.403 6.384-4.323 14.082-6.852 22.373-6.852 18.145 0 33.457 12.094 38.338 28.658 1.508-5.121 2.043-10.657 1.308-16.417z" fill="#68ca44"/><path d="m441.86 382.35c-3.064 0-6.019.466-8.798 1.331 8.575 17.541 14.753 36.457 18.13 56.315 11.761-3.909 20.247-14.993 20.247-28.067-.001-16.336-13.244-29.579-29.579-29.579z" fill="#fe9901"/><path d="m458.099 427.587c-3.169 0-6.218.504-9.08 1.426 3.288 14.534 5.07 29.634 5.142 45.131v1h27.418c3.821-4.983 6.098-11.214 6.098-17.979 0-16.335-13.243-29.578-29.578-29.578z" fill="#fb8801"/><path d="m245.216 266.197c9.432 0 18.716.64 27.82 1.857.232-9.534-3.769-19.071-11.718-25.582-11.342-9.288-27.139-9.491-38.598-1.501-1.89-5.295-5.196-10.162-9.863-13.984-13.685-11.208-33.865-9.199-45.073 4.486-4.982 6.084-7.346 13.451-7.24 20.743-8.701.447-17.19 4.422-23.145 11.694-8.251 10.076-9.33 23.668-3.869 34.612 33.174-21.022 71.734-32.325 111.686-32.325z" fill="#80d261"/><path d="m153.128 287.546c1.092-4.547 3.2-8.925 6.362-12.787 5.02-6.13 11.84-9.917 19.07-11.223 2.277-.411 4.014-2.229 4.272-4.528.664-5.924 2.985-11.731 7.043-16.686 6.777-8.276 16.835-12.273 26.755-11.669-1.143-1.3-2.391-2.534-3.774-3.666-13.685-11.208-33.865-9.199-45.073 4.486-4.982 6.084-7.346 13.451-7.24 20.743-9.132.469-18.03 4.824-24.01 12.798-7.394 9.857-8.221 22.934-2.989 33.499 6.34-4.016 12.878-7.672 19.584-10.967z" fill="#68ca44"/><g><path d="m245.216 265.197c-110.354 0-200.823 85.142-209.298 193.32-.703 8.969 6.419 16.627 15.415 16.627h403.831c-.001-115.95-93.997-209.947-209.948-209.947z" fill="#fed402"/></g><g><path d="m80.917 458.517c7.892-100.732 86.882-181.476 186.817-192.116-7.399-.789-14.91-1.204-22.518-1.204-110.355 0-200.823 85.142-209.298 193.32-.703 8.969 6.419 16.627 15.415 16.627h44.999c-8.996 0-16.118-7.658-15.415-16.627z" fill="#fac600"/></g><g><path d="m269.99 133.15c2.593-1.362 3.817-4.464 2.731-7.184-3.234-8.099-8.957-15.29-16.893-20.307-7.935-5.017-16.886-7.103-25.589-6.551-2.923.185-5.201 2.621-5.318 5.548l-1.738 43.241c-.179 4.461 4.538 7.443 8.491 5.368z" fill="#fd4755"/></g><g><circle cx="89.786" cy="160.804" fill="#fd4755" r="20.879"/></g><g><g><path d="m355.622 421.339c-1.919 0-3.839-.732-5.303-2.197-3.188-3.188-7.421-4.943-11.921-4.943-4.499 0-8.733 1.756-11.921 4.944-2.929 2.928-7.678 2.928-10.606 0-2.929-2.93-2.929-7.678 0-10.607 6.021-6.021 14.021-9.337 22.527-9.337s16.507 3.316 22.527 9.338c2.929 2.929 2.929 7.678 0 10.606-1.465 1.463-3.384 2.196-5.303 2.196z" fill="#fef0ae"/></g><g><path d="m258.537 421.339c-1.919 0-3.839-.732-5.303-2.197-3.188-3.188-7.421-4.943-11.921-4.943-4.499 0-8.732 1.756-11.92 4.943-2.929 2.93-7.678 2.929-10.606.001-2.929-2.929-2.929-7.678 0-10.606 6.021-6.021 14.021-9.338 22.527-9.338s16.507 3.316 22.527 9.338c2.929 2.929 2.929 7.678 0 10.606-1.465 1.463-3.384 2.196-5.304 2.196z" fill="#fef0ae"/></g><g><path d="m161.453 421.339c-1.919 0-3.839-.732-5.303-2.196-6.573-6.574-17.269-6.574-23.842 0-2.929 2.928-7.678 2.928-10.606 0-2.929-2.93-2.929-7.678 0-10.607 12.422-12.42 32.633-12.42 45.055 0 2.929 2.93 2.929 7.678 0 10.607-1.465 1.463-3.384 2.196-5.304 2.196z" fill="#fef0ae"/></g><g><path d="m323.843 355.042c-1.919 0-3.839-.732-5.303-2.196-6.573-6.574-17.269-6.574-23.842 0-2.929 2.928-7.678 2.928-10.606 0-2.929-2.93-2.929-7.678 0-10.607 12.422-12.42 32.633-12.42 45.055 0 2.929 2.93 2.929 7.678 0 10.607-1.465 1.464-3.384 2.196-5.304 2.196z" fill="#fef0ae"/></g><g><path d="m214.46 355.042c-1.919 0-3.839-.732-5.303-2.196-6.573-6.574-17.269-6.574-23.842 0-2.929 2.928-7.678 2.928-10.606 0-2.929-2.93-2.929-7.678 0-10.607 12.422-12.42 32.633-12.42 45.055 0 2.929 2.93 2.929 7.678 0 10.607-1.465 1.464-3.385 2.196-5.304 2.196z" fill="#fef0ae"/></g></g></g></svg>