<svg id="Capa_1" enable-background="new 0 0 512 512" height="512" viewBox="0 0 512 512" width="512" xmlns="http://www.w3.org/2000/svg"><g><path d="m333.196 28.457c-15.036 0-28.34 7.38-36.514 18.709 6.054 4.315 10.015 11.398 10.015 19.396 0 1.665-.195 3.39-.58 5.13l-.249 1.128 1.152.084c12.339.91 22.005 11.327 22.005 23.716 0 2.338-.37 4.709-1.1 7.048l-.412 1.323 1.809-.029c8.229 0 15.491 4.224 19.749 10.62 17.021-6.419 29.133-22.851 29.133-42.118-.001-24.857-20.151-45.007-45.008-45.007z" fill="#80d261"/><g><path d="m307.697 66.561c0 1.83-.22 3.615-.603 5.346 1.371.101 2.716.316 4.027.637 2.917-21.491 20.998-38.155 43.118-38.865-6.281-3.329-13.439-5.222-21.043-5.222-14.681 0-27.718 7.033-35.933 17.91 6.242 4.437 10.434 11.716 10.434 20.194z" fill="#68ca44"/></g><g><g><path d="m189.567 120.27c0-3.985.997-7.779 2.77-11.125l-18.184-38.997c-9.302 1.874-18.027 5.931-25.455 11.836l-.104.082 28.943 62.068c1.826-1.046 3.789-1.865 5.856-2.397l14.2-3.654c-4.917-4.362-8.026-10.729-8.026-17.813z" fill="#883f2e"/></g><g><path d="m126.502 1.324c-7.058 3.291-10.111 11.681-6.82 18.738l28.913 62.003 25.559-11.918-28.913-62.002c-3.292-7.058-11.681-10.112-18.739-6.821z" fill="#f6a96c"/></g></g><g><path d="m276.995 43.535c1.232-.317 2.48-.524 3.732-.643 4.222-16.848-3.117-30.165-8.896-37.513-2.196-2.793-6.517-2.541-8.396.474-3.063 4.912-9.738 12.961-24.156 25.597-9.172 8.039-14.058 17.215-16.447 26.023z" fill="#fe646f"/><path d="m250.639 49.284c2.835-6.157 7.124-12.269 13.475-17.836 6.282-5.506 11.092-10.139 14.776-14.023-2-4.924-4.663-9.001-7.059-12.048-2.196-2.793-6.517-2.541-8.396.474-3.063 4.912-9.738 12.96-24.156 25.597-8.786 7.701-13.637 16.444-16.13 24.909z" fill="#fd4755"/><path d="m299.323 73.593c1.968-.506 3.978-.763 5.976-.763.529 0 1.052.024 1.572.058.536-2.03.826-4.151.826-6.328 0-16.189-15.272-28.029-30.951-23.995l-54.707 14.078c-10.949 2.817-18.602 12.689-18.602 23.995 0 6.232 2.269 11.813 5.947 16.099z" fill="#fff3de"/><path d="m240.352 87.736c-4.935-4.48-8.112-10.947-8.112-18.324 0-6.589 2.613-12.68 6.95-17.182l-17.152 4.414c-10.949 2.817-18.602 12.689-18.602 23.995 0 5.826 1.985 11.083 5.249 15.246z" fill="#fef0ae"/><path d="m196.445 138.379 126.904-32.656c1.717-.442 3.468-.682 5.214-.738.944-2.63 1.462-5.448 1.462-8.365 0-16.189-15.272-28.029-30.951-23.995l-91.905 23.65c-10.949 2.817-18.602 12.689-18.602 23.995 0 7.259 3.077 13.638 7.878 18.109z" fill="#fe646f"/><path d="m229.366 128.875c-6.855-4.338-11.552-11.97-11.552-20.945 0-5.976 2.154-11.539 5.787-15.883l-16.432 4.228c-10.949 2.817-18.602 12.689-18.602 23.995 0 6.828 2.723 12.876 7.042 17.292z" fill="#fd4755"/><path d="m206.662 175.94 136.465-35.119c1.967-.506 3.977-.763 5.974-.763.722 0 1.437.045 2.147.11 1.792-3.445 2.803-7.335 2.803-11.418 0-16.189-15.272-28.029-30.951-23.995l-139.955 36.014c-6.87 1.768-12.44 6.315-15.639 12.25.527-.036 1.053-.076 1.585-.076 6.247 0 12.066 2.483 16.387 6.993 5.916 6.177 13.091 11.547 21.184 16.004z" fill="#fff3de"/><path d="m267.49 190.723c32.888 0 63.546-11.509 82.012-30.786 4.32-4.51 10.14-6.993 16.388-6.993 1.976 0 3.912.274 5.781.765-4.745-10.574-16.644-16.983-28.792-13.856l-137.49 35.38c17.376 9.901 39.195 15.49 62.101 15.49z" fill="#fe646f"/></g><path d="m153.49 246.835c0-4.12.125-8.237.367-12.344l-44.208 44.208c-4.873 4.873-4.904 12.793-.014 17.648 10.605 10.53 31.034 26.512 59.156 29.133-10.034-24.64-15.301-51.235-15.301-78.645z" fill="#d88a55"/><g fill="#d88a55"><path d="m319.581 418.437c-5.5-7.106-4.755-17.211 1.598-23.566 20.254-20.259 36.371-44.651 46.99-71.798-2.949-.253-5.927-.392-8.935-.392-10.929 0-21.511 1.675-31.452 4.978-1.109.369-2.255.556-3.405.556-6.01 0-10.911-4.876-10.926-10.87v-.178c0-9.7 1.922-18.841 5.299-26.87l-1.318-.051c-55.999-2.153-111.401-12.321-164.515-30.193 3.273 52.516 25.888 99.787 60.826 134.76 6.372 6.379 7.175 16.493 1.656 23.623-16.191 20.916-27.081 46.142-30.656 73.666-1.373 10.568 6.983 19.898 17.64 19.898h130.214c10.657 0 19.013-9.33 17.641-19.898-3.575-27.523-14.466-52.749-30.657-73.665z"/><path d="m376.561 263.839c1.71.885 3.37 1.894 4.97 3.022.214-2.256.381-4.527.525-6.803z"/></g><g><path d="m188.761 281.013c-13.276-5.685-25.348-12.757-35.844-20.96 3.278 52.609 25.969 99.954 61.012 134.946 6.333 6.324 6.948 16.36 1.469 23.438-16.191 20.917-27.081 46.142-30.656 73.666-1.372 10.567 6.984 19.897 17.641 19.897h33.479c-10.657 0-19.013-9.33-17.641-19.898 3.575-27.523 14.466-52.749 30.656-73.666 5.479-7.077 4.864-17.114-1.47-23.438-30.321-30.276-51.391-69.804-58.646-113.985z" fill="#c57a44"/></g><path d="m376.488 196.97c-27.204 24.953-66.426 39.128-108.998 39.128-9.965 0-19.743-.786-29.23-2.296.076.672.125 1.352.125 2.043 0 9.921-8.071 17.992-17.992 17.992s-17.992-8.071-17.992-17.992c0-3.914 1.27-7.529 3.4-10.485-17.952-6.648-34.059-16.236-47.309-28.391-3.913 15.981-6.002 32.677-6.002 49.866 0 4.44.152 8.844.425 13.216 28.828 22.532 69.497 36.578 114.575 36.578 17.943 0 35.183-2.232 51.26-6.332 7.686-18.273 22.945-30.758 40.484-30.758 6.226 0 12.164 1.578 17.58 4.424 1.79-1.274 3.542-2.577 5.25-3.912.272-4.371.425-8.775.425-13.216.001-17.188-2.088-33.884-6.001-49.865z" fill="#f6a96c"/><path d="m372.131 260.813h-25.792c-19.563 7.019-33.888 29.582-33.888 56.353v.18c.02 8.05 8.007 13.799 15.646 11.261 9.529-3.166 20.059-4.926 31.137-4.926s21.608 1.761 31.137 4.926c7.64 2.538 15.627-3.21 15.646-11.261 0-.06 0-.12 0-.18.001-26.77-14.323-49.334-33.886-56.353z" fill="#c57a44"/><path d="m188.022 217.502c-10.885-5.666-20.824-12.546-29.531-20.533-3.913 15.981-6.002 32.677-6.002 49.866 0 4.44.152 8.844.425 13.216 10.496 8.204 22.569 15.276 35.846 20.962-1.827-11.123-2.792-22.537-2.792-34.177.001-9.958.705-19.75 2.054-29.334z" fill="#ea9b58"/><path d="m382.272 158.525c-9.448-9.049-24.443-8.726-33.492.72-18.282 19.085-48.67 30.478-81.291 30.478s-63.009-11.393-81.291-30.478c-9.05-9.447-24.044-9.768-33.492-.72-9.448 9.05-9.77 24.045-.719 33.492 14.281 14.909 32.536 26.499 53.233 34.197 3.196-5.017 8.795-8.361 15.171-8.361 9.579 0 17.411 7.531 17.941 16.981 9.466 1.493 19.22 2.265 29.156 2.265 45.959 0 88.058-16.432 115.502-45.082 9.052-9.447 8.73-24.442-.718-33.492z" fill="#d88a55"/><g><path d="m174.204 173.565c5.545-5.31 12.835-7.669 19.931-7.124-2.841-2.26-5.502-4.655-7.936-7.197-9.05-9.447-24.044-9.768-33.492-.72-9.447 9.05-9.77 24.045-.719 33.492 6.223 6.497 13.213 12.351 20.819 17.54-9.272-10.367-8.725-26.294 1.397-35.991z" fill="#c57a44"/></g><g><g><path d="m211.925 338.724c-7.679 0-14.901-2.993-20.337-8.429-2.929-2.929-2.929-7.678 0-10.606 2.93-2.929 7.678-2.929 10.607 0 2.602 2.602 6.058 4.035 9.729 4.035s7.128-1.433 9.729-4.035c2.93-2.929 7.678-2.929 10.607 0s2.929 7.678 0 10.606c-5.434 5.435-12.656 8.429-20.335 8.429z" fill="#ffbd86"/></g><g><path d="m267.448 338.724c-7.679 0-14.901-2.993-20.337-8.429-2.929-2.929-2.929-7.678 0-10.606 2.93-2.929 7.678-2.929 10.607 0 2.602 2.602 6.058 4.035 9.729 4.035s7.128-1.433 9.729-4.035c2.93-2.929 7.678-2.929 10.607 0s2.929 7.678 0 10.606c-5.433 5.435-12.656 8.429-20.335 8.429z" fill="#ffbd86"/></g></g><g><g><path d="m239.729 376.199c-7.68 0-14.901-2.993-20.337-8.429-2.929-2.929-2.929-7.678.001-10.607 2.929-2.928 7.678-2.928 10.606 0 2.602 2.603 6.057 4.035 9.729 4.035s7.128-1.433 9.729-4.035c2.93-2.929 7.678-2.929 10.607 0s2.929 7.678 0 10.606c-5.434 5.437-12.657 8.43-20.335 8.43z" fill="#ffbd86"/></g><g><path d="m295.251 376.181c-7.364 0-14.729-2.804-20.337-8.411-2.929-2.929-2.929-7.678 0-10.606 2.93-2.929 7.678-2.929 10.607 0 2.602 2.602 6.058 4.035 9.73 4.035s7.128-1.433 9.729-4.035c2.93-2.929 7.678-2.929 10.607 0s2.929 7.678 0 10.606c-5.606 5.607-12.971 8.411-20.336 8.411z" fill="#ffbd86"/></g></g><g><g><path d="m267.49 486.337c-4.143 0-7.5-3.358-7.5-7.5v-48.561c0-4.142 3.357-7.5 7.5-7.5s7.5 3.358 7.5 7.5v48.561c0 4.142-3.357 7.5-7.5 7.5z" fill="#ffbd86"/></g><g><g><path d="m234.919 486.337c-4.143 0-7.5-3.358-7.5-7.5v-34.348c0-4.142 3.357-7.5 7.5-7.5s7.5 3.358 7.5 7.5v34.348c0 4.142-3.357 7.5-7.5 7.5z" fill="#ffbd86"/></g><g><path d="m300.061 486.337c-4.143 0-7.5-3.358-7.5-7.5v-34.348c0-4.142 3.357-7.5 7.5-7.5s7.5 3.358 7.5 7.5v34.348c0 4.142-3.358 7.5-7.5 7.5z" fill="#ffbd86"/></g></g></g><g><circle cx="220.393" cy="235.846" fill="#fed2a4" r="18.992"/></g><g><path d="m374.835 308.679c.622 0 1.255-.078 1.886-.242 4.01-1.039 6.418-5.131 5.38-9.141l-9.969-38.483c-4.098-1.47-8.421-2.274-12.896-2.274s-8.798.804-12.896 2.274l-9.969 38.483c-1.038 4.01 1.37 8.103 5.38 9.141 4.014 1.04 8.103-1.371 9.142-5.379l8.344-32.211 8.345 32.211c.873 3.379 3.917 5.621 7.253 5.621z" fill="#d88a55"/></g></g></svg>