<svg id="Capa_1" enable-background="new 0 0 512 512" height="512" viewBox="0 0 512 512" width="512" xmlns="http://www.w3.org/2000/svg"><g><g><path d="m459.709 94.479c-2.93-2.928-7.678-2.928-10.607 0l-67.533 67.534c3.506 3.616 6.657 7.56 9.437 11.778l68.704-68.705c2.928-2.93 2.928-7.678-.001-10.607z" fill="#6d3326"/><path d="m101.866 237.877c9.159-3.56 19.104-5.535 29.506-5.535 24.433 0 47.389 10.81 62.983 29.658l.702.849.777-.78c12.531-12.586 29.093-20.85 46.637-23.271l1.089-.149-.252-1.07c-4.351-18.461-2.098-37.998 6.343-55.013 1.454-2.93 3.071-5.737 4.823-8.428-16.414-40.51-61.88-61.494-103.665-47.04-43.169 14.933-66.058 62.033-51.126 105.201.659 1.904 1.402 3.754 2.183 5.578z" fill="#ea9b58"/><path d="m150.809 127.097c-31.343 10.842-51.979 38.645-55.226 69.585l26.648 4.408c8.15 1.348 16.458-1.239 22.402-6.976l2.582-2.492c7.889-7.615 19.694-9.491 29.556-4.699 9.293 4.516 20.374 3.13 28.268-3.536l36.54-30.856c-21.359-25.807-57.246-37.03-90.77-25.434z" fill="#883f2e"/><path d="m172.441 134.027c13.693-4.736 27.778-5.662 41.108-3.346-18.943-9.074-41.321-10.993-62.74-3.584-31.343 10.842-51.979 38.645-55.226 69.585l22.049 3.648c4.315-29.61 24.579-55.846 54.809-66.303z" fill="#6d3326"/><g><path d="m253.734 238.007c24.314 0 46.168 10.687 61.148 27.597 14.894-20.159 38.815-33.262 65.746-33.262 8.061 0 15.846 1.192 23.208 3.377 7.503-35.966-9.785-73.84-44.232-90.93-40.919-20.301-90.548-3.586-110.848 37.333-9.07 18.282-10.732 38.298-6.167 56.665 3.647-.5 7.363-.78 11.145-.78z" fill="#ffbd86"/><path d="m359.604 144.789c-32.646-16.196-70.819-8.812-95.236 15.607l15.109 18.996c10.357 13.021 27.298 18.895 43.492 15.079l4.975-1.172c11.433-2.694 23.413 1.237 31.028 10.18 6.022 7.073 15.744 9.766 24.548 6.801l20.556-6.923c-4.704-24.511-20.39-46.621-44.472-58.568z" fill="#d88a55"/><path d="m280.934 181.094c24.445-21.162 60.129-26.858 90.906-11.589 12.406 6.155 22.576 15.01 30.172 25.497-6.368-21.11-21.097-39.641-42.408-50.214-32.646-16.196-70.819-8.812-95.236 15.607l15.109 18.996c.467.588.963 1.145 1.457 1.703z" fill="#c57a44"/></g><g><g><path d="m180.869 356.693-.695-1.436c-5.406-11.163-8.147-23.121-8.147-35.543 0-22.419 9.081-42.753 23.751-57.531-15.161-18.802-38.372-30.841-64.405-30.841-45.678 0-82.708 37.03-82.708 82.708 0 15.602 4.325 30.191 11.834 42.644h120.37z" fill="#ea9b58"/><path d="m95.854 323.446 16.652-24.458c5.089-7.475 15.723-8.475 22.117-2.081l1.281 1.281c5.632 5.632 14.762 5.632 20.394 0l1.133-1.133c4.982-4.982 12.697-5.548 18.311-1.716 3.96-12.643 10.918-23.971 20.035-33.155-15.158-18.804-38.37-30.843-64.404-30.843-41.382 0-75.664 30.392-81.748 70.072l24.113 24.113c6.394 6.395 17.027 5.395 22.116-2.08z" fill="#883f2e"/><g><path d="m93.25 264.573c12.417-16.598 30.926-28.374 52.212-32.022-4.58-.786-9.285-1.209-14.09-1.209-41.382 0-75.664 30.392-81.748 70.072l24.113 24.113c6.394 6.394 17.028 5.394 22.117-2.081l1.603-2.354c-15.2-15.2-17.083-39.306-4.207-56.519z" fill="#6d3326"/></g></g><g><path d="m335.441 319.715c0 12.422-2.741 24.38-8.147 35.543l-.695 1.436h124.903c7.509-12.453 11.834-27.042 11.834-42.644 0-45.678-37.029-82.708-82.708-82.708-27.225 0-51.372 13.158-66.444 33.457 13.201 14.519 21.257 33.794 21.257 54.916z" fill="#ea9b58"/><path d="m332.602 298.397c.546-.409 1.077-.845 1.574-1.342 5.632-5.631 14.762-5.631 20.394 0l1.133 1.133c5.632 5.632 14.762 5.632 20.394 0l1.281-1.281c6.394-6.394 17.028-5.394 22.117 2.081l16.652 24.458c5.089 7.475 15.723 8.475 22.117 2.081l24.113-24.113c-6.083-39.68-40.366-70.072-81.748-70.072-27.226 0-51.365 13.166-66.434 33.468 8.586 9.447 14.978 20.915 18.407 33.587z" fill="#883f2e"/><path d="m328.145 286.03c14.71-22.866 40.357-38.024 69.567-38.024 18.146 0 34.924 5.845 48.561 15.753-15.117-19.703-38.891-32.417-65.645-32.417-27.226 0-51.365 13.166-66.433 33.468 5.692 6.263 10.405 13.421 13.95 21.22z" fill="#6d3326"/></g><g><path d="m327.711 356.693c5.575-11.13 8.73-23.683 8.73-36.979 0-45.678-37.029-82.708-82.708-82.708-45.678 0-82.708 37.029-82.708 82.708 0 13.296 3.155 25.848 8.73 36.979z" fill="#ffbd86"/><path d="m253.734 237.007c-39.854 0-73.117 28.192-80.953 65.719l41.673 25.104c9.764 5.882 22.281 4.353 30.341-3.708l6.417-6.417c8.875-8.875 22.98-9.723 32.854-1.975 10.78 8.458 26.375 6.575 34.832-4.207l13.537-17.258c-10.737-33.222-41.905-57.258-78.701-57.258z" fill="#d88a55"/><path d="m277.203 253.699c12.671 0 24.674 2.851 35.405 7.945-14.993-15.208-35.829-24.638-58.874-24.638-39.854 0-73.117 28.192-80.953 65.719l23.988 14.451c8.672-36.399 41.38-63.477 80.434-63.477z" fill="#c57a44"/></g></g><circle cx="172.04" cy="213.007" fill="#c57a44" r="7.5"/><circle cx="270.938" cy="204.507" fill="#fff3de" r="7.5"/><circle cx="300.813" cy="224.08" fill="#fff3de" r="7.5"/><circle cx="334.809" cy="215.839" fill="#fff3de" r="7.5"/><circle cx="387.348" cy="322.978" fill="#ffbd86" r="7.5"/><circle cx="356.5" cy="336.199" fill="#ffbd86" r="7.5"/><circle cx="202.5" cy="339.199" fill="#fff3de" r="7.5"/><circle cx="269.907" cy="334.31" fill="#fff3de" r="7.5"/><circle cx="309.5" cy="340.199" fill="#fff3de" r="7.5"/><g fill="#c57a44"><circle cx="143.5" cy="321.5" r="7.5"/><circle cx="107.5" cy="339.5" r="7.5"/><circle cx="208.097" cy="220.99" r="7.5"/></g></g><path d="m251.116 104.193-15.241-15.241c-2.012-2.012-2.012-5.273 0-7.284l15.241-15.241c2.012-2.012 5.273-2.012 7.284 0l15.241 15.241c2.012 2.012 2.012 5.273 0 7.284l-15.241 15.241c-2.011 2.011-5.272 2.011-7.284 0z" fill="#68ca44"/><path d="m449.334 213.392-15.241-15.241c-2.012-2.012-2.012-5.273 0-7.284l15.241-15.241c2.012-2.012 5.273-2.012 7.284 0l15.241 15.241c2.012 2.012 2.012 5.273 0 7.284l-15.241 15.241c-2.011 2.012-5.273 2.012-7.284 0z" fill="#017b4e"/><path d="m125.888 80.251-15.38-15.38c-2.012-2.012-2.012-5.273 0-7.284l15.38-15.38c2.012-2.012 5.273-2.012 7.284 0l15.38 15.38c2.012 2.012 2.012 5.273 0 7.284l-15.38 15.38c-2.011 2.012-5.272 2.012-7.284 0z" fill="#017b4e"/><g><path d="m24.042 434.53h463.916l23.777-72.019c1.109-3.359-1.392-6.818-4.929-6.818h-501.611c-3.537 0-6.038 3.46-4.929 6.818z" fill="#fb2b3a"/></g><path d="m67.485 433.5-23.436-70.988c-1.109-3.359 1.392-6.818 4.929-6.818h-43.783c-3.537 0-6.038 3.46-4.929 6.818l23.436 70.988z" fill="#e41f2d"/><path d="m23.702 433.5 13.8 41.801h436.996l13.8-41.801z" fill="#fe646f"/><path d="m80.108 471.737-12.623-38.237h-43.783l12.624 38.237c.702 2.127 2.689 3.564 4.929 3.564h43.783c-2.24 0-4.227-1.437-4.93-3.564z" fill="#fd4755"/><path d="m381.178 67.724c2.624-.703 4.244-3.321 3.725-5.987-1.16-5.963-4.047-11.656-8.666-16.275s-10.312-7.506-16.275-8.666c-2.666-.519-5.284 1.102-5.987 3.725l-7.648 28.542c-1.026 3.83 2.478 7.335 6.309 6.309z" fill="#017b4e"/><path d="m26.264 211.322c-2.624-.703-4.244-3.321-3.725-5.987 1.16-5.963 4.047-11.656 8.666-16.275s10.312-7.506 16.275-8.666c2.666-.519 5.284 1.102 5.987 3.725l7.648 28.542c1.026 3.83-2.478 7.335-6.309 6.309z" fill="#68ca44"/></g></svg>