<svg id="Capa_1" enable-background="new 0 0 512 512" height="512" viewBox="0 0 512 512" width="512" xmlns="http://www.w3.org/2000/svg"><g><g><path d="m114.2 142.645.552-.424c4.177-3.21 8.939-5.322 14.001-6.292-.139-7.468-1.705-16.129-4.804-25.004-7.878-22.56-22.636-37.926-32.964-34.319-9.31 3.251-11.838 20.811-6.475 40.767-19.776-8.201-38.307-7.886-42.699 1.221-4.753 9.853 8.842 26.256 30.365 36.638 10.508 5.069 20.959 7.761 29.461 8.047 1.467-8.224 5.877-15.497 12.563-20.634z" fill="#fb8801"/><path d="m123.672 215.912c1.841.544 3.693.817 5.527.894.012 9.848 6.431 18.932 16.358 21.865 4.536 1.34 9.157 1.206 13.351-.122-.176 5.084 1.36 10.005 4.218 14.031h212.151c5.139-3.128 9.185-8.087 11.025-14.313 3.934-13.313-3.669-27.295-16.983-31.229-1.623-.479-3.255-.781-4.878-.929 1.695-11.11-5.005-22.044-16.084-25.318-8.837-2.611-17.982.389-23.67 6.904-2.726-5.49-7.62-9.884-13.961-11.758-9.725-2.874-19.834 1.038-25.283 8.966-2.834-4.803-7.403-8.598-13.173-10.303-9.065-2.678-18.47.531-24.118 7.399-1.009-8.835-7.159-16.641-16.223-19.319-8.671-2.562-17.635.282-23.343 6.543-.468-9.419-6.761-17.945-16.317-20.769-5.656-1.672-11.434-1.027-16.36 1.345-2.048-7.319-7.679-13.462-15.506-15.774-5.712-1.688-11.548-1.015-16.505 1.415-10.031-2.627-21.037-.71-29.754 5.988-.184.141-.369.283-.553.425-15.497 11.908-17.829 34.012-6.012 48.822-1.652 11.081 5.041 21.971 16.093 25.237z" fill="#fac600"/></g><path d="m486.761 55.286h-461.522v-26.098c0-2.845 2.306-5.151 5.151-5.151h451.22c2.845 0 5.151 2.306 5.151 5.151z" fill="#c57a44"/><path d="m420.515 0c-11.284 0-20.432 9.148-20.432 20.432 0-11.284-9.148-20.432-20.432-20.432-11.284 0-20.432 9.148-20.432 20.432 0-11.284-9.148-20.432-20.432-20.432-11.284 0-20.432 9.148-20.432 20.432 0-11.284-9.148-20.432-20.432-20.432s-20.432 9.148-20.432 20.432v232.148h40.864 40.864 40.864 40.864v-232.148c0-11.284-9.148-20.432-20.432-20.432z" fill="#fff3de"/><g fill="#fef0ae"><path d="m294.117 252.58v-232.148c0-8.321 4.982-15.467 12.119-18.653-2.542-1.135-5.35-1.779-8.313-1.779-11.284 0-20.432 9.148-20.432 20.432v232.148z"/><path d="m335.324 252.58v-232.148c0-8.253 4.904-15.346 11.948-18.57-2.587-1.185-5.454-1.862-8.485-1.862-11.284 0-20.432 9.148-20.432 20.432v232.148z"/><path d="m375.844 252.58v-232.148c0-8.321 4.982-15.467 12.119-18.653-2.541-1.135-5.349-1.779-8.312-1.779-11.284 0-20.432 9.148-20.432 20.432v232.148z"/><path d="m416.708 252.58v-232.148c0-8.321 4.982-15.467 12.119-18.653-2.541-1.135-5.349-1.779-8.312-1.779-11.284 0-20.432 9.148-20.432 20.432v232.148z"/></g><path d="m481.61 86.535h-451.22c-2.845 0-5.151-2.306-5.151-5.151v-26.098h461.521v26.098c.001 2.845-2.306 5.151-5.15 5.151z" fill="#d88a55"/><g><path d="m103.438 202.31.471-.511c3.535-3.845 7.91-6.769 12.717-8.599-1.416-7.334-4.441-15.599-9.014-23.812-11.625-20.878-28.796-33.489-38.354-28.168-8.616 4.797-8.099 22.53.602 41.273-20.888-4.694-39.091-1.21-41.86 8.515-2.995 10.521 13.208 24.354 36.19 30.897 11.221 3.195 21.978 4.057 30.404 2.883.037-8.351 3.136-16.272 8.844-22.478z" fill="#fe9901"/><path d="m98.876 208.589c-7.114.107-15.269-.964-23.697-3.364-17.755-5.055-31.454-14.459-35.391-23.328-6.243 1.683-10.554 4.774-11.788 9.111-2.995 10.521 13.208 24.354 36.19 30.897 11.221 3.195 21.978 4.057 30.404 2.883.025-5.744 1.506-11.281 4.282-16.199z" fill="#fb8801"/><g><path d="m105.139 250.764c.015.611.064 1.215.127 1.816h282.16c.196-.87.364-1.751.469-2.657 1.596-13.79-8.289-26.264-22.08-27.86-1.681-.195-3.341-.213-4.965-.08-.232-11.236-8.706-20.861-20.182-22.189-9.154-1.059-17.65 3.463-22.138 10.855-3.626-4.941-9.2-8.433-15.768-9.193-10.074-1.166-19.363 4.419-23.374 13.163-3.615-4.247-8.766-7.203-14.742-7.895-9.389-1.087-18.106 3.686-22.495 11.419-2.507-8.532-9.903-15.169-19.292-16.256-8.981-1.039-17.326 3.298-21.878 10.444-2.074-9.199-9.734-16.522-19.633-17.668-5.859-.678-11.441.946-15.888 4.127-3.271-6.86-9.871-11.948-17.978-12.886-5.917-.685-11.551.978-16.019 4.22-10.333-.871-20.848 2.903-28.289 10.995-.157.171-.315.342-.472.513-13.23 14.387-11.742 36.563 2.437 49.132z" fill="#fed402"/></g><g><path d="m105.139 250.764c.015.611.064 1.215.127 1.816h32.935c-2.788-3.713-4.457-8.276-4.575-13.148-14.178-12.568-15.666-34.745-2.437-49.131.056-.061.112-.121.167-.182-10.298-.836-20.767 2.937-28.182 11.001-.157.171-.315.342-.472.513-13.23 14.386-11.742 36.562 2.437 49.131z" fill="#fac600"/></g></g><g><g fill="#fb2b3a"><path d="m163.568 484.531v17.167c0 5.689 4.612 10.302 10.302 10.302h185.016c5.69 0 10.302-4.612 10.302-10.302v-17.167z"/><path d="m453.667 313.821c-131.011-19.102-264.169-18.104-394.879 2.96 17.13 54.582 55.191 99.897 104.781 126.543l1.24.068c68.076 3.736 136.306 3.713 204.38-.068 49.59-26.645 87.651-71.96 104.781-126.543z"/></g><g fill="#e41f2d"><path d="m216.985 443.323c-49.59-26.645-87.651-71.96-104.781-126.543h-53.417c17.13 54.582 55.191 99.897 104.781 126.543z"/><path d="m216.985 501.698v-17.167h-53.417v17.167c0 5.689 4.612 10.302 10.302 10.302h53.417c-5.69 0-10.302-4.612-10.302-10.302z"/></g><path d="m473.362 251.579h-413.967c-5.86 0-10.58 4.884-10.296 10.737.918 18.89 4.26 37.14 9.696 54.464h415.167c5.436-17.324 8.778-35.574 9.696-54.464.284-5.852-4.436-10.737-10.296-10.737z" fill="#eaf6ff"/><path d="m112.811 251.579h-53.416c-5.86 0-10.58 4.884-10.296 10.737.918 18.89 4.26 37.14 9.696 54.464h53.417c-5.436-17.324-8.778-35.574-9.696-54.464-.285-5.852 4.435-10.737 10.295-10.737z" fill="#d8ecfe"/><g fill="#e41f2d"><circle cx="86.378" cy="284.845" r="7.5"/><circle cx="126.378" cy="284.845" r="7.5"/><circle cx="166.378" cy="284.845" r="7.5"/><circle cx="206.378" cy="284.845" r="7.5"/><circle cx="246.378" cy="284.845" r="7.5"/><circle cx="286.378" cy="284.845" r="7.5"/><circle cx="326.378" cy="284.845" r="7.5"/><circle cx="366.378" cy="284.845" r="7.5"/><circle cx="406.378" cy="284.845" r="7.5"/><circle cx="446.378" cy="284.845" r="7.5"/></g><path d="m163.568 501.698c0 5.69 4.612 10.302 10.302 10.302h185.016c5.69 0 10.302-4.612 10.302-10.302v-17.168c-68.076-3.684-136.301-3.707-204.38-.066l-1.24.066z" fill="#fb2b3a"/><path d="m202.847 501.698v-17.168h-39.279v17.168c0 5.69 4.612 10.302 10.302 10.302h39.279c-5.69 0-10.302-4.612-10.302-10.302z" fill="#e41f2d"/><path d="m163.568 443.323h205.62v41.207h-205.62z" fill="#eaf6ff"/><path d="m163.568 443.323h39.279v41.207h-39.279z" fill="#d8ecfe"/></g></g></svg>