<svg id="Capa_1" enable-background="new 0 0 512 512" height="512" viewBox="0 0 512 512" width="512" xmlns="http://www.w3.org/2000/svg"><g><g><path d="m335.411 270.783-21.42-47.486c-.515-1.142-.417-2.452.263-3.505.68-1.052 1.834-1.681 3.087-1.681h47.846l-87.513-87.513c-9.802-9.802-25.695-9.802-35.497 0l-47.186 47.186 113.021 113.02c.651.651 1.247 1.336 1.807 2.04 1.106-.104 2.225-.163 3.358-.163 8.409 0 16.14 2.939 22.235 7.835v-29.733z" fill="#f6a96c"/><path d="m335.411 270.783-21.42-47.486c-.515-1.142-.417-2.452.263-3.505.68-1.052 1.834-1.681 3.087-1.681h9.611l-59.743-59.743c-4.023-4.023-10.546-4.023-14.569 0l-38.534 38.532 93.904 93.903c.651.651 1.247 1.336 1.807 2.04 1.106-.104 2.225-.163 3.358-.163 8.414 0 16.139 2.953 22.235 7.855v-29.752z" fill="#c57a44"/><path d="m335.411 281.043-7.091-7.091c-2.012-2.012-2.012-5.273 0-7.284l3.608-3.608-11.322-25.1-10.497 10.497c-2.012 2.012-5.273 2.012-7.284 0l-21.607-21.607c-2.012-2.012-2.012-5.273 0-7.284l23.594-23.594-18.212-18.213-23.594 23.594c-2.012 2.012-5.273 2.012-7.284 0l-23.034-23.034-18.211 18.211 26.676 26.676-.369.369 65.314 65.314.369-.369 4.254 4.254c.812-.056 1.63-.094 2.456-.094 8.414 0 16.139 2.953 22.235 7.855v-19.492z" fill="#ffbd86"/></g><g><path d="m12.12 326.834c9.808 9.808 20.482 18.584 31.843 26.231h187.263l-.429-1.311c-1.069-3.268-1.612-6.669-1.612-10.109 0-17.91 14.571-32.48 32.481-32.48 6.229 0 12.289 1.777 17.522 5.138l.982.631.473-1.067c5.408-12.209 17.181-20.306 30.382-21.105-.699-.927-1.465-1.819-2.309-2.663l-131.169-131.172c-9.802-9.802-25.695-9.802-35.497 0l-131.169 131.17c-9.802 9.802-9.802 25.695 0 35.497z" fill="#ea9b58"/><path d="m229.185 341.644c0-17.91 14.571-32.48 32.481-32.48 6.878 0 13.259 2.155 18.516 5.817 1.144-2.833 2.635-5.488 4.433-7.906-.321-2.101-1.281-4.127-2.902-5.747l-114.63-114.631c-4.023-4.023-10.546-4.023-14.569 0l-114.629 114.63c-4.168 4.168-4.028 11.014.376 14.932 19.022 16.925 40.729 29.186 63.642 36.806h115.792c4.123-1.371 8.205-2.898 12.241-4.57-.482-2.242-.751-4.53-.751-6.851z" fill="#c57a44"/><path d="m241.126 315.214-12.932-12.932c-2.012-2.012-2.012-5.273 0-7.284l23.595-23.594-18.211-18.211-23.594 23.594c-2.012 2.012-5.273 2.012-7.284 0l-21.607-21.607c-2.012-2.012-2.012-5.273 0-7.284l23.594-23.594-18.211-18.211-23.594 23.594c-2.012 2.012-5.273 2.012-7.284 0l-23.034-23.034-18.211 18.211 23.034 23.034c2.012 2.012 2.012 5.273 0 7.284l-21.607 21.607c-2.012 2.012-5.273 2.012-7.284 0l-23.034-23.034-18.211 18.211 23.034 23.034c2.012 2.012 2.012 5.273 0 7.284l-30.463 30.463c7.557 4.939 15.398 9.263 23.454 12.969l25.22-25.22c2.012-2.012 5.273-2.012 7.284 0l21.607 21.607c2.012 2.012 2.012 5.273 0 7.284l-3.68 3.68h51.067l-3.68-3.68c-2.012-2.012-2.012-5.273 0-7.284l21.607-21.607c2.012-2.012 5.273-2.012 7.284 0l18.329 18.329c.799-9.59 5.637-18.025 12.812-23.609zm-56.639-12.932-21.607 21.607c-2.012 2.012-5.273 2.012-7.284 0l-21.607-21.607c-2.012-2.012-2.012-5.273 0-7.284l21.607-21.607c2.012-2.012 5.273-2.012 7.284 0l21.607 21.607c2.012 2.011 2.012 5.272 0 7.284z" fill="#f6a96c"/></g><path d="m335.411 353.064v-53.84c-6.162-4.728-13.868-7.544-22.236-7.544-20.198 0-36.571 16.374-36.571 36.571 0 9.578 3.687 18.293 9.713 24.813z" fill="#fed402"/><g><path d="m481.704 233.126h-15.536v15h15.536c8.435 0 15.296 6.862 15.296 15.296v31.216c0 8.435-6.862 15.296-15.296 15.296h-15.536v15h15.536c16.706 0 30.296-13.591 30.296-30.296v-31.216c0-16.705-13.591-30.296-30.296-30.296z" fill="#c4e2ff"/><path d="m334.411 270.998v82.067h132.757v-131.28c0-2.582-2.093-4.675-4.675-4.675h-145.153c-3.394 0-5.657 3.503-4.261 6.597z" fill="#eaf6ff"/><path d="m334.411 270.998v82.067h33.996v-82.067l-21.332-47.29c-1.396-3.094.867-6.597 4.261-6.597h-33.996c-3.394 0-5.657 3.503-4.261 6.597z" fill="#d8ecfe"/></g><path d="m293.146 353.064c1.293-3.564 2.001-7.409 2.001-11.42 0-18.491-14.99-33.481-33.481-33.481s-33.481 14.99-33.481 33.481c0 4.011.707 7.856 2.001 11.42z" fill="#fedf74"/><path d="m250.794 353.064c-1.294-3.564-2.006-7.408-2.006-11.42 0-14.896 9.73-27.513 23.179-31.859-3.246-1.049-6.706-1.622-10.302-1.622-18.491 0-33.481 14.99-33.481 33.481 0 4.011.707 7.856 2.001 11.42z" fill="#fac600"/><g><path d="m501.698 388.754h-491.396c-5.69 0-10.302-4.612-10.302-10.301v-16.086c0-5.69 4.612-10.302 10.302-10.302h491.396c5.69 0 10.302 4.612 10.302 10.302v16.086c0 5.689-4.612 10.301-10.302 10.301z" fill="#fd4755"/></g><g><path d="m54.085 378.453v-16.086c0-5.69 4.612-10.302 10.302-10.302h-54.085c-5.69-.001-10.302 4.612-10.302 10.301v16.086c0 5.69 4.612 10.302 10.302 10.302h54.085c-5.69 0-10.302-4.612-10.302-10.301z" fill="#fb2b3a"/></g></g></svg>