<svg id="Capa_1" enable-background="new 0 0 512 512" height="512" viewBox="0 0 512 512" width="512" xmlns="http://www.w3.org/2000/svg"><g><g><g><g><path d="m46.492 310.539c11.945 10.144 24.978 18.987 38.777 26.3h106.933l-1-.636c-1.67.042-3.343.072-5.022.072-30.324 0-59.343-6.894-86.25-20.49-16.195-8.183-31.244-18.767-44.552-31.21l-10.268 13.598c-2.895 3.834-2.28 9.256 1.382 12.366z" fill="#017b4e"/><path d="m55.379 284.575-10.269 13.598c-2.896 3.834-2.28 9.256 1.382 12.366 6.15 5.222 12.594 10.092 19.274 14.599.299-.811.72-1.591 1.267-2.315l13.748-18.205c-8.993-5.959-17.51-12.665-25.402-20.043z" fill="#026841"/><path d="m171.611 336.839h20.592l-2.898-1.844c-9.137-5.813-17.902-12.269-26.05-19.189-3.564-3.027-4.156-8.311-1.347-12.031l1.792-2.373c-34.089-4.856-64.674-20.579-88.136-43.555l-20.684 27.388c13.429 12.644 28.655 23.386 45.051 31.671 22.565 11.402 46.62 18.071 71.68 19.933z" fill="#fff"/><path d="m100.873 278.012c-9.118-5.857-17.601-12.615-25.31-20.165l-20.683 27.388c7.866 7.406 16.353 14.154 25.326 20.143z" fill="#eaf6ff"/><path d="m246.695 191.501-56.906-75.354c-1.809-2.395-5.407-2.395-7.216 0l-107.462 142.299c23.359 23.056 53.857 38.891 87.881 43.893z" fill="#fd4755"/><path d="m100.345 278.711 104.151-137.915c.686-.908 1.629-1.468 2.633-1.688l-17.341-22.962c-1.809-2.395-5.407-2.395-7.216 0l-107.461 142.3c7.681 7.581 16.139 14.373 25.234 20.265z" fill="#fb2b3a"/></g></g><g><g><g><path d="m437.528 336.839c9.703-6.065 18.975-12.85 27.713-20.271 3.967-3.369 4.633-9.242 1.497-13.395l-11.193-14.822c-14.398 13.45-30.676 24.893-48.191 33.743-12.311 6.221-25.034 11.13-38.095 14.745z" fill="#017b4e"/><path d="m162.606 316.568c8.738 7.42 18.01 14.205 27.713 20.271h68.27c-13.061-3.615-25.784-8.524-38.095-14.745-17.515-8.85-33.793-20.293-48.191-33.743l-11.193 14.822c-3.137 4.153-2.471 10.026 1.496 13.395z" fill="#017b4e"/><path d="m172.303 288.351-11.193 14.822c-3.137 4.153-2.47 10.026 1.497 13.395 5.524 4.691 11.263 9.127 17.188 13.288l16.663-22.065c-8.507-5.872-16.593-12.376-24.155-19.44z" fill="#026841"/></g><path d="m253.819 336.839h120.21c11.393-3.454 22.517-7.912 33.325-13.373 17.761-8.974 34.254-20.611 48.801-34.307l-22.373-29.626c-30.894 30.269-73.19 48.942-119.858 48.942s-88.964-18.673-119.858-48.942l-22.373 29.626c14.547 13.696 31.04 25.333 48.801 34.307 10.808 5.461 21.932 9.919 33.325 13.373z" fill="#fff"/><path d="m217.787 279.999c-8.658-5.884-16.755-12.531-24.18-19.86l-21.915 29.019c7.534 7.094 15.594 13.629 24.078 19.534z" fill="#eaf6ff"/><path d="m310.016 105.994-116.408 154.145c30.932 30.532 73.419 49.384 120.316 49.384s89.383-18.852 120.316-49.384l-116.408-154.145c-1.96-2.594-5.857-2.594-7.816 0z" fill="#fb2b3a"/><path d="m333.512 126.758-15.681-20.764c-1.959-2.595-5.857-2.595-7.816 0l-116.407 154.145c7.425 7.329 15.522 13.976 24.18 19.86z" fill="#e41f2d"/></g></g></g><g><path d="m56.183 368.249 21.831 34.868c1.883 3.008 5.182 4.835 8.732 4.835h338.509c3.549 0 6.848-1.827 8.732-4.835l21.831-34.868z" fill="#fdb441"/><path d="m124.372 403.117-21.205-33.868h-46.358l21.205 33.868c1.883 3.008 5.182 4.835 8.732 4.835h46.358c-3.549 0-6.848-1.827-8.732-4.835z" fill="#fe9901"/><path d="m495.295 369.249h-478.59c-9.226 0-16.705-7.479-16.705-16.705 0-9.226 7.479-16.705 16.705-16.705h478.591c9.226 0 16.705 7.479 16.705 16.705-.001 9.226-7.48 16.705-16.706 16.705z" fill="#fed402"/><path d="m44.813 352.544c0-9.226 7.479-16.705 16.705-16.705h-44.813c-9.226 0-16.705 7.479-16.705 16.705s7.479 16.705 16.705 16.705h44.813c-9.226-.001-16.705-7.479-16.705-16.705z" fill="#fac600"/></g><g fill="#6d3326"><circle cx="128.227" cy="245.742" r="7.5"/><circle cx="168.227" cy="261.742" r="7.5"/></g><g fill="#6d3326"><circle cx="168.477" cy="210.742" r="7.5"/><circle cx="208.477" cy="210.742" r="7.5"/></g><g><circle cx="189.477" cy="169.742" fill="#6d3326" r="7.5"/></g><g fill="#6d3326"><circle cx="292.227" cy="261.742" r="7.5"/><circle cx="332.227" cy="261.742" r="7.5"/><circle cx="372.227" cy="245.742" r="7.5"/></g><g fill="#6d3326"><circle cx="292.477" cy="210.742" r="7.5"/><circle cx="332.477" cy="210.742" r="7.5"/></g><g><circle cx="313.477" cy="169.742" fill="#6d3326" r="7.5"/></g><circle cx="252.227" cy="245.742" fill="#6d3326" r="7.5"/></g></svg>