<svg id="Capa_1" enable-background="new 0 0 512 512" height="512" viewBox="0 0 512 512" width="512" xmlns="http://www.w3.org/2000/svg"><g><path d="m295.985 298.645h10.295v16.944c2.817 2.994 4.912 6.674 5.997 10.763 1.75-4.795 4.924-8.906 9.003-11.834v-15.873h4.537c10.772 0 19.537-8.765 19.537-19.537s-8.765-19.537-19.537-19.537-19.537 8.765-19.537 19.537v4.537h-10.295c-4.143 0-7.5 3.357-7.5 7.5s3.358 7.5 7.5 7.5zm25.295-19.538c0-2.502 2.035-4.537 4.537-4.537s4.537 2.035 4.537 4.537-2.035 4.537-4.537 4.537h-4.537z" fill="#6d3326"/><path d="m313.119 332.798c0 1.078-.076 2.139-.208 3.182.04 0 .079-.003.12-.003 12.569 0 23.012 9.271 24.852 21.334 4.295-7.722 12.537-12.96 21.982-12.96.142 0 .282.008.424.011 1.129-2.922 1.754-6.093 1.754-9.413 0-14.437-11.703-26.14-26.14-26.14-10.837 0-20.133 6.595-24.096 15.99.846 2.515 1.312 5.203 1.312 7.999z" fill="#80d261"/><path d="m266.196 335.977c10.643 0 19.755 6.651 23.417 16.012 3.662-9.361 12.774-16.012 23.417-16.012.297 0 .592.012.887.023.128-1.05.202-2.116.202-3.201 0-14.437-11.703-26.14-26.14-26.14s-26.14 11.703-26.14 26.14c0 1.197.088 2.373.244 3.527 1.346-.225 2.719-.349 4.113-.349z" fill="#4fc123"/><path d="m241.607 368.291.452.296c1.401.919 2.688 1.982 3.825 3.159l.719.745.719-.745c4.221-4.372 9.886-6.779 15.953-6.779s11.732 2.407 15.953 6.779l.72.745.72-.745c3.118-3.23 7.027-5.379 11.302-6.286.237-1.414.366-2.863.366-4.344 0-14.437-11.703-26.14-26.14-26.14-11.318 0-20.953 7.194-24.589 17.257z" fill="#80d261"/><path d="m296.62 364.967c7.123 0 13.862 3.464 18.025 9.265l.299.417h20.454c2.393-3.948 3.771-8.579 3.771-13.532 0-14.437-11.703-26.14-26.14-26.14s-26.14 11.703-26.14 26.14c0 1.994.231 3.933.654 5.799 2.817-1.267 5.888-1.949 9.077-1.949z" fill="#68ca44"/><path d="m385.492 374.648c.334-1.668.511-3.392.511-5.158 0-14.437-11.703-26.14-26.14-26.14s-26.14 11.703-26.14 26.14c0 1.766.178 3.491.511 5.158z" fill="#4fc123"/><g><path d="m242.608 469.218v-258.546c0-26.266-15.014-49.014-36.924-60.16-5.166-2.628-8.404-7.947-8.404-13.743v-70.837c-13.94-3.886-28.658-4.03-42.672-.419l-1.626.419v70.838c0 5.796-3.238 11.115-8.404 13.743-21.91 11.146-36.924 33.893-36.924 60.16v258.546h134.954z" fill="#3e5690"/><path d="m128.258 469.218v-247.729c0-26.266 15.014-49.014 36.924-60.16 5.166-2.628 8.404-7.947 8.404-13.743v-81.654h-20.604v70.838c0 5.796-3.238 11.115-8.404 13.743-21.91 11.146-36.924 33.893-36.924 60.16v258.546h20.604z" fill="#2e3e70"/><g><path d="m197.28 65.932v-60.781c0-2.845-2.306-5.151-5.151-5.151h-33.996c-2.845 0-5.151 2.306-5.151 5.151v60.781z" fill="#ffbd86"/></g><g><path d="m178.736 0h-20.604c-2.845 0-5.151 2.306-5.151 5.151v60.781h20.604v-60.781c.001-2.845 2.307-5.151 5.151-5.151z" fill="#f6a96c"/></g></g><g><path d="m143.71 398.165h62.841c2.845 0 5.151-2.306 5.151-5.151v-148.346c0-2.845-2.306-5.151-5.151-5.151h-62.841c-2.845 0-5.151 2.306-5.151 5.151v148.346c0 2.845 2.306 5.151 5.151 5.151z" fill="#fedf74"/></g><path d="m318.799 387.145c0 6.065-2.408 11.731-6.78 15.953l-.745.72.745.72c4.372 4.221 6.78 9.886 6.78 15.952s-2.408 11.731-6.78 15.952l-.745.72.745.72c4.372 4.222 6.78 9.888 6.78 15.953 0 5.97-2.375 11.393-6.225 15.384h152.981v-33.109c0-1.676-.817-3.246-2.191-4.207-5.001-3.499-8.276-9.293-8.276-15.861 0-6.567 3.275-12.362 8.276-15.861 1.374-.961 2.191-2.531 2.191-4.207v-17.174c0-2.845-2.306-5.151-5.151-5.151h-146.202c2.879 3.741 4.597 8.42 4.597 13.496z" fill="#fed402"/><path d="m388.617 469.218c2.298-3.184 3.667-7.082 3.667-11.308 0-10.695-8.67-19.364-19.364-19.364s-19.364 8.67-19.364 19.364c0 4.226 1.369 8.124 3.667 11.308z" fill="#fe9901"/><g><path d="m366.116 378.359c0 10.695 8.67 19.364 19.364 19.364s19.364-8.67 19.364-19.364c0-1.628-.223-3.2-.601-4.71h-37.527c-.377 1.51-.6 3.082-.6 4.71z" fill="#fe9901"/></g><g><path d="m179.919 469.218h34.059c-3.85-3.991-6.225-9.414-6.225-15.384 0-6.066 2.408-11.731 6.78-15.953l.745-.72-.745-.72c-4.372-4.221-6.779-9.886-6.779-15.952s2.408-11.731 6.779-15.952l.745-.72-.745-.72c-4.372-4.222-6.78-9.887-6.78-15.953 0-5.433 1.967-10.413 5.222-14.274-3.52-2.16-7.658-3.409-12.09-3.409-12.801 0-23.178 10.377-23.178 23.178 0 6.548 2.719 12.457 7.085 16.672-4.366 4.215-7.085 10.124-7.085 16.672s2.719 12.457 7.085 16.672c-4.366 4.215-7.085 10.124-7.085 16.672-.001 3.54.795 6.891 2.212 9.891z" fill="#fed2a4"/></g><g><path d="m212.6 469.218h101.351c3.636-4.093 5.848-9.479 5.848-15.384 0-6.548-2.719-12.457-7.085-16.672 4.366-4.215 7.085-10.124 7.085-16.672s-2.719-12.457-7.085-16.672c4.366-4.215 7.085-10.124 7.085-16.672 0-12.801-10.377-23.178-23.178-23.178-6.548 0-12.457 2.719-16.672 7.085-4.215-4.366-10.124-7.085-16.672-7.085s-12.457 2.719-16.672 7.085c-4.215-4.366-10.124-7.085-16.672-7.085-12.801 0-23.178 10.377-23.178 23.178 0 6.548 2.719 12.457 7.085 16.672-4.366 4.215-7.085 10.124-7.085 16.672s2.719 12.457 7.085 16.672c-4.366 4.215-7.085 10.124-7.085 16.672-.002 5.905 2.21 11.291 5.845 15.384z" fill="#ffbd86"/><g><g><circle cx="242.341" cy="401.648" fill="#c57a44" r="7.726"/></g><g><circle cx="284.21" cy="401.648" fill="#c57a44" r="7.726"/></g><g><circle cx="242.341" cy="439.33" fill="#c57a44" r="7.726"/></g><g><circle cx="284.21" cy="439.33" fill="#c57a44" r="7.726"/></g></g></g><g><g><g><path d="m100.154 363.813v77.138c2.466-.319 4.969-.492 7.5-.492s5.034.173 7.5.492v-77.138c-2.481.252-4.982.39-7.5.39-2.517 0-5.019-.138-7.5-.39z" fill="#b3dafe"/></g><path d="m159.045 469.218c-10.228-17.781-29.406-29.758-51.391-29.758s-41.163 11.978-51.391 29.758z" fill="#eaf6ff"/><path d="m90.042 469.218c7.498-13.032 19.805-22.942 34.501-27.307-5.353-1.59-11.019-2.451-16.889-2.451-21.985 0-41.163 11.978-51.391 29.758z" fill="#d8ecfe"/><g><path d="m165.971 220.974h-116.634c-2.44 0-4.545 1.712-5.043 4.1l-10.317 49.521c-9.736 46.734 25.939 90.607 73.676 90.607 47.737 0 83.413-43.874 73.676-90.608l-10.317-49.521c-.496-2.387-2.601-4.099-5.041-4.099z" fill="#eaf6ff"/></g><g><path d="m73.207 274.596 10.317-49.521c.498-2.389 2.603-4.1 5.043-4.1h-39.23c-2.44 0-4.545 1.712-5.043 4.1l-10.317 49.521c-9.736 46.734 25.939 90.607 73.676 90.607 6.817 0 13.387-.898 19.615-2.568-37.384-10.024-62.407-47.979-54.061-88.039z" fill="#d8ecfe"/></g><g><path d="m107.654 365.203c45.565 0 80.109-39.975 74.695-84.253h-149.39c-5.414 44.278 29.13 84.253 74.695 84.253z" fill="#fd4755"/></g><g><path d="m72.157 280.95h-39.198c-5.414 44.278 29.13 84.253 74.695 84.253 6.813 0 13.376-.9 19.599-2.568-35.4-9.488-59.701-44.027-55.096-81.685z" fill="#fb2b3a"/></g></g><g><path d="m497.062 512h-482.124c-2.845 0-5.151-2.306-5.151-5.151v-33.481c0-2.845 2.306-5.151 5.151-5.151h482.125c2.845 0 5.151 2.306 5.151 5.151v33.481c-.001 2.845-2.307 5.151-5.152 5.151z" fill="#d88a55"/></g><g><path d="m63.356 506.849v-33.481c0-2.845 2.306-5.151 5.151-5.151h-53.569c-2.845 0-5.151 2.306-5.151 5.151v33.481c0 2.845 2.306 5.151 5.151 5.151h53.569c-2.845 0-5.151-2.306-5.151-5.151z" fill="#c57a44"/></g></g><g><circle cx="427.329" cy="402.286" fill="#fe9901" r="7.726"/></g><g><circle cx="413.937" cy="436.282" fill="#fe9901" r="7.726"/></g><g><circle cx="345.705" cy="410.807" fill="#fe9901" r="7.726"/></g></g></svg>